<svg xmlns="http://www.w3.org/2000/svg" width="651" height="478.51" viewBox="0 0 651 478.51">
  <defs>
    <style>
      .cls-1 {
        fill: #fff;
      }

      .cls-2, .cls-3 {
        fill: #1e2833;
      }

      .cls-3 {
        stroke: #1e2833;
        stroke-miterlimit: 10;
      }
    </style>
  </defs>
  <g id="cow-head" transform="translate(0.006)">
    <g id="Layer_3" data-name="Layer 3" transform="translate(-0.006)">
      <path id="Path_1" data-name="Path 1" class="cls-1" d="M644.973,113.389c0-6.67-20.01-21.677-41.687-28.347s-71.385,1.667-71.7,1.667h0C488.23,115.056,502.47,102,493.232,105.051c-17.692,5.836-32.7-17.509-63.364-50.024-15.674-16.675-42.1-32.316-66.049-41.687h0C350.913,4.919,337.439,0,323.8,0h-.984c-11.356.233-22.444,4.019-33.15,10.522h0C264.437,19.793,234.122,37.2,216.3,55.027c-17.509,17.509-20.844,27.513-40.853,45.856-7.17,6.57-30.015,6.67-60.029-11.672h0c-.283,0-50.908-10.822-72.535-4.169S3.643,107.552,3.643,114.222s-3.335,15.007,0,31.682,100.883,72.535,109.22,67.533c0,0,23.345-3.335,48.357-33.35h0c.484,0,17.609,1.367,26.2,38.452h0a80.273,80.273,0,0,0,1.884,19.643h0c.1,2.3.2,4.686.25,7.17l1.134-2.068a344.406,344.406,0,0,1,12.223,80.206c.283,8.771.183,15.874,0,20.143h0c2.451,8.838,10.772,22.144,15.774,34.033,4.536,10.789,6.4,22.611,15.207,36.051l.634.967L240.359,451h0c.5,0,6.753,0,21.344-2.685h0c17.892,17.692,39.119,30.6,61.964,30.181,23.345-.434,44.738-12.423,62.4-29.848h0c10.972,2.2,18.426,4.819,19.193,5.569h0c0-1.668.834-15.591.834-30.015h0c14.607-21.677,24.229-46.406,26.68-67.4,1.134-9.688.6-17.492,3.335-36.685a345.613,345.613,0,0,1,19.693-75.7l.5.917v-2.4h0c.6-1.567,1.084-2.8,1.4-3.668,3.685-10,5-22.561,4.2-36.685h0c8.554-26.463,22.744-22.494,22.995-22.494h0C509.907,210.1,537.22,210.92,537.22,210.92c8.337,5,98.381-45.022,101.716-61.7S644.973,120.059,644.973,113.389Z" transform="translate(1.453)"/>
      <path id="Path_2" data-name="Path 2" class="cls-2" d="M90.131,86.834c-54.943-29.714-76.7-1.667-78.372,10C5.824,138.409,53.88,126.62,64.152,126.12a2,2,0,0,1,2.051,1.667c3.452,22.578,22.044,20.477,28.9,18.893a2.018,2.018,0,0,1,2.451,1.984c-.117,24.112,20.01,25.663,20.01,25.663,9.171.834,33.766-17.509,43.354-25.479,1.434-1.2,3.118-.717,3.335,1.134a2,2,0,0,1-.45,1.551c-10,11.672-27.413,30.348-50.391,33.633C93.566,188,28.368,148.331,9.559,127.771c-16.141-17.592-6.97-45.105-6.97-45.105,29.1-45.322,105.885-27.513,113.172-25.012.15,0,24.2,12.239,35.434,16.158a14.124,14.124,0,0,0,9.755-.183l15.674-6.02a9.539,9.539,0,0,0,3.335-2.168l21.294-21.294a2.018,2.018,0,0,1,3.452,1.667l-.233,2.618a2.084,2.084,0,0,1-.734,1.434C192.5,58.637,187.279,129.355,166,131.022c-6.57.5-16.225-3.435-26.463-9.171-1.667-.95,3.952-6.67,10.622-8.337,1.968-.5-19.243,3.2-20.977,2.084-3.6-2.3-2.268-1.334-5.7-3.752-2.384-1.667,1.667-10,13.34-11.672,3.335-.467-23.078,3.135-25.012,1.667-2.485-1.884-7.72-6.67-10-8.337-1.918-1.384-1.667-5,15.007-8.337" transform="translate(0.006 29.056)"/>
      <path id="Path_3" data-name="Path 3" class="cls-2" d="M381.123,86.854c54.943-29.715,79.205,2.6,81.706,6.67a25.824,25.824,0,0,1,.884,2.935c3.985,31.032-46.339,30.181-56.694,29.681a1.984,1.984,0,0,0-2.034,1.667c-3.468,22.578-22.061,20.477-28.914,18.893a2.018,2.018,0,0,0-2.451,1.984c.117,24.112-20.093,25.663-20.093,25.663-9.521.834-33.766-17.509-43.354-25.479-1.434-1.2-3.118-.717-3.335,1.134a2,2,0,0,0,.45,1.551c10,11.672,27.413,30.348,50.391,33.633,19.843,2.835,82.44-39.5,103.867-57.395,4.619-3.869,6.67-9.521,8.8-15.174,7.037-19.143-1.784-30.015-1.784-30.015C439.435,37.28,362.331,53.421,355.394,57.59c-.15,0-26.413,10.889-35.434,16.158-4.569,2.668-20.994,1.4-28.747-8.337L270.019,44.117a2.018,2.018,0,0,0-3.452,1.667L266.8,48.4a2.151,2.151,0,0,0,.734,1.434c11.222,8.821,16.441,79.539,37.718,81.206,6.57.5,16.225-3.435,26.463-9.171,1.667-.95-3.952-6.67-10.622-8.337-1.968-.5,19.243,3.2,20.977,2.084,3.6-2.3,2.268-1.334,5.7-3.752,2.384-1.667-1.667-10-13.34-11.672-3.335-.467,23.078,3.135,25.012,1.667,2.484-1.884,7.72-6.67,10-8.337,1.918-1.384,1.668-5-15.007-8.337" transform="translate(177.927 29.036)"/>
      <path id="Path_4" data-name="Path 4" class="cls-3" d="M266.618,281.032c25.012-5,26.68-31.482,26.68-31.682S294.966,216,266.618,216H183.245c-11.672,0-25.012,12.673-25.012,31.682,0,20.01,20.81,31.682,22.444,32.482h0c-15.991,8.021-32.716,24.445-34.017,25.729h0l18.209-1.667a346.287,346.287,0,0,1,36.685-10c16.675-3.335,46.689,0,46.689,0a288.693,288.693,0,0,1,41.687,10h0l16.525,3.335h0c-11.406-11.322-38.352-25.713-39.853-26.546Zm-65.332-23.345a7.287,7.287,0,0,1-4.4,4.786c-5.153,2.018-15.891,4.285-22.061-8.054-4.619-9.238-4.119-15.408-2.751-19.076a9.138,9.138,0,0,1,7.1-5.7c4.3-.75,11.139-.15,17.325,8.1,6.5,8.588,5.97,15.858,4.786,19.943Zm53.359,4.786a7.32,7.32,0,0,1-4.369-4.769c-1.184-4.019-1.668-11.289,4.769-20.01,6.2-8.254,13.04-8.854,17.342-8.1a9.188,9.188,0,0,1,7.1,5.7c1.367,3.668,1.868,9.838-2.768,19.076-6.22,12.323-16.958,9.988-22.127,8.037Z" transform="translate(97.903 144.176)"/>
      <path id="Path_5" data-name="Path 5" class="cls-3" d="M158.6,275.67c1.084,1.067,18.609,16.675,31.682,16.675,13.34,0,23.145-3.335,30.015-3.335s16.675,3.335,28.347,3.335c4.836,0,30.015-16.675,30.015-16.675-1.951-.584-34.017-6.67-55.027-6.67h-8.337S181.928,269,158.6,275.67Z" transform="translate(105.873 179.552)"/>
      <path id="Path_6" data-name="Path 6" class="cls-2" d="M202.232,206.514c-1.134-33.45-5.619-51.125-16.792-67.716a100.449,100.449,0,0,0-44.071-35.667,11.022,11.022,0,0,1-6.02-6.22c-2.4-6.186-5.97-17.409-4.819-25.462,1.517-10.572-9.288,56.844-20.01,69.634a10.772,10.772,0,0,0-2.251,8.738c2.268,13.89,7.254,45.289,7.254,51.692,0,8.187,14.474,79.105,16.575,94.279a11.221,11.221,0,0,0,.367,1.667c4.2,14.007,7.47,25.512,11.155,33.75h0l20.21,37.051c3.1-8.337,8.337-21.777,8.337-38.269C172.218,298.226,203.616,247.034,202.232,206.514Zm-68.367-38.352c-2.651-.884-7.9-9.688-9.521-12.489h0c1.667,2.384,6.97,9.2,11.105,9.2,4.736,0,12.456-4.469,13.34-5h0C148.689,163.277,138.818,169.83,133.865,168.162Zm-1.667-20.01a3.335,3.335,0,1,1,3.335,3.335A3.335,3.335,0,0,1,132.2,148.152Zm15.007-1.667c-3.952-2.968-18.926-7.354-20.227-7.737h0c5.369-3.935,19.309,1.067,23.562,4.4,7.7,6.153,11.139,25.112,11.672,27.98h-.1C160.945,168.5,153.358,151.1,147.205,146.485Z" transform="translate(72.162 46.943)"/>
      <path id="Path_7" data-name="Path 7" class="cls-2" d="M255.172,329.888c0,16.491,5.2,30.015,8.337,38.269h0l20.227-36.968h0c3.685-8.237,6.953-19.743,11.155-33.75a13.89,13.89,0,0,0,.367-1.668c2.1-15.174,16.575-86.092,16.575-94.279,0-6.453,5-37.852,7.237-51.692a10.772,10.772,0,0,0-2.234-8.688c-10.722-12.79-21.527-80.206-20.01-69.634,1.151,8.054-2.468,19.276-4.819,25.462a11.005,11.005,0,0,1-6,6.17,100.415,100.415,0,0,0-44.055,35.667c-11.189,16.675-15.658,34.267-16.792,67.716C223.774,247.014,255.172,298.206,255.172,329.888Zm23.345-170h0c.817.484,8.537,5,13.34,5,4.119,0,9.388-6.82,11.105-9.2h.083c-1.668,2.8-6.87,11.672-9.521,12.489C288.555,169.81,278.684,163.256,278.517,159.888Zm13.34-8.337a3.294,3.294,0,1,0,0-.083Zm-26.546,19.676h-.083c.484-2.868,3.919-21.827,11.672-27.98,4.235-3.335,18.192-8.337,23.561-4.486h0c-1.284.384-16.258,4.769-20.21,7.737-6.236,4.586-13.807,21.977-14.941,24.645Z" transform="translate(150.269 46.963)"/>
      <path id="Path_8" data-name="Path 8" class="cls-2" d="M192.352,22.2s-5.9.233-9.888,16.858a45.638,45.638,0,0,0,.25,23.445C183.915,45.061,186.282,39.458,192.352,22.2Z" transform="translate(120.861 14.818)"/>
      <path id="Path_9" data-name="Path 9" class="cls-2" d="M193.15,5.5,186,7.7c-7.153,2.2-19.276,13.757-19.276,13.757C174.424,15.955,189.281,8.168,193.15,5.5Z" transform="translate(111.293 3.671)"/>
      <path id="Path_10" data-name="Path 10" class="cls-2" d="M223.871,52.1s0-3.335-3.468-10a85.137,85.137,0,0,0-5.7-10.222A58.512,58.512,0,0,0,223.871,52.1Z" transform="translate(143.318 21.273)"/>
      <path id="Path_11" data-name="Path 11" class="cls-2" d="M197.944,8.055c-3.185.267-7.987,1.667-14.874,5.853A28.431,28.431,0,0,0,169.73,32.6c4.852-4.235,8.337-7.5,11.772-10.338C167.6,44.106,171.714,88.41,171.714,88.41c6.67-48.357,18.426-60.78,23.912-63.981a13.056,13.056,0,0,0,5-5l3.452-6.537S206.148,4.269,197.944,8.055Z" transform="translate(113.302 4.735)"/>
      <path id="Path_12" data-name="Path 12" class="cls-2" d="M221.516,30.733c4.419,6.57,5.97,11.822,11.856,17.592,0,0-7.754-15.958-10-23.095a76.854,76.854,0,0,0-2.668-7.337c1.768,1.151,3.668,2.435,5.986,3.935a31.432,31.432,0,0,0-10.522-11.022,21.777,21.777,0,0,0-11.522-3.335c-6.37-2.151-4.7,2.968-4.7,2.968l2.751,3.869a9.238,9.238,0,0,0,3.952,2.951c4.252,1.851,13.44,14.674,7.053,44.889C213.679,62.181,221.182,45.19,221.516,30.733Z" transform="translate(133.334 4.635)"/>
    </g>
  </g>
</svg>
