<svg id="cow-thristy" xmlns="http://www.w3.org/2000/svg" width="431.955" height="413.794" viewBox="0 0 431.955 413.794">
  <defs>
    <style>
      .cls-1 {
        fill: #7fb7d6;
      }

      .cls-2 {
        fill: #dd534a;
      }

      .cls-3 {
        fill: #40403f;
        opacity: 0.1;
      }

      .cls-4 {
        fill: #fff;
      }

      .cls-5, .cls-6 {
        fill: #1e2833;
      }

      .cls-6, .cls-7 {
        stroke: #1e2833;
        stroke-miterlimit: 10;
      }

      .cls-7 {
        fill: none;
        stroke-width: 1.5px;
      }

      .cls-8 {
        fill: #f0efef;
      }

      .cls-9 {
        fill: #e87272;
      }

      .cls-10 {
        fill: #e26d6d;
      }
    </style>
  </defs>
  <g id="Layer_2" data-name="Layer 2" transform="translate(6.907 340.623)">
    <path id="Path_76" data-name="Path 76" class="cls-1" d="M322.829,272s18.784,33.261,19.949,54.324c.551,10.507-7.514,18.847-19.962,18.847-11.4,0-15.929-7.326-17.72-12.523a21.288,21.288,0,0,1-.927-8.866C305.172,313.463,310.131,294.453,322.829,272Z" transform="translate(-298.522 -272)"/>
    <path id="Path_77" data-name="Path 77" class="cls-2" d="M304.982,288.272l19.573,19.085,19.636-20.137,5.247,5.122L329.8,312.479l19.586,19.085-5.272,5.4-19.573-19.085-19.636,20.149L299.66,332.9l19.624-20.137L299.71,293.682Z" transform="translate(-299.66 -268.16)"/>
  </g>
  <g id="Layer_3" data-name="Layer 3" transform="translate(0)">
    <path id="Path_78" data-name="Path 78" class="cls-3" d="M359.458,84.812v23.794l-3.757,7.514-8.766,7.514-33.812,1.252-7.514-6.261-10.019-10.018L285.573,94.83,273.05,77.3l3.757-8.766L289.329,51l28.8,6.261,33.812,13.775Z" transform="translate(-269.449 12.867)"/>
    <path id="Path_79" data-name="Path 79" class="cls-4" d="M4.264,78.894c0-5.009,6.261-13.775,22.541-18.784s26.549.589,26.787.626h0c32.56,21.289,21.865,11.484,28.8,13.775,13.287,4.383,3.268-10.644,26.3-35.064,11.772-12.523,15.328-24.883,33.323-31.933,0,0,17.532-7.514,28.8-7.514l36.316,3.757c20.037,7.514,46.335,18.784,61.988,35.69C281.759,53.1,284.777,60.11,299.8,73.885c5.385,4.934,22.541,5.009,45.083-8.766h0c.213,0,38.232-8.127,54.475-3.131S428.791,78.894,428.791,83.9s2.5,11.271,0,23.794-75.764,54.475-82.025,50.718c0,0-17.532-2.5-36.316-25.046h0c-.363,0-13.224,1.027-19.673,28.878h0A60.288,60.288,0,0,1,289.36,177h0c-.075,1.728-.15,3.519-.188,5.385l-.852-1.553a258.653,258.653,0,0,0-9.167,60.223c-.213,6.587-.138,11.922,0,15.128h0c-1.841,6.637-8.09,16.63-11.847,25.559-3.406,8.1-4.809,16.981-11.421,27.074l-.476.726-25.472,19.035c-29.066,13.3-69.552,14.552-86.671,15.8-50.092,3.757-49.491-11.083-52.6-25.046-5.009-22.541-4.483-61.174,0-70.128,7.514-15.028,5.948-54.9,2.5-63.867,0,0-5.009-15.027-6.261-28.8-1.878-20.675,1.929-25.722,1.741-25.672h0c-7.99,1.866-45.558,5.623-45.558,5.623-6.261,3.757-37.569-23.794-40.073-36.316S4.264,83.9,4.264,78.894Z" transform="translate(-0.663)"/>
    <path id="Path_80" data-name="Path 80" class="cls-5" d="M86.052,74.56c41.263-22.316,57.605-1.252,58.858,7.514,4.458,31.22-31.633,22.366-39.347,21.99a1.5,1.5,0,0,0-1.54,1.252c-2.592,16.956-16.555,15.378-21.7,14.188a1.515,1.515,0,0,0-1.841,1.49c.088,18.108-15.027,19.273-15.027,19.273-6.888.626-25.359-13.149-32.56-19.135-1.077-.9-2.342-.539-2.5.852a1.5,1.5,0,0,0,.338,1.165c7.514,8.766,20.588,22.792,37.844,25.259,14.9,2.129,63.867-27.663,77.993-43.1,12.122-13.212,5.235-33.875,5.235-33.875C129.945,37.391,72.277,50.766,66.8,52.607c-.113,0-18.171,9.192-26.611,12.135a10.607,10.607,0,0,1-7.326-.138L21.1,60.083a7.164,7.164,0,0,1-2.5-1.628L2.6,42.463A1.515,1.515,0,0,0,.007,43.716l.175,1.966a1.565,1.565,0,0,0,.551,1.077C9.161,53.433,13.081,106.568,29.06,107.8c4.934.376,12.185-2.58,19.874-6.888,1.252-.714-2.968-5.009-7.977-6.261-1.478-.376,14.451,2.4,15.754,1.565,2.7-1.728,1.7-1,4.283-2.818,1.791-1.252-1.252-7.514-10.018-8.766-2.5-.351,17.332,2.354,18.784,1.252,1.866-1.415,5.8-5.009,7.514-6.261,1.44-1.039,1.252-3.757-11.271-6.261" transform="translate(278.209 10.596)"/>
    <path id="Path_81" data-name="Path 81" class="cls-5" d="M319.4,67.051c-35.064-22.541-41.326,8.553-41.326,8.766-1.816,14.188,3.757,21.289,11.271,27.55,1.252,1.027,5.885,1.853,7.514,2.5,6.261,2.5,7.514,11.271,11.27,12.523s11.271-5.009,17.532,0c16.28,13.024,27.55-5.009,27.55-5.009,3.757,7.514-9.042,16.28-26.3,18.784-14.9,2.129-31.307-8.766-48.839-26.3-3.206-3.206-9.167-19.348-10.018-23.794-5.009-26.3,8.766-32.56,8.766-32.56,25.046-10.018,37.569-2.5,42.778.589.113,0,18.785,12.36,26.612,12.135,7-.2,18.271-20.237,18.271-20.237,1-1-5.009,26.3-7.514,45.082-.526,3.92-4.671,9.179-14.263,5.009-5.773-2.5,4.245-3.757,6.75-7.514L338.8,85.648a3.944,3.944,0,0,1-3.193-1.14l-3.682-3.682,7.514-5.009H328.167l-5.009-5.009,6.262-2.5Z" transform="translate(-266.961 10.591)"/>
    <path id="Path_82" data-name="Path 82" class="cls-6" d="M219.583,247.55c-7.877-6.324-10.206-16.906-10.219-22.929a.591.591,0,0,1,0-.15c.225-1.465,4.133-24.971,16.28-24.971H283.25c8.766,0,18.784,9.517,18.784,23.793,0,12.836-11.4,21.064-15.491,23.593-.751.476-.726,1.177,0,1.59,9.18,5.009,18.409,13.174,22.291,16.818a.927.927,0,0,1-.726,1.59l-11.033-1h-.2a259.472,259.472,0,0,0-27.463-7.514c-12.523-2.5-35.064,0-35.064,0-16.28,2.5-18.784,3.757-18.784,3.757l-6.537,1.866a.889.889,0,0,1-.989-1.34c2.229-3.419,7.063-10.394,11.471-13.6a.889.889,0,0,0,.075-1.5Z" transform="translate(-137.514 50.332)"/>
    <path id="Path_83" data-name="Path 83" class="cls-6" d="M286.2,265.247c-.626.614-8.766,7.514-17.532,10.018a92.882,92.882,0,0,1-18.784,2.5c-3.857,0-15.666-1.252-21.289-5.009-3.757-2.5-5.009-10.018-5.009-10.018a50.091,50.091,0,0,1,17.532,0c7.514,1.252,20.037-1.252,20.037-1.252A104.237,104.237,0,0,1,286.2,265.247Z" transform="translate(-134.257 65.972)"/>
    <path id="Path_84" data-name="Path 84" class="cls-5" d="M194.434,21.57s5.16.2,8.641,14.076a36.427,36.427,0,0,1-.213,19.573C201.81,40.655,199.744,35.984,194.434,21.57Z" transform="translate(-15.85 5.442)"/>
    <path id="Path_85" data-name="Path 85" class="cls-5" d="M177.72,3l6.261,1.841c6.262,1.828,16.881,11.484,16.881,11.484C194.112,11.766,181.114,5.229,177.72,3Z" transform="translate(8.528 0.757)"/>
    <path id="Path_86" data-name="Path 86" class="cls-5" d="M233.64,49.173s0-2.805,3.018-8.365a72.642,72.642,0,0,1,5.009-8.528A48.3,48.3,0,0,1,233.64,49.173Z" transform="translate(-102.305 8.144)"/>
    <path id="Path_87" data-name="Path 87" class="cls-5" d="M186.851,5.571c2.78.225,7,1.352,13.011,4.9a23.656,23.656,0,0,1,11.659,15.6c-4.245-3.544-7.351-6.261-10.306-8.628,12.235,18.246,8.628,55.239,8.628,55.239-5.8-40.361-16.129-50.755-20.926-53.435a11.146,11.146,0,0,1-4.408-4.17l-3.018-5.46S179.738,2.415,186.851,5.571Z" transform="translate(-6.614 1.204)"/>
    <path id="Path_88" data-name="Path 88" class="cls-5" d="M226.57,24.462c-3.869,5.485-5.235,9.868-10.369,14.689,0,0,6.775-13.324,8.766-19.285.864-2.592,1.64-4.6,2.329-6.136-1.54.977-3.206,2.041-5.235,3.294a26.674,26.674,0,0,1,9.2-9.2,19.635,19.635,0,0,1,10.093-2.73c5.573-1.8,4.108,2.5,4.108,2.5l-2.4,3.243a8.053,8.053,0,0,1-3.456,2.5c-3.757,1.54-11.772,12.247-6.174,37.481C233.37,50.722,226.858,36.521,226.57,24.462Z" transform="translate(-84.44 1.173)"/>
    <path id="Path_89" data-name="Path 89" class="cls-5" d="M108.121,171.731c.852-25.121,14.151-40.148,22.541-52.6,9.417-13.976,21.877-16.756,32.559-21.289,2.079-.889,11.721-9.154,12.523-11.271,1.766-4.646,11.509-10.857,10.645-16.906-1.14-7.939,6.975,42.691,15.027,52.3a8.089,8.089,0,0,1,1.691,6.524c-1.7,10.432-5.447,34.012-5.447,38.821,0,6.149-10.87,59.409-12.448,70.8a8.424,8.424,0,0,1-.275,1.252c-3.156,10.519-5.61,19.16-8.378,25.346h0l-15.178,27.763c-2.329-6.262-1.065-17.532-6.262-28.74C144.438,240.607,107.082,202.162,108.121,171.731Z" transform="translate(93.342 17.365)"/>
    <path id="Path_90" data-name="Path 90" class="cls-7" d="M185.492,212.181c1.578-5.372,16.906-21.915,15.654-30.681" transform="translate(-1.561 45.791)"/>
    <path id="Path_91" data-name="Path 91" class="cls-8" d="M239.871,208.564s4.261,3.411,2.266,13.4-9.45,11.883-14.572,9.839c-5.541-2.21-7.807-3.565-3.4-15.187C229.967,201.078,239.576,208.921,239.871,208.564Z" transform="translate(-90.721 53.579)"/>
    <path id="Path_92" data-name="Path 92" class="cls-8" d="M274.791,208s-7.514,1.252-5.773,12.861c1.465,9.793,3.582,12.185,7.025,12.185,2.5,0,8.115-2.655,6.261-13.775C281.052,211.757,279.8,209.252,274.791,208Z" transform="translate(-187.285 52.477)"/>
    <circle id="Ellipse_5" data-name="Ellipse 5" class="cls-4" cx="3.444" cy="3.444" r="3.444" transform="translate(237.154 161.546)"/>
    <path id="Path_93" data-name="Path 93" class="cls-4" d="M161.834,133s-4.02,5.147-6.261,6.262c-2.5,1.252-7.514,1.252-12.523,1.252l3.757,1.252c.463.113,7.038.088,7.514,0C156.825,141.328,160.582,138.009,161.834,133Z" transform="translate(90.973 33.555)"/>
    <path id="Path_94" data-name="Path 94" class="cls-4" d="M145.131,135.906s2.154-6.161,3.92-7.94c1.966-1.991,8.2-7.351,12.949-8.966l-6.261,1.252c-.476,0-7.1,3.531-7.514,3.757C145.995,125.261,144.705,130.759,145.131,135.906Z" transform="translate(88.303 30.023)"/>
    <path id="Path_95" data-name="Path 95" class="cls-5" d="M263.268,221.818s10.381-23.055,16.38-44.644c6.261-22.541,5.009-42.578-5.009-60.11-7.864-13.775-10.018-27.55-13.775-35.064l-3.757,25.046s-3.757,15.028-1.252,28.8c2.667,14.652,8.766,36.316,8.766,36.316S265.873,214.743,263.268,221.818Z" transform="translate(-170.854 20.688)"/>
    <circle id="Ellipse_6" data-name="Ellipse 6" class="cls-4" cx="2.141" cy="2.141" r="2.141" transform="translate(94.292 158.966)"/>
    <path id="Path_96" data-name="Path 96" class="cls-4" d="M265.05,130s2.141,3.644,3.344,4.433,4.007.889,6.675.889l-2,.889c-.251.075-3.757,0-4.007,0C267.718,135.9,265.714,133.544,265.05,130Z" transform="translate(-175.041 32.798)"/>
    <path id="Path_97" data-name="Path 97" class="cls-4" d="M276.672,130.667s-2.229-3.757-3.632-4.734-6.437-3.845-9.831-4.333l4.358.075c.325,0,5.209,1.465,5.522,1.565C274.731,123.767,276.3,127.248,276.672,130.667Z" transform="translate(-174.34 30.679)"/>
    <path id="Path_98" data-name="Path 98" class="cls-9" d="M234.506,280.413c.676-1.566,7.3-12.335,4.383-16.906a19.66,19.66,0,0,1-1.252-3.757c1.252-2.5,1.252-3.757,3.757-5.009,1.252-1.252,15.028-5.009,18.784-1.252,2.5-2.5,16.781-3.895,23.794,0,11.27,6.262,8.766,11.271,8.766,11.271-1.252,1.252-9.029-.977-9.505-.839-5.2,3.97-21.8,17.119-22.428,21.5a114.85,114.85,0,0,1-3.757,15.027c-1.878,4.383-6.888,29.429-16.906,20.663-4.22-3.682-6.261-15.027-8.14-23.167C231.438,295.5,232.628,284.8,234.506,280.413Z" transform="translate(-151.384 63.341)"/>
    <path id="Path_99" data-name="Path 99" class="cls-10" d="M260.677,280.324c.689-1.515,4.383-10.645,3.344-16.53a24.926,24.926,0,0,1-.213-4.132c0-2.5,2.5-5.009,5.009-6.261,1.252-1.252,13.775-3.757,17.532,0-17.532,7.514-23.793,48.839-20.037,67.624a46.048,46.048,0,0,1-8.14-23.167C258.01,295.351,257.546,287.212,260.677,280.324Z" transform="translate(-177.555 63.43)"/>
  </g>
</svg>
