<svg xmlns="http://www.w3.org/2000/svg" width="735.559" height="540.664" viewBox="0 0 735.559 540.664">
  <g id="cow-head" transform="translate(0.006)">
    <g id="Layer_3" data-name="Layer 3" transform="translate(-0.006)">
      <path id="Path_1" data-name="Path 1" d="M728.468,128.117c0-7.536-22.609-24.493-47.1-32.029s-80.657,1.884-81.015,1.884h0c-48.986,32.029-32.9,17.277-43.334,20.725-19.99,6.594-36.947-19.783-71.595-56.522-17.71-18.841-47.573-36.513-74.628-47.1h0C396.212,5.558,380.989,0,365.577,0h-1.112c-12.831.264-25.36,4.541-37.455,11.888h0c-28.506,10.475-62.758,30.145-82.9,50.286-19.783,19.783-23.551,31.087-46.16,51.812-8.1,7.423-33.913,7.536-67.827-13.189h0c-.32,0-57.521-12.228-81.957-4.71S3.836,121.523,3.836,129.059s-3.768,16.957,0,35.8,113.986,81.957,123.407,76.3c0,0,26.377-3.768,54.638-37.681h0c.546,0,19.9,1.545,29.6,43.447h0a90.7,90.7,0,0,0,2.129,22.194h0c.113,2.6.226,5.294.283,8.1l1.281-2.336a389.143,389.143,0,0,1,13.81,90.624c.32,9.91.207,17.936,0,22.76h0c2.77,9.986,12.171,25.02,17.823,38.454,5.125,12.19,7.235,25.548,17.183,40.734l.716,1.093,6.594,41.035h0c.565,0,7.63,0,24.116-3.033h0c20.216,19.99,44.2,34.573,70.012,34.1,26.377-.49,50.55-14.036,70.5-33.725h0c12.4,2.487,20.819,5.445,21.686,6.293h0c0-1.884.942-17.616.942-33.913h0c16.5-24.493,27.376-52.434,30.145-76.154,1.281-10.947.678-19.764,3.768-41.45a390.511,390.511,0,0,1,22.251-85.537l.565,1.036V274.49h0c.678-1.771,1.225-3.165,1.583-4.145,4.164-11.3,5.652-25.491,4.748-41.45h0c9.665-29.9,25.7-25.416,25.981-25.416h0c28.261,33.913,59.122,34.836,59.122,34.836,9.42,5.652,111.16-50.87,114.928-69.711S728.468,135.653,728.468,128.117Z" transform="translate(1.922)" fill="#fff"/>
      <path id="Path_2" data-name="Path 2" d="M101.839,92.459c-62.08-33.574-86.667-1.884-88.551,11.3-6.707,46.97,47.592,33.65,59.2,33.084a2.261,2.261,0,0,1,2.317,1.884c3.9,25.51,24.907,23.136,32.651,21.347a2.28,2.28,0,0,1,2.77,2.242c-.132,27.244,22.609,29,22.609,29,10.362.942,38.152-19.783,48.986-28.789,1.62-1.357,3.523-.81,3.768,1.281a2.261,2.261,0,0,1-.509,1.752c-11.3,13.189-30.974,34.29-56.937,38-22.42,3.2-96.088-41.619-117.34-64.85C-7.437,118.836,2.926,87.749,2.926,87.749,35.8,36.54,122.564,56.662,130.8,59.488c.17,0,27.338,13.829,40.036,18.257a15.958,15.958,0,0,0,11.022-.207l17.71-6.8a10.778,10.778,0,0,0,3.768-2.449l24.06-24.06a2.28,2.28,0,0,1,3.9,1.884l-.264,2.958a2.355,2.355,0,0,1-.829,1.62c-12.7,9.91-18.6,89.814-42.637,91.7-7.423.565-18.332-3.881-29.9-10.362-1.884-1.074,4.465-7.536,12-9.42,2.223-.565-21.742,3.617-23.7,2.355-4.07-2.6-2.562-1.507-6.443-4.239-2.694-1.884,1.884-11.3,15.073-13.188,3.768-.528-26.076,3.542-28.261,1.884-2.807-2.129-8.723-7.536-11.3-9.42-2.167-1.564-1.884-5.652,16.957-9.42" transform="translate(0.006 38.484)" fill="#1e2833"/>
      <path id="Path_3" data-name="Path 3" d="M396.005,92.486c62.08-33.574,89.493,2.939,92.319,7.536a29.17,29.17,0,0,1,1,3.316c4.5,35.063-52.358,34.1-64.058,33.536a2.242,2.242,0,0,0-2.3,1.884c-3.919,25.51-24.926,23.136-32.67,21.347a2.28,2.28,0,0,0-2.77,2.242c.132,27.244-22.7,29-22.7,29-10.758.942-38.152-19.783-48.986-28.789-1.62-1.357-3.523-.81-3.768,1.281a2.261,2.261,0,0,0,.509,1.752c11.3,13.189,30.974,34.29,56.936,38,22.421,3.2,93.148-44.634,117.359-64.85,5.219-4.371,7.536-10.758,9.948-17.145,7.951-21.629-2.016-33.913-2.016-33.913C461.891,36.472,374.772,54.71,366.934,59.42c-.17,0-29.844,12.3-40.036,18.257-5.162,3.015-23.72,1.583-32.481-9.42L270.469,44.2a2.28,2.28,0,0,0-3.9,1.884l.264,2.958a2.43,2.43,0,0,0,.829,1.62c12.68,9.967,18.577,89.87,42.618,91.754,7.423.565,18.332-3.881,29.9-10.362,1.884-1.074-4.465-7.536-12-9.42-2.223-.565,21.742,3.617,23.7,2.355,4.07-2.6,2.562-1.507,6.444-4.239,2.694-1.884-1.884-11.3-15.073-13.188-3.768-.528,26.076,3.542,28.261,1.884,2.807-2.129,8.723-7.536,11.3-9.42,2.167-1.564,1.884-5.652-16.957-9.42" transform="translate(235.66 38.457)" fill="#1e2833"/>
      <path id="Path_4" data-name="Path 4" d="M282.2,289.479c28.261-5.652,30.145-35.571,30.145-35.8S314.229,216,282.2,216H188c-13.189,0-28.261,14.319-28.261,35.8,0,22.609,23.513,35.8,25.36,36.7h0c-18.068,9.062-36.965,27.62-38.435,29.071h0l20.574-1.884a391.262,391.262,0,0,1,41.45-11.3c18.841-3.768,52.754,0,52.754,0a326.187,326.187,0,0,1,47.1,11.3h0l18.671,3.768h0c-12.887-12.793-43.334-29.052-45.029-29.994ZM208.382,263.1a8.233,8.233,0,0,1-4.974,5.407c-5.822,2.28-17.955,4.842-24.926-9.1-5.219-10.438-4.654-17.409-3.109-21.554a10.325,10.325,0,0,1,8.026-6.444c4.861-.848,12.586-.17,19.576,9.157C210.323,250.271,209.72,258.486,208.382,263.1Zm60.29,5.407a8.271,8.271,0,0,1-4.936-5.388c-1.338-4.541-1.884-12.755,5.388-22.609,7.009-9.326,14.733-10,19.594-9.157a10.381,10.381,0,0,1,8.026,6.444c1.545,4.145,2.11,11.116-3.128,21.554-7.028,13.923-19.161,11.286-25,9.081Z" transform="translate(129.669 190.959)" fill="#1e2833" stroke="#1e2833" stroke-miterlimit="10" stroke-width="1"/>
      <path id="Path_5" data-name="Path 5" d="M158.6,276.536c1.225,1.206,21.026,18.841,35.8,18.841,15.073,0,26.151-3.768,33.913-3.768s18.841,3.768,32.029,3.768c5.464,0,33.913-18.841,33.913-18.841-2.2-.659-38.435-7.536-62.174-7.536h-9.42S184.958,269,158.6,276.536Z" transform="translate(140.225 237.815)" fill="#1e2833" stroke="#1e2833" stroke-miterlimit="10" stroke-width="1"/>
      <path id="Path_6" data-name="Path 6" d="M214.46,224.2c-1.281-37.794-6.349-57.766-18.973-76.512a113.5,113.5,0,0,0-49.8-40.3,12.454,12.454,0,0,1-6.8-7.028c-2.713-6.99-6.745-19.67-5.445-28.77,1.715-11.945-10.494,64.228-22.609,78.679a12.171,12.171,0,0,0-2.543,9.873c2.562,15.694,8.2,51.171,8.2,58.406,0,9.251,16.354,89.38,18.728,106.525a12.678,12.678,0,0,0,.414,1.884c4.748,15.826,8.441,28.826,12.6,38.134h0l22.835,41.864c3.5-9.42,9.42-24.606,9.42-43.239C180.546,327.827,216.023,269.987,214.46,224.2ZM137.213,180.87c-3-1-8.93-10.946-10.758-14.112h0c1.884,2.694,7.875,10.4,12.548,10.4,5.351,0,14.074-5.049,15.073-5.652h0C153.962,175.35,142.808,182.754,137.213,180.87Zm-1.884-22.609a3.768,3.768,0,1,1,3.768,3.768A3.768,3.768,0,0,1,135.329,158.261Zm16.957-1.884c-4.465-3.354-21.384-8.309-22.854-8.742h0c6.067-4.446,21.818,1.206,26.622,4.974,8.7,6.952,12.586,28.374,13.188,31.615h-.113C167.81,181.247,159.238,161.6,152.285,156.377Z" transform="translate(95.576 62.175)" fill="#1e2833"/>
      <path id="Path_7" data-name="Path 7" d="M259.077,363.6c0,18.633,5.878,33.913,9.42,43.239h0l22.854-41.77h0c4.164-9.307,7.857-22.307,12.6-38.134a15.693,15.693,0,0,0,.414-1.884c2.374-17.145,18.728-97.274,18.728-106.525,0-7.291,5.652-42.768,8.177-58.406a12.171,12.171,0,0,0-2.525-9.816c-12.115-14.451-24.323-90.624-22.609-78.679,1.3,9.1-2.788,21.78-5.445,28.77a12.435,12.435,0,0,1-6.783,6.971,113.458,113.458,0,0,0-49.777,40.3c-12.642,18.841-17.691,38.718-18.973,76.512C223.6,269.96,259.077,327.8,259.077,363.6Zm26.377-192.081h0c.923.546,9.646,5.652,15.072,5.652,4.654,0,10.607-7.706,12.548-10.4h.094c-1.884,3.165-7.762,13.188-10.758,14.112C296.8,182.727,285.642,175.323,285.454,171.517Zm15.072-9.42a3.721,3.721,0,1,0,0-.094Zm-29.994,22.232h-.094c.546-3.241,4.428-24.662,13.189-31.615,4.785-3.768,20.555-9.42,26.622-5.068h0c-1.451.433-18.37,5.388-22.835,8.742-7.046,5.181-15.6,24.832-16.881,27.847Z" transform="translate(199.028 62.202)" fill="#1e2833"/>
      <path id="Path_8" data-name="Path 8" d="M193.819,22.2s-6.67.264-11.173,19.048a51.566,51.566,0,0,0,.283,26.49C184.286,48.031,186.961,41.7,193.819,22.2Z" transform="translate(160.077 19.626)" fill="#1e2833"/>
      <path id="Path_9" data-name="Path 9" d="M196.583,5.5,188.5,7.987c-8.083,2.487-21.78,15.544-21.78,15.544C175.424,17.313,192.211,8.515,196.583,5.5Z" transform="translate(147.404 4.862)" fill="#1e2833"/>
      <path id="Path_10" data-name="Path 10" d="M225.062,54.724s0-3.768-3.919-11.3A96.192,96.192,0,0,0,214.7,31.87a66.113,66.113,0,0,0,10.362,22.854Z" transform="translate(189.822 28.175)" fill="#1e2833"/>
      <path id="Path_11" data-name="Path 11" d="M201.608,8.179c-3.6.3-9.025,1.884-16.806,6.613a32.123,32.123,0,0,0-15.073,21.12c5.483-4.786,9.42-8.478,13.3-11.681-15.713,24.681-11.059,74.741-11.059,74.741,7.536-54.638,20.819-68.674,27.018-72.292a14.752,14.752,0,0,0,5.652-5.652l3.9-7.386S210.878,3.9,201.608,8.179Z" transform="translate(150.065 6.271)" fill="#1e2833"/>
      <path id="Path_12" data-name="Path 12" d="M224.344,33.823c4.993,7.423,6.745,13.358,13.4,19.877,0,0-8.761-18.031-11.3-26.094a86.832,86.832,0,0,0-3.015-8.29c2,1.3,4.145,2.751,6.764,4.446A35.515,35.515,0,0,0,218.3,11.308,24.606,24.606,0,0,0,205.277,7.54c-7.2-2.43-5.313,3.354-5.313,3.354l3.109,4.371a10.438,10.438,0,0,0,4.465,3.335c4.8,2.091,15.186,16.58,7.97,50.719C215.489,69.356,223.967,50.157,224.344,33.823Z" transform="translate(176.597 6.139)" fill="#1e2833"/>
    </g>
  </g>
</svg>
