<svg xmlns="http://www.w3.org/2000/svg" width="679.513" height="361.785" viewBox="0 0 679.513 361.785">
  <defs>
    <style>
      .cls-1 {
        fill: #fff;
      }

      .cls-2, .cls-5, .cls-6 {
        fill: #40403f;
      }

      .cls-3 {
        fill: #1e2833;
      }

      .cls-4 {
        fill: #f0efef;
      }

      .cls-5 {
        opacity: 0.195;
      }

      .cls-6 {
        opacity: 0.1;
      }

      .cls-7 {
        fill: #efefef;
      }

      .cls-8 {
        fill: #1f2833;
      }

      .cls-9 {
        fill: #dd534a;
      }
    </style>
  </defs>
  <g id="cow_lying_injured" transform="translate(0.003 0.025)">
    <g id="Layer_11" data-name="Layer 11">
      <path id="Path_399" data-name="Path 399" class="cls-1" d="M101.17,345.09l.71.43"/>
      <path id="Path_400" data-name="Path 400" class="cls-1" d="M595.62,114.9a90.5,90.5,0,0,0-54.16-22.11c-19.13-1-35.76-.05-37.76.26-40.84,6.27-80.9,4.43-119.76-12.76C365,71.92,345.88,68.71,324.6,68.57c-16.76-.11-78.35-10.16-95.72-4.92a111.28,111.28,0,0,1-32.56,5.17,372.144,372.144,0,0,1-50.54-4c-16.56-2.33-60.53,67.8-52.68,116.71,1.19,7.41,8.45,40.52,11.22,47.17l.73,1.81a70.1,70.1,0,0,1,2.13,6.72c4.15,15.67,8.81,19.69,31.37,32.43,9.51,5.37-30.65,19.75-24.25,35.75.42,1,6.36,15.53,13,14.87,6.28-.62,61.14,5.82,64.63,5.07,8.75-1.9,63-11.84,71.72-14,18.5-4.69-27-16.94-8.44-21.58,5.91-1.48,77.17,15.63,97.05,19.18,17.76,3.17,79.3,1.56,84,1.1,31.41-3.1,2.7,19.82,11.5,22.91,3.86,1.35,13.9-3.59,18-3.67,5-.1,10,7.33,16,6.27,9.84-1.74,10.46-10.6,16.26-9.87,5.57.71,35.12,3.29,40.7,3.79,21.31,1.91,24,5,44.6,7.51,5.44.67,11.06-1.18,16.17-3.11,2.84-1.08,6.72-4.85,6.81-7.54.3-9,.56-18.61-1.85-27.06-3.14-11,5.13-33.4,11.58-42.88,5.73-8.42,6.09-9.93,6.94-13.32C642.85,162.82,606.77,124.46,595.62,114.9ZM352.26,269.7c-.86-.13.05-.4.05-.4S352.28,269.57,352.26,269.7Z"/>
      <path id="Path_401" data-name="Path 401" class="cls-2" d="M274.27,293.27l.12-.33a2.64,2.64,0,0,0-1.18-3.22,58.74,58.74,0,0,0-22.11-6.91,18.81,18.81,0,0,0-6.64.51l-5.6,1.46s-5.34,2,.78,10.79a28.34,28.34,0,0,0,14.27,12.63l9.79,3.15a5.69,5.69,0,0,0,3.88-.17c4.23-1.73,12.62-6.56,13.84-10.53l.09-.25a2.36,2.36,0,0,0-2.21-3.18H277C273.45,297.43,273.57,295.19,274.27,293.27Z"/>
      <path id="Path_402" data-name="Path 402" class="cls-2" d="M432.49,325l-.24.31c-.89,1.13-1.11,2.53-.51,3.29a29.221,29.221,0,0,0,14.18,9.59,12.21,12.21,0,0,0,5.4.35l5-.7s5.07-1.29,4.18-10.63c-.09-1,.39-9.29-5.51-14.16l-6.23-4.33a3.65,3.65,0,0,0-3.11-.34c-4.07,1.15-12.77,4.78-15.49,8.5l-.18.23c-1.13,1.43-1,3.17.31,3.39l1.78.29C435,321,433.89,323.18,432.49,325Z"/>
      <path id="Path_403" data-name="Path 403" class="cls-3" d="M420.57,204.4c0,13.3-16.76,2.69-25.48,11.4s-15.27,14.91-28.57,14.91-19.46,16.47-28.18,7.75-2.88-10.6-2.88-23.9c0-12.72,13.07-14.37,21.12-23,8.79-9.4,1.94-35.35,15.82-35.35,12.12,0,10.5,28,19,35.35C401.49,200.41,420.57,189.92,420.57,204.4Z"/>
      <path id="Path_404" data-name="Path 404" class="cls-3" d="M535.85,143c-.65,11-3,17.27-8.83,25.4-9.74,13.54-22.72,7.09-39.82,6.08-13.67-.82-28.34,7.33-36.73-2.78s-32.88-20.57-32-35.19,12.12-20.07,33.83-25.15c9.86-2.31,23.73-9.13,37.41-8.32,16.51,1,51.22-.87,59.76,7.28C555.07,115.69,536.54,131.44,535.85,143Z"/>
      <path id="Path_405" data-name="Path 405" class="cls-3" d="M256.88,78.23c25.29,3.07,18.8,10.62,31.32,30.15,9.35,14.6,6.12,34.48,3.9,52.81-3,24.48,18.09,49.19-1.92,61.18-15,9-12.9-18.8-31.83-21.09-14.79-1.79-24.89,3.86-36-4.36-9.67-7.18-41.12,4.44-46.65-6-7.05-13.37,17.59-20.59,19.53-36.57,1.18-9.76-23.65-27.11-19.21-35.3,5.3-9.78,50.77,18.8,59.58,12.12C251.83,118.85,234.78,75.55,256.88,78.23Z"/>
      <path id="Path_406" data-name="Path 406" class="cls-3" d="M137.05,244.69c-17.13,5.44-16.88-1-21.82-16.53-2.3-7.23-11.39-25.38-4.55-28.08,9.27-3.65-.71-8.85,8.46-11.77,7.73-2.45,12.83,14.72,19.61,17.24,8.25,3.07,17.66-7.45,20.37,1.1,3.11,9.8-11.48,15.49-18.23,23.2C136.92,234.38,143.4,242.68,137.05,244.69Z"/>
      <path id="Path_407" data-name="Path 407" class="cls-3" d="M618.65,252.4s-32-21-23.83-49.1c0,0,3-7.51,9.33-3.21,4.2,2.84,9.41-1.22,8-6.2-.07-.24,4-20.22,14.94-18.07a57.763,57.763,0,0,1,1.35,11.78c.17,5.6.23,12.91.06,20.25C628.12,225.09,623.79,243.33,618.65,252.4Z"/>
      <path id="Path_408" data-name="Path 408" class="cls-4" d="M623.72,170.88s10.61,26.59,12,81c0,0,2.09,36.82,4.42,58.2,0,0,7.39-2.7,12.8-2.07,0,0-7.92-15.22-8.85-32.42,0,0-2.48-51.13-3.8-60.43,0,0,.41-21.76-3.21-41.6a67.17,67.17,0,0,0-18.74-35.41l-6.79-5.9S613.75,133.16,623.72,170.88Z"/>
      <path id="Path_409" data-name="Path 409" class="cls-3" d="M640.14,309.27a159.52,159.52,0,0,0,9.7,18.44A62.409,62.409,0,0,0,661,340.88c7,6.34,18.51,17.38,18.51,20.88,0,0-1.27-13.79-4.37-24.2A34.14,34.14,0,0,0,668,325l-15-17.24S652.36,305.58,640.14,309.27Z"/>
      <path id="Path_410" data-name="Path 410" class="cls-5" d="M102.81,224.16s8.94-55.67,29.9-80.36a90.409,90.409,0,0,1,11.63-11.18c4.25-3.51,13-14.72,15.21-36.45,0,0-6.47,19.78-31.64,37.14,0,0-25.29,24.11-35.85,26.75,0,0-.39,11.11.51,17.46.59,4.13,1.81,9.67,2.71,15.07.6,3.66,1.67,7.36,2.47,11C99.38,210.91,101,218,102.81,224.16Z"/>
      <path id="Path_411" data-name="Path 411" class="cls-6" d="M447.16,308.06c9.12-1,55.56-7.26,59.75-31.31,4.24-24.37,3.71-22,7.16-36.36.21-.88,11.76-34.52,13-30.78,1.79,5.36-16.13,20.58,2.83,67.16,2.49,6.11,11.6,17.41,26.27,25.53.81.45-61.09.19-64,.07-3.37-.14-37.76,4.45-43.33,6.31Z"/>
      <path id="Path_412" data-name="Path 412" class="cls-6" d="M288.06,294.36c.61.25,5.71,2.08,5.06,1.95-24.62-4.85-47.61-10.22-47.56-12l-17.1,8.41a3.35,3.35,0,0,1-4.16-.2,4.56,4.56,0,0,0-2.89-1.21c-5.71-.14-10.7,3-14.35,7.36a4.1,4.1,0,0,1-3.88,1.45L166,293.22c-.88-.19,1.33-.51,3.14-.92.87-.19,1.75-.52,2.64-.72l32.08-7.69c7.66-2,17.95,2.71,24.59-1.64l7.5-4.92A66.06,66.06,0,0,0,249.08,266c7.64-8.61,10.85-19.39,13.12-31,.58-3,.58-6,1.07-9l1.31-7.81c1.75-2.11-1.28,29.82-1.49,31.95-.92,9.45-9.46,31.34.63,34.09Z"/>
      <path id="Path_413" data-name="Path 413" class="cls-1" d="M38.6,42.92c-1.62,2.8-6.36,8.92-10.58,9-2.22,0-3.44-1.7-6-2.43s-5.02-5.16-7.6-6.64c-6.9-4-11.11-7.5-12.77-11.88a14.16,14.16,0,0,1-.91-6.85c.27-1.31,4-3.34,5.35-4.17C11.28,16.66,18.44,17.4,26.44,22,36.48,27.81,41.92,37.17,38.6,42.92Z"/>
      <path id="Path_414" data-name="Path 414" class="cls-3" d="M25.39,26.77C12.32,15.73,1.48,23,.58,24c0,.05,2.16.66,2.13.73-2.8,8.1,10.74,10.69,13.52,11.13a.55.55,0,0,1,.45.57c-.34,6.26,4.79,6.72,6.7,6.68a.54.54,0,0,1,.54.65c-1.39,6.47,3.95,8,3.95,8,1.6,1.49,10.11-2.85,13.07-4.43a.54.54,0,0,1,.79.59.58.58,0,0,1-.2.31c-3.36,2.58-9,6.61-15.39,6.2-5.47-.35-19.89-15.2-24.62-21.19A7,7,0,0,1,0,28.69c.18-6.64,2.16-7.93,2.16-7.93,10.34-10.52,30.56-1,31.73-.39a.21.21,0,0,1,.1.06c.54.43,5.71,4.57,8.5,6.25a3.92,3.92,0,0,0,2.62.5l4.53-.74a2.66,2.66,0,0,0,1-.4l6.93-4.53a.54.54,0,0,1,.81.61l-.22.72a.61.61,0,0,1-.27.34c-3.51,1.74-8.86,20.43-14.66,19.67-1.79-.23-4.15-1.82-6.58-3.94-.4-.35,1.43-1.56,3.31-1.63.56,0-5.33-.22-5.74-.62-.83-.82-.53-.49-1.31-1.32-.55-.58,1-2.59,4.23-2.39.91.06-6.37-.45-6.8-1s-1.7-2.22-2.22-2.79-.16-1.44,4.49-1.4"/>
      <path id="Path_415" data-name="Path 415" class="cls-3" d="M160.73,82.78c2.23,32-25.44,43.77-66.62,79.59-3.31,2.88-23.57,12.77-31.5,13.62-2.91.31,9.45-7.52,10.43-15.13,1-7.91-.3-13.61-3.89-19.09-3.82-5.84-16.47-5.06-21.36-5-10.25.08-17,3.88-23.65-.72-3.9-2.7-8.14-7.35-13.67-2.84-1.54,1.26,4.37-11.49,7.73-20.13,1.5-3.85,1.41-2.82,2.44-7.71s2.62-9.3,1.21-14.59c-.94-3.58-3.27-12.65-2.85-15.9,1.14-7.94,1.61-15,2.47-17.86C24.76,46.15,30.11,41.86,35,34.26,38.63,28.6,42.43,25,47.21,20.57,57.76,10.81,74,3.71,88.65,3.71c8.06,0,21.3,1.65,28.49,4.61s8.36,7.23,15.51,11.73C144,27.18,159.91,71,160.73,82.78Z"/>
      <path id="Path_416" data-name="Path 416" class="cls-1" d="M51,17A109,109,0,0,0,30.26,39.3c-3,4.34-2.05,4.5-.05,9.17,2.25,5.26,3.27,11.07,3.95,16.71a117.91,117.91,0,0,1-1.94,39.73c-2,8.69-5.8,22.78-15.9,25.36,3.87-.62,7,2,9.94,4.19l-2.13-1.61c4.29,3.24,8.76,4.81,14.06,3.55l-2,.49c14.05-1.72,29.65-3.83,40.44,4.36-6.14-4.67-2-25-1.36-31.69,1.61-16.26,5.11-38.39,20-48.15,11.62-7.61,25.13-10.58,41-7.18C144.5,56,148,59.73,155,65.55a15.351,15.351,0,0,0,2,1.54A246.808,246.808,0,0,0,146.8,41c-2.66-5.49-3.87-10.77-9.9-17.69-4-4.64-2.27-2.39-10.16-8.68-2.49-2-4.9-4.32-7.72-5.79C98.38-1.93,68.66,3.05,51,17Z"/>
      <path id="Path_417" data-name="Path 417" class="cls-3" d="M10.43,130.7a15,15,0,0,0-3.92,7.43c-1.79,8.38-2.08,17.69,1.08,25.65,2.44,6.16,7.68,10.4,14,13.09A53,53,0,0,0,43,180.68c17-.37,33.7-10.51,37.31-26.48,1.39-6.14-.28-15.79-6.69-19.39-3.63-2-9.4-2-13.42-2.12a122.152,122.152,0,0,0-19.12,1.2c-8.62,1.12-8.71,1.36-19.31-5.1a8.18,8.18,0,0,0-5.22-1.25,10.2,10.2,0,0,0-6.12,3.16Z"/>
      <path id="Path_418" data-name="Path 418" class="cls-7" d="M57.47,147.1c.36,3.65.73,5.16-2.35,9-3.3,4.07-9.45,1.77-11.1-1.33s1.93-2.42,6.41-4.79S57.14,143.76,57.47,147.1Z"/>
      <path id="Path_419" data-name="Path 419" class="cls-7" d="M18.68,146.3c-.26,3.45-.58,4.87,2.56,8.57,3.36,3.95,9.37,1.93,10.9-1s-2-2.35-6.44-4.72S18.92,143.14,18.68,146.3Z"/>
      <path id="Path_420" data-name="Path 420" class="cls-8" d="M82.27,15.86s-3.45-1.6-10.6,6.75a29.33,29.33,0,0,0-6.75,13.51C70.73,26.47,73.73,24,82.27,15.86Z"/>
      <path id="Path_421" data-name="Path 421" class="cls-3" d="M79,35.16s1.69-1.35,3.71-5.73a53.69,53.69,0,0,0,2.91-6.94A37.93,37.93,0,0,0,79,35.16Z"/>
      <path id="Path_422" data-name="Path 422" class="cls-3" d="M94.21,4.31a21.2,21.2,0,0,1-4.54-1.43C86.66,1.53,82.13-.26,78.46,0A18.31,18.31,0,0,0,65.35,6.82c4-1,7-1.83,9.78-2.46-14.38,8.43-25,35-25,35C68.08,13.65,78.5,10,82.58,9.75a30,30,0,0,0,7.36-2.58A21.93,21.93,0,0,1,95.06,5C95.86,4.73,95.07,4.48,94.21,4.31Z"/>
      <path id="Path_423" data-name="Path 423" class="cls-3" d="M98.92,22.87c.6,5.06,0,8.53,1.62,13.56,0,0,.26-11.41,1-16.17.34-2.07.54-3.7.63-5l2.26,4a20.13,20.13,0,0,0-2.78-9.4A14,14,0,0,0,96.07,4.6c-4.19-3.2-3.56.32-3.56.32L93,8a5.89,5.89,0,0,0,1.39,2.85c1.9,2.31,3.39,12.35-9.14,27.78C85.2,38.58,94.49,31.05,98.92,22.87Z"/>
      <path id="Path_424" data-name="Path 424" class="cls-1" d="M168.88,19.45c.68.93,4.61,2.24,4.8,3.41s.71,3.35.43,4.69C173,32.78,164,39.11,157.26,44c-2,1.45-3.86,7-5.89,8-3.71,1.82-8.79-.31-12-.56a10.12,10.12,0,0,1-7.69-3.89c-4-5.47,1-15.9,11.09-23.3S164.88,14,168.88,19.45Z"/>
      <path id="Path_425" data-name="Path 425" class="cls-3" d="M149.1,26.53c13.07-11,23.91-3.74,24.81-2.79.05.06-2.16.67-2.13.74,2.8,8.1-10.74,10.68-13.52,11.12a.55.55,0,0,0-.45.58c.33,6.26-4.79,6.72-6.7,6.68a.54.54,0,0,0-.54.65c1.39,6.47-3.95,8-3.95,8C145,53,136.51,48.68,133.54,47.09a.54.54,0,0,0-.78.59.57.57,0,0,0,.2.32c3.36,2.58,9,6.6,15.39,6.2C153.82,53.85,168.24,39,173,33a7.05,7.05,0,0,0,1.52-4.56c-.18-6.64-2.16-7.94-2.16-7.94-10.34-10.51-30.56-1-31.73-.39l-.1.07c-.54.43-5.71,4.57-8.5,6.25a3.88,3.88,0,0,1-2.62.49l-4.54-.74a2.66,2.66,0,0,1-1-.39l-6.93-4.54a.54.54,0,0,0-.81.62l.22.72a.57.57,0,0,0,.27.34c3.51,1.74,8.86,20.42,14.66,19.67,1.79-.23,4.15-1.83,6.58-3.94.4-.35-1.44-1.56-3.32-1.64-.55,0,5.34-.21,5.74-.61.84-.82.53-.49,1.32-1.33.55-.58-1-2.58-4.23-2.38-.91.06,6.36-.45,6.8-.95s1.7-2.22,2.22-2.79.16-1.44-4.49-1.4"/>
      <circle id="Ellipse_8" data-name="Ellipse 8" class="cls-1" cx="2.66" cy="2.66" r="2.66" transform="translate(103.2 81.43)"/>
      <path id="Path_426" data-name="Path 426" class="cls-1" d="M103.78,92.59c-.33-.17-4.33-3.29-4.56-3.58l-1.68-2.56c3,2.39,6.08,4.79,8.19,5.22,1.89.4,6.79-.8,6.79-.8C109.37,93.31,105.51,93.52,103.78,92.59Z"/>
      <path id="Path_427" data-name="Path 427" class="cls-1" d="M108.63,75.5c.36.06,6.06,1.08,6.35,1.31L119.37,79c-3.65-1.29-10-1-12.13-.75-1.92.24-6.17,2.94-6.17,2.94C103.27,77.91,106.68,75.19,108.63,75.5Z"/>
      <path id="Path_428" data-name="Path 428" class="cls-1" d="M18,175.12s13.9-2.54,22.43-2.54c0,0,17.72,1.08,23.65,3.18,0,0-4.37,1.73-5.14,1.65L40.4,175.56c-.08,0-17.45,1.83-17.53,1.85l-1.26-.51-.63-.28L19.73,176Z"/>
      <path id="Path_429" data-name="Path 429" class="cls-9" d="M189.7,340.27a13.121,13.121,0,0,0,3.75-.29l.31-.1c.84-.33.94-.51.86-1.4-.06-.67-.07-1.34-.11-2a.82.82,0,0,1,.23-.65A7.7,7.7,0,0,1,198,334c1.53-.46,3.51.92,5.09.81s2.89-1.85,4.55-2c4.29-.33,8.16,1.11,12.36,1.54a6.81,6.81,0,0,0,3.18-.5,17.47,17.47,0,0,1,7.21-1.44c.71,0,1.42-.05,2.12,0a32.562,32.562,0,0,1,3.43.15,7.23,7.23,0,0,1,2.92.69,3.539,3.539,0,0,1,.75.51c.84.76.34,2.63,1.42,2.73,1.62.14,4.76-1.34,6.37-1.24a25,25,0,0,1,4.65.52,6,6,0,0,1,1.16.42,1.13,1.13,0,0,1,.5,1.77,10.337,10.337,0,0,1-1.31,1.25c-.3.27-.63.5-.93.78a1.32,1.32,0,0,0,.07,2.14c.51.43,4.19-.87,4.83-.73,1.23.27-.6,2,.63,2.33a3.67,3.67,0,0,1,1.7.91,1.34,1.34,0,0,1,.39,1.52,1,1,0,0,1-.37.43,5.509,5.509,0,0,1-2.33.78,16.351,16.351,0,0,1-3.28.22c-2.07-.06-4.16,0-6.23,0a4.38,4.38,0,0,0-1.6.46c-.57.27-.55.62,0,.86s1.25.39,1.87.59c.82.26,1.64.49,2.43.8a1.47,1.47,0,0,1,1,1.59,1.11,1.11,0,0,1-.6.83c-.41.22-.83.43-1.25.63-.81.38-1.63.72-2.42,1.14a10.7,10.7,0,0,1-3.55.92c-1.3.19-2.61.33-3.91.5-2.17.29-4-1.37-6.21-1.12-.93.1-2.3-.71-2.95.38a4.75,4.75,0,0,1-4.42,2.5,31.809,31.809,0,0,0-4-.18c-2.17.13-4.34.26-6.51.31s-1.89-2.39-4-2.45c-2.59-.06-7.44,2.27-10,2.11a13.59,13.59,0,0,1-4.4-.9A.52.52,0,0,1,196,356a3.39,3.39,0,0,1,2-2.81c.93-.45,1.91-.81,2.85-1.24a4.93,4.93,0,0,0,2-1.42.46.46,0,0,0,0-.62,2.56,2.56,0,0,0-1.87-1,19.252,19.252,0,0,0-2.15-.15,12.11,12.11,0,0,1-3.12-.3l-.35-.11a.3.3,0,0,1-.21-.42,2.4,2.4,0,0,0,.12-.75,1.66,1.66,0,0,0-1.4-1.63,27.368,27.368,0,0,0-3-.37,13.9,13.9,0,0,1-4.33-.82,3.56,3.56,0,0,1-1.92-1.6,1.26,1.26,0,0,1,.66-1.94,15.583,15.583,0,0,1,2.53-.53A14.419,14.419,0,0,1,189.7,340.27Z"/>
      <path id="Path_430" data-name="Path 430" class="cls-9" d="M544.34,278.14s9.34-16.79,28.84-22C573.18,256.14,552,268,544.34,278.14Z"/>
      <path id="Path_431" data-name="Path 431" class="cls-9" d="M577.35,261.25s-21.15,11.88-28.84,22c0,0,9.34-16.79,28.84-22"/>
      <path id="Path_432" data-name="Path 432" class="cls-9" d="M575.61,258.73s-21.15,11.88-28.84,22c0,0,9.34-16.79,28.84-22"/>
      <path id="Path_433" data-name="Path 433" class="cls-9" d="M145.89,306.3s-6.81-12.23-21-16C124.88,290.27,140.28,298.92,145.89,306.3Z"/>
      <path id="Path_434" data-name="Path 434" class="cls-9" d="M121.84,294s15.4,8.65,21,16c0,0-6.81-12.23-21-16"/>
      <path id="Path_435" data-name="Path 435" class="cls-9" d="M123.1,292.16s15.41,8.66,21,16c0,0-6.8-12.23-21-16"/>
      <path id="Path_436" data-name="Path 436" class="cls-9" d="M196.4,300.15a12.53,12.53,0,0,0,5.21.05,3.91,3.91,0,0,1,3.2.86c1,.83-.6,6.84-.72,6.65a3.28,3.28,0,0,0-.36.84,10.776,10.776,0,0,0,0,1.39c0,.69,0,1.39,0,2.08s-.29,1.08-.56,1.08-.57-.41-.59-1,.09-1.24.13-1.86a14.885,14.885,0,0,0,.12-1.62c0-.65-.31-1.13-.59-1.12s-.63.51-.68,1.15a5.171,5.171,0,0,0,0,1.31,19.51,19.51,0,0,1-.06,6.73,10.376,10.376,0,0,1-.2,1.16c0,.21-.21.49-.31.49a.572.572,0,0,1-.4-.37,4,4,0,0,1-.06-1.15c.11-1.4.3-2.8.36-4.2a5.21,5.21,0,0,0-1-3.61,1.27,1.27,0,0,0-.38-.32c-.61-.35-.73-.2-.78.95,0,.8-.08,1.6-.13,2.4,0,.45-1,.56-1,0a6.562,6.562,0,0,1,.07-1.25c0-.44.15-.86.19-1.3a1.82,1.82,0,0,0-.33-1.46c-.33-.31-.67-.23-1,.17a3.65,3.65,0,0,0-.62,2c-.07,1-.11,2.11-.08,3.15a18.18,18.18,0,0,1-.41,5.17,10.311,10.311,0,0,0-.06,4,23.341,23.341,0,0,1,.26,3.15,4.3,4.3,0,0,1-.42,1.69c-.38.79-1,.59-1.16-.38a5.69,5.69,0,0,1,0-1.84,10.8,10.8,0,0,0,.08-4.2,6.07,6.07,0,0,1,.3-2.81,24.939,24.939,0,0,0,.87-4.52,8.35,8.35,0,0,0-.88-4.88,5.59,5.59,0,0,1-.35-1.17,3.514,3.514,0,0,0-.11-.51c-.06-.14-.17-.28-.25-.27s-.95.17-.65-2.32a11.731,11.731,0,0,1,.66-2.67,2.29,2.29,0,0,1,2.37-1.73Z"/>
    </g>
  </g>
</svg>
