<svg xmlns="http://www.w3.org/2000/svg" width="773.512" height="411.833" viewBox="0 0 773.512 411.833">
  <g id="cow_lying_injured" transform="translate(0.003 0.025)">
    <g id="Layer_11" data-name="Layer 11" transform="translate(-0.003 -0.025)">
      <path id="Path_399" data-name="Path 399" d="M101.17,345.09l.808.489" transform="translate(13.998 47.767)" fill="#fff"/>
      <path id="Path_400" data-name="Path 400" d="M665.264,122.2A103.019,103.019,0,0,0,603.612,97.03c-21.776-1.138-40.707-.057-42.984.3-46.49,7.137-92.091,5.043-136.327-14.525-21.56-9.528-43.325-13.182-67.549-13.341-19.078-.125-89.188-11.565-108.961-5.6a126.674,126.674,0,0,1-37.064,5.885A423.624,423.624,0,0,1,153.2,65.191c-18.851-2.652-68.9,77.179-59.968,132.855,1.355,8.435,9.619,46.125,12.772,53.7l.831,2.06a79.8,79.8,0,0,1,2.425,7.65c4.724,17.838,10.029,22.414,35.71,36.916,10.826,6.113-34.89,22.482-27.6,40.7.478,1.138,7.24,17.678,14.8,16.927,7.149-.706,69.6,6.625,73.571,5.771,9.96-2.163,71.715-13.478,81.641-15.937,21.059-5.339-30.735-19.283-9.608-24.565,6.728-1.685,87.845,17.792,110.475,21.833,20.217,3.609,90.27,1.776,95.62,1.252,35.755-3.529,3.074,22.562,13.091,26.079,4.394,1.537,15.823-4.087,20.49-4.178,5.692-.114,11.383,8.344,18.213,7.137,11.2-1.981,11.907-12.066,18.509-11.235,6.341.808,39.978,3.745,46.33,4.314,24.258,2.174,27.32,5.692,50.77,8.549,6.193.763,12.59-1.343,18.407-3.54,3.233-1.229,7.65-5.521,7.752-8.583.341-10.245.637-21.184-2.106-30.8-3.574-12.522,5.84-38.02,13.182-48.812,6.523-9.585,6.932-11.3,7.9-15.163C719.028,176.748,677.957,133.081,665.264,122.2ZM388.239,298.413c-.979-.148.057-.455.057-.455S388.262,298.265,388.239,298.413Z" transform="translate(12.753 8.625)" fill="#fff"/>
      <path id="Path_401" data-name="Path 401" d="M279.467,294.73l.137-.376a3.005,3.005,0,0,0-1.343-3.665,66.866,66.866,0,0,0-25.169-7.866,21.411,21.411,0,0,0-7.559.581l-6.375,1.662s-6.079,2.277.888,12.283a32.26,32.26,0,0,0,16.244,14.377l11.144,3.586a6.477,6.477,0,0,0,4.417-.194c4.815-1.969,14.366-7.467,15.755-11.987l.1-.285a2.686,2.686,0,0,0-2.516-3.62h-2.618C278.534,299.466,278.67,296.916,279.467,294.73Z" transform="translate(32.747 39.138)" fill="#40403f"/>
      <path id="Path_402" data-name="Path 402" d="M432.943,327.327l-.273.353c-1.013,1.286-1.264,2.88-.581,3.745a33.263,33.263,0,0,0,16.142,10.917,13.9,13.9,0,0,0,6.147.4l5.692-.8s5.771-1.468,4.758-12.1c-.1-1.138.444-10.575-6.272-16.119l-7.092-4.929a4.155,4.155,0,0,0-3.54-.387c-4.633,1.309-14.537,5.441-17.633,9.676l-.2.262c-1.286,1.628-1.138,3.609.353,3.859l2.026.33C435.8,322.774,434.537,325.255,432.943,327.327Z" transform="translate(59.378 42.661)" fill="#40403f"/>
      <path id="Path_403" data-name="Path 403" d="M432.608,211.066c0,15.14-19.078,3.062-29,12.977s-17.382,16.973-32.522,16.973S348.93,259.764,339,249.838s-3.278-12.066-3.278-27.206c0-14.48,14.878-16.358,24.042-26.182,10.006-10.7,2.208-40.24,18.008-40.24,13.8,0,11.953,31.873,21.628,40.24C410.889,206.524,432.608,194.583,432.608,211.066Z" transform="translate(46.144 21.638)" fill="#1e2833"/>
      <path id="Path_404" data-name="Path 404" d="M552.091,148.537c-.74,12.522-3.415,19.659-10.052,28.914-11.087,15.413-25.863,8.071-45.328,6.921-15.561-.933-32.26,8.344-41.811-3.165s-37.428-23.416-36.427-40.058,13.8-22.846,38.51-28.629c11.224-2.63,27.013-10.393,42.585-9.471,18.794,1.138,58.305-.99,68.027,8.287C573.97,117.449,552.876,135.378,552.091,148.537Z" transform="translate(57.889 14.274)" fill="#1e2833"/>
      <path id="Path_405" data-name="Path 405" d="M268.285,78.246c28.788,3.495,21.4,12.089,35.653,34.321,10.643,16.62,6.967,39.25,4.439,60.115-3.415,27.866,20.592,55.995-2.186,69.643-17.075,10.245-14.685-21.4-36.233-24.007-16.836-2.038-28.333,4.394-40.98-4.963-11.008-8.173-46.808,5.054-53.1-6.83-8.025-15.22,20.023-23.438,22.232-41.629,1.343-11.11-26.922-30.86-21.867-40.183,6.033-11.133,57.793,21.4,67.822,13.8C262.536,124.486,243.128,75.2,268.285,78.246Z" transform="translate(24.133 10.834)" fill="#1e2833"/>
      <path id="Path_406" data-name="Path 406" d="M141.044,252.522c-19.5,6.193-19.215-1.138-24.838-18.817-2.618-8.23-12.966-28.891-5.179-31.964,10.552-4.155-.808-10.074,9.63-13.4,8.8-2.789,14.6,16.756,22.323,19.625,9.391,3.495,20.1-8.481,23.188,1.252,3.54,11.156-13.068,17.633-20.752,26.409C140.9,240.786,148.273,250.234,141.044,252.522Z" transform="translate(14.967 26.046)" fill="#1e2833"/>
      <path id="Path_407" data-name="Path 407" d="M622.131,263.016S585.7,239.111,595,207.124c0,0,3.415-8.549,10.621-3.654,4.781,3.233,10.712-1.389,9.107-7.058-.08-.273,4.553-23.017,17.007-20.57a65.757,65.757,0,0,1,1.537,13.41c.193,6.375.262,14.7.068,23.051C632.911,231.928,627.982,252.691,622.131,263.016Z" transform="translate(82.102 24.328)" fill="#1e2833"/>
      <path id="Path_408" data-name="Path 408" d="M625.4,176.224s12.078,30.268,13.66,92.205c0,0,2.379,41.913,5.031,66.251,0,0,8.412-3.074,14.571-2.356,0,0-9.016-17.325-10.074-36.9,0,0-2.823-58.2-4.326-68.79,0,0,.467-24.77-3.654-47.355a76.462,76.462,0,0,0-21.332-40.308l-7.729-6.716S614.054,133.286,625.4,176.224Z" transform="translate(84.601 18.324)" fill="#f0efef"/>
      <path id="Path_409" data-name="Path 409" d="M640.14,309.567a181.594,181.594,0,0,0,11.042,20.991,71.042,71.042,0,0,0,12.7,14.992c7.968,7.217,21.071,19.784,21.071,23.768,0,0-1.446-15.7-4.975-27.548a38.863,38.863,0,0,0-8.128-14.3l-17.075-19.625S654.05,305.367,640.14,309.567Z" transform="translate(88.556 42.514)" fill="#1e2833"/>
      <path id="Path_410" data-name="Path 410" d="M104.309,241.865s10.177-63.371,34.036-91.477a102.916,102.916,0,0,1,13.239-12.727c4.838-4,14.8-16.756,17.314-41.492,0,0-7.365,22.516-36.017,42.278,0,0-28.788,27.445-40.809,30.45,0,0-.444,12.647.581,19.875.672,4.7,2.06,11.008,3.085,17.155.683,4.166,1.9,8.378,2.812,12.522C100.4,226.782,102.248,234.853,104.309,241.865Z" transform="translate(12.726 13.333)" fill="#40403f" opacity="0.195"/>
      <path id="Path_411" data-name="Path 411" d="M447.16,321.719c10.382-1.138,63.246-8.264,68.015-35.641,4.827-27.741,4.223-25.043,8.151-41.39.239-1,13.387-39.3,14.8-35.038,2.038,6.1-18.361,23.427,3.222,76.451,2.834,6.955,13.2,19.818,29.9,29.062.922.512-69.541.216-72.853.08-3.836-.159-42.984,5.066-49.324,7.183Z" transform="translate(61.86 28.985)" fill="#40403f" opacity="0.1"/>
      <path id="Path_412" data-name="Path 412" d="M304.973,304.911c.694.285,6.5,2.368,5.76,2.22-28.026-5.521-54.2-11.634-54.139-13.66l-19.466,9.573a3.813,3.813,0,0,1-4.735-.228,5.191,5.191,0,0,0-3.29-1.377c-6.5-.159-12.18,3.415-16.335,8.378a4.667,4.667,0,0,1-4.417,1.651l-42.323-7.854c-1-.216,1.514-.581,3.574-1.047.99-.216,1.992-.592,3.005-.82l36.518-8.754c8.72-2.277,20.433,3.085,27.992-1.867l8.538-5.6a75.2,75.2,0,0,0,14.946-12.9c8.7-9.8,12.351-22.072,14.935-35.288.66-3.415.66-6.83,1.218-10.245l1.491-8.89c1.992-2.4-1.457,33.945-1.7,36.37-1.047,10.757-10.769,35.675.717,38.806Z" transform="translate(22.939 30.198)" fill="#40403f" opacity="0.1"/>
      <path id="Path_413" data-name="Path 413" d="M43.85,46.378c-1.844,3.187-7.24,10.154-12.044,10.245-2.527,0-3.916-1.935-6.83-2.766s-5.714-5.874-8.651-7.559C8.471,41.745,3.678,37.761,1.789,32.775a16.119,16.119,0,0,1-1.036-7.8c.307-1.491,4.553-3.8,6.09-4.747,5.908-3.745,14.058-2.9,23.165,2.334C41.437,29.178,47.629,39.832,43.85,46.378Z" transform="translate(0.093 2.508)" fill="#fff"/>
      <path id="Path_414" data-name="Path 414" d="M28.9,28.282C14.025,15.715,1.685,23.991.661,25.129c0,.057,2.459.751,2.425.831C-.1,35.181,15.311,38.129,18.476,38.63a.626.626,0,0,1,.512.649c-.387,7.126,5.453,7.65,7.627,7.6a.615.615,0,0,1,.615.74c-1.582,7.365,4.5,9.107,4.5,9.107,1.821,1.7,11.509-3.244,14.878-5.043a.615.615,0,0,1,.9.672.66.66,0,0,1-.228.353c-3.825,2.937-10.245,7.524-17.519,7.058-6.227-.4-22.641-17.3-28.026-24.121A7.968,7.968,0,0,1,0,30.468c.2-7.559,2.459-9.027,2.459-9.027C14.23,9.466,37.247,20.3,38.579,21a.239.239,0,0,1,.114.068c.615.489,6.5,5.2,9.676,7.115a4.462,4.462,0,0,0,2.982.569l5.157-.842a3.028,3.028,0,0,0,1.138-.455l7.889-5.157a.615.615,0,0,1,.922.694l-.25.82a.694.694,0,0,1-.307.387c-4,1.981-10.086,23.256-16.688,22.391-2.038-.262-4.724-2.072-7.49-4.485-.455-.4,1.628-1.776,3.768-1.855.637,0-6.067-.25-6.534-.706-.945-.933-.6-.558-1.491-1.5-.626-.66,1.138-2.948,4.815-2.721,1.036.068-7.251-.512-7.741-1.138S32.6,31.652,32.01,31s-.182-1.639,5.111-1.594" transform="translate(0.003 2.22)" fill="#1e2833"/>
      <path id="Path_415" data-name="Path 415" d="M181.551,93.718c2.538,36.427-28.959,49.825-75.836,90.6-3.768,3.278-26.831,14.537-35.858,15.5-3.313.353,10.757-8.56,11.873-17.223,1.138-9-.342-15.493-4.428-21.731-4.348-6.648-18.748-5.76-24.315-5.692-11.668.091-19.352,4.417-26.922-.82-4.44-3.074-9.266-8.367-15.561-3.233-1.753,1.434,4.975-13.079,8.8-22.915,1.708-4.383,1.605-3.21,2.778-8.777s2.982-10.587,1.377-16.608c-1.07-4.075-3.722-14.4-3.244-18.1,1.3-9.038,1.833-17.075,2.812-20.331,3.745-12.374,9.835-17.257,15.4-25.908,4.132-6.443,8.458-10.541,13.9-15.584C64.337,11.792,82.823,3.71,99.5,3.71c9.175,0,24.247,1.878,32.431,5.248s9.516,8.23,17.656,13.353C162.507,30.427,180.617,80.309,181.551,93.718Z" transform="translate(1.417 0.542)" fill="#1e2833"/>
      <path id="Path_416" data-name="Path 416" d="M55.8,18.935A124.078,124.078,0,0,0,32.188,44.32c-3.415,4.94-2.334,5.123-.057,10.439,2.561,5.988,3.722,12.6,4.5,19.022a134.221,134.221,0,0,1-2.208,45.226c-2.277,9.892-6.6,25.931-18.1,28.868,4.405-.706,7.968,2.277,11.315,4.77l-2.425-1.833c4.883,3.688,9.972,5.475,16,4.041l-2.277.558c15.994-1.958,33.752-4.36,46.034,4.963-6.989-5.316-2.277-28.458-1.548-36.074,1.833-18.509,5.817-43.7,22.767-54.811,13.227-8.663,28.606-12.044,46.672-8.173,9.368,2.015,13.353,6.261,21.321,12.886a17.474,17.474,0,0,0,2.277,1.753,280.95,280.95,0,0,0-11.611-29.7c-3.028-6.249-4.405-12.26-11.269-20.137-4.553-5.282-2.584-2.721-11.565-9.881-2.834-2.277-5.578-4.918-8.788-6.591C109.732-2.613,75.9,3.055,55.8,18.935Z" transform="translate(2.261 0.445)" fill="#fff"/>
      <path id="Path_417" data-name="Path 417" d="M11.156,131.143A17.075,17.075,0,0,0,6.694,139.6c-2.038,9.539-2.368,20.137,1.229,29.2,2.778,7.012,8.742,11.839,15.937,14.9a60.332,60.332,0,0,0,24.372,4.337c19.352-.421,38.362-11.964,42.471-30.143,1.582-6.989-.319-17.974-7.615-22.072-4.132-2.277-10.7-2.277-15.276-2.413a139.049,139.049,0,0,0-21.765,1.366c-9.812,1.275-9.915,1.548-21.981-5.806a9.312,9.312,0,0,0-5.942-1.423,11.611,11.611,0,0,0-6.967,3.6Z" transform="translate(0.72 17.666)" fill="#1e2833"/>
      <path id="Path_418" data-name="Path 418" d="M59.387,147.281c.41,4.155.831,5.874-2.675,10.245-3.757,4.633-10.757,2.015-12.636-1.514s2.2-2.755,7.3-5.453S59.012,143.478,59.387,147.281Z" transform="translate(6.036 20.197)" fill="#efefef"/>
      <path id="Path_419" data-name="Path 419" d="M18.7,146.47c-.3,3.927-.66,5.544,2.914,9.756,3.825,4.5,10.666,2.2,12.408-1.138s-2.277-2.675-7.331-5.373S18.975,142.873,18.7,146.47Z" transform="translate(2.566 20.097)" fill="#efefef"/>
      <path id="Path_420" data-name="Path 420" d="M84.67,15.877S80.743,14.056,72.6,23.561A33.387,33.387,0,0,0,64.92,38.94C71.534,27.955,74.949,25.143,84.67,15.877Z" transform="translate(8.984 2.206)" fill="#1f2833"/>
      <path id="Path_421" data-name="Path 421" d="M79,36.913s1.924-1.537,4.223-6.523a61.117,61.117,0,0,0,3.313-7.9A43.177,43.177,0,0,0,79,36.913Z" transform="translate(10.931 3.14)" fill="#1e2833"/>
      <path id="Path_422" data-name="Path 422" d="M100.308,4.91A24.132,24.132,0,0,1,95.14,3.282C91.713,1.745,86.557-.292,82.379,0A20.843,20.843,0,0,0,67.455,7.767c4.553-1.138,7.968-2.083,11.133-2.8C62.219,14.563,50.13,44.808,50.13,44.808,70.563,15.542,82.425,11.387,87.069,11.1c1.787-.1,7.331-2.277,8.378-2.937a24.964,24.964,0,0,1,5.828-2.47C102.186,5.388,101.287,5.1,100.308,4.91Z" transform="translate(6.938 0.025)" fill="#1e2833"/>
      <path id="Path_423" data-name="Path 423" d="M100.811,25.583c.683,5.76,0,9.71,1.844,15.436,0,0,.3-12.988,1.138-18.407.387-2.356.615-4.212.717-5.692l2.573,4.553a22.914,22.914,0,0,0-3.165-10.7,15.937,15.937,0,0,0-6.352-5.988c-4.77-3.643-4.052.364-4.052.364l.558,3.506A6.7,6.7,0,0,0,95.654,11.9c2.163,2.63,3.859,14.058-10.4,31.623C85.193,43.466,95.768,34.895,100.811,25.583Z" transform="translate(11.796 0.479)" fill="#1e2833"/>
      <path id="Path_424" data-name="Path 424" d="M174.217,19.842c.774,1.059,5.248,2.55,5.464,3.882s.808,3.813.489,5.339c-1.264,5.953-11.509,13.159-19.181,18.726-2.277,1.651-4.394,7.968-6.7,9.107-4.223,2.072-10.006-.353-13.66-.637a11.52,11.52,0,0,1-8.754-4.428c-4.553-6.227,1.138-18.1,12.624-26.523S169.664,13.638,174.217,19.842Z" transform="translate(18.028 2.327)" fill="#fff"/>
      <path id="Path_425" data-name="Path 425" d="M153.665,28.045c14.878-12.522,27.218-4.257,28.242-3.176.057.068-2.459.763-2.425.842,3.187,9.221-12.226,12.157-15.39,12.658a.626.626,0,0,0-.512.66c.376,7.126-5.453,7.65-7.627,7.6a.615.615,0,0,0-.615.74c1.582,7.365-4.5,9.107-4.5,9.107-1.844,1.7-11.509-3.221-14.889-5.031a.615.615,0,0,0-.888.672.649.649,0,0,0,.228.364c3.825,2.937,10.245,7.513,17.519,7.058,6.227-.4,22.641-17.3,28.06-24.133a8.025,8.025,0,0,0,1.73-5.191c-.2-7.559-2.459-9.038-2.459-9.038-11.77-11.964-34.787-1.138-36.119-.444l-.114.08c-.615.489-6.5,5.2-9.676,7.115a4.417,4.417,0,0,1-2.982.558l-5.168-.842a3.028,3.028,0,0,1-1.138-.444l-7.889-5.168a.615.615,0,0,0-.922.706l.25.82a.649.649,0,0,0,.307.387c4,1.981,10.086,23.245,16.688,22.391,2.038-.262,4.724-2.083,7.49-4.485.455-.4-1.639-1.776-3.779-1.867-.626,0,6.079-.239,6.534-.694.956-.933.6-.558,1.5-1.514.626-.66-1.138-2.937-4.815-2.709-1.036.068,7.24-.512,7.741-1.081s1.935-2.527,2.527-3.176.182-1.639-5.111-1.594" transform="translate(16.064 2.184)" fill="#1e2833"/>
      <circle id="Ellipse_8" data-name="Ellipse 8" cx="3.028" cy="3.028" r="3.028" transform="translate(117.479 92.723)" fill="#fff"/>
      <path id="Path_426" data-name="Path 426" d="M104.643,93.439c-.376-.194-4.929-3.745-5.191-4.075L97.54,86.45c3.415,2.721,6.921,5.453,9.323,5.942,2.151.455,7.729-.911,7.729-.911C111.006,94.259,106.613,94.5,104.643,93.439Z" transform="translate(13.496 11.988)" fill="#fff"/>
      <path id="Path_427" data-name="Path 427" d="M109.676,75.5c.41.068,6.9,1.229,7.228,1.491l5,2.493c-4.155-1.468-11.383-1.138-13.808-.854-2.186.273-7.024,3.347-7.024,3.347C103.574,78.247,107.456,75.15,109.676,75.5Z" transform="translate(13.984 10.47)" fill="#fff"/>
      <path id="Path_428" data-name="Path 428" d="M18,175.471s15.823-2.891,25.533-2.891c0,0,20.171,1.229,26.922,3.62,0,0-4.975,1.969-5.851,1.878l-21.1-2.106c-.091,0-19.864,2.083-19.955,2.106l-1.434-.581-.717-.319-1.423-.706Z" transform="translate(2.493 23.903)" fill="#fff"/>
      <path id="Path_429" data-name="Path 429" d="M190.435,341.36a14.936,14.936,0,0,0,4.269-.33l.353-.114c.956-.376,1.07-.581.979-1.594-.068-.763-.08-1.525-.125-2.277a.933.933,0,0,1,.262-.74,8.765,8.765,0,0,1,3.711-2.083c1.742-.524,4,1.047,5.794.922s3.29-2.106,5.179-2.277c4.883-.376,9.289,1.264,14.07,1.753a7.752,7.752,0,0,0,3.62-.569,19.887,19.887,0,0,1,8.207-1.639c.808,0,1.616-.057,2.413,0a37.073,37.073,0,0,1,3.9.171,8.231,8.231,0,0,1,3.324.785,4.029,4.029,0,0,1,.854.581c.956.865.387,2.994,1.616,3.108,1.844.159,5.418-1.525,7.251-1.412a28.455,28.455,0,0,1,5.293.592,6.833,6.833,0,0,1,1.32.478,1.286,1.286,0,0,1,.569,2.015,11.768,11.768,0,0,1-1.491,1.423c-.342.307-.717.569-1.059.888a1.5,1.5,0,0,0,.08,2.436c.581.489,4.77-.99,5.5-.831,1.4.307-.683,2.277.717,2.652a4.178,4.178,0,0,1,1.935,1.036,1.525,1.525,0,0,1,.444,1.73,1.138,1.138,0,0,1-.421.489,6.271,6.271,0,0,1-2.652.888,18.613,18.613,0,0,1-3.734.25c-2.356-.068-4.735,0-7.092,0a4.986,4.986,0,0,0-1.821.524c-.649.307-.626.706,0,.979s1.423.444,2.129.672c.933.3,1.867.558,2.766.911a1.673,1.673,0,0,1,1.138,1.81,1.264,1.264,0,0,1-.683.945c-.467.25-.945.489-1.423.717-.922.433-1.855.82-2.755,1.3a12.181,12.181,0,0,1-4.041,1.047c-1.48.216-2.971.376-4.451.569-2.47.33-4.553-1.56-7.069-1.275-1.059.114-2.618-.808-3.358.433a5.407,5.407,0,0,1-5.031,2.846,36.213,36.213,0,0,0-4.553-.2c-2.47.148-4.94.3-7.411.353s-2.151-2.721-4.553-2.789c-2.948-.068-8.469,2.584-11.383,2.4a15.47,15.47,0,0,1-5.009-1.025.592.592,0,0,1-.41-.637,3.859,3.859,0,0,1,2.277-3.2c1.059-.512,2.174-.922,3.244-1.412a5.613,5.613,0,0,0,2.277-1.616.524.524,0,0,0,0-.706,2.914,2.914,0,0,0-2.129-1.138,21.922,21.922,0,0,0-2.447-.171,13.785,13.785,0,0,1-3.552-.342l-.4-.125a.341.341,0,0,1-.239-.478,2.733,2.733,0,0,0,.137-.854,1.89,1.89,0,0,0-1.594-1.855,31.154,31.154,0,0,0-3.415-.421,15.822,15.822,0,0,1-4.929-.933,4.053,4.053,0,0,1-2.186-1.821,1.434,1.434,0,0,1,.751-2.208,17.739,17.739,0,0,1,2.88-.6A16.412,16.412,0,0,1,190.435,341.36Z" transform="translate(25.51 46.01)" fill="#dd534a"/>
      <path id="Path_430" data-name="Path 430" d="M544.34,281.183s10.632-19.113,32.83-25.043C577.169,256.14,553.06,269.641,544.34,281.183Z" transform="translate(75.304 35.462)" fill="#dd534a"/>
      <path id="Path_431" data-name="Path 431" d="M581.34,261.25s-24.076,13.523-32.83,25.043c0,0,10.632-19.113,32.83-25.043" transform="translate(75.881 36.169)" fill="#dd534a"/>
      <path id="Path_432" data-name="Path 432" d="M579.6,258.73s-24.076,13.523-32.83,25.043c0,0,10.632-19.113,32.83-25.043" transform="translate(75.64 35.82)" fill="#dd534a"/>
      <path id="Path_433" data-name="Path 433" d="M148.8,308.513s-7.752-13.922-23.905-18.213C124.879,290.266,142.409,300.112,148.8,308.513Z" transform="translate(17.28 40.187)" fill="#dd534a"/>
      <path id="Path_434" data-name="Path 434" d="M121.84,294s17.53,9.847,23.905,18.213c0,0-7.752-13.922-23.905-18.213" transform="translate(16.858 40.699)" fill="#dd534a"/>
      <path id="Path_435" data-name="Path 435" d="M123.1,292.16s17.542,9.858,23.905,18.213c0,0-7.741-13.922-23.905-18.213" transform="translate(17.032 40.445)" fill="#dd534a"/>
      <path id="Path_436" data-name="Path 436" d="M196.872,300.163a14.264,14.264,0,0,0,5.931.057,4.451,4.451,0,0,1,3.643.979c1.138.945-.683,7.786-.82,7.57a3.734,3.734,0,0,0-.41.956,12.268,12.268,0,0,0,0,1.582c0,.785,0,1.582,0,2.368s-.33,1.229-.637,1.229-.649-.467-.672-1.138.1-1.411.148-2.117a16.943,16.943,0,0,0,.137-1.844c0-.74-.353-1.286-.672-1.275s-.717.581-.774,1.309a5.887,5.887,0,0,0,0,1.491,22.209,22.209,0,0,1-.068,7.661,11.811,11.811,0,0,1-.228,1.32c0,.239-.239.558-.353.558a.652.652,0,0,1-.455-.421,4.553,4.553,0,0,1-.068-1.309c.125-1.594.341-3.187.41-4.781a5.931,5.931,0,0,0-1.138-4.109,1.445,1.445,0,0,0-.433-.364c-.694-.4-.831-.228-.888,1.081,0,.911-.091,1.821-.148,2.732,0,.512-1.138.637-1.138,0a7.469,7.469,0,0,1,.08-1.423c0-.5.171-.979.216-1.48a2.072,2.072,0,0,0-.376-1.662c-.376-.353-.763-.262-1.138.194a4.155,4.155,0,0,0-.706,2.277c-.08,1.138-.125,2.4-.091,3.586a20.694,20.694,0,0,1-.467,5.885,11.737,11.737,0,0,0-.068,4.553,26.568,26.568,0,0,1,.3,3.586,4.9,4.9,0,0,1-.478,1.924c-.433.9-1.138.672-1.32-.433a6.477,6.477,0,0,1,0-2.095,12.294,12.294,0,0,0,.091-4.781,6.91,6.91,0,0,1,.342-3.2,28.388,28.388,0,0,0,.99-5.145,9.505,9.505,0,0,0-1-5.555,6.363,6.363,0,0,1-.4-1.332,4,4,0,0,0-.125-.581c-.068-.159-.194-.319-.285-.307s-1.081.194-.74-2.641a13.354,13.354,0,0,1,.751-3.039,2.607,2.607,0,0,1,2.7-1.969Z" transform="translate(26.7 41.537)" fill="#dd534a"/>
    </g>
  </g>
</svg>
