<svg xmlns="http://www.w3.org/2000/svg" width="619.139" height="923.473" viewBox="0 0 619.139 923.473">
  <defs>
    <style>
      .cls-1 {
        fill: #1e2833;
      }

      .cls-2, .cls-3 {
        fill: none;
        stroke: #1e2833;
        stroke-miterlimit: 10;
      }

      .cls-2 {
        stroke-width: 3px;
      }

      .cls-3 {
        stroke-width: 2px;
      }

      .cls-4 {
        fill: #fff;
      }

      .cls-5 {
        opacity: 0.1;
      }

      .cls-6 {
        fill: #f0efef;
      }
    </style>
  </defs>
  <g id="cow-truck_2" transform="translate(-13.052 135.637) rotate(-20)">
    <g id="Layer_1" data-name="Layer 1" transform="translate(1.5)">
      <path id="Path_140" data-name="Path 140" class="cls-1" d="M362.518,804.753v105.1c0,5.249-3.671,9.517-8.259,9.517L67.013,920.385c-4.589,0-8.259-4.267-8.259-9.507V804.753H362.518M365.271,802H56V910.878c0,6.754,4.956,12.261,11.013,12.261l287.246-1.019c6.057,0,11.013-5.506,11.013-12.27Z" transform="translate(-5.984 -65.991)"/>
      <path id="Path_141" data-name="Path 141" class="cls-1" d="M384.666,2.753a10.278,10.278,0,0,1,10.269,10.269V600.93A10.278,10.278,0,0,1,384.666,611.2H374.277v2.753l.468,112.879a8.259,8.259,0,0,1-8.259,8.259H48.956a8.259,8.259,0,0,1-8.259-8.259V611.2H28.022A10.278,10.278,0,0,1,17.753,600.93V13.022A10.278,10.278,0,0,1,28.022,2.753H384.666m0-2.753H28.022A13.022,13.022,0,0,0,15,13.022V600.93a13.022,13.022,0,0,0,13.022,13.022h9.921V726.832a11.013,11.013,0,0,0,11.013,11.013h317.53A11.013,11.013,0,0,0,377.5,726.832l-.45-112.879h7.617a13.022,13.022,0,0,0,13.022-13.022V13.022A13.022,13.022,0,0,0,384.666,0Z" transform="translate(-2.611)"/>
      <line id="Line_37" data-name="Line 37" class="cls-2" x2="334.967" transform="translate(38.085 612.576)"/>
      <line id="Line_38" data-name="Line 38" class="cls-2" x2="306.518" transform="translate(51.851 762.164)"/>
      <line id="Line_39" data-name="Line 39" class="cls-3" x2="22.915" y2="23.943" transform="translate(71.72 738.138)"/>
      <line id="Line_40" data-name="Line 40" class="cls-3" x2="22.915" y2="23.943" transform="translate(62.542 738.138)"/>
      <line id="Line_41" data-name="Line 41" class="cls-3" x2="22.915" y2="23.943" transform="translate(53.365 738.138)"/>
      <line id="Line_42" data-name="Line 42" class="cls-3" x2="15.252" y2="15.977" transform="translate(51.851 746.104)"/>
      <line id="Line_43" data-name="Line 43" class="cls-3" x2="22.915" y2="23.943" transform="translate(80.897 738.138)"/>
      <line id="Line_44" data-name="Line 44" class="cls-3" x2="22.915" y2="23.943" transform="translate(90.074 738.138)"/>
      <line id="Line_45" data-name="Line 45" class="cls-3" x2="22.915" y2="23.943" transform="translate(99.251 738.138)"/>
      <line id="Line_46" data-name="Line 46" class="cls-3" x2="22.915" y2="23.943" transform="translate(108.428 738.138)"/>
      <line id="Line_47" data-name="Line 47" class="cls-3" x2="22.915" y2="23.943" transform="translate(117.605 738.138)"/>
      <line id="Line_48" data-name="Line 48" class="cls-3" x2="22.915" y2="23.943" transform="translate(126.783 738.138)"/>
      <line id="Line_49" data-name="Line 49" class="cls-3" x2="22.915" y2="23.943" transform="translate(135.96 738.138)"/>
      <line id="Line_50" data-name="Line 50" class="cls-3" x2="22.915" y2="23.943" transform="translate(145.137 738.138)"/>
      <line id="Line_51" data-name="Line 51" class="cls-3" x2="22.915" y2="23.943" transform="translate(154.314 738.138)"/>
      <line id="Line_52" data-name="Line 52" class="cls-3" x2="22.915" y2="23.943" transform="translate(163.491 738.138)"/>
      <line id="Line_53" data-name="Line 53" class="cls-3" x2="22.915" y2="23.943" transform="translate(172.668 738.138)"/>
      <line id="Line_54" data-name="Line 54" class="cls-3" x2="22.915" y2="23.943" transform="translate(181.846 738.138)"/>
      <line id="Line_55" data-name="Line 55" class="cls-3" x2="22.915" y2="23.943" transform="translate(191.023 738.138)"/>
      <line id="Line_56" data-name="Line 56" class="cls-3" x2="22.915" y2="23.943" transform="translate(200.2 738.138)"/>
      <line id="Line_57" data-name="Line 57" class="cls-3" x2="22.915" y2="23.943" transform="translate(209.377 738.138)"/>
      <line id="Line_58" data-name="Line 58" class="cls-3" x2="22.915" y2="23.943" transform="translate(218.554 738.138)"/>
      <line id="Line_59" data-name="Line 59" class="cls-3" x2="22.915" y2="23.943" transform="translate(227.732 738.138)"/>
      <line id="Line_60" data-name="Line 60" class="cls-3" x2="22.915" y2="23.943" transform="translate(236.909 738.138)"/>
      <line id="Line_61" data-name="Line 61" class="cls-3" x2="22.915" y2="23.943" transform="translate(246.086 738.138)"/>
      <line id="Line_62" data-name="Line 62" class="cls-3" x2="22.915" y2="23.943" transform="translate(255.263 738.138)"/>
      <line id="Line_63" data-name="Line 63" class="cls-3" x2="22.915" y2="23.943" transform="translate(264.44 738.138)"/>
      <line id="Line_64" data-name="Line 64" class="cls-3" x2="22.915" y2="23.943" transform="translate(273.617 738.138)"/>
      <line id="Line_65" data-name="Line 65" class="cls-3" x2="22.915" y2="23.943" transform="translate(282.795 738.138)"/>
      <line id="Line_66" data-name="Line 66" class="cls-3" x2="22.915" y2="23.943" transform="translate(291.972 738.138)"/>
      <line id="Line_67" data-name="Line 67" class="cls-3" x2="22.915" y2="23.943" transform="translate(301.149 738.138)"/>
      <line id="Line_68" data-name="Line 68" class="cls-3" x2="22.915" y2="23.943" transform="translate(310.326 738.138)"/>
      <line id="Line_69" data-name="Line 69" class="cls-3" x2="22.915" y2="23.943" transform="translate(319.503 738.138)"/>
      <line id="Line_70" data-name="Line 70" class="cls-3" x2="22.915" y2="23.943" transform="translate(328.68 738.138)"/>
      <line id="Line_71" data-name="Line 71" class="cls-3" x2="19.593" y2="20.814" transform="translate(337.858 738.138)"/>
      <line id="Line_72" data-name="Line 72" class="cls-3" x2="10.416" y2="10.719" transform="translate(347.035 738.138)"/>
      <path id="Path_142" data-name="Path 142" class="cls-2" d="M4.712,75.5H15.266V181.037H4.712A3.249,3.249,0,0,1,1.5,177.825V78.712A3.258,3.258,0,0,1,4.712,75.5Z" transform="translate(-1.5 -6.212)"/>
      <path id="Path_143" data-name="Path 143" class="cls-2" d="M4.712,535.5H15.266V641.037H4.712A3.249,3.249,0,0,1,1.5,637.826V538.712A3.258,3.258,0,0,1,4.712,535.5Z" transform="translate(-1.5 -44.062)"/>
      <path id="Path_144" data-name="Path 144" class="cls-3" d="M3.249,0H13.766V105.538H3.258A3.258,3.258,0,0,1,0,102.28V3.249A3.249,3.249,0,0,1,3.249,0Z" transform="translate(407.925 174.366) rotate(180)"/>
      <path id="Path_145" data-name="Path 145" class="cls-3" d="M3.249,0H13.766V105.537H3.258A3.258,3.258,0,0,1,0,102.28V3.249A3.249,3.249,0,0,1,3.249,0Z" transform="translate(407.925 596.516) rotate(180)"/>
    </g>
    <g id="Layer_2" data-name="Layer 2" transform="translate(18.692 4.732)">
      <path id="Path_146" data-name="Path 146" class="cls-1" d="M336.615,380.4c-5.772-1.129-11.114-2.928-14.913-8.36-1.835-2.6-4.708-4.212-7.241-6.424,0,0-4.46-1.4-3.873-4.249.5-2.478.624-10.242-2.111-9.911-1.835.22-4.341,2.368-3.9,6.011.321,2.753,1.276,3.46.652,5.506s-.7,1.927-1.936,3.056c-4.589,2.817-10.673,24.209-8.581,27.32.441,1.331,0,3.588-2.753,5.405-3.423,2.258-2.661,8.636-.624,10.242,3.753.477,4.056-5.984,5.506-8.048,1.239-1.762,8.819-1.065,9.535-1.156,1.918-.239,3.845-.312,5.754-.688s3.809-1.138,5.727-1.542c5.158-1.092,9.709.725,14.17,2.753,1.276.587,4.763,1.193,6.635-1.028a20.364,20.364,0,0,0,4.46-12.463C343.195,382.239,340.34,381.092,336.615,380.4Z" transform="translate(-42.398 -33.65)"/>
      <path id="Path_147" data-name="Path 147" class="cls-4" d="M336.883,381.572c-6.259,4.589-14.748-.551-17.271-2.753,0,0-3.469-3.038-2.551-10.379-2.469-2.157-2.955-2.469-5.708-3.386-.633-.211-3.377-.147-7.342,1.835-3.671,1.835-6.314,9.544-7.342,12.848-1.377,4.423-2.753,11.93-1.835,14.684,1.294,3.891,5.754,6.2,6.424,6.424h5.506c.918-2.753,4.414-6.424,8.259-6.424,12.848,0,14.684,2.753,17.262,7.066,2.928,1.193,5.672.918,7.645-2.368-.918-.918-2.882-.11-3.8-1.946-.578-1.744,1.276-10.095,4.589-10.095,1.835,0,.918.918,2.753.918C344.39,382.526,337.966,381.608,336.883,381.572Z" transform="translate(-42.804 -34.762)"/>
      <path id="Path_148" data-name="Path 148" class="cls-4" d="M282.349,349.614c-2.955-4.084-5.075-8.92-9.48-10.49-3.5-1.248-7.3-2.872-10.746-4.24-11.068-4.405-22.025-9.04-33.084-13.518-6.1-2.487-23.659-6.589-28.624-6.837-8.039-.413-10.829,2.221-18.556-.56-2.9-1.037-11.637-6.14-14.683-6.562-5.442-.78-13.344-2.68-18.868-2.992-3.3-.184-6.681.275-9.232,3.111-2.34,2.616-4.937,5.993-5.589,9.654-.275,1.523-.376,3.065-.532,4.589a30.536,30.536,0,0,1-.844,3.368c-2.221-.138-4.047.321-4.387,1.835-.385,1.744.872,3.047,2.6,4.02-.688,2.157-1.3,3.983-1.523,4.589-1.276,3.3-3.038,6.25-3.561,10.095-.771,5.662,1.432,8.883,4.855,11.572a58.778,58.778,0,0,0,7.525,4.864,42.051,42.051,0,0,0,17.391,5.947c3.616.477,10.8.578,14.105,2.01,5.506,2.368,10.691,7.342,16,10.095,4.827,2.542,28.972,9.884,36.709,11.471,7.277,1.5,14.628,2.707,21.9,4.249,3.148.67,6.993.789,10.04,1.835,5.158,1.725,10.187,2.065,15.041-1.533,1.7-1.266,8.728-11.159,11.077-18.942C279.9,377.21,287.048,356.112,282.349,349.614Z" transform="translate(-28.861 -29.777)"/>
      <g id="Group_12" data-name="Group 12" class="cls-5" transform="translate(288.66 389.002)">
        <path id="Path_149" data-name="Path 149" class="cls-1" d="M393.168,475.485c1.2-.7,3.506-.725,5.855,1.606,2.909,2.891,9,.844,10.15-1.487-.3-3.772-6.681-2.753-9-3.735-1.982-.854-2.845-8.415-3.084-9.095-.624-1.835-1.092-3.671-1.835-5.506s-1.9-3.487-2.689-5.286c-2.12-4.818-1.276-9.645-.174-14.445.312-1.367-1.028-5.506-2.368-6.277-4.056-2.386-8.627-2.588-13.087-1.835-3.341.56-5.066,3.9-5.02,7.69.083,5.883-.587,11.471-5.13,16.308-2.175,2.3-3.157,5.506-4.754,8.388-.055,0-.468,4.653-3.368,4.671-2.533,0-10.15,1.478-9.278,4.093.587,1.734,3.212,3.763,6.69,2.588,2.606-.918,3.12-1.964,5.213-1.762s2.037.284,3.386,1.276C368.362,476.6,390.553,478.174,393.168,475.485Z" transform="translate(-335.972 -429.036)"/>
        <path id="Path_150" data-name="Path 150" class="cls-1" d="M365.854,639.156c3.5.578,11.279,2.615,15.124,2.349,5.7-.395,8.4-3.221,10.334-7.122a58.738,58.738,0,0,0,3.221-8.351,42.542,42.542,0,0,0,2.258-18.244c-.266-3.671-1.643-10.691-.918-14.225,1.2-5.846,4.983-11.93,6.635-17.74,1.505-5.24,3.753-30.376,3.726-38.25,0-7.434-.349-14.876-.321-22.31,0-3.212-.661-7-.285-10.205.642-5.387-.055-10.389-4.589-14.4-1.588-1.4-12.71-6.259-20.8-6.975,0,0-22.126-2.68-27.532,3.249-3.386,3.735-7.69,6.8-8.324,11.426-.5,3.671-1.312,7.736-1.955,11.389-2.047,11.728-4.332,23.429-6.424,35.149-1.184,6.488-1.606,24.5-.835,29.422,1.248,7.947,4.387,10.095,3.249,18.272-.422,3.056-3.671,12.655-3.423,15.684.349,5.506.1,13.61.918,19.079.5,3.276,1.634,6.488,4.928,8.4,3.038,1.762,6.874,3.607,10.6,3.506,1.542,0,7.663-.321,9.177-.477.863-.092.514,3.772,2.533,3.827C364.853,642.69,365.018,639.019,365.854,639.156Z" transform="translate(-334.776 -433.483)"/>
      </g>
      <g id="Group_13" data-name="Group 13" class="cls-5" transform="translate(0 394.308)">
        <path id="Path_151" data-name="Path 151" class="cls-1" d="M49.244,614.2c-1.065.918-3.331,1.3-6.039-.6-3.359-2.349-9.012.707-9.755,3.194.918,3.671,7.057,1.569,9.517,2.157,2.092.5,4.221,7.81,4.589,8.434.918,1.7,1.707,3.469,2.753,5.1s2.459,3.12,3.542,4.754c2.909,4.4,2.891,9.3,2.625,14.206-.073,1.4,1.946,5.24,3.4,5.791,4.405,1.652,8.948,1.083,13.206-.413,3.2-1.12,4.341-4.708,3.671-8.434-1.074-5.782-1.367-11.407,2.294-16.941,1.744-2.643,2.175-5.928,3.258-9.076.055,0-.33-4.662,2.533-5.167,2.487-.44,9.746-3.185,8.443-5.607-.872-1.615-3.8-3.166-7.03-1.422-2.423,1.312-2.753,2.46-4.846,2.625s-2.047.064-3.552-.679C73.508,608.887,51.391,611.1,49.244,614.2Z" transform="translate(-21.321 -449.183)"/>
        <path id="Path_152" data-name="Path 152" class="cls-1" d="M45.963,438.353c-3.542,0-10.646-.532-14.381.385-5.506,1.358-7.736,4.589-8.975,8.773a58.594,58.594,0,0,0-1.762,8.783,41.349,41.349,0,0,0,.918,18.354c.918,3.542,3.432,10.26,3.322,13.858-.193,5.974-2.882,12.637-3.533,18.611-.587,5.415,1.459,30.578,2.827,38.333,1.285,7.342,2.863,14.592,4.1,21.924.532,3.175,1.835,6.791,2,10.012.294,5.424,1.835,10.223,6.956,13.417,1.835,1.11,13.582,4.01,21.686,3.341,0,0,22.255-1.11,26.614-7.874,2.707-4.249,6.424-8,6.268-12.674-.128-3.671,0-7.837,0-11.554,0-11.93.294-23.861.4-35.727.064-6.6-2.579-24.43-4.166-29.147-2.579-7.617-6.048-9.251-6.3-17.437-.1-3.074,1.422-13.077.716-16.033-1.276-5.35-2.414-13.389-4.157-18.648-1.046-3.139-2.753-6.112-6.286-7.434-3.295-1.221-7.388-2.4-11.013-1.652-1.514.3-6.965,1.468-8.452,1.881-.844.239-.257-3.258-3.423-3.019S46.807,438.344,45.963,438.353Z" transform="translate(-20.234 -434.817)"/>
      </g>
      <g id="Group_14" data-name="Group 14" class="cls-5" transform="translate(73.747 517.643)">
        <path id="Path_153" data-name="Path 153" class="cls-1" d="M280.53,613.3c.918,1.055,1.349,3.313-.514,6.048-2.322,3.386.8,9,3.295,9.709,3.671-.973,1.487-7.066,2.046-9.535.486-2.1,7.764-4.322,8.388-4.671,1.679-.918,3.441-1.753,5.066-2.817s3.093-2.5,4.717-3.6c4.359-2.964,9.26-3,14.17-2.753,1.4.055,5.222-2.01,5.745-3.46,1.606-4.433.982-8.966-.56-13.206-1.165-3.194-4.754-4.286-8.48-3.542-5.763,1.138-11.389,1.5-16.959-2.1-2.661-1.716-5.956-2.111-9.113-3.157,0,0-4.671.395-5.2-2.459-.468-2.487-3.295-9.719-5.708-8.379-1.6.918-3.111,3.836-1.331,7.039,1.34,2.4,2.487,2.753,2.671,4.818a4.561,4.561,0,0,1-.633,3.561C274.941,589.1,277.41,611.232,280.53,613.3Z" transform="translate(-114.968 -569.211)"/>
        <path id="Path_154" data-name="Path 154" class="cls-1" d="M104.8,616.915c.073,3.542-.5,11.159.459,14.894,1.432,5.506,4.7,7.672,8.883,8.874a58.755,58.755,0,0,0,8.8,1.652,42.143,42.143,0,0,0,18.354-1.083c3.524-.918,10.223-3.552,13.821-3.478,5.965.119,12.674,2.753,18.648,3.3,5.424.532,30.56-1.835,38.3-3.267,7.342-1.377,14.564-3.038,21.878-4.359,3.166-.569,6.764-1.918,9.985-2.12,5.415-.349,10.205-1.936,13.334-7.112,1.092-1.835,3.854-13.628,3.084-21.713,0,0-1.367-22.245-8.177-26.476-4.286-2.661-8.076-6.332-12.747-6.121-3.671.165-7.837.11-11.554.138-11.93.119-23.861,0-35.736,0-6.6,0-24.393,2.863-29.082,4.506-7.6,2.671-9.177,6.149-17.382,6.507-3.074.138-13.1-1.276-16.051-.532-5.332,1.349-13.353,2.57-18.584,4.378-3.139,1.083-6.094,2.753-7.342,6.369-1.184,3.313-2.3,7.415-1.523,11.013.321,1.514,1.065,7.057,1.5,8.535.248.835-3.331.532-3.056,3.671S104.793,616.07,104.8,616.915Z" transform="translate(-100.593 -569.268)"/>
      </g>
      <g id="Group_15" data-name="Group 15" class="cls-5" transform="translate(131.478 386.374)">
        <path id="Path_155" data-name="Path 155" class="cls-1" d="M332.518,467.495c1.266.578,2.606,2.45,2.047,5.708-.7,4.047,4.478,7.856,7.048,7.461,2.909-2.414-1.6-7.048-2.111-9.526-.441-2.111,5.249-7.158,5.671-7.736,1.138-1.569,2.4-3.028,3.432-4.671s1.771-3.561,2.753-5.24c2.753-4.506,7.167-6.589,11.719-8.443,1.3-.523,3.909-3.992,3.79-5.506-.385-4.7-2.845-8.553-6.011-11.774-2.386-2.414-6.112-1.909-9.177.312-4.763,3.441-9.728,6.1-16.3,5.158-3.129-.45-6.286.56-9.6.918,0-.055-4.075,2.294-5.754-.073-1.459-2.065-7.048-7.461-8.672-5.24-1.092,1.478-1.239,4.781,1.716,6.956,2.221,1.634,3.4,1.432,4.433,3.267a4.7,4.7,0,0,1,.918,3.506C317.394,447.828,328.811,466.889,332.518,467.495Z" transform="translate(-175.607 -426.172)"/>
        <path id="Path_156" data-name="Path 156" class="cls-1" d="M174.916,538.22c1.533,3.184,4.488,11.15,6.91,14.133,3.6,4.442,7.47,5.029,11.765,4.378a58.4,58.4,0,0,0,8.691-2.166,42.081,42.081,0,0,0,16.234-8.627c2.817-2.313,7.81-7.489,11.114-8.92,5.506-2.377,12.655-2.753,18.354-4.754,5.158-1.835,27.027-14.381,33.46-18.933,6.066-4.286,11.976-8.819,18.07-13.068,2.643-1.835,5.359-4.589,8.2-6.094,4.781-2.57,8.471-6.011,9.177-12.013.248-2.1-2.175-14-6.24-21.034,0,0-10.508-19.648-18.464-20.658-5-.642-9.976-2.4-14.133-.257-3.3,1.7-7.085,3.359-10.444,4.937-10.783,5.066-21.667,9.911-32.487,14.895-5.993,2.753-20.979,12.765-24.558,16.225-5.8,5.58-5.791,9.416-13.1,13.151-2.753,1.4-12.435,4.295-14.812,6.2-4.286,3.441-11.068,7.9-15.078,11.719-2.4,2.294-4.368,5.066-4.038,8.865.3,3.5.991,7.7,3.221,10.682.918,1.239,3.882,4.772,4.891,5.938.569.661-4.589,3.111-3.166,5.323C169.594,539.964,174.549,537.458,174.916,538.22Z" transform="translate(-163.501 -427.242)"/>
      </g>
      <g id="Group_16" data-name="Group 16" class="cls-5" transform="translate(4.751 289.893)">
        <path id="Path_157" data-name="Path 157" class="cls-1" d="M72.186,346.351c.211-1.377,1.634-3.194,4.919-3.561,4.075-.468,6.286-6.5,5.185-8.856-3.129-2.12-6.323,3.506-8.553,4.69-1.9,1.009-8.342-3.038-9.012-3.285-1.835-.652-3.579-1.459-5.451-1.991s-3.909-.707-5.8-1.211c-5.093-1.358-8.333-5.038-11.389-8.893-.872-1.1-4.928-2.643-6.369-2.083-4.405,1.679-7.424,5.112-9.627,9.058-1.652,2.964-.128,6.424,2.872,8.737,4.589,3.607,8.581,7.635,9.508,14.2.441,3.139,2.294,5.883,3.57,8.957-.046,0,3.35,3.276,1.542,5.506-1.578,1.973-5.194,8.847-2.606,9.792,1.725.633,4.937-.147,6.195-3.6.918-2.579.431-3.671,1.89-5.167s1.5-1.413,3.12-1.835C57.549,366.4,72.654,350.077,72.186,346.351Z" transform="translate(-25.411 -321.041)"/>
        <path id="Path_158" data-name="Path 158" class="cls-1" d="M182.99,467.295c2.634-2.368,8.682-5.974,10.875-9.177,3.249-4.7,2.753-8.572.918-12.518a59.589,59.589,0,0,0-4.506-7.746c-3.937-5.919-6.965-9.177-12.848-13.169-3-2.065-9.361-5.405-11.664-8.177-3.818-4.589-6.222-11.371-9.691-16.271-3.157-4.442-21.364-21.924-27.532-26.825-5.809-4.589-11.82-9.03-17.6-13.7-2.505-2.019-5.873-3.864-8.14-6.167-3.809-3.873-8.14-6.424-14.1-5.433-2.083.358-12.848,6-18.446,11.875,0,0-15.932,15.6-14.683,23.5.78,4.974.486,10.251,3.671,13.637,2.606,2.772,5.259,5.929,7.727,8.682,7.874,8.939,15.6,18.033,23.383,27.027,4.322,4.983,18.116,16.583,22.438,19.052,6.975,4,10.655,2.918,16.289,8.893,2.111,2.239,7.6,10.737,10.095,12.481,4.5,3.157,10.682,8.425,15.473,11.205,2.863,1.661,6.075,2.753,9.636,1.4,3.276-1.276,7.112-3.111,9.361-6.084.918-1.23,4.7-7.6,5.506-8.893.532-.817,3.084,2.4,4.589.642C184.44,470.69,182.439,467.827,182.99,467.295Z" transform="translate(-27.887 -323.25)"/>
      </g>
      <g id="Group_17" data-name="Group 17" class="cls-5" transform="translate(199.115 209.846)">
        <path id="Path_159" data-name="Path 159" class="cls-1" d="M284.591,257.35c.138-1.395,1.468-3.267,4.726-3.809,4.056-.661,5.965-6.791,4.754-9.095-3.23-1.964-6.14,3.809-8.315,5.1-1.835,1.11-8.48-2.625-9.177-2.836-1.835-.56-3.671-1.285-5.506-1.725s-3.937-.5-5.855-.918c-5.158-1.11-8.572-4.589-11.811-8.324-.918-1.055-5.047-2.4-6.47-1.771-4.313,1.89-7.158,5.506-9.177,9.526-1.505,3.038.184,6.424,3.285,8.581,4.809,3.377,8.948,7.2,10.2,13.711.6,3.111,2.588,5.763,4.01,8.773-.055,0,3.5,3.111,1.835,5.46-1.478,2.056-4.754,9.095-2.12,9.921,1.753.541,4.919-.395,6.011-3.9.817-2.625.248-3.671,1.634-5.259s1.422-1.478,3.019-2C270.972,278.09,285.234,261.039,284.591,257.35Z" transform="translate(-237.202 -233.816)"/>
        <path id="Path_160" data-name="Path 160" class="cls-1" d="M401.219,373.309c2.514-2.5,8.461-7.076,10.5-10.343,3.019-4.846,2.313-8.691.294-12.545a59.092,59.092,0,0,0-4.882-7.507,42.093,42.093,0,0,0-13.454-12.527c-3.1-1.909-9.627-4.937-12.059-7.6-4.038-4.4-6.773-11.013-10.48-15.766-3.368-4.295-22.411-20.86-28.807-25.448-6.039-4.341-12.252-8.443-18.253-12.848-2.6-1.891-6.066-3.57-8.434-5.754-3.992-3.671-8.452-6.048-14.344-4.745-2.074.459-12.527,6.626-17.85,12.766,0,0-15.142,16.344-13.5,24.2,1.028,4.928.991,10.214,4.368,13.445,2.68,2.57,5.506,5.6,8.085,8.259,8.259,8.535,16.436,17.244,24.677,25.843,4.589,4.763,18.914,15.665,23.347,17.923,7.167,3.671,10.792,2.4,16.712,8.085,2.221,2.129,8.122,10.352,10.691,11.93,4.653,2.927,11.086,7.883,16.005,10.425,2.946,1.514,6.213,2.478,9.691.918,3.212-1.432,6.956-3.451,9.049-6.534.872-1.276,4.368-7.085,5.139-8.415.44-.753,3.258,2.588,4.176.918S400.613,373.906,401.219,373.309Z" transform="translate(-239.886 -235.795)"/>
      </g>
      <g id="Group_18" data-name="Group 18" class="cls-5" transform="translate(0.317 5.741)">
        <path id="Path_161" data-name="Path 161" class="cls-1" d="M140.62,60.233c1.386-.128,3.487.808,4.644,3.909,1.432,3.845,7.819,4.534,9.838,2.9,1.312-3.552-4.919-5.286-6.608-7.167-1.441-1.606.918-8.828,1.009-9.544.184-1.927.551-3.827.615-5.763s-.257-3.965-.229-5.928c.092-5.268,2.882-9.3,5.883-13.2.853-1.11,1.367-5.415.486-6.69-2.7-3.864-6.764-5.965-11.123-7.14-3.276-.918-6.24,1.413-7.782,4.882-2.386,5.378-5.332,10.177-11.481,12.665-2.937,1.184-5.158,3.671-7.828,5.626,0-.046-2.368,4.038-5.011,2.836-2.3-1.055-9.847-2.9-10.095-.165-.2,1.835,1.331,4.754,4.983,5.148,2.753.294,3.671-.468,5.506.587s1.734,1.11,2.551,2.57C117.677,50.872,137.151,61.582,140.62,60.233Z" transform="translate(-27.355 -11.411)"/>
        <path id="Path_162" data-name="Path 162" class="cls-1" d="M43.174,196.466c2.937,1.982,9.508,7.984,13.1,9.342,5.35,2.019,8.984.587,12.371-2.138a59.817,59.817,0,0,0,6.424-6.24,42.193,42.193,0,0,0,9.682-15.6c1.276-3.414,2.983-10.4,5.121-13.3,3.533-4.809,9.526-8.783,13.445-13.334,3.552-4.13,16.115-26.026,19.391-33.185,3.084-6.764,5.9-13.656,9.04-20.4,1.358-2.909,2.331-6.635,4.01-9.379,2.845-4.589,4.295-9.462,1.835-15-.844-1.946-8.92-11.013-15.977-15.041,0,0-18.969-11.692-26.348-8.562-4.561,1.936-9.792,2.928-12.307,6.865-2,3.129-4.433,6.424-6.543,9.526-6.764,9.8-13.766,19.465-20.575,29.22-3.79,5.4-11.71,21.585-13.068,26.375-2.193,7.736-.257,11.013-4.69,17.96-1.661,2.588-8.59,9.966-9.682,12.8-1.936,5.139-5.607,12.408-7.131,17.767-.918,3.184-1.23,6.58.964,9.691,2.028,2.872,4.735,6.149,8.159,7.617,1.422.606,5.277,1.835,6.736,2.359.707.239-1.184,3.809,1.147,5.139C41.375,200.687,42.385,195.924,43.174,196.466Z" transform="translate(-20.579 -14.841)"/>
      </g>
      <g id="Group_19" data-name="Group 19" class="cls-5" transform="translate(7.244 179.905)">
        <path id="Path_163" data-name="Path 163" class="cls-1" d="M205.579,243.974c1.11.844,2,2.973.725,6.029-1.578,3.781,2.616,8.645,5.2,8.838,3.377-1.707,0-7.222.073-9.755,0-2.157,6.718-5.8,7.259-6.277,1.45-1.276,3.01-2.414,4.387-3.79s2.515-3.065,3.882-4.478c3.671-3.79,8.452-4.827,13.307-5.616,1.386-.229,4.708-3.019,4.928-4.589.67-4.671-.863-8.975-3.24-12.848-1.78-2.882-5.506-3.221-9.021-1.744-5.405,2.294-10.838,3.781-17.033,1.395-2.955-1.138-6.259-.853-9.563-1.239,0-.055-4.488,1.331-5.589-1.358-.964-2.34-5.2-8.838-7.342-7.039-1.386,1.193-2.276,4.387.128,7.167,1.835,2.083,2.992,2.147,3.6,4.166s.5,1.991.1,3.616C195.191,221.417,202.11,242.561,205.579,243.974Z" transform="translate(-41.627 -201.191)"/>
        <path id="Path_164" data-name="Path 164" class="cls-1" d="M35.628,284.881A27.33,27.33,0,0,0,38.3,295.224c2.524,5.121,6.158,6.562,10.5,6.883a59.516,59.516,0,0,0,8.957-.165,42.068,42.068,0,0,0,17.749-4.8c3.258-1.615,9.278-5.506,12.848-6.213,5.864-1.092,12.958.1,18.923-.541,5.424-.587,29.56-7.993,36.837-11.013,6.874-2.836,13.646-5.938,20.539-8.718,2.983-1.2,6.231-3.249,9.342-4.1,5.231-1.45,9.6-3.974,11.609-9.673.707-2,1.009-14.133-1.386-21.9,0,0-5.864-21.493-13.389-24.255-4.735-1.744-9.177-4.589-13.766-3.4-3.6.918-7.654,1.7-11.279,2.487-11.637,2.533-23.328,4.827-34.993,7.277-6.424,1.349-23.3,7.755-27.532,10.324-6.892,4.157-7.736,7.892-15.7,9.9-2.983.762-13.077,1.422-15.812,2.753-4.956,2.4-12.564,5.231-17.317,8.067-2.845,1.7-5.387,3.955-5.919,7.736-.486,3.478-.743,7.718.762,11.132.624,1.413,3.249,6.25,3.974,7.617.4.771-3.047,1.211-2.129,4.258S35.205,279.32,35.628,284.881Z" transform="translate(-28.128 -201.673)"/>
      </g>
      <g id="Group_20" data-name="Group 20" class="cls-5" transform="translate(225.678 5.222)">
        <path id="Path_165" data-name="Path 165" class="cls-1" d="M323.358,57.213c1.193-.716,3.5-.771,5.873,1.533,2.946,2.854,9.012.725,10.095-1.615-.349-3.772-6.718-2.661-9.058-3.671-1.991-.826-2.946-8.379-3.194-9.058-.652-1.835-1.138-3.671-1.918-5.506s-1.946-3.46-2.753-5.249c-2.184-4.79-1.4-9.627-.367-14.445.294-1.367-1.092-5.506-2.441-6.24-4.093-2.331-8.663-2.478-13.114-1.67-3.341.606-5.02,3.965-4.919,7.764.156,5.873-.44,11.471-4.919,16.363-2.147,2.34-3.084,5.506-4.653,8.452-.046,0-.4,4.662-3.3,4.708-2.533.046-10.095,1.615-9.223,4.212.615,1.734,3.258,3.726,6.718,2.505,2.6-.918,3.1-2,5.194-1.835s2.037.257,3.4,1.23C298.571,58.654,320.77,59.938,323.358,57.213Z" transform="translate(-267.236 -10.846)"/>
        <path id="Path_166" data-name="Path 166" class="cls-1" d="M298.481,220.7c3.506.523,11.013,3,14.876,2.68,5.69-.477,8.36-3.331,10.242-7.25a59.341,59.341,0,0,0,3.12-8.406,42.151,42.151,0,0,0,2.019-18.272c-.321-3.625-1.78-10.664-1.1-14.2,1.12-5.864,4.827-12.031,6.424-17.822,1.432-5.268,3.35-30.432,3.221-38.306-.119-7.434-.532-14.867-.606-22.3,0-3.212-.753-6.993-.413-10.2.569-5.405-.193-10.389-4.763-14.344-1.6-1.386-12.784-6.094-20.887-6.7,0,0-22.154-2.4-27.476,3.6-3.341,3.772-7.6,6.892-8.177,11.536-.459,3.671-1.211,7.746-1.835,11.407-1.891,11.765-4.029,23.484-6.011,35.231-1.092,6.507-1.285,24.531-.45,29.431,1.349,7.938,4.515,10.095,3.487,18.235-.385,3.056-3.46,12.692-3.23,15.72.431,5.506.284,13.6,1.193,19.061.532,3.276,1.707,6.47,5.029,8.342,3.065,1.716,6.92,3.515,10.646,3.359,1.542-.064,6.488-.918,8.021-1.055.771-.083-.376,3.451,2.423,3.671C297.719,224.4,297.563,220.553,298.481,220.7Z" transform="translate(-266.146 -15.311)"/>
      </g>
      <g id="Group_21" data-name="Group 21" class="cls-5" transform="translate(299.1 53.763)">
        <path id="Path_167" data-name="Path 167" class="cls-1" d="M368.673,243.666c-1.11.835-3.4,1.12-6-.918-3.221-2.533-9.03.2-9.911,2.643.734,3.717,6.956,1.955,9.379,2.68,2.065.624,3.79,8.03,4.1,8.682.844,1.744,1.514,3.552,2.469,5.24S371,265.242,372,266.94c2.661,4.543,2.377,9.434,1.835,14.326-.156,1.395,1.652,5.341,3.065,5.965,4.313,1.9,8.874,1.578,13.215.321,3.258-.918,4.589-4.46,4.1-8.259-.753-5.827-.734-11.462,3.221-16.785,1.891-2.542,2.505-5.8,3.763-8.883,0,0-.073-4.68,2.808-5.02,2.515-.3,9.911-2.643,8.737-5.139-.78-1.661-3.616-3.368-6.938-1.835-2.487,1.175-2.872,2.3-4.983,2.349s-2.047-.055-3.506-.918C393.185,239.7,370.968,240.684,368.673,243.666Z" transform="translate(-346.695 -78.32)"/>
        <path id="Path_168" data-name="Path 168" class="cls-1" d="M374.81,67.888c-3.542-.174-10.572-1.276-14.353-.569-5.616,1.055-7.975,4.166-9.443,8.259a58.429,58.429,0,0,0-2.248,8.672,41.976,41.976,0,0,0-.147,18.354c.688,3.579,2.863,10.434,2.551,14.023-.514,5.947-3.57,12.463-4.589,18.354-.918,5.378-.22,30.615.707,38.425.918,7.342,2.056,14.739,2.891,22.126.358,3.194,1.459,6.883,1.45,10.095,0,5.433,1.257,10.315,6.2,13.766,1.734,1.221,13.344,4.763,21.465,4.534,0,0,22.282.119,26.963-6.424,2.937-4.093,6.855-7.626,6.956-12.307.083-3.671.413-7.828.624-11.536.688-11.884,1.615-23.769,2.377-35.653.431-6.589-1.23-24.531-2.56-29.367-2.147-7.755-5.506-9.572-5.332-17.776.073-3.074,2.147-12.986,1.606-15.968-.982-5.415-1.67-13.509-3.129-18.85-.918-3.194-2.368-6.25-5.864-7.773-3.221-1.395-7.241-2.753-10.93-2.258-1.523.22-6.709,1.156-8.214,1.487-.826.184-.3-3.827-3.4-3.763C375.2,63.979,375.673,67.925,374.81,67.888Z" transform="translate(-346.151 -63.739)"/>
      </g>
      <g id="Group_22" data-name="Group 22" class="cls-5" transform="translate(94.123)">
        <path id="Path_169" data-name="Path 169" class="cls-1" d="M142.255,152.857c-1.386,0-3.4-1.1-4.286-4.295-1.092-3.955-7.4-5.194-9.553-3.744-1.606,3.432,4.451,5.7,5.974,7.718,1.294,1.725-1.707,8.718-1.835,9.425-.358,1.9-.918,3.753-1.12,5.681s-.083,3.974-.285,5.928c-.551,5.24-3.671,9.012-7,12.637-.918,1.028-1.835,5.277-1.065,6.626,2.349,4.084,6.213,6.525,10.453,8.076,3.184,1.175,6.341-.918,8.177-4.194,2.845-5.139,6.195-9.673,12.536-11.618,3.028-.918,5.46-3.184,8.259-4.928,0,.046,2.753-3.809,5.231-2.386,2.2,1.248,9.553,3.744,10.095,1.046.349-1.835-.918-4.855-4.524-5.561-2.7-.532-3.671.147-5.4-1.065s-1.634-1.248-2.313-2.753C164.28,164.209,145.834,151.82,142.255,152.857Z" transform="translate(-122.796 -16.599)"/>
        <path id="Path_170" data-name="Path 170" class="cls-1" d="M243.846,14.557c-2.753-2.23-7.076-6.351-10.545-8.021C228.126,4.1,224.4,5.169,220.784,7.6a58.9,58.9,0,0,0-6.929,5.671,41.985,41.985,0,0,0-11.013,14.683c-1.569,3.285-3.873,10.095-6.25,12.848-3.946,4.488-10.26,7.92-14.555,12.114-3.9,3.809-18.354,24.531-22.2,31.386-3.671,6.424-7.066,13.087-10.774,19.529-1.606,2.753-2.9,6.424-4.818,9-3.221,4.368-5.093,9.049-3.166,14.775.679,2,7.938,11.728,14.619,16.363,0,0,17.877,13.3,25.5,10.82,4.8-1.56,10.095-2.092,12.9-5.791,2.258-2.946,4.965-6.066,7.342-8.929,7.6-9.177,15.381-18.2,23.035-27.32,4.249-5.047,13.546-20.493,15.308-25.145,2.863-7.516,1.221-11.013,6.24-17.437,1.881-2.432,9.416-9.177,10.746-11.93,2.414-4.937,6.653-11.866,8.645-17.033,1.193-3.084,1.835-6.424-.119-9.737-1.771-3.038-4.185-6.534-7.47-8.259-1.358-.734-6.984-3.671-8.4-4.277-.918-.431,2.57-3.882-.431-6.029C246.985,11.437,244.369,14.979,243.846,14.557Z" transform="translate(-124.236 -5.156)"/>
      </g>
      <path id="Path_171" data-name="Path 171" class="cls-1" d="M253.806,402.038c15.262-3.35-2.753-21.107-7.342-18.354-5.249,3.148-13.766,5.974-16.3.119-2.432-5.6-17.8-17.565-22.025-14.225s4.946,22.943,4.946,22.943l12.848,3.827Z" transform="translate(-35.604 -35.094)"/>
      <path id="Path_172" data-name="Path 172" class="cls-1" d="M210.148,336.829s6.681,11.26,17.547,8.847c5.928-1.312,12.536-.808,13.371-4.827s-7.525-4.827-10.031-8.847c-.606-.973-11.7-9.645-18.354-8.039C206.321,325.477,210.148,336.829,210.148,336.829Z" transform="translate(-35.767 -31.372)"/>
      <path id="Path_173" data-name="Path 173" class="cls-1" d="M143.116,318.734s-4.653,14.8,8.131,6.828c3.1-1.927,5.259-5.974,5.818-9.1s7.47-7.112,5.809-10.251c-.4-.762-11.829-2.4-16.271-1.138C142.391,306.243,143.116,318.734,143.116,318.734Z" transform="translate(-30.277 -29.796)"/>
      <path id="Path_174" data-name="Path 174" class="cls-1" d="M167.45,339.568s1.386,8.727,13.371,3.01c4.543-2.166,9.884,3.249,12.848,1.624,6.6-3.57-5.506-19.428-10.857-15.693-4.157,2.882-6.7,7.342-10.618,4.717C167.661,330.143,167.45,339.568,167.45,339.568Z" transform="translate(-32.347 -31.716)"/>
      <path id="Path_175" data-name="Path 175" class="cls-1" d="M255.545,355.035a6.424,6.424,0,0,0,5.938,3.854c4.708,0,13.72-.358,13.72-3.744,0-7.039,16.014-2.671,14.684-7.342-1.835-6.424-12.848-8.259-22.025-12.848-6.653-3.331-7.342,11.013-10.7,14.188C254.9,351.272,254.857,353.356,255.545,355.035Z" transform="translate(-39.564 -32.252)"/>
      <path id="Path_176" data-name="Path 176" class="cls-1" d="M131,361.259s21.814,14.546,24.283,7.066c1.331-4.047,15.6-2.836,15.17-6.516-1.009-8.682-20.539-9.177-25.292-8.682C137.341,353.917,131,361.259,131,361.259Z" transform="translate(-29.348 -33.777)"/>
      <path id="Path_177" data-name="Path 177" class="cls-1" d="M299.147,382.46a3.579,3.579,0,0,0,.147,1.569,2.808,2.808,0,0,0,1.395,1.771c-.266-.578-.477-1-.652-1.395,1.679,1.909,5.974,2.753,5.974,2.753-4.378-1.964-5.231-3.423-5.378-4.029a1.239,1.239,0,0,0-.34-.615l-.523-.5S299.01,381.579,299.147,382.46Z" transform="translate(-43.181 -36.156)"/>
      <path id="Path_178" data-name="Path 178" class="cls-1" d="M301.412,382.685a1.972,1.972,0,0,0,.459.817,1.67,1.67,0,0,0,1.193.624l-.7-.6a3.543,3.543,0,0,0,2.331.33,4.3,4.3,0,0,1-3.056-1.569S301.128,382.244,301.412,382.685Z" transform="translate(-43.363 -36.187)"/>
      <path id="Path_179" data-name="Path 179" class="cls-1" d="M302.543,378.638a9.179,9.179,0,0,0,2.028-.652s-1.725.284-2.459.3h-.762l.532-.45a3.091,3.091,0,0,0-1.331.688,2.147,2.147,0,0,0-.633.991c-.376.542.156.523.156.523l.441-.147a.918.918,0,0,0,.385-.294c.294-.349,1.762-.863,4.433.578A9.773,9.773,0,0,0,302.543,378.638Z" transform="translate(-43.236 -35.821)"/>
      <path id="Path_180" data-name="Path 180" class="cls-6" d="M344.239,397.861a.808.808,0,0,0-.853-.771c-.835,0-1.386.073-1.386.743s1.257.817,1.257.817A.918.918,0,0,0,344.239,397.861Z" transform="translate(-46.71 -37.405)"/>
      <path id="Path_181" data-name="Path 181" class="cls-6" d="M345.488,393.483a.808.808,0,0,1-1.147-.092c-.578-.606-.918-1.065-.4-1.523s1.45.367,1.45.367A.918.918,0,0,1,345.488,393.483Z" transform="translate(-46.848 -36.964)"/>
    </g>
  </g>
</svg>
