<svg id="cow-thirsty" xmlns="http://www.w3.org/2000/svg" width="461.14" height="441.753" viewBox="0 0 461.14 441.753">
  <g id="Layer_2" data-name="Layer 2" transform="translate(7.374 363.638)">
    <path id="Path_450" data-name="Path 450" d="M324.1,272s20.054,35.508,21.3,57.995c.588,11.217-8.021,20.12-21.31,20.12-12.166,0-17.005-7.821-18.917-13.369a22.729,22.729,0,0,1-.989-9.465C305.248,316.265,310.542,295.971,324.1,272Z" transform="translate(-298.149 -272)" fill="#7fb7d6"/>
    <path id="Path_451" data-name="Path 451" d="M305.342,288.343l20.9,20.374,20.963-21.5,5.6,5.468-20.963,21.5,20.909,20.374-5.628,5.762-20.9-20.374-20.963,21.511-5.6-5.468,20.949-21.5-20.9-20.374Z" transform="translate(-299.66 -266.872)" fill="#dd534a"/>
  </g>
  <g id="Layer_3" data-name="Layer 3">
    <path id="Path_452" data-name="Path 452" d="M365.3,87.1v25.4l-4.011,8.021-9.358,8.021-36.1,1.337-8.021-6.685-10.7-10.7-10.7-14.706L273.05,79.075l4.011-9.358L290.43,51l30.749,6.685,36.1,14.706Z" transform="translate(-269.205 17.182)" fill="#40403f" opacity="0.1"/>
    <path id="Path_453" data-name="Path 453" d="M4.406,84.225c0-5.348,6.685-14.706,24.064-20.054s28.342.628,28.6.668h0C91.826,87.567,80.409,77.1,87.815,79.546,102,84.225,91.3,68.182,115.89,42.112c12.567-13.369,16.364-26.564,35.575-34.091,0,0,18.717-8.021,30.749-8.021l38.77,4.011c21.39,8.021,49.465,20.054,66.177,38.1,13.489,14.572,16.711,22.059,32.754,36.765,5.749,5.267,24.064,5.348,48.128-9.358h0c.227,0,40.816-8.677,58.155-3.342s31.417,18.048,31.417,23.4,2.674,12.032,0,25.4-80.883,58.155-87.567,54.145c0,0-18.717-2.674-38.77-26.738h0c-.388,0-14.118,1.1-21,30.829h0a64.36,64.36,0,0,1-1.511,15.749h0c-.08,1.845-.16,3.757-.2,5.749l-.909-1.658a276.122,276.122,0,0,0-9.786,64.292c-.227,7.032-.147,12.727,0,16.15h0c-1.965,7.086-8.636,17.754-12.647,27.286-3.636,8.65-5.134,18.128-12.193,28.9l-.508.775-27.193,20.321c-31.03,14.2-74.252,15.535-92.527,16.872-53.476,4.011-52.834-11.832-56.15-26.738-5.348-24.064-4.786-65.308,0-74.867,8.021-16.043,6.35-58.61,2.674-68.182,0,0-5.348-16.043-6.685-30.749-2.005-22.072,2.059-27.46,1.858-27.407h0c-8.529,1.992-48.637,6-48.637,6-6.685,4.011-40.107-25.4-42.781-38.77S4.406,89.573,4.406,84.225Z" transform="translate(-0.561)" fill="#fff"/>
    <path id="Path_454" data-name="Path 454" d="M91.867,76.759c44.051-23.824,61.5-1.337,62.834,8.021,4.759,33.329-33.77,23.877-42.005,23.476a1.6,1.6,0,0,0-1.644,1.337c-2.767,18.1-17.674,16.417-23.169,15.147a1.618,1.618,0,0,0-1.965,1.591c.094,19.332-16.043,20.575-16.043,20.575-7.353.668-27.072-14.037-34.759-20.428-1.15-.963-2.5-.575-2.674.909a1.6,1.6,0,0,0,.361,1.243c8.021,9.358,21.979,24.332,40.4,26.965,15.909,2.273,68.182-29.532,83.262-46.016,12.941-14.1,5.588-36.163,5.588-36.163C138.725,37.08,77.161,51.358,71.318,53.323c-.12,0-19.4,9.813-28.409,12.955a11.324,11.324,0,0,1-7.821-.147L22.522,61.3a7.647,7.647,0,0,1-2.674-1.738L2.775,42.495A1.618,1.618,0,0,0,.008,43.831L.2,45.93a1.671,1.671,0,0,0,.588,1.15c9,7.126,13.182,63.851,30.241,65.161,5.267.4,13.008-2.754,21.217-7.353,1.337-.762-3.168-5.348-8.516-6.685-1.578-.4,15.428,2.567,16.818,1.671,2.888-1.845,1.818-1.07,4.572-3.008,1.912-1.337-1.337-8.021-10.7-9.358-2.674-.374,18.5,2.513,20.054,1.337,1.992-1.511,6.19-5.348,8.021-6.685,1.537-1.11,1.337-4.011-12.032-6.685" transform="translate(297.006 14.15)" fill="#1e2833"/>
    <path id="Path_455" data-name="Path 455" d="M322.945,68.745c-37.433-24.064-44.118,9.131-44.118,9.358-1.939,15.147,4.011,22.727,12.032,29.412,1.337,1.1,6.283,1.979,8.021,2.674,6.685,2.674,8.021,12.032,12.032,13.369s12.032-5.348,18.717,0c17.38,13.9,29.412-5.348,29.412-5.348,4.011,8.021-9.652,17.38-28.075,20.054-15.909,2.273-33.423-9.358-52.139-28.075-3.422-3.422-9.786-20.655-10.7-25.4-5.348-28.075,9.358-34.759,9.358-34.759,26.738-10.7,40.107-2.674,45.669.628.12,0,20.054,13.2,28.409,12.955,7.473-.214,19.505-21.6,19.505-21.6,1.07-1.07-5.348,28.075-8.021,48.129-.562,4.184-4.987,9.8-15.227,5.348-6.163-2.674,4.532-4.011,7.206-8.021L343.653,88.6a4.211,4.211,0,0,1-3.409-1.217l-3.931-3.93,8.021-5.348H332.3l-5.348-5.348,6.685-2.674Z" transform="translate(-266.961 14.143)" fill="#1e2833"/>
    <path id="Path_456" data-name="Path 456" d="M292.084,253.827c1.925,22.995,5.642,31.658,5.642,31.658l-64.666,4.987-16.952-2.433-.428-13.61s7.647-23.409,3.155-27.741-.481-11.029-.481-11.029,38.77-6.685,44.118,1.337S291.4,245.725,292.084,253.827Z" transform="translate(-124.937 78.514)" fill="#ddd"/>
    <path id="Path_457" data-name="Path 457" d="M220.373,250.8c-8.409-6.751-10.9-18.048-10.909-24.479a.653.653,0,0,1,0-.16c.241-1.564,4.412-26.658,17.38-26.658h61.5c9.358,0,20.054,10.16,20.054,25.4,0,13.7-12.166,22.487-16.537,25.187-.8.508-.775,1.257,0,1.7,9.8,5.348,19.652,14.064,23.8,17.955a.989.989,0,0,1-.775,1.7L303.1,270.369h-.214a277,277,0,0,0-29.318-8.021c-13.369-2.674-37.433,0-37.433,0-17.38,2.674-20.054,4.011-20.054,4.011l-6.979,1.992a.949.949,0,0,1-1.056-1.431c2.38-3.65,7.54-11.1,12.246-14.519a.949.949,0,0,0,.08-1.6Z" transform="translate(-132.758 67.212)" fill="#1e2833" stroke="#1e2833" stroke-miterlimit="10" stroke-width="1"/>
    <path id="Path_458" data-name="Path 458" d="M269.979,262.837c2.674,0,33.8,14.706,24.064,14.706-4.011,0-54.572,1.337-58.824,1.337s-16.725-1.337-22.727-5.348c-4.011-2.674-5.348-10.7-5.348-10.7a53.477,53.477,0,0,1,18.717,0c8.021,1.337,21.39-1.337,21.39-1.337Z" transform="translate(-111.722 88.1)" fill="#1e2833" stroke="#1e2833" stroke-miterlimit="10" stroke-width="1"/>
    <path id="Path_459" data-name="Path 459" d="M194.434,21.57s5.508.214,9.225,15.027a38.891,38.891,0,0,1-.227,20.9C202.308,41.944,200.1,36.958,194.434,21.57Z" transform="translate(-3.784 7.267)" fill="#1e2833"/>
    <path id="Path_460" data-name="Path 460" d="M177.72,3,184.4,4.965c6.685,1.952,18.021,12.259,18.021,12.259C195.22,12.358,181.343,5.38,177.72,3Z" transform="translate(21.112 1.011)" fill="#1e2833"/>
    <path id="Path_461" data-name="Path 461" d="M233.64,50.315s0-2.995,3.222-8.931a77.541,77.541,0,0,1,5.348-9.1,51.564,51.564,0,0,1-8.57,18.035Z" transform="translate(-93.431 10.875)" fill="#1e2833"/>
    <path id="Path_462" data-name="Path 462" d="M187.226,5.625c2.968.241,7.473,1.444,13.89,5.227A25.254,25.254,0,0,1,213.563,27.51c-4.532-3.783-7.848-6.685-11-9.211,13.062,19.479,9.211,58.971,9.211,58.971-6.19-43.088-17.219-54.185-22.34-57.046a11.9,11.9,0,0,1-4.706-4.452L181.5,9.943S179.632,2.256,187.226,5.625Z" transform="translate(5.189 1.607)" fill="#1e2833"/>
    <path id="Path_463" data-name="Path 463" d="M227.271,25.8c-4.131,5.856-5.588,10.535-11.07,15.682,0,0,7.233-14.225,9.358-20.588.922-2.767,1.751-4.906,2.487-6.551-1.644,1.043-3.422,2.179-5.588,3.516a28.476,28.476,0,0,1,9.826-9.826,20.963,20.963,0,0,1,10.775-2.914c5.949-1.925,4.385,2.674,4.385,2.674l-2.567,3.463a8.6,8.6,0,0,1-3.69,2.674C237.177,15.573,228.621,27,234.6,53.942,234.53,53.835,227.578,38.675,227.271,25.8Z" transform="translate(-75.538 1.566)" fill="#1e2833"/>
    <path id="Path_464" data-name="Path 464" d="M108.123,178.684c.909-26.818,15.107-42.861,24.064-56.15,10.054-14.92,23.356-17.888,34.759-22.727,2.219-.949,12.513-9.773,13.369-12.032,1.885-4.96,12.286-11.591,11.364-18.048-1.217-8.476,7.447,45.575,16.043,55.829a8.636,8.636,0,0,1,1.8,6.965c-1.818,11.136-5.816,36.31-5.816,41.444,0,6.564-11.6,63.423-13.289,75.589a8.992,8.992,0,0,1-.294,1.337c-3.369,11.23-5.989,20.455-8.944,27.059h0l-16.2,29.639c-2.487-6.685-1.136-18.717-6.685-30.682C146.893,252.214,107.013,211.171,108.123,178.684Z" transform="translate(106.952 23.188)" fill="#1e2833"/>
    <path id="Path_465" data-name="Path 465" d="M185.492,214.254c1.685-5.735,18.048-23.4,16.711-32.754" transform="translate(10.867 61.148)" fill="none" stroke="#1e2833" stroke-miterlimit="10" stroke-width="1.5"/>
    <path id="Path_466" data-name="Path 466" d="M243.113,208.773s5.027,3.837,2.674,15.08-11.15,13.369-17.193,11.07c-6.537-2.487-9.211-4.011-4.011-17.086C231.428,200.35,242.765,209.174,243.113,208.773Z" transform="translate(-81.861 69.704)" fill="#fff"/>
    <path id="Path_467" data-name="Path 467" d="M275.2,208s-8.021,1.337-6.163,13.73c1.564,10.455,3.823,13.008,7.5,13.008,2.674,0,8.663-2.834,6.685-14.706C281.883,212.011,280.546,209.337,275.2,208Z" transform="translate(-181.781 70.076)" fill="#fff"/>
    <ellipse id="Ellipse_14" data-name="Ellipse 14" cx="3.676" cy="3.676" rx="3.676" ry="3.676" transform="translate(253.177 172.461)" fill="#fff"/>
    <path id="Path_468" data-name="Path 468" d="M163.1,133s-4.291,5.495-6.685,6.685c-2.674,1.337-8.021,1.337-13.369,1.337l4.011,1.337c.495.12,7.513.094,8.021,0C157.756,141.89,161.767,138.348,163.1,133Z" transform="translate(106.785 44.808)" fill="#fff"/>
    <path id="Path_469" data-name="Path 469" d="M145.136,137.048s2.3-6.578,4.185-8.476c2.1-2.126,8.757-7.848,13.824-9.572l-6.685,1.337c-.508,0-7.58,3.77-8.021,4.011C146.059,125.685,144.682,131.554,145.136,137.048Z" transform="translate(104.07 40.091)" fill="#fff"/>
    <path id="Path_470" data-name="Path 470" d="M263.827,231.265s11.083-24.612,17.487-47.661c6.685-24.064,5.348-45.455-5.348-64.171-8.4-14.706-10.7-29.412-14.706-37.433l-4.011,26.738s-4.011,16.043-1.337,30.749c2.848,15.642,9.358,38.77,9.358,38.77S266.608,223.712,263.827,231.265Z" transform="translate(-165.17 27.626)" fill="#1e2833"/>
    <ellipse id="Ellipse_15" data-name="Ellipse 15" cx="2.286" cy="2.286" rx="2.286" ry="2.286" transform="translate(100.663 169.706)" fill="#fff"/>
    <path id="Path_471" data-name="Path 471" d="M265.05,130s2.286,3.89,3.57,4.733,4.278.949,7.126.949l-2.139.949c-.267.08-4.011,0-4.278,0C267.9,136.3,265.759,133.783,265.05,130Z" transform="translate(-168.959 43.797)" fill="#fff"/>
    <path id="Path_472" data-name="Path 472" d="M277.582,131.279s-2.38-4.011-3.877-5.053-6.872-4.1-10.495-4.626l4.652.08c.348,0,5.562,1.564,5.9,1.671C275.509,123.913,277.181,127.629,277.582,131.279Z" transform="translate(-168.336 40.967)" fill="#fff"/>
    <path id="Path_473" data-name="Path 473" d="M234.685,282.4c.722-1.671,7.794-13.168,4.679-18.048a21.018,21.018,0,0,1-1.337-4.011c1.337-2.674,1.337-4.011,4.011-5.348,1.337-1.337,16.043-5.348,20.054-1.337,2.674-2.674,17.914-4.158,25.4,0,12.032,6.684,9.358,12.032,9.358,12.032-1.337,1.337-9.639-1.043-10.147-.9-5.548,4.238-23.275,18.275-23.944,22.955a122.6,122.6,0,0,1-4.011,16.043c-2.005,4.679-7.353,31.417-18.048,22.059-4.505-3.931-6.685-16.043-8.69-24.733C231.409,298.506,232.679,287.076,234.685,282.4Z" transform="translate(-145.947 84.583)" fill="#e87272"/>
    <path id="Path_474" data-name="Path 474" d="M260.855,282.277c.735-1.618,4.679-11.364,3.57-17.647a26.645,26.645,0,0,1-.227-4.412c0-2.674,2.674-5.348,5.348-6.685,1.337-1.337,14.706-4.011,18.717,0-18.717,8.021-25.4,52.139-21.39,72.193a49.158,49.158,0,0,1-8.69-24.733C258.007,298.32,257.512,289.63,260.855,282.277Z" transform="translate(-172.117 84.703)" fill="#e26d6d"/>
  </g>
</svg>
