<svg id="cow_enclosed" xmlns="http://www.w3.org/2000/svg" width="732.787" height="596.369" viewBox="0 0 732.787 596.369">
  <defs>
    <style>
      .cls-1 {
        fill: #2a3147;
      }

      .cls-10, .cls-2, .cls-5, .cls-9 {
        fill: #40403f;
      }

      .cls-3 {
        fill: #545554;
      }

      .cls-12, .cls-14, .cls-4, .cls-6 {
        opacity: 0.3;
      }

      .cls-5, .cls-9 {
        opacity: 0.1;
      }

      .cls-14, .cls-6 {
        fill: #1e1e1e;
      }

      .cls-11, .cls-7 {
        fill: #1e2833;
      }

      .cls-8 {
        fill: #606161;
      }

      .cls-10, .cls-11, .cls-12, .cls-14, .cls-9 {
        stroke: #0e0e0b;
        stroke-miterlimit: 10;
        stroke-width: 0.25px;
      }

      .cls-13 {
        fill: #7f7f7f;
      }

      .cls-15 {
        fill: #636464;
      }

      .cls-16 {
        fill: #fff;
      }

      .cls-17 {
        fill: #cccccb;
      }

      .cls-18 {
        fill: #f0efef;
      }

      .cls-19 {
        fill: #efefef;
      }

      .cls-20 {
        fill: #1f2833;
      }
    </style>
  </defs>
  <g id="Layer_9" data-name="Layer 9">
    <rect id="Rectangle_34" data-name="Rectangle 34" class="cls-1" width="38.845" height="228.593" rx="9.1" transform="translate(376.399 228.593) rotate(180)"/>
    <path id="Path_307" data-name="Path 307" class="cls-1" d="M414.409,28.919,26.131,456.725,13.49,445.465,393.78,23.44Z" transform="translate(7.934 13.785)"/>
    <path id="Path_308" data-name="Path 308" class="cls-1" d="M357.859,17.49,24.228,392.745l-9.338-8.29,325.071-365.5Z" transform="translate(8.757 10.286)"/>
    <path id="Path_309" data-name="Path 309" class="cls-2" d="M153.876,170.576s1.318-5.352,10.053-12.356A60,60,0,0,1,181.4,165.6s2.128,2.811-2.684,5.733a14.992,14.992,0,0,1-7.814,2.1H156.4a2.525,2.525,0,0,1-2.541-2.525Z" transform="translate(90.487 93.051)"/>
    <path id="Path_310" data-name="Path 310" class="cls-2" d="M179.884,175.689v.222a1.588,1.588,0,0,0,1.382,1.588,36.734,36.734,0,0,0,16.723-1.318l4.574-3.176s2.7-2.35-2.8-6.194a13.914,13.914,0,0,1-1.7-1.366c-.953-.905-2.922-2.89-9.417-2.986l-6.432.254a3.51,3.51,0,0,0-2.255.937c-2.128,1.922-6.019,6.575-5.892,9.179v1.159a.794.794,0,0,0,1.064.731l2.271-.826C179.471,173.069,179.884,174.434,179.884,175.689Z" transform="translate(102.372 95.545)"/>
    <path id="Path_311" data-name="Path 311" class="cls-2" d="M290,169.465s1.112-3.589,8.449-9.815a4.526,4.526,0,0,1,3.7-1.016,43.4,43.4,0,0,1,13.944,4.987,3.176,3.176,0,0,1,.874,4.907,14.452,14.452,0,0,1-6.352,3.605,4.037,4.037,0,0,1-1.223.206H292.636a2.62,2.62,0,0,1-2.62-2.636Z" transform="translate(170.553 93.257)"/>
    <path id="Path_312" data-name="Path 312" class="cls-2" d="M331.888,178.636h0a1.906,1.906,0,0,0,1.588,1.89,36.876,36.876,0,0,0,16.485-1.35L354.534,176s1.445-3.4-4-6.972a14.437,14.437,0,0,0-4.066-1.7,36.161,36.161,0,0,0-10.672-1.588h-.143a4.844,4.844,0,0,0-3.319,1.3c-2.271,2.112-6.352,6.352-6.352,8.751h0a1.588,1.588,0,0,0,2.144,1.509l1.191-.429a1.842,1.842,0,0,1,2.573,1.763Z" transform="translate(191.713 97.474)"/>
    <path id="Path_313" data-name="Path 313" class="cls-3" d="M519.545,303.8c2.875-5.749,5.971-11.45,8.592-17.326,3.383-7.591,4.621-16.215,6.352-24.3l2.192-9.989a14.3,14.3,0,0,0,.238-1.588l1.413-15.008a80.461,80.461,0,0,0-.222-16.929c-.81-6.813-2.049-13.96-5.161-20.137l-2.747-7.178a15.118,15.118,0,0,0-3.875-5.543l-7.941-9.1a42.005,42.005,0,0,0-11.577-9.7,47.135,47.135,0,0,0-7.512-3.176,8.066,8.066,0,0,0-3.081-.651c-3.939,0-7.941,0-11.816.127a54.824,54.824,0,0,0-8.02,1.159c-9.449,1.588-18.533,4.669-27.681,7.448a11.563,11.563,0,0,1-2.8.667,27.284,27.284,0,0,0-7.48,1.985c-3.414,1.175-6.8,2.335-10.243,3.414-5.892,1.858-11.768,3.8-17.644,5.717-4.685,1.588-12.387,3.923-17.12,5.32a90.063,90.063,0,0,1-16.643,3.986l-19.724,3.176a16.5,16.5,0,0,1-4.669.175l-12.149-.635c-2.636-.175-5.384-.143-8.02-.445a14.164,14.164,0,0,1-2.589-.556l-16.6-5.018a33.149,33.149,0,0,0-3.51-1.064c-.826-.127-1.1.54-1.366,1.286a24.156,24.156,0,0,0-1.064,6.479c-.254,3.557-.27,7.147-.175,10.7.111,3.923.413,7.845.762,11.752a45.183,45.183,0,0,1,.206,6.877,84.174,84.174,0,0,1-3.446,16.77,42.878,42.878,0,0,0-1.81,11.228c0,3.176.445,6.352.651,9.529s0,6.035.286,9.052.921,6.194,1.271,9.306c.222,2.08.81,4.86-1,6.352-1.334,1.128-3.51,1.35-4.606,2.747a2.081,2.081,0,0,0-.1,2.239,16.389,16.389,0,0,1,1.318,4.764,26.521,26.521,0,0,1-.588,8.068,42.015,42.015,0,0,0-3.176-2.906,13.754,13.754,0,0,0-7.464-2.827l-5.813-.524c-1.445-.127-5.94.238-4.764-2.43a46.591,46.591,0,0,1,2.557-4.431,66.078,66.078,0,0,0,3.542-7.512c1.382-3.446,2.8-6.892,3.859-10.45,2.462-8.211,2.366-16.628,2.573-25.092a14.293,14.293,0,0,0-.905-5.7,24.647,24.647,0,0,0-3.319-5.13,5.477,5.477,0,0,1-.873-1.715,42.625,42.625,0,0,1-.889-5.018,63.14,63.14,0,0,1-.6-7.941q-.175-15.881-.159-31.762v-2.668c-.159-2.557-2.3-2.843-4.367-2.811-.318,0-.889-.127-1.112.127s-.127,1.128-.127,1.429c0,2.207,0,4.4.111,6.607.143,6.352-.222,12.626,0,18.946.159,5.368.54,11.355-1.906,16.326a14.421,14.421,0,0,0-1.366,4.113c-.4,2.668-.619,5.352-.81,8.052-.461,6.352-.651,12.7-1.159,19.057-.27,3.367-.715,6.749-.826,10.132-.079,2.557.556,5.13.365,7.686s-2.3,4.478-3.875,6.352-3.637,3.684-4.081,6.051a11.306,11.306,0,0,0,.127,4c.079.4.683,2,.461,2.382,0-.127-9.243-4.367-10.2-4.764a28.987,28.987,0,0,0-4.256-1.255,11.114,11.114,0,0,0-1.763-.222c-.159,0-1.271.127-1.35,0a15.884,15.884,0,0,1,1.493-2.414q2.065-3.176,3.939-6.622a67.177,67.177,0,0,0,7.178-17.9,126.7,126.7,0,0,0,2.033-23.822c0-.429-.1-1.588-.111-1.985a5.132,5.132,0,0,0-.143-1.477c-.175-.4-.524-.492-.858-.794a13.324,13.324,0,0,1-3.081-4.939,32.54,32.54,0,0,1-2.1-7.845,44.466,44.466,0,0,1-.079-9.306,37.529,37.529,0,0,0-.1-5.511,110.4,110.4,0,0,1,0-11.911c0-2.335-.445-4.637-.334-6.956,0-1.715.3-3.494-1.874-3.669a37.557,37.557,0,0,1-8.195-1.112,30.317,30.317,0,0,1-15.77-12.4,110.153,110.153,0,0,1-5.971-9.529,40.433,40.433,0,0,1-3.669-10.624,183.773,183.773,0,0,1-5.05-38.115c-.206-7.29-.953-9.529-1.048-17.009,0-.937-1.1-6.67-1.1-7.607.1-1.826-3.51-7.305-3.478-9.132,0-2.271,5.781-2.97,8.766-4.4,3.271-1.588,4.764-5.511,7.321-8.1,5.4-5.431,11.2-10.5,16.373-16.151l.333-.349a22.694,22.694,0,0,0,3.43-5.114,97.3,97.3,0,0,1,8.544-13.975c6-8.274-4.51-9.227,3.653-15.4,3.176-2.43,16.516-3.573,20.518-2.986,7.353,1.048,22.361,1.064,26.665,0,15.881-3.732,24.092-5.161,35.828-1.477l.27.079c10.116,3.176,17.326.889,27.9,2.207,8.258,1.032,16.58,1.08,24.886,1.35,4.955.175,9.91.159,14.865,0l15.1-.54c11.291-.4,22.583-.7,33.874-1.175C468.408,14.729,478.492,14,488.5,13.41c4.113-.254,8.211-.556,12.324-.746q8.782-.429,17.549-1.286l10.132-.985a23.821,23.821,0,0,1,7.051.079c10.259,1.938,18.247,10.545,22.774,19.5a45.155,45.155,0,0,1,2.906,7.305c.778,2.6,1.048,5.241,1.588,7.941.079.365.159.715.254,1.064A80.616,80.616,0,0,1,565.6,63.118v.873c.318,7.194,1.191,14.293.556,21.44-.159,1.874-.4,3.732-.6,5.59L563.33,111a64.262,64.262,0,0,1-2.335,12.133l-3.1,13.356c-.762,4.606-2.493,9.1-2.763,13.785-.222,4-.349,7.941-.349,12.022a65.507,65.507,0,0,0,1.207,14.293c2.509,10.767,10.736,19.184,12.7,30.079a17.152,17.152,0,0,1-1.461,10.847c-1.985,4.161-4.272,8.115-5.844,12.467-2.239,6.146-4.066,12.387-6.5,18.47-1.874,4.764-3.939,9.4-5.59,14.293-1.477,4.288-1.953,8.735-3.176,13.086a34.151,34.151,0,0,0-1.811,8.147c0,2.462.905,4.764,1.048,7.274a7.8,7.8,0,0,1-2.89,5.781c-1.223,1.143-2.541,2.049-2.875,3.8-.476,2.573-1.477,4.351-.826,6.877a10.751,10.751,0,0,1-.746,3.462c-.27.333-2.144-1.826-2.811-2.223-1.588-1-3.176-2.065-4.939-3A21.932,21.932,0,0,0,519.545,303.8Z" transform="translate(123.498 5.98)"/>
    <path id="Path_314" data-name="Path 314" class="cls-4" d="M272.235,150.724a56.4,56.4,0,0,1,10.339-16.405l.159-.222a16.532,16.532,0,0,0,.429-18.517,24.155,24.155,0,0,1-3.637-8.147.715.715,0,0,1,1.318-.445c2.382,4.24,7.782,12.578,14.722,15.341A56.023,56.023,0,0,1,301.138,125c6.734,3.557,20.646,10.259,28.443,9.529a49.661,49.661,0,0,1,5.527-.349c8.052,0,27.443-.318,34.446-4.367,0,0,26.2-6.241,30.524-15.214,0,0,12.7-12.7,14.976-26.839,0,0,5.193-15.548,14.976-16.707,0,0,11.53-4.034,30.825,21.027,0,0,14.42,15.214,21.694,32.715a190.353,190.353,0,0,1,10.291,27.125.7.7,0,0,1-1.255.588c-1.191-1.683-2.906-4-5.145-6.845-1.255-1.588-2.89-3.7-4.24-5.273-2.017-2.35-4.526-5.13-6.352-7.019-2.62-2.636-1.842-2.128-4.479-3.176-.619-.238-2.557-.794-3.176-1a45.417,45.417,0,0,0-4.764-1.128c-1.779-.3-6.146-.746-8.592-.858-2.763-.127-2.287.286-6.479.286a21.389,21.389,0,0,0-3.176.524,69.688,69.688,0,0,0-8.211,1.429,95.292,95.292,0,0,0-12.308,3.176c-2.414.778-5.177,1.7-7.941,2.43a77.223,77.223,0,0,1-8.083,2.1,50.692,50.692,0,0,0-8.576,2.6c-6.019,1.922-9.767,3.351-15.039,4.891,0,0-12.292,4.24-25.664,8.131-9.116,2.668-18.692,5.3-25.41,5.765a24.173,24.173,0,0,0-4.113.683,40.364,40.364,0,0,1-6.352,1c-1.588.127-3.653.746-5.479.73-2.112,0-4.447-.27-6.7-.413-5.273-.349-11.117-.794-16.691-1.032a17.6,17.6,0,0,1-4.161-1.4c-1.4-.492-2.446-.572-3.732-1,0,0-2.16-.572-4-1.207s-4.272-1.35-6.479-1.969c-1.08-.3-2.176-.619-2.906-.873a3.364,3.364,0,0,0-.524-.175c-.079,0-.381,0-.461-.127A2.4,2.4,0,0,1,272.235,150.724Z" transform="translate(160.002 41.644)"/>
    <path id="Path_315" data-name="Path 315" class="cls-5" d="M259.06,213.751s7.607-6.1,10.037-13.086v-37.1s0-5.781,6.988-10.037c0,0-.905,5.479-1.588,7.941l.127,26.013.842,5.987s.524,4,.556,6.622c0,0,.6,2.382-.921,3.462a42.487,42.487,0,0,1-3.811,2.112h-.127a1.843,1.843,0,0,0-.429.333,1.588,1.588,0,0,0-.762,1.207c-.1.905,1.016,2.335,1.461,4.923l.222,2v2.493l-.238,2.43L271,221.47l-7.512-6.829Z" transform="translate(152.357 90.293)"/>
    <path id="Path_316" data-name="Path 316" class="cls-6" d="M408.44,250.853a114.207,114.207,0,0,1,13.34-9.211,4.24,4.24,0,0,0,2.207-3.367c.572-6.464,2.271-24.123,4.161-30.492,0,0,2.732-17.342,7.258-27.109a11.291,11.291,0,0,0,1.1-4.764V175a16.565,16.565,0,0,0-3.843-10.783,7.1,7.1,0,0,1-1.715-4.987V157a25.884,25.884,0,0,1,1.112-7.941,46.056,46.056,0,0,0,2.112-20.773,72.7,72.7,0,0,0-1.445-8.036s-4.463-11.117-1.27-20.217c0,0,3.748,6.352,6.654,5.241,0,0,0,4.637.079,9.529a49.82,49.82,0,0,0,.905,8.353,39.611,39.611,0,0,0,2.954,9.132,27.145,27.145,0,0,0,1.27,2.43c1.826,3.176,6.988,12.387,7.94,15.881a18.438,18.438,0,0,1-2.414,17.358s-.746,1.747-2.477,5.463a50.879,50.879,0,0,0-2.1,5.177c-1.08,3.065-1.175,3.954-2.049,6.352-.524,1.493-1.35,3.637-1.779,5.066s-1.493,3.351-1.858,4.764c0,0-1.731,4.637-3.716,9.862a75.517,75.517,0,0,0-4.764,15.468,78.764,78.764,0,0,1-2.128,8.576c-.731,2.223,0,6.352.572,8.608a6.035,6.035,0,0,1-.905,4.764s-.381.556-1.207,1.588c-.4.508-1.318,1.08-2.906,2.922a5.591,5.591,0,0,0-.762,3.319c0,.969-1.588,1.588-1.413,3.017a20.962,20.962,0,0,0,.747,2.033l-.747,1.413s1.223-.191-1.112-2.033a10.449,10.449,0,0,0-2.668-1.953,31.087,31.087,0,0,0-3.637-1.064,14.972,14.972,0,0,0-3-.334,23.591,23.591,0,0,0-2.493-.111Z" transform="translate(240.209 58.829)"/>
    <path id="Path_317" data-name="Path 317" class="cls-5" d="M216.426,101.88s9.529-31.286,26.315-45.865A52.265,52.265,0,0,0,256.415,26s-6.781,20.106-22.758,31.191c0,0-20.36,15.881-23.377,14.642C210.2,71.833,215.712,88.73,216.426,101.88Z" transform="translate(123.668 15.291)"/>
    <path id="Path_318" data-name="Path 318" class="cls-2" d="M430.671,126.139s-6.607,29.7-16.723,44.023c0,0-21.487,24.87-18.12,32.461,0,0-1.683,16.85,2.525,21.487,0,0-11.768,8.306-10.513,17.628,0,0-11.863-6.845-17.469-6.13,0,0,11.2-6.019,9.926-27.522,0,0,0-23.409,2.112-33.35,0,0,2.112-14.293,1.271-23.9,0,0-.572-28.586-1.763-43.4,0,0,27.855-4.431,36.177,4.415C418.029,111.8,419.983,114.959,430.671,126.139Z" transform="translate(217.82 62.529)"/>
    <path id="Path_319" data-name="Path 319" class="cls-3" d="M436.815,49.985s8.528,21.36,9.656,65.113c0,0,1.588,29.587,3.542,46.77A27.871,27.871,0,0,1,460.3,160.28a72.2,72.2,0,0,1-7.115-26.061s-1.985-41.1-3.049-48.565A194.332,194.332,0,0,0,447.6,52.113a54,54,0,0,0-15.055-28.459L427.08,18.89S428.811,19.668,436.815,49.985Z" transform="translate(251.172 11.109)"/>
    <path id="Path_320" data-name="Path 320" class="cls-7" d="M441.52,109.77a203.287,203.287,0,0,0,7.8,20.185,67.929,67.929,0,0,0,8.925,14.436c5.606,6.94,14.881,19.057,14.881,22.853a218.621,218.621,0,0,0-3.51-26.506,42.26,42.26,0,0,0-5.749-13.753l-12.054-18.867S451.35,105.737,441.52,109.77Z" transform="translate(259.664 63.175)"/>
    <path id="Path_321" data-name="Path 321" class="cls-7" d="M234.542,110.4c-11.768,3.748-11.593-.651-14.992-11.355-1.588-4.971-5.415-14.785-3.176-19.3,2.652-5.193-.492-6.082,5.813-8.083,5.32-1.683,8.814,10.116,13.467,11.847,5.67,2.112,12.133-5.114,14.007.762,2.128,6.734-7.941,10.64-12.53,15.881C234.447,103.242,238.909,108.944,234.542,110.4Z" transform="translate(126.849 42.054)"/>
    <path id="Path_322" data-name="Path 322" class="cls-4" d="M263.823,95.24s2.906,24.616,12.165,41.863l-.492-.175h-2.811l-.4.1-.111.381a6.079,6.079,0,0,0,0,1.318v2.049l.143,12.292v17.866a33.765,33.765,0,0,1-.667,5.987,14.737,14.737,0,0,1-1.207,3.287c-.27.588-.508.715-.778,1.366a12.435,12.435,0,0,0-.667,3.049s-1.429,13.118-1.413,18.914c0,0-.175,6.829-1.048,13.832a32.651,32.651,0,0,0,0,9.322,9.671,9.671,0,0,1-.079,3.764,19.406,19.406,0,0,1-3.907,5.368s-1.032,1.159-2.049,2.4a7.4,7.4,0,0,0-1.477,2.366l-.429,1.81a4.208,4.208,0,0,0,0,1.89l.7,3.748s-11.752-6.7-17.469-6.13c0,0,8.639-14.15,10.4-19.661a63.357,63.357,0,0,0,2.08-6.352c.334-1.715.556-3.414.889-5.4a46.552,46.552,0,0,0,.73-4.955c.175-5.94.6-9.37.461-12.2l-.175-5.511a34.94,34.94,0,0,1-3.256-4.193,12.845,12.845,0,0,1-.953-2.3,11.008,11.008,0,0,1-.762-2.192s-.191-.651-.445-1.588-.492-2.462-.715-3.843a12.42,12.42,0,0,1-.254-3.065,18.818,18.818,0,0,1,0-2.207c.079-1.223.334-2.668.318-4.05v-1.668c0-1.668-.254-2.954-.254-4.764,0-.461-.079-1.588-.079-1.969,0-2.938.159-5.717.1-7.941v-2.207a16.342,16.342,0,0,0-.3-2.843,15.089,15.089,0,0,1-.079-1.826,8.694,8.694,0,0,0,0-1.128c0-.191,0-.524,0-.731a4.953,4.953,0,0,0-.079-1.1c-.159-.476-.175-.7-.667-1s-.413-.254-1.35-.286H245.21a30.635,30.635,0,0,1-6.638-1.3,21.854,21.854,0,0,1-5.13-2.652,33.971,33.971,0,0,1-5.1-4.224,13.15,13.15,0,0,1-2.493-2.557s-1.35-1.763-3.716-5.161c-.969-1.4.365.905-.619-.905-1.588-2.859,24.775-13.261,26.22-13.086s4.764-.27,9.4-4.987Z" transform="translate(130.236 56.012)"/>
    <path id="Path_323" data-name="Path 323" class="cls-3" d="M321.77,184.322s-19.057-.6-30.889-.4a29.238,29.238,0,0,1-6.638-1.3,21.011,21.011,0,0,1-6.273-3.176c-1.763-1.366-3.811-3.351-5.908-5.32s-2.938-4.288-4.764-6.718c0,0-11.958-2.223-39.909,40.433,0,0-12.7,22.964-23.044,32.08,0,0-30.4,18.422-31.873,23.329,0,0-8.83,10.609-18.629,3.589,0,0-2.16-2.335-4.764-4.764a16.231,16.231,0,0,1-3.287-20.3l.461-.762c2.636-4.367,20.852-51.439,20.852-50.915s0-23.171,8.814-27l.667-1.588s-15.5,1.874-19.248-1.715a6.972,6.972,0,0,1-3.3-3.589s13.8-1.731,19.248-1.016c0,0-15.786-.429-21.964-12.5,0,0,17.819,4.1,29.364,4.24a31.874,31.874,0,0,1,10.879,2.144l5.082,2.049s7.035-4.447,16.373-19.677c0,0,19.867-30.714,28.92-44.832,10.355-16.167,3.383,1.239,15.4-30.508,0,0,9.862-25.569,21.868-29.571,0,0,11.514-7.019,18.232-11.593Z" transform="translate(84.454 8.792)"/>
    <path id="Path_324" data-name="Path 324" class="cls-8" d="M514.122,327.262c2.875-5.749,5.971-11.434,8.592-17.31,3.383-7.607,4.606-16.23,6.353-24.3l2.176-10.005c.1-.429.206-1.143.254-1.588l1.413-14.992a80.432,80.432,0,0,0-.222-16.929c-.81-6.829-2.049-13.975-5.177-20.153l-2.732-7.162a15.373,15.373,0,0,0-3.875-5.558l-7.941-9.1a42.006,42.006,0,0,0-11.577-9.7,49.988,49.988,0,0,0-7.512-3.176,8.2,8.2,0,0,0-3.081-.651c-3.939,0-7.941,0-11.816.127a57.631,57.631,0,0,0-8.036,1.159c-9.433,1.588-18.517,4.669-27.665,7.448a11.739,11.739,0,0,1-2.8.667,28.586,28.586,0,0,0-7.5,1.985c-3.4,1.191-6.781,2.35-10.228,3.43-5.908,1.858-11.768,3.78-17.644,5.7-4.764,1.588-12.4,3.923-17.12,5.32a90.088,90.088,0,0,1-16.643,4l-19.724,3.176a17.1,17.1,0,0,1-4.669.159l-12.149-.746c-2.636-.159-5.384-.143-8.036-.429a14.768,14.768,0,0,1-2.589-.556l-16.58-5.018a27.84,27.84,0,0,0-3.51-1.064c-.826-.143-1.1.524-1.366,1.27a23.631,23.631,0,0,0-1.064,6.48,104.985,104.985,0,0,0-.175,10.72c.111,3.923.4,7.829.762,11.752a47.113,47.113,0,0,1,.206,6.861,84.174,84.174,0,0,1-3.446,16.77,43.547,43.547,0,0,0-1.826,11.228c0,3.176.445,6.352.651,9.529s0,6.035.3,9.036.905,6.194,1.255,9.306c.238,2.08.826,4.86-.985,6.352-1.334,1.128-3.51,1.366-4.606,2.747a2.033,2.033,0,0,0-.1,2.255,16.785,16.785,0,0,1,1.318,4.764,26,26,0,0,1-.6,8.068c-1.032-.969-2.033-2.017-3.176-2.906a13.753,13.753,0,0,0-7.464-2.827l-5.812-.508c-1.461-.127-5.94.222-4.764-2.43a50.7,50.7,0,0,1,2.573-4.447,68.805,68.805,0,0,0,3.526-7.512c1.382-3.446,2.811-6.876,3.875-10.45,2.462-8.211,2.35-16.628,2.573-25.092a13.9,13.9,0,0,0-.921-5.685,24.125,24.125,0,0,0-3.319-5.146,5.431,5.431,0,0,1-.858-1.715,41.5,41.5,0,0,1-.889-5.018,62.915,62.915,0,0,1-.6-7.941q-.159-15.881-.175-31.762v-2.652c-.143-2.573-2.3-2.859-4.352-2.827-.318,0-.889-.111-1.112.127s-.127,1.143-.143,1.445c0,2.192,0,4.4.127,6.591.127,6.352-.222,12.626,0,18.946.175,5.368.556,11.355-1.89,16.326a14.581,14.581,0,0,0-1.366,4.113c-.4,2.668-.619,5.368-.826,8.052-.461,6.352-.635,12.7-1.143,19.057-.27,3.351-.715,6.749-.826,10.116-.079,2.557.54,5.13.365,7.686s-2.3,4.479-3.891,6.352-3.637,3.684-4.081,6.051a11.7,11.7,0,0,0,.143,4c0,.413.683,2,.461,2.382,0-.127-9.243-4.351-10.212-4.764a27.885,27.885,0,0,0-4.256-1.255,12.816,12.816,0,0,0-1.747-.222c-.159,0-1.286.127-1.35,0a15.019,15.019,0,0,1,1.493-2.4q2.08-3.272,3.939-6.638a66.954,66.954,0,0,0,7.178-17.9,126.592,126.592,0,0,0,2.033-23.822c0-.429-.1-1.588-.127-1.985a4.653,4.653,0,0,0-.127-1.477c-.175-.381-.524-.492-.873-.794a13.34,13.34,0,0,1-3.065-4.923,32.965,32.965,0,0,1-2.112-7.845,45.724,45.724,0,0,1,0-9.322,35.45,35.45,0,0,0-.111-5.511,114.335,114.335,0,0,1,0-11.895c0-2.35-.445-4.637-.349-6.972,0-1.715.3-3.478-1.858-3.653a38.576,38.576,0,0,1-8.195-1.128,30.174,30.174,0,0,1-15.77-12.4c-2.128-3.1-4.177-6.257-5.987-9.529a41.116,41.116,0,0,1-3.669-10.609,184.978,184.978,0,0,1-5.034-38.115c-.206-7.289-.953-9.529-1.048-17.009,0-.937-1.1-6.67-1.1-7.607.079-1.826-3.51-7.305-3.478-9.132,0-2.271,5.781-2.954,8.751-4.383,3.287-1.588,4.764-5.527,7.337-8.1,5.4-5.447,11.2-10.513,16.373-16.151.111-.127.222-.238.318-.365a21.36,21.36,0,0,0,3.43-5.114,96.868,96.868,0,0,1,8.56-13.975c5.987-8.274-4.51-9.227,3.637-15.4,3.176-2.43,16.532-3.557,20.534-2.986,7.353,1.064,22.361,1.08,26.649,0,15.881-3.716,24.092-5.161,35.828-1.477.1,0,44.769,3.367,53.075,3.653q7.432.238,14.865,0l15.1-.524c11.291-.4,22.583-.715,33.859-1.191,10.084-.445,20.169-1.175,30.254-1.763,4.1-.238,8.211-.556,12.324-.746,5.86-.27,11.7-.715,17.549-1.27l10.132-1a23.822,23.822,0,0,1,7.051.079c10.259,1.937,18.232,10.545,22.758,19.518a42.753,42.753,0,0,1,2.922,7.305c.762,2.589,1.048,5.225,1.588,7.861.079.365.159.715.254,1.08a81.366,81.366,0,0,1,2.43,17.072v.873c.3,7.178,1.191,14.293.556,21.424-.175,1.874-.4,3.732-.6,5.59l-2.223,19.994a64.338,64.338,0,0,1-2.335,12.117l-3.1,13.356c-.762,4.621-2.493,9.1-2.763,13.8-.222,4-.365,7.941-.349,12.022A64.4,64.4,0,0,0,550.6,200.15c2.493,10.783,10.736,19.184,12.7,30.174a17.009,17.009,0,0,1-1.477,10.831c-1.969,4.177-4.256,8.115-5.844,12.483-2.223,6.146-4.066,12.387-6.48,18.47-1.89,4.764-3.939,9.4-5.606,14.214-1.477,4.3-1.937,8.735-3.176,13.086a34.539,34.539,0,0,0-1.826,8.147c0,2.462.921,4.764,1.064,7.274a7.94,7.94,0,0,1-2.89,5.781c-1.239,1.143-2.541,2.049-2.875,3.8a18.469,18.469,0,0,0,.476,7.941c.1.413,1.27,2.97.985,3.351s-5.177-2.779-5.844-3.176c-1.588-.985-3.256-2.065-4.939-2.986A21.773,21.773,0,0,0,514.122,327.262Z" transform="translate(120.346 19.725)"/>
    <path id="Path_325" data-name="Path 325" class="cls-9" d="M254.87,235.3s7.607-6.1,10.037-13.086V185.127s0-5.765,7-10.037c0,0-.921,5.479-1.588,7.941l.127,26.013.826,5.987s.54,4.018.572,6.622c0,0,.588,2.4-.937,3.478-2.62,1.842-3.653,1.747-3.811,2.112h-.127a1.858,1.858,0,0,0-.413.333,1.588,1.588,0,0,0-.762,1.207c-.111.905,1,2.35,1.445,4.939l.238,1.985V238.2l-.238,2.446-.429,2.4-7.5-6.813Z" transform="translate(149.893 102.973)"/>
    <path id="Path_326" data-name="Path 326" class="cls-9" d="M212.306,123.444s9.529-31.286,26.3-45.865a52.408,52.408,0,0,0,13.69-30s-6.781,20.09-22.837,31.159c0,0-20.36,15.881-23.377,14.642C206.032,93.381,211.543,110.279,212.306,123.444Z" transform="translate(121.198 27.982)"/>
    <path id="Path_327" data-name="Path 327" class="cls-10" d="M426.481,147.692s-6.607,29.714-16.707,44.038c0,0-21.5,24.854-18.12,32.445,0,0-1.683,16.85,2.525,21.487,0,0-11.768,8.306-10.529,17.644,0,0-11.863-6.845-17.469-6.13,0,0,11.2-6.035,9.926-27.522,0,0,0-23.425,2.112-33.35,0,0,2.1-14.2,1.255-23.9,0,0-.572-28.586-1.763-43.4,0,0,27.871-4.431,36.177,4.431C413.839,133.368,415.809,136.528,426.481,147.692Z" transform="translate(215.356 75.215)"/>
    <path id="Path_328" data-name="Path 328" class="cls-10" d="M224,220.865s1.318-5.352,10.053-12.355a60,60,0,0,1,17.469,7.385s2.128,2.811-2.684,5.733a14.992,14.992,0,0,1-7.814,2.1H226.509A2.525,2.525,0,0,1,224,221.2Z" transform="translate(131.738 122.628)"/>
    <path id="Path_329" data-name="Path 329" class="cls-10" d="M250.034,226.009v.222a1.588,1.588,0,0,0,1.382,1.588,36.972,36.972,0,0,0,16.723-1.318l4.574-3.176s2.7-2.35-2.8-6.194a13.91,13.91,0,0,1-1.7-1.366c-.969-.905-2.922-2.89-9.417-2.986l-6.448.254a3.574,3.574,0,0,0-2.239.921c-2.128,1.937-6.019,6.591-5.892,9.2v1.159a.794.794,0,0,0,1.064.731l2.271-.826C249.621,223.389,250.034,224.738,250.034,226.009Z" transform="translate(143.628 125.139)"/>
    <path id="Path_330" data-name="Path 330" class="cls-10" d="M360.16,219.785s1.112-3.589,8.449-9.815a4.526,4.526,0,0,1,3.7-1.016,43.4,43.4,0,0,1,13.944,4.987,3.176,3.176,0,0,1,.873,4.907,14.452,14.452,0,0,1-6.352,3.605,4.018,4.018,0,0,1-1.223.191H362.78a2.62,2.62,0,0,1-2.62-2.62Z" transform="translate(211.815 122.851)"/>
    <path id="Path_331" data-name="Path 331" class="cls-2" d="M402.039,228.955h0a1.906,1.906,0,0,0,1.588,1.89,36.876,36.876,0,0,0,16.485-1.35l4.574-3.176s1.445-3.4-4-6.972a14.436,14.436,0,0,0-4.066-1.7,36.163,36.163,0,0,0-10.672-1.588H405.8a4.844,4.844,0,0,0-3.319,1.3c-2.271,2.112-6.352,6.352-6.352,8.75h0a1.588,1.588,0,0,0,2.144,1.588l1.191-.429a1.842,1.842,0,0,1,2.573,1.683Z" transform="translate(232.968 127.068)"/>
    <path id="Path_332" data-name="Path 332" class="cls-11" d="M376.128,110.106c0,9.132-11.53,1.842-17.469,7.829s-10.482,10.243-19.629,10.243S325.657,139.5,319.67,133.5s-1.985-7.274-1.985-16.421c0-8.735,8.989-9.862,14.515-15.786,6.035-6.448,1.334-24.282,10.879-24.282,8.322,0,7.21,19.216,13.023,24.282C362.93,107.359,376.128,100.149,376.128,110.106Z" transform="translate(186.065 45.291)"/>
    <path id="Path_333" data-name="Path 333" class="cls-8" d="M429.409,73.206s8.512,21.36,9.64,65.113c0,0,1.683,29.587,3.542,46.77,0,0,5.955-2.176,10.307-1.588a72.164,72.164,0,0,1-7.131-26.061s-1.985-41.1-3.049-48.58a194.187,194.187,0,0,0-2.589-33.35,54,54,0,0,0-15.055-28.475L419.61,42.27S421.389,42.889,429.409,73.206Z" transform="translate(246.778 24.86)"/>
    <path id="Path_334" data-name="Path 334" class="cls-7" d="M433.12,130.188a217.569,217.569,0,0,0,7.559,20.645,69.479,69.479,0,0,0,8.719,14.785c5.463,7.131,14.547,19.534,14.515,23.441a233.239,233.239,0,0,0-3.271-27,44.373,44.373,0,0,0-5.574-14.087L443.3,128.631S442.855,126.138,433.12,130.188Z" transform="translate(254.724 75.203)"/>
    <path id="Path_335" data-name="Path 335" class="cls-11" d="M230.352,131.926c-11.768,3.732-11.593-.667-14.992-11.371-1.588-4.955-5.415-14.785-3.176-19.28,2.636-5.193-.492-6.082,5.813-8.083,5.3-1.7,8.814,10.1,13.467,11.831,5.67,2.112,12.133-5.114,13.991.762,2.144,6.734-7.941,10.64-12.53,15.881C230.273,124.843,234.719,130.544,230.352,131.926Z" transform="translate(124.385 54.709)"/>
    <path id="Path_336" data-name="Path 336" class="cls-12" d="M259.627,116.81s2.906,24.616,12.181,41.847l-.492-.175h-2.827l-.4.1-.1.381a6.232,6.232,0,0,0,0,1.334v2.049l.143,12.276v17.9a35.732,35.732,0,0,1-.667,5.971,15.994,15.994,0,0,1-1.207,3.3c-.27.572-.524.7-.794,1.35a13.261,13.261,0,0,0-.651,3.049s-1.429,13.118-1.429,18.93c0,0-.175,6.829-1.032,13.832a32.759,32.759,0,0,0,0,9.322,9.529,9.529,0,0,1-.079,3.748,18.881,18.881,0,0,1-3.891,5.368s-1.048,1.159-2.065,2.414a7.289,7.289,0,0,0-1.461,2.35l-.445,1.81a4.765,4.765,0,0,0,0,1.89l.54,3.716s-11.736-6.686-17.469-6.13c0,0,8.655-14.15,10.418-19.661a59.954,59.954,0,0,0,2.065-6.352c.349-1.715.572-3.4.905-5.4a46.507,46.507,0,0,0,.715-4.955c.175-5.94.619-9.354.476-12.181l-.191-5.527a34.394,34.394,0,0,1-3.176-4.177,12.415,12.415,0,0,1-.969-2.319,10.227,10.227,0,0,1-.746-2.192s-.206-.651-.461-1.588-.492-2.446-.7-3.827a11.768,11.768,0,0,1-.254-3.081c0-.381,0-.969,0-2.192s.318-2.684.318-4.066v-1.668c0-1.588-.254-2.938-.27-4.764a15.689,15.689,0,0,0-.079-1.969c0-2.922.159-5.717.111-7.941v-2.207a17.161,17.161,0,0,0-.318-2.827,13.529,13.529,0,0,1,0-1.826c0-.365,0-.762,0-1.143v-.731a4.766,4.766,0,0,0-.1-1.08,1.334,1.334,0,0,0-.651-1c-.429-.254-.429-.27-1.35-.3h-.985a6.718,6.718,0,0,0-1.27,0,29.969,29.969,0,0,1-6.638-1.318,21.932,21.932,0,0,1-5.1-2.4,33.682,33.682,0,0,1-5.082-4.224,12.7,12.7,0,0,1-2.493-2.557s-1.35-1.763-3.716-5.161c-.985-1.4.349.905-.619-.905-1.588-2.859,24.759-13.245,26.2-13.086s4.764-.27,9.4-4.971Z" transform="translate(127.777 68.698)"/>
    <path id="Path_337" data-name="Path 337" class="cls-8" d="M318.986,205.365s-19.057-.588-30.889-.381a29.127,29.127,0,0,1-6.638-1.318,21.012,21.012,0,0,1-6.273-3.176c-1.763-1.366-3.811-3.335-5.924-5.32s-2.922-4.288-4.764-6.718c0,0-11.958-2.223-39.909,40.433,0,0-12.7,22.98-23.044,32.08,0,0-30.4,18.422-31.873,23.329,0,0-8.83,10.609-18.629,3.589,0,0-2.16-2.335-4.764-4.764a16.23,16.23,0,0,1-3.287-20.3l.206-.349a47.865,47.865,0,0,0,5.924-14.118,56.5,56.5,0,0,1,7.814-17.295s7.369-43.086,16.183-46.929l.667-1.493s-15.5,1.858-19.248-1.731a6.892,6.892,0,0,1-3.3-3.589s13.8-1.731,19.248-1c0,0-15.881-.445-21.964-12.5,0,0,23.552,6.035,34.033,4.018,0,0,18.39-.143,27.728-15.373,0,0,23.059-29.11,28.92-44.832s3.383,1.239,15.4-30.492c0,0,9.862-25.585,21.868-29.587,0,0,7.591-5.59,14.293-10.164Z" transform="translate(82.807 21.99)"/>
    <path id="Path_338" data-name="Path 338" class="cls-7" d="M276.338,134.016c-3.621,8.909-13.832-1.191-23.282,1.985-10.323,3.494-10.386,10.783-22.472,5.86-11.006-4.463-29.491-3.081-34.7-11.7-5.749-9.529,11.292-12.848,15.262-22.631,3.51-8.623,5.4-15.055,14.436-18.327,10.482-3.827,10.132-11.006,22.567-5.955,11.577,4.764,6.114,20.423,11.212,29.618S280.134,124.694,276.338,134.016Z" transform="translate(114.512 47.934)"/>
    <path id="Path_339" data-name="Path 339" class="cls-13" d="M494.6,352.918c2.874-5.749,5.971-11.434,8.592-17.326,3.383-7.591,4.606-16.215,6.352-24.282L511.72,301.3c.1-.429.206-1.143.254-1.588l1.413-14.992a80.436,80.436,0,0,0-.222-16.929c-.81-6.829-2.049-13.975-5.177-20.153l-2.732-7.162a15.372,15.372,0,0,0-3.875-5.558l-7.941-9.1a42,42,0,0,0-11.546-9.672,48.388,48.388,0,0,0-7.512-3.176,8.194,8.194,0,0,0-3.081-.651c-3.938,0-7.94,0-11.816.127a57.632,57.632,0,0,0-8.036,1.159c-9.433,1.588-18.517,4.669-27.665,7.448a11.736,11.736,0,0,1-2.8.667,27.965,27.965,0,0,0-7.5,1.985c-3.4,1.191-6.781,2.335-10.227,3.43-5.908,1.842-11.768,3.78-17.644,5.7-4.764,1.588-12.4,3.923-17.12,5.32a90.063,90.063,0,0,1-16.643,3.986l-19.724,3.176a16.5,16.5,0,0,1-4.669.175l-12.149-.746c-2.636-.159-5.384-.143-8.036-.429a14.766,14.766,0,0,1-2.589-.556l-16.548-5a30.66,30.66,0,0,0-3.51-1.048c-.826-.143-1.1.524-1.382,1.271a24.236,24.236,0,0,0-1.048,6.479,104.676,104.676,0,0,0-.175,10.7c.111,3.939.4,7.845.762,11.768A47.108,47.108,0,0,1,283,274.8a84.171,84.171,0,0,1-3.446,16.77,43.55,43.55,0,0,0-1.826,11.228c0,3.176.445,6.352.651,9.529s0,6.035.3,9.036.905,6.194,1.255,9.306c.238,2.08.826,4.86-.985,6.352-1.334,1.128-3.51,1.35-4.621,2.747a2.049,2.049,0,0,0-.079,2.239,17.025,17.025,0,0,1,1.318,4.764,26,26,0,0,1-.6,8.068c-1.032-.969-2.033-2.017-3.176-2.906a13.753,13.753,0,0,0-7.464-2.827l-5.812-.508c-1.461-.127-5.94.222-4.764-2.43a50.715,50.715,0,0,1,2.573-4.447,68.821,68.821,0,0,0,3.526-7.512c1.382-3.446,2.811-6.892,3.875-10.45,2.462-8.211,2.35-16.628,2.573-25.092a14.023,14.023,0,0,0-.921-5.7,24.426,24.426,0,0,0-3.319-5.13,5.432,5.432,0,0,1-.858-1.715,41.489,41.489,0,0,1-.889-5.018,62.917,62.917,0,0,1-.6-7.941q-.159-15.881-.175-31.762v-2.652c-.143-2.573-2.3-2.859-4.351-2.827-.318,0-.889-.127-1.112.127s-.127,1.143-.143,1.445c0,2.192,0,4.4.127,6.591.127,6.352-.222,12.625,0,18.946.175,5.368.556,11.355-1.89,16.326a14.579,14.579,0,0,0-1.366,4.113c-.4,2.668-.619,5.368-.826,8.052-.461,6.352-.635,12.7-1.143,19.057-.27,3.367-.715,6.749-.826,10.132-.079,2.557.54,5.13.365,7.686s-2.3,4.478-3.891,6.352-3.637,3.684-4.081,6.051a11.7,11.7,0,0,0,.111,3.986c0,.413.683,2,.461,2.382,0-.127-9.243-4.351-10.212-4.764a27.89,27.89,0,0,0-4.256-1.255,10.724,10.724,0,0,0-1.747-.222c-.159,0-1.286.127-1.35,0a15.024,15.024,0,0,1,1.493-2.4q2.08-3.256,3.938-6.638a67.175,67.175,0,0,0,7.178-17.9,126.7,126.7,0,0,0,2.033-23.822c0-.429-.1-1.588-.127-1.985a4.653,4.653,0,0,0-.127-1.477c-.175-.4-.524-.492-.873-.794a13.34,13.34,0,0,1-3.065-4.923,32.889,32.889,0,0,1-2.112-7.941,45.564,45.564,0,0,1,0-9.306,35.448,35.448,0,0,0-.111-5.511,114.352,114.352,0,0,1,0-11.895c0-2.35-.445-4.637-.349-6.972,0-1.715.3-3.478-1.858-3.653a38.573,38.573,0,0,1-8.195-1.128,30.174,30.174,0,0,1-15.77-12.4c-2.128-3.1-4.177-6.257-5.987-9.529a41.117,41.117,0,0,1-3.669-10.609,183.9,183.9,0,0,1-5.034-38.115c-.206-7.289-.953-9.529-1.048-17.009,0-.937-1.1-6.67-1.1-7.607.079-1.826-3.51-7.305-3.478-9.132,0-2.271,5.781-2.97,8.75-4.383,3.287-1.588,4.764-5.527,7.337-8.1,5.4-5.447,11.2-10.513,16.373-16.151.111-.127.222-.238.318-.365a21.7,21.7,0,0,0,3.43-5.114,96.873,96.873,0,0,1,8.56-13.975c5.987-8.274-4.51-9.227,3.637-15.4,3.176-2.43,16.532-3.573,20.534-2.986,7.353,1.064,22.361,1.08,26.649,0,15.881-3.716,24.092-5.161,35.828-1.477l.286.1c10.116,3.176,44.467,3.272,52.789,3.557q7.432.238,14.865,0l15.1-.524c11.291-.4,22.583-.715,33.859-1.191,10.085-.445,20.169-1.175,30.254-1.763,4.1-.238,8.211-.556,12.324-.746q8.782-.429,17.549-1.286l10.132-.985a23.823,23.823,0,0,1,7.051,0c10.259,1.937,18.232,10.545,22.758,19.5a43.455,43.455,0,0,1,2.922,7.321c.762,2.589,1.048,5.225,1.588,7.861.079.365.159.715.254,1.08a81.361,81.361,0,0,1,2.366,17.12v.889c.3,7.178,1.191,14.293.556,21.424-.175,1.874-.4,3.732-.6,5.59l-2.223,19.994a64.334,64.334,0,0,1-2.335,12.117l-3.1,13.356c-.762,4.621-2.493,9.1-2.763,13.8-.222,4-.365,7.941-.349,12.006a64.457,64.457,0,0,0,1.207,14.293c2.493,10.767,10.736,19.184,12.7,30.079a17.04,17.04,0,0,1-1.461,10.847c-1.969,4.177-4.256,8.115-5.844,12.483-2.223,6.13-4.066,12.387-6.479,18.47-1.89,4.764-3.939,9.4-5.606,14.214-1.477,4.3-1.937,8.735-3.176,13.086a34.546,34.546,0,0,0-1.826,8.147c0,2.462.921,4.764,1.064,7.274a7.941,7.941,0,0,1-2.89,5.781c-1.239,1.143-2.541,2.049-2.874,3.8a18.469,18.469,0,0,0,.476,7.941c.1.413,1.271,2.97.985,3.351s-5.177-2.779-5.844-3.176c-1.588-1-3.256-2.065-4.939-2.986A21.773,21.773,0,0,0,494.6,352.918Z" transform="translate(108.883 34.772)"/>
    <path id="Path_340" data-name="Path 340" class="cls-12" d="M247.312,199.813a56.4,56.4,0,0,1,10.339-16.405l.159-.206a16.58,16.58,0,0,0,.429-18.613,24.219,24.219,0,0,1-3.637-8.131A.715.715,0,0,1,255.92,156c2.382,4.24,7.782,12.578,14.722,15.341a55.772,55.772,0,0,1,5.558,2.668c6.749,3.557,20.646,10.275,28.459,9.529a49.652,49.652,0,0,1,5.527-.349c8.052,0,27.443-.3,34.446-4.367,0,0,26.2-6.241,30.524-15.214,0,0,12.7-12.7,14.976-26.839,0,0,5.177-15.548,14.976-16.707,0,0,11.514-4.018,30.809,21.027,0,0,14.436,15.214,21.71,32.715a190.342,190.342,0,0,1,10.291,27.125.715.715,0,0,1-1.27.588c-1.191-1.683-2.89-4-5.13-6.845-1.255-1.588-2.89-3.7-4.24-5.273-2.017-2.35-4.526-5.114-6.352-7.019-2.636-2.636-1.842-2.112-4.479-3.176-.635-.238-2.557-.794-3.176-.985a39.544,39.544,0,0,0-4.764-1.143c-1.763-.3-6.13-.746-8.576-.858-2.779-.111-2.3.3-6.5.286a22.139,22.139,0,0,0-3.1.524,68.919,68.919,0,0,0-8.195,1.429,95.883,95.883,0,0,0-12.324,3.176c-2.414.778-5.161,1.7-7.941,2.43a73.215,73.215,0,0,1-8.068,2.1,50.818,50.818,0,0,0-8.592,2.6c-6,1.922-9.751,3.351-15.024,4.891,0,0-12.292,4.24-25.664,8.131-9.116,2.668-18.692,5.3-25.41,5.765a23.918,23.918,0,0,0-4.113.683,40.989,40.989,0,0,1-6.352,1,52.419,52.419,0,0,1-5.463.731c-2.128,0-4.447-.27-6.7-.413-5.273-.333-11.117-.794-16.691-1.032a17.121,17.121,0,0,1-4.161-1.4c-1.4-.492-2.446-.572-3.748-1,0,0-2.144-.572-3.986-1.207s-4.272-1.35-6.5-1.969c-1.08-.286-2.16-.619-2.89-.873a4.1,4.1,0,0,0-.524-.159c-.079,0-.4,0-.476-.143a2.461,2.461,0,0,1-.207-1.953Z" transform="translate(145.381 70.468)"/>
    <path id="Path_341" data-name="Path 341" class="cls-9" d="M234.16,262.811s7.591-6.1,10.021-13.086v-37.1s0-5.781,7-10.037c0,0-.921,5.479-1.588,7.941l.191,26.061.826,5.987s.54,4.018.572,6.622c0,0,.6,2.4-.937,3.462-2.6,1.842-3.653,1.763-3.8,2.128h-.127a2.868,2.868,0,0,0-1.191,1.54c-.111.905,1,2.335,1.445,4.923l.238,2v2.493l-.238,2.446-.429,2.4-7.48-6.829Z" transform="translate(137.713 119.146)"/>
    <path id="Path_342" data-name="Path 342" class="cls-14" d="M383.53,299.859a114.994,114.994,0,0,1,13.356-9.211,4.272,4.272,0,0,0,2.207-3.367c.572-6.464,2.271-24.123,4.161-30.492,0,0,2.716-17.342,7.258-27.109a11.451,11.451,0,0,0,1.08-4.764v-.921a16.532,16.532,0,0,0-3.843-10.783,7.162,7.162,0,0,1-1.715-4.987q0-1.12,0-2.239a26.493,26.493,0,0,1,1.128-7.941,46.151,46.151,0,0,0,2.112-20.773,76.661,76.661,0,0,0-1.445-8.036s-4.463-11.117-1.27-20.217c0,0,3.748,6.352,6.654,5.241,0,0,0,4.653.079,9.449a49.646,49.646,0,0,0,.905,8.353,39.2,39.2,0,0,0,2.954,9.148c.365.826.81,1.588,1.255,2.414,1.842,3.176,6.988,12.387,7.941,15.881a18.47,18.47,0,0,1-2.366,17.453s-.746,1.731-2.493,5.447a50.934,50.934,0,0,0-2.08,5.177c-1.1,3.065-1.191,3.954-2.049,6.352-.524,1.493-1.35,3.637-1.779,5.066s-1.588,3.351-1.858,4.764c0,0-1.731,4.621-3.732,9.846a74.925,74.925,0,0,0-4.764,15.468,81.562,81.562,0,0,1-2.144,8.592c-.715,2.207,0,6.352.588,8.592a6.1,6.1,0,0,1-.905,4.764s-.381.556-1.223,1.588c-.4.508-1.318,1.08-2.906,2.922a5.828,5.828,0,0,0-.762,3.319,16.729,16.729,0,0,0,.111,3.176,17.48,17.48,0,0,0,.349,2.033l.746,2.716a31.512,31.512,0,0,0-3.716-3.43,10.863,10.863,0,0,0-2.684-1.953,33.356,33.356,0,0,0-3.637-1.064,14.815,14.815,0,0,0-2.986-.334,23.823,23.823,0,0,0-2.525-.143Z" transform="translate(225.559 87.641)"/>
    <path id="Path_343" data-name="Path 343" class="cls-9" d="M191.555,150.944s9.529-31.3,26.315-45.881A52.408,52.408,0,0,0,231.544,75.08s-6.781,20.074-22.837,31.159c0,0-20.36,15.881-23.377,14.642C185.33,120.881,190.841,137.779,191.555,150.944Z" transform="translate(108.995 44.156)"/>
    <path id="Path_344" data-name="Path 344" class="cls-10" d="M203.3,248.371s1.318-5.352,10.053-12.371a60.539,60.539,0,0,1,17.469,7.385s2.144,2.827-2.684,5.749a14.992,14.992,0,0,1-7.814,2.1H205.841a2.525,2.525,0,0,1-2.541-2.541Z" transform="translate(119.564 138.795)"/>
    <path id="Path_345" data-name="Path 345" class="cls-10" d="M229.314,253.5v.222a1.588,1.588,0,0,0,1.382,1.588A36.956,36.956,0,0,0,247.418,254l4.574-3.176s2.7-2.335-2.8-6.178a17.281,17.281,0,0,1-1.7-1.366c-.953-.921-2.922-2.89-9.418-2.986l-6.432.238a3.685,3.685,0,0,0-2.255.937c-2.112,1.937-6.019,6.591-5.892,9.179v1.175a.794.794,0,0,0,1.064.731l2.271-.826C228.9,250.946,229.314,252.233,229.314,253.5Z" transform="translate(131.442 141.318)"/>
    <path id="Path_346" data-name="Path 346" class="cls-2" d="M339.44,247.285s1.112-3.605,8.449-9.815a4.542,4.542,0,0,1,3.7-1.016,43.4,43.4,0,0,1,13.944,4.987,3.176,3.176,0,0,1,.889,4.907,14.69,14.69,0,0,1-6.353,3.605,4.019,4.019,0,0,1-1.223.191h-16.77a2.62,2.62,0,0,1-2.636-2.62Z" transform="translate(199.629 139.024)"/>
    <path id="Path_347" data-name="Path 347" class="cls-10" d="M381.319,256.461h0a1.906,1.906,0,0,0,1.588,1.89,36.7,36.7,0,0,0,16.485-1.366l4.574-3.176s1.461-3.4-4-6.972a14.1,14.1,0,0,0-4.066-1.7,36.131,36.131,0,0,0-10.656-1.588h-.159a4.907,4.907,0,0,0-3.319,1.286c-2.271,2.128-6.352,6.352-6.352,8.766h0a1.588,1.588,0,0,0,2.144,1.588l1.191-.429a1.842,1.842,0,0,1,2.573,1.7Z" transform="translate(220.783 143.235)"/>
    <path id="Path_348" data-name="Path 348" class="cls-13" d="M411.933,99.016s8.528,21.376,9.64,65.113c0,0,1.683,29.587,3.557,46.786a27.745,27.745,0,0,1,10.291-1.668,72.195,72.195,0,0,1-7.115-26.061s-2-41.1-3.049-48.565a196.269,196.269,0,0,0-2.589-33.446,54,54,0,0,0-15.055-28.411L402.15,68S403.913,68.7,411.933,99.016Z" transform="translate(236.51 39.992)"/>
    <path id="Path_349" data-name="Path 349" class="cls-11" d="M416.62,158.882a204.978,204.978,0,0,0,7.8,20.185,67.811,67.811,0,0,0,8.925,14.42c5.59,6.94,14.881,19.057,14.881,22.853a221.7,221.7,0,0,0-3.51-26.49,42.688,42.688,0,0,0-5.749-13.769l-12.054-18.867S426.435,154.785,416.62,158.882Z" transform="translate(245.02 92.04)"/>
    <path id="Path_350" data-name="Path 350" class="cls-11" d="M209.648,159.411c-11.784,3.732-11.609-.667-15.008-11.371-1.588-4.971-5.415-14.785-3.176-19.28,2.636-5.193-.492-6.1,5.813-8.1,5.3-1.683,8.814,10.116,13.467,11.847,5.67,2.112,12.133-5.114,13.991.762,2.144,6.734-7.941,10.64-12.514,15.881C209.553,152.359,214,158.045,209.648,159.411Z" transform="translate(112.199 70.866)"/>
    <path id="Path_351" data-name="Path 351" class="cls-12" d="M238.776,144.31s2.906,24.6,12.165,41.847l-.492-.175h-2.811l-.413.1-.1.381a6.224,6.224,0,0,0,0,1.334v2.08l.143,12.276v17.9a35.728,35.728,0,0,1-.667,5.971,15.99,15.99,0,0,1-1.207,3.3c-.27.572-.508.7-.794,1.35a13.261,13.261,0,0,0-.651,3.049s-1.429,13.118-1.429,18.914c0,0-.175,6.845-1.032,13.833a32.857,32.857,0,0,0,0,9.338,9.529,9.529,0,0,1,0,3.748,18.962,18.962,0,0,1-3.907,5.368s-1.048,1.159-2.049,2.414a7.321,7.321,0,0,0-1.477,2.35l-.445,1.81a4.764,4.764,0,0,0,0,1.89l.7,3.748s-11.736-6.686-17.469-6.13c0,0,8.655-14.15,10.418-19.661a59.943,59.943,0,0,0,2.065-6.352c.349-1.715.572-3.4.905-5.4a46.524,46.524,0,0,0,.715-4.955c.191-5.94.619-9.354.476-12.181l-.191-5.527a33.842,33.842,0,0,1-3.176-4.193,11.862,11.862,0,0,1-.969-2.3,11.121,11.121,0,0,1-.746-2.192s-.206-.651-.445-1.588a37.784,37.784,0,0,1-.715-3.827,11.819,11.819,0,0,1-.254-3.081v-2.207c0-1.239.318-2.668.318-4.05v-1.668c0-1.588-.254-2.954-.27-4.764v-1.969c0-2.922.143-5.717.1-7.941v-2.207a15.642,15.642,0,0,0-.318-2.843,13.385,13.385,0,0,1,0-1.81v-1.874a4.765,4.765,0,0,0,0-1.08c-.159-.476-.191-.715-.667-1s-.413-.27-1.35-.3h-2.223a31.094,31.094,0,0,1-6.638-1.318,21.85,21.85,0,0,1-5.082-2.4,33.033,33.033,0,0,1-5.1-4.224,12.706,12.706,0,0,1-2.493-2.557s-1.35-1.763-3.716-5.161c-.985-1.4.349.905-.619-.905-1.588-2.859,24.775-13.245,26.22-13.086s4.764-.27,9.386-4.987Z" transform="translate(115.739 84.871)"/>
    <path id="Path_352" data-name="Path 352" class="cls-13" d="M299.749,232.728s-19.057-.6-30.889-.4a29.236,29.236,0,0,1-6.638-1.3,21.012,21.012,0,0,1-6.352-3.176c-1.763-1.366-3.811-3.351-5.908-5.336s-2.938-4.288-4.764-6.7c0,0-11.958-2.223-39.909,40.433,0,0-12.7,22.964-23.044,32.08,0,0-30.4,18.422-31.873,23.329,0,0-8.814,10.609-18.629,3.589,0,0-2.16-2.335-4.764-4.764a16.231,16.231,0,0,1-3.287-20.3c0-.127.143-.238.222-.365,2.716-4.351,21.09-51.836,21.09-51.312s0-23.171,8.814-27l.667-1.509s-15.5,1.874-19.232-1.731c0,0,10.482-5.3,15.881-4.59,0,0,1.588-6.464,12.07-8.481,0,0,18.39-.143,27.728-15.357,0,0,23.059-29.126,28.92-44.832s3.383,1.239,15.4-30.508c0,0,9.862-25.569,21.868-29.571,0,0,11.514-7.019,18.232-11.593Z" transform="translate(71.457 37.251)"/>
    <path id="Path_353" data-name="Path 353" class="cls-15" d="M478.606,407.024c2.874-5.765,5.987-11.45,8.608-17.326,3.383-7.591,4.606-16.215,6.353-24.3l2.176-9.989c.1-.445.206-1.159.254-1.588l1.4-14.992a78.357,78.357,0,0,0-.222-16.929c-.81-6.829-2.033-13.959-5.161-20.137l-2.732-7.178c-.683-2.319-2.35-3.78-3.875-5.543l-7.941-9.1a42.292,42.292,0,0,0-11.593-9.7,49.229,49.229,0,0,0-7.5-3.176,8.86,8.86,0,0,0-3.081-.651c-3.939,0-7.941,0-11.816.143a55.348,55.348,0,0,0-8.036,1.159c-9.433,1.588-18.533,4.669-27.665,7.448a11.671,11.671,0,0,1-2.811.667,27.427,27.427,0,0,0-7.48,1.985c-3.4,1.175-6.8,2.335-10.227,3.414-5.908,1.858-11.784,3.78-17.66,5.717-4.685,1.588-12.387,3.923-17.1,5.32a90.06,90.06,0,0,1-16.643,3.986l-19.724,3.176a17.1,17.1,0,0,1-4.669.175l-12.149-.762c-2.652-.159-5.384-.143-8.036-.429a14.45,14.45,0,0,1-2.589-.556l-16.532-4.987a28.587,28.587,0,0,0-3.51-1.064c-.826-.127-1.1.54-1.382,1.286a24.141,24.141,0,0,0-1.048,6.48,104.594,104.594,0,0,0-.175,10.7c.1,3.923.4,7.845.762,11.752a45.023,45.023,0,0,1,.191,6.861,83.159,83.159,0,0,1-3.446,16.786,43.31,43.31,0,0,0-1.81,11.228c0,3.176.445,6.352.651,9.529s0,6.035.286,9.052.921,6.194,1.271,9.29c.238,2.1.81,4.86-.985,6.352-1.334,1.143-3.51,1.366-4.621,2.747a2.1,2.1,0,0,0-.1,2.255,16.4,16.4,0,0,1,1.334,4.764,26.427,26.427,0,0,1-.6,8.052,42.367,42.367,0,0,0-3.176-2.89,13.77,13.77,0,0,0-7.464-2.684l-5.8-.508c-1.461-.127-5.94.222-4.764-2.43A46.729,46.729,0,0,1,240.341,396a68.813,68.813,0,0,0,3.526-7.512c1.382-3.462,2.811-6.892,3.875-10.466,2.462-8.195,2.35-16.612,2.557-25.076a13.927,13.927,0,0,0-.905-5.7,24.758,24.758,0,0,0-3.319-5.145,5.272,5.272,0,0,1-.858-1.715,38.622,38.622,0,0,1-.889-5.018,62.67,62.67,0,0,1-.6-7.941q-.159-15.881-.175-31.762V293c-.143-2.573-2.3-2.859-4.367-2.811-.3,0-.889-.127-1.1.111s-.143,1.143-.143,1.445c0,2.192.079,4.4.127,6.607.127,6.352-.222,12.625,0,18.93.175,5.384.54,11.355-1.89,16.326a14.18,14.18,0,0,0-1.366,4.129c-.413,2.668-.635,5.352-.826,8.036-.461,6.352-.651,12.7-1.159,19.057-.254,3.367-.7,6.75-.81,10.116,0,2.573.54,5.145.365,7.686s-2.319,4.494-3.891,6.352-3.637,3.684-4.081,6.067a11.7,11.7,0,0,0,.143,4c0,.4.683,2,.445,2.366.079-.111-9.227-4.351-10.2-4.764a27.886,27.886,0,0,0-4.256-1.255,12.823,12.823,0,0,0-1.747-.238,8.2,8.2,0,0,1-1.35,0,14.2,14.2,0,0,1,1.493-2.4c1.382-2.16,2.7-4.383,3.939-6.638a66.3,66.3,0,0,0,7.162-17.882,125.46,125.46,0,0,0,2.033-23.822,11.706,11.706,0,0,0-.111-1.985,4.765,4.765,0,0,0-.143-1.493c-.175-.381-.524-.492-.858-.778a13.087,13.087,0,0,1-3.065-4.939,32.051,32.051,0,0,1-2.112-7.845,45.567,45.567,0,0,1,0-9.306,35.679,35.679,0,0,0-.111-5.527,110.075,110.075,0,0,1-.079-11.895c0-2.335-.429-4.637-.334-6.972,0-1.7.3-3.478-1.858-3.653a38.557,38.557,0,0,1-8.195-1.112A30.381,30.381,0,0,1,189.426,276.5c-2.112-3.081-4.161-6.241-5.971-9.529a40.707,40.707,0,0,1-3.669-10.609,184.86,184.86,0,0,1-5.05-38.115c-.206-7.274-.937-9.529-1.048-16.993,0-.953-1.1-6.67-1.08-7.607.079-1.826-3.526-7.305-3.478-9.132,0-2.287,5.781-2.97,8.75-4.4,3.287-1.588,4.764-5.511,7.337-8.1,5.384-5.431,11.117-10.5,16.373-16.151l.318-.349a22.233,22.233,0,0,0,3.43-5.13,96.872,96.872,0,0,1,8.56-13.975c5.987-8.258-4.526-9.211,3.637-15.4,3.176-2.43,16.532-3.557,20.534-2.986,7.353,1.064,22.345,1.08,26.649,0,15.881-3.732,24.092-5.177,35.828-1.477.1,0,44.769,3.351,53.075,3.637,4.939.175,9.91.143,14.849,0l15.119-.524c11.291-.4,22.583-.7,33.859-1.191,10.085-.429,20.169-1.175,30.254-1.763,4.1-.238,8.211-.54,12.324-.731q8.8-.429,17.469-1.286l10.132-.985a23.441,23.441,0,0,1,7.067,0c10.243,1.922,18.232,10.529,22.758,19.5a46.739,46.739,0,0,1,2.922,7.305c.762,2.6,1.048,5.225,1.588,7.941l.238,1.064a80.64,80.64,0,0,1,2.541,16.834v.873c.3,7.178,1.191,14.293.556,21.44-.175,1.858-.4,3.732-.6,5.59l-2.223,19.978a63.854,63.854,0,0,1-2.335,12.117l-3.16,13.451c-.762,4.606-2.509,9.1-2.763,13.785-.222,4-.365,7.941-.349,12.022a64.321,64.321,0,0,0,1.207,14.293c2.493,10.783,10.72,19.184,12.7,30.095a17.071,17.071,0,0,1-1.461,10.847c-1.985,4.161-4.272,8.115-5.844,12.467-2.223,6.146-4.066,12.387-6.479,18.47-1.89,4.764-3.954,9.4-5.606,14.214-1.477,4.3-1.937,8.751-3.176,13.1a34.934,34.934,0,0,0-1.811,8.147c0,2.462.921,4.764,1.048,7.258a7.813,7.813,0,0,1-2.874,5.8c-1.239,1.128-2.557,2.033-2.874,3.8a18.627,18.627,0,0,0,.461,7.941c.111.413,1.286,2.986,1,3.351s-5.177-2.779-5.844-3.176c-1.588-1-3.256-2.08-4.939-3a22,22,0,0,0-10.768-2.176Z" transform="translate(99.468 66.711)"/>
    <path id="Path_354" data-name="Path 354" class="cls-9" d="M182.25,302.555s7.607-6.082,10.037-13.086v-37.1s0-5.765,7-10.021c0,0-.921,5.463-1.588,7.941l.127,26.029.826,5.971s.54,4.018.572,6.622c0,0,.588,2.4-.937,3.478-2.62,1.842-3.653,1.747-3.811,2.112h-.127a2.479,2.479,0,0,0-.413.333,1.588,1.588,0,0,0-.762,1.223c-.111.889,1,2.335,1.445,4.923l.238,1.985v2.493l-.238,2.446-.429,2.4-7.5-6.813Z" transform="translate(107.184 142.529)"/>
    <path id="Path_355" data-name="Path 355" class="cls-2" d="M382.621,220.572s-6.607,29.7-16.723,44.038c0,0-21.487,24.854-18.12,32.445,0,0-1.683,16.85,2.541,21.487,0,0-11.784,8.306-10.529,17.628,0,0-11.863-6.845-17.469-6.13,0,0,11.2-6.019,9.942-27.506,0,0,0-23.425,2.1-33.35,0,0,2.112-14.214,1.27-23.9,0,0-.572-28.586-1.763-43.4,0,0,27.871-4.431,36.177,4.431C369.979,206.247,371.949,209.392,382.621,220.572Z" transform="translate(189.561 118.077)"/>
    <path id="Path_356" data-name="Path 356" class="cls-10" d="M151.4,288.116s1.318-5.352,10.053-12.356a60,60,0,0,1,17.469,7.385s2.128,2.811-2.684,5.733a14.991,14.991,0,0,1-7.814,2.1H153.941a2.525,2.525,0,0,1-2.541-2.525Z" transform="translate(89.04 162.178)"/>
    <path id="Path_357" data-name="Path 357" class="cls-10" d="M177.414,293.265v.222a1.588,1.588,0,0,0,1.382,1.588,36.8,36.8,0,0,0,16.723-1.334l4.574-3.176s2.7-2.35-2.8-6.194a13.912,13.912,0,0,1-1.7-1.366c-.969-.905-2.922-2.89-9.417-2.986l-6.448.254a3.51,3.51,0,0,0-2.239.937c-2.08,1.953-6.019,6.718-5.892,9.259v1.159a.794.794,0,0,0,1.064.746l2.271-.842C177,290.644,177.414,291.994,177.414,293.265Z" transform="translate(100.919 164.684)"/>
    <path id="Path_358" data-name="Path 358" class="cls-2" d="M357.86,309.948s1.286-4.208,9.846-11.466a5.368,5.368,0,0,1,4.32-1.175,50.185,50.185,0,0,1,16.23,5.813,3.764,3.764,0,0,1,1.032,5.733,16.834,16.834,0,0,1-7.4,4.193,4.352,4.352,0,0,1-1.429.238H360.925a3.049,3.049,0,0,1-3.065-3.065Z" transform="translate(210.462 174.808)"/>
    <path id="Path_359" data-name="Path 359" class="cls-10" d="M329.418,296.206h0a1.922,1.922,0,0,0,1.588,1.906,37.178,37.178,0,0,0,16.485-1.366l4.574-3.176s1.445-3.4-4-6.972A14.434,14.434,0,0,0,344,284.9a36.166,36.166,0,0,0-10.672-1.588h-.143a4.843,4.843,0,0,0-3.319,1.3c-2.271,2.112-6.352,6.353-6.352,8.751h0a1.588,1.588,0,0,0,2.144,1.509l1.191-.429a1.842,1.842,0,0,1,2.573,1.763Z" transform="translate(190.261 166.618)"/>
    <path id="Path_360" data-name="Path 360" class="cls-15" d="M394.719,154s8.528,21.376,9.656,65.113c0,0,1.668,29.587,3.542,46.786a27.745,27.745,0,0,1,10.291-1.667,72.2,72.2,0,0,1-7.115-26.061s-1.985-41.1-3.049-48.565a194.417,194.417,0,0,0-2.589-33.446A54,54,0,0,0,390.4,127.7L385,123S386.715,123.683,394.719,154Z" transform="translate(226.424 72.338)"/>
    <path id="Path_361" data-name="Path 361" class="cls-11" d="M398.49,208.3a203.3,203.3,0,0,0,7.8,20.185,67.174,67.174,0,0,0,8.925,14.42c5.59,6.94,14.881,19.057,14.881,22.869a220.2,220.2,0,0,0-3.526-26.506,42.229,42.229,0,0,0-5.733-13.753l-12.006-18.867S408.3,204.266,398.49,208.3Z" transform="translate(234.357 121.122)"/>
    <path id="Path_362" data-name="Path 362" class="cls-12" d="M186.936,184.06s2.906,24.616,12.181,41.847l-.492-.175H195.4l-.1.381a6.238,6.238,0,0,0,0,1.334V229.5l.143,12.276v17.9a35.73,35.73,0,0,1-.667,5.971,15.991,15.991,0,0,1-1.207,3.3c-.27.572-.524.7-.794,1.35a13.229,13.229,0,0,0-.651,3.065s-1.429,13.1-1.429,18.914c0,0-.175,6.829-1.032,13.832a32.764,32.764,0,0,0-.079,9.322,9.672,9.672,0,0,1-.079,3.764,19.328,19.328,0,0,1-3.891,5.368s-1.048,1.143-2.065,2.4a7.29,7.29,0,0,0-1.461,2.35l-.445,1.81a4.764,4.764,0,0,0,0,1.89l.7,3.748s-11.736-6.686-17.469-6.13c0,0,8.655-14.134,10.418-19.661a57.647,57.647,0,0,0,2.065-6.352c.349-1.715.572-3.4.905-5.4a46.53,46.53,0,0,0,.715-4.955c.175-5.94.619-9.354.476-12.181l-.191-5.527a34.4,34.4,0,0,1-3.176-4.177,11.988,11.988,0,0,1-.969-2.319,10.228,10.228,0,0,1-.746-2.192s-.206-.651-.461-1.588-.492-2.462-.7-3.843a11.766,11.766,0,0,1-.254-3.081v-2.192c0-1.223.318-2.684.318-4.066v-1.668c0-1.588-.254-2.938-.27-4.764v-1.985c0-2.922.159-5.717.111-7.941V234.53a17.169,17.169,0,0,0-.318-2.827,13.534,13.534,0,0,1,0-1.826V228a4.763,4.763,0,0,0-.1-1.08,1.334,1.334,0,0,0-.651-1c-.429-.254-.429-.27-1.35-.3h-2.223a30.459,30.459,0,0,1-6.638-1.3,23.311,23.311,0,0,1-5.1-2.4,35.69,35.69,0,0,1-5.082-4.224,13.228,13.228,0,0,1-2.493-2.573s-1.35-1.747-3.716-5.161c-.985-1.4.349.905-.619-.905-1.588-2.859,24.759-13.245,26.2-13.086s4.764-.27,9.4-4.971Z" transform="translate(85.139 108.248)"/>
    <path id="Path_363" data-name="Path 363" class="cls-15" d="M279.474,285.921s-19.057-.588-30.873-.381a28.76,28.76,0,0,1-6.638-1.318,20.82,20.82,0,0,1-6.273-3.176c-1.763-1.366-3.827-3.335-5.924-5.32s-2.938-4.288-4.764-6.718c0,0-11.974-2.223-39.909,40.433,0,0-12.7,22.98-23.059,32.08,0,0-37.257-72.91-28.427-76.769l.667-1.493s-15.516,1.858-19.248-1.731a6.829,6.829,0,0,1-3.3-3.589s13.785-1.731,19.248-1c0,0-15.881-.429-21.979-12.5,0,0,23.552,6.035,34.049,4.018,0,0,18.374-.143,27.713-15.373,0,0,23.075-29.11,28.92-44.817s3.4,1.223,15.4-30.508c0,0,9.862-25.569,21.884-29.587,0,0,11.514-7.019,18.216-11.593Z" transform="translate(64.099 68.562)"/>
    <path id="Path_364" data-name="Path 364" class="cls-2" d="M206.15,306.448s1.3-4.193,9.862-11.45a5.288,5.288,0,0,1,4.3-1.191,50.073,50.073,0,0,1,16.262,5.828,3.764,3.764,0,0,1,1.048,5.733,17.247,17.247,0,0,1-7.416,4.193,4.259,4.259,0,0,1-1.413.238H209.215a3.081,3.081,0,0,1-3.065-3.065Z" transform="translate(121.24 172.749)"/>
    <path id="Path_365" data-name="Path 365" class="cls-2" d="M186.32,302.233s1.286-4.209,9.846-11.466a5.384,5.384,0,0,1,4.32-1.191,50.707,50.707,0,0,1,16.262,5.828,3.764,3.764,0,0,1,1.032,5.733,16.993,16.993,0,0,1-7.4,4.193,4.43,4.43,0,0,1-1.429.238H189.369a3.049,3.049,0,0,1-3.049-3.065Z" transform="translate(109.577 170.263)"/>
    <path id="Path_366" data-name="Path 366" class="cls-16" d="M444.424,450.546c2.8-5.59,5.813-11.117,8.353-16.834,3.287-7.385,4.479-15.77,6.21-23.631l2.128-9.719c0-.413.191-1.112.238-1.588l1.366-14.579a78.194,78.194,0,0,0-.222-16.469c-.778-6.638-1.985-13.578-5.018-19.581l-2.716-6.924a14.642,14.642,0,0,0-3.764-5.4l-7.687-8.893a41.29,41.29,0,0,0-11.26-9.433,47.14,47.14,0,0,0-7.289-3.049,8.417,8.417,0,0,0-3.017-.635c-3.827,0-7.655,0-11.482.143a54.267,54.267,0,0,0-7.8,1.128c-9.179,1.588-18.025,4.526-26.919,7.226a10.924,10.924,0,0,1-2.716.651,27.682,27.682,0,0,0-7.273,1.938c-3.3,1.143-6.607,2.271-9.957,3.319-5.733,1.81-11.434,3.684-17.152,5.558-4.558,1.493-12.054,3.811-16.643,5.177a87.637,87.637,0,0,1-16.183,3.859l-19.169,3.176a16.215,16.215,0,0,1-4.542.175l-11.816-.731c-2.573-.159-5.241-.143-7.814-.429a12.7,12.7,0,0,1-2.509-.54l-16.135-4.828a28.829,28.829,0,0,0-3.4-1.032c-.81-.127-1.08.508-1.334,1.239a23.582,23.582,0,0,0-1.032,6.352,103.334,103.334,0,0,0-.175,10.4c.111,3.827.4,7.639.746,11.434a44.577,44.577,0,0,1,.191,6.67,81,81,0,0,1-3.351,16.326,41.657,41.657,0,0,0-1.763,10.91c0,3.1.429,6.162.635,9.259s0,5.86.286,8.782.889,6.019,1.223,9.052c.222,2.017.794,4.764-.969,6.225-1.286,1.1-3.4,1.318-4.478,2.668a2.033,2.033,0,0,0-.1,2.176,16.18,16.18,0,0,1,1.3,4.764,25.95,25.95,0,0,1-.588,7.829c-1-.937-1.985-1.953-3.065-2.811a13.452,13.452,0,0,0-7.258-2.763l-5.654-.492c-1.413-.127-5.765.222-4.653-2.366.635-1.477,1.715-2.89,2.493-4.3a66.434,66.434,0,0,0,3.43-7.305c1.35-3.367,2.732-6.7,3.764-10.164,2.4-7.941,2.287-16.167,2.493-24.393a13.468,13.468,0,0,0-.889-5.543,23.186,23.186,0,0,0-3.176-5,4.971,4.971,0,0,1-.826-1.668,36.518,36.518,0,0,1-.873-4.875,62.4,62.4,0,0,1-.588-7.7q-.159-15.4-.159-30.857v-2.589c-.143-2.493-2.239-2.779-4.24-2.747-.3,0-.873-.111-1.08.127s-.127,1.112-.143,1.4c0,2.144,0,4.272.127,6.352.127,6.146-.222,12.276,0,18.422.175,5.225.54,11.117-1.842,15.881a13.784,13.784,0,0,0-1.318,4c-.4,2.6-.6,5.209-.794,7.829-.461,6.162-.635,12.324-1.128,18.47-.254,3.272-.7,6.575-.794,9.846,0,2.493.524,5,.349,7.48s-2.239,4.351-3.78,6.1-3.526,3.573-3.97,5.876a11.116,11.116,0,0,0,.143,3.891c0,.4.651,1.953.429,2.319,0-.111-8.973-4.24-9.91-4.574A25.133,25.133,0,0,0,183.8,439.3a10.559,10.559,0,0,0-1.715-.222c-.159,0-1.239.127-1.318,0a14.294,14.294,0,0,1,1.461-2.335q2.033-3.176,3.827-6.464a64.446,64.446,0,0,0,6.972-17.469,123.655,123.655,0,0,0,1.985-23.139c0-.413-.1-1.509-.111-1.922a4.921,4.921,0,0,0-.143-1.445c-.175-.365-.508-.476-.842-.762a12.88,12.88,0,0,1-2.986-4.764,32.4,32.4,0,0,1-2.049-7.623,44.371,44.371,0,0,1,0-9.068,35.438,35.438,0,0,0-.1-5.352,108.314,108.314,0,0,1-.079-11.577c0-2.271-.429-4.494-.333-6.765,0-1.667.3-3.383-1.81-3.557a37.341,37.341,0,0,1-7.941-1.08,29.523,29.523,0,0,1-15.341-12.07,107.871,107.871,0,0,1-5.813-9.275,39.7,39.7,0,0,1-3.573-10.323,180.123,180.123,0,0,1-4.907-37.082c-.191-7.083-.921-9.211-1.016-16.532,0-.921-1.064-6.5-1.048-7.4.079-1.779-3.43-7.1-3.383-8.878,0-2.223,5.622-2.89,8.512-4.272,3.176-1.588,4.637-5.368,7.131-7.941,5.241-5.288,10.879-10.212,15.881-15.706l.318-.334a21.9,21.9,0,0,0,3.335-4.987,92.308,92.308,0,0,1,8.322-13.578c5.812-8.052-4.4-8.973,3.526-14.992,3.176-2.35,16.072-3.462,19.963-2.89,7.146,1.016,12.784,2.843,15.23,2.89a31.62,31.62,0,0,0,10.688-2.827,51.725,51.725,0,0,1,34.716-1.445l.27.1c9.83,3.176,16.85.858,27.125,2.128,7.941,1,16.119,1.048,24.187,1.334,4.764.159,9.64.127,14.452,0l14.69-.524c10.974-.381,21.964-.683,32.922-1.143,9.815-.429,19.613-1.143,29.412-1.715,3.986-.238,7.941-.54,11.99-.731q8.528-.4,17.056-1.239l9.846-.969a23.661,23.661,0,0,1,6.861,0c9.973,1.89,17.739,10.259,22.138,18.962a44.249,44.249,0,0,1,2.827,7.115c.746,2.525,1.016,5.082,1.588,7.655a4.045,4.045,0,0,0,.238,1.032,78.131,78.131,0,0,1,2.446,16.373c0,.286,0,.556,0,.842.3,6.988,1.175,13.848.54,20.852-.159,1.81-.381,3.621-.588,5.431l-2.144,19.423a64.168,64.168,0,0,1-2.271,11.784l-3.017,12.991c-.746,4.494-2.43,8.846-2.684,13.42-.222,3.891-.349,7.782-.333,11.689a62.713,62.713,0,0,0,1.159,13.9c2.43,10.482,10.434,18.66,12.387,29.253a16.659,16.659,0,0,1-1.429,10.545c-1.922,4.05-4.145,7.941-5.685,12.133-2.16,5.971-3.954,12.038-6.352,17.946-1.826,4.606-3.827,9.148-5.447,13.832-1.429,4.177-1.89,8.5-3.065,12.7a33.253,33.253,0,0,0-1.763,7.941c0,2.4.889,4.685,1.016,7.067a7.591,7.591,0,0,1-2.8,5.622c-1.207,1.112-2.477,1.985-2.8,3.7a18.12,18.12,0,0,0,.461,7.718c.1.4,1.239,2.906.953,3.256s-5.034-2.7-5.67-3.1c-1.588-.969-3.176-2-4.764-2.906a21.3,21.3,0,0,0-10.5-1.985Z" transform="translate(84.418 97.099)"/>
    <path id="Path_367" data-name="Path 367" class="cls-5" d="M198.168,247.8S201,271.717,210,288.488l-.476-.175h-2.668l-.4.1-.1.365a5.942,5.942,0,0,0,0,1.3v1.985L206.506,304v17.39a34.542,34.542,0,0,1-.651,5.813,14.805,14.805,0,0,1-1.175,3.176c-.254.572-.492.683-.762,1.318a11.989,11.989,0,0,0-.635,2.97s-1.4,12.7-1.382,18.39c0,0-.175,6.654-1.016,13.451a32.16,32.16,0,0,0-.079,9.068,9.339,9.339,0,0,1,0,3.653,18.439,18.439,0,0,1-3.8,5.225s-1.016,1.128-2,2.335a7.37,7.37,0,0,0-1.429,2.287l-.413,1.763a4.241,4.241,0,0,0,0,1.842l.683,3.637s-11.419-6.511-17.04-5.955c0,0,8.4-13.753,10.116-19.057a56.458,56.458,0,0,0,2.017-6.21c.334-1.667.556-3.3.874-5.241a44.461,44.461,0,0,0,.7-4.764c.175-5.781.6-9.116.461-11.863l-.175-5.368a32.818,32.818,0,0,1-3.176-4.066,12.7,12.7,0,0,1-.937-2.239,10.7,10.7,0,0,1-.731-2.144s-.191-.635-.445-1.588-.476-2.4-.683-3.732a12.7,12.7,0,0,1-.254-2.986v-2.144c0-1.191.318-2.6.3-3.954v-1.588c0-1.588-.238-2.859-.254-4.685,0-.445-.079-1.477-.079-1.922,0-2.843.159-5.558.111-7.734v-2.144a15.5,15.5,0,0,0-.3-2.763,16.381,16.381,0,0,1,0-1.763c0-.349,0-.746,0-1.112v-.715a4.589,4.589,0,0,0-.079-1.048c-.159-.461-.175-.683-.651-.969s-.4-.27-1.3-.286h-2.176a29.841,29.841,0,0,1-6.448-1.27,21,21,0,0,1-4.939-2.335,32.971,32.971,0,0,1-4.955-4.1,12.493,12.493,0,0,1-2.43-2.493s-1.318-1.715-3.621-5.018a43.426,43.426,0,0,1-2.62-4.288c-1.509-2.779-4.685-7.941-4.59-10.164.508-11.307,3.986,1.175,18.327,1.175,0,0,16.358,1.477,22.916-5.177Z" transform="translate(88.534 145.735)"/>
    <path id="Path_368" data-name="Path 368" class="cls-5" d="M204,301.792a54.758,54.758,0,0,1,10.053-15.881l.159-.206a16.135,16.135,0,0,0,.413-18.089,23.7,23.7,0,0,1-3.541-7.941.7.7,0,0,1,1.286-.461c2.319,4.129,7.559,12.244,14.293,14.928a52.856,52.856,0,0,1,5.416,2.589c6.543,3.462,20.09,9.989,27.665,9.243,1.795-.175,3.573-.333,5.368-.333,7.829,0,26.68-.3,33.493-4.24,0,0,25.41-6.067,29.682-14.8,0,0,12.324-12.371,14.563-26.093,0,0,5.034-15.119,14.563-16.231,0,0,11.2-3.923,29.952,20.439,0,0,14.023,14.785,21.106,31.762a186.654,186.654,0,0,1,10.005,26.363.683.683,0,0,1-1.223.572c-1.159-1.588-2.827-3.891-5-6.654-1.223-1.588-2.811-3.605-4.113-5.114-1.969-2.287-4.415-4.987-6.257-6.829-2.541-2.573-1.779-2.065-4.351-3.049-.6-.222-2.478-.778-3.1-.969a40.415,40.415,0,0,0-4.764-1.1c-1.715-.3-5.971-.73-8.338-.826-2.7-.127-2.239.27-6.353.27a20.091,20.091,0,0,0-3,.508,65.112,65.112,0,0,0-7.941,1.4,92.107,92.107,0,0,0-11.959,3.049c-2.35.762-5.034,1.588-7.8,2.366a72.753,72.753,0,0,1-7.845,2.033,49.34,49.34,0,0,0-8.338,2.525c-5.86,1.874-9.529,3.272-14.627,4.764,0,0-11.943,4.129-24.949,7.941-8.862,2.589-18.168,5.145-24.7,5.606a22.4,22.4,0,0,0-4,.667,41.46,41.46,0,0,1-6.13.969c-1.588.127-3.542.731-5.32.715-2.065,0-4.32-.27-6.511-.413-5.13-.333-10.8-.762-16.231-1a16.979,16.979,0,0,1-4.034-1.35c-1.366-.492-2.382-.572-3.653-.985,0,0-2.1-.556-3.875-1.175s-4.161-1.318-6.352-1.906c-1.048-.286-2.1-.6-2.811-.842a3.173,3.173,0,0,0-.508-.175c-.079,0-.381,0-.461-.127A2.35,2.35,0,0,1,204,301.792Z" transform="translate(119.834 131.763)"/>
    <path id="Path_369" data-name="Path 369" class="cls-5" d="M191.16,363.008s7.385-5.924,9.751-12.7V314.221s0-5.622,6.813-9.751c0,0-.889,5.32-1.493,7.686l.127,25.283.81,5.828s.524,3.891.556,6.432c0,0,.572,2.335-.905,3.367-2.541,1.795-3.557,1.715-3.7,2.065h-.127a1.794,1.794,0,0,0-.413.318,1.588,1.588,0,0,0-.746,1.191c-.1.873.985,2.271,1.413,4.764l.222,1.938v2.43l-.222,2.366-.413,2.335-7.289-6.622Z" transform="translate(112.424 179.063)"/>
    <path id="Path_370" data-name="Path 370" class="cls-5" d="M336.4,399.084a110.689,110.689,0,0,1,12.975-8.941,4.177,4.177,0,0,0,2.144-3.287c.556-6.273,2.208-23.441,4.05-29.634,0,0,2.652-16.866,7.051-26.363a11.115,11.115,0,0,0,1.064-4.685c0-.286,0-.588,0-.889a16.072,16.072,0,0,0-3.748-10.482,6.972,6.972,0,0,1-1.667-4.844v-2.192a25.9,25.9,0,0,1,1.1-7.718,44.706,44.706,0,0,0,2.049-20.185,70.365,70.365,0,0,0-1.4-7.814s-4.351-10.847-1.239-19.661c0,0,3.637,6.225,6.464,5.1,0,0,0,4.51.079,9.179a48.89,48.89,0,0,0,.889,8.131,38.115,38.115,0,0,0,2.859,8.878c.365.81.794,1.588,1.223,2.35,1.795,3.176,6.8,12.054,7.7,15.516a17.945,17.945,0,0,1-2.271,16.929s-.715,1.683-2.414,5.3c-.588,1.271-1.477,3.494-2.017,5.034-1.064,2.986-1.159,3.843-2,6.194-.508,1.461-1.3,3.542-1.731,4.939s-1.461,3.256-1.811,4.59c0,0-1.667,4.51-3.6,9.529a73.165,73.165,0,0,0-4.606,15.039,77.683,77.683,0,0,1-2.08,8.354c-.7,2.144,0,6.194.572,8.353a5.86,5.86,0,0,1-.889,4.653s-.365.54-1.175,1.588c-.381.492-1.27,1.048-2.827,2.843a5.685,5.685,0,0,0-.746,3.176,17.109,17.109,0,0,0,.111,3.017,17.479,17.479,0,0,0,.333,2l.81,2.731a30.652,30.652,0,0,0-3.621-3.351,10.325,10.325,0,0,0-2.6-1.89,32.424,32.424,0,0,0-3.526-1.032,14.166,14.166,0,0,0-2.906-.318,22.615,22.615,0,0,0-2.589-.143Z" transform="translate(197.841 148.434)"/>
    <path id="Path_371" data-name="Path 371" class="cls-5" d="M149.741,254.242s9.338-30.428,25.585-44.594A50.915,50.915,0,0,0,188.65,180.49s-6.591,19.518-22.234,30.285c0,0-19.788,15.452-22.726,14.293C143.69,225.021,149.042,241.458,149.741,254.242Z" transform="translate(84.506 106.149)"/>
    <path id="Path_372" data-name="Path 372" class="cls-17" d="M358.031,277.814s-6.352,28.888-16.246,42.879c0,0-20.9,24.171-17.628,31.556,0,0-1.588,16.389,2.462,20.884,0,0-11.45,8.083-10.227,17.152,0,0-11.546-6.654-17.04-5.955,0,0,10.879-5.86,9.656-26.76,0,0,0-22.774,2.049-32.477,0,0,2.049-13.817,1.223-23.234,0,0-.556-27.871-1.715-42.2,0,0,27.093-4.32,35.177,4.288C345.739,263.886,347.645,266.967,358.031,277.814Z" transform="translate(176.052 152.073)"/>
    <path id="Path_373" data-name="Path 373" class="cls-2" d="M161.16,348.972s1.286-5.209,9.783-12.022a58.364,58.364,0,0,1,16.993,7.178s2.08,2.747-2.6,5.59a14.69,14.69,0,0,1-7.607,2.033h-14.1a2.462,2.462,0,0,1-2.462-2.462Z" transform="translate(94.78 198.165)"/>
    <path id="Path_374" data-name="Path 374" class="cls-2" d="M186.42,353.962v.206a1.588,1.588,0,0,0,1.334,1.588,35.97,35.97,0,0,0,16.262-1.286l4.447-3.081s2.636-2.287-2.7-6.019a13.338,13.338,0,0,1-1.588-1.334c-.937-.889-2.827-2.811-9.148-2.906l-6.273.254a3.35,3.35,0,0,0-2.176.905c-2.065,1.874-5.86,6.352-5.717,8.925v1.128a.762.762,0,0,0,1.032.715l2.207-.794C186.007,351.405,186.42,352.707,186.42,353.962Z" transform="translate(106.365 200.623)"/>
    <path id="Path_375" data-name="Path 375" class="cls-2" d="M293.53,347.915s1.08-3.51,8.211-9.529a4.447,4.447,0,0,1,3.589-.985,41.863,41.863,0,0,1,13.563,4.86,3.176,3.176,0,0,1,.858,4.764,14.294,14.294,0,0,1-6.178,3.51,3.654,3.654,0,0,1-1.175.191h-16.31a2.557,2.557,0,0,1-2.557-2.557Z" transform="translate(172.629 198.396)"/>
    <path id="Path_376" data-name="Path 376" class="cls-2" d="M334.181,356.824h0a1.858,1.858,0,0,0,1.588,1.842,35.907,35.907,0,0,0,16.024-1.318l4.447-3.081s1.413-3.3-3.891-6.781a13.736,13.736,0,0,0-3.954-1.588,35.259,35.259,0,0,0-10.37-1.588h-.143a4.669,4.669,0,0,0-3.176,1.27c-2.208,2.065-6.241,6.162-6.114,8.512h0a1.588,1.588,0,0,0,2.08,1.461l1.159-.413a1.779,1.779,0,0,1,2.35,1.683Z" transform="translate(193.247 202.494)"/>
    <path id="Path_377" data-name="Path 377" class="cls-7" d="M309.007,241.275c0,8.893-11.212,1.795-17.025,7.623s-10.212,9.957-19.057,9.957-13.007,11.006-18.819,5.177-1.938-7.083-1.938-15.961c0-8.5,8.735-9.529,14.118-15.357,5.876-6.273,1.286-23.615,10.561-23.615,8.1,0,7.02,18.676,12.7,23.615C296.255,238.607,309.007,231.6,309.007,241.275Z" transform="translate(147.56 122.975)"/>
    <path id="Path_378" data-name="Path 378" class="cls-18" d="M364.013,203.764s8.274,20.788,9.37,63.286c0,0,1.588,28.777,3.446,45.484a27.08,27.08,0,0,1,10.021-1.588,70.273,70.273,0,0,1-6.924-25.33s-1.938-39.973-2.97-47.231a190.059,190.059,0,0,0-2.509-32.509A52.551,52.551,0,0,0,359.8,178.2l-5.3-4.606S356.215,174.241,364.013,203.764Z" transform="translate(208.486 102.091)"/>
    <path id="Path_379" data-name="Path 379" class="cls-7" d="M368.56,261.941a198.845,198.845,0,0,0,7.591,19.613,65.348,65.348,0,0,0,8.671,14.023c5.447,6.75,14.468,18.5,14.468,22.234a211.043,211.043,0,0,0-3.414-25.823A41.164,41.164,0,0,0,390.3,278.6l-11.72-18.343S378.12,258,368.56,261.941Z" transform="translate(216.755 152.683)"/>
    <path id="Path_380" data-name="Path 380" class="cls-7" d="M375.216,213.393c-2.192,8.75-5.034,13.5-10.99,19.184-9.926,9.529-19.439,2.287-33.1-1.143-10.926-2.732-24.028,1.588-29.269-7.814s-23.456-21.614-20.534-33.35,12.848-14.372,31.159-15.182c8.322-.365,20.566-3.78,31.508-1.048,13.181,3.3,41.529,7.067,47.183,14.96C394.909,194.224,377.535,204.134,375.216,213.393Z" transform="translate(165.267 101.737)"/>
    <path id="Path_381" data-name="Path 381" class="cls-7" d="M244.409,174.213c19.057,2.319,14.15,8.115,23.552,23.044,7.02,11.117,4.542,26.41,2.843,40.465-2.271,18.756,13.547,37.654-1.588,46.865-11.307,6.908-9.687-14.372-23.949-16.1-11.117-1.35-18.74,3-27-3.287-7.274-5.479-30.984,3.478-35.129-4.542-5.288-10.243,13.277-15.881,14.769-28.046.905-7.48-17.771-20.741-14.42-27,4.018-7.5,38.21,14.293,44.864,9.2C240.55,205.34,227.766,172.2,244.409,174.213Z" transform="translate(107.151 102.405)"/>
    <path id="Path_382" data-name="Path 382" class="cls-7" d="M167.31,262.52c-11.434,3.621-11.276-.651-14.579-11.117-1.588-4.764-5.257-14.372-3.033-18.756,2.573-5.05-.476-5.908,5.654-7.861,5.161-1.588,8.576,9.83,13.1,11.514,5.511,2.049,11.8-4.971,13.61.731,2.08,6.559-7.671,10.354-12.181,15.5C167.231,255.627,171.55,261.17,167.31,262.52Z" transform="translate(87.63 132.111)"/>
    <path id="Path_383" data-name="Path 383" class="cls-7" d="M362.276,260.849s-20.137-12.387-14.69-31.143c0,0,2-5.018,6.241-2.144a3.589,3.589,0,0,0,5.352-4.145.892.892,0,0,1,0-.191s3.891-13.451,11.117-12.006C370.3,211.22,367.072,250.415,362.276,260.849Z" transform="translate(203.87 124.158)"/>
    <rect id="Rectangle_35" data-name="Rectangle 35" class="cls-1" width="38.845" height="228.593" rx="9.1" transform="translate(0 355.467)"/>
    <rect id="Rectangle_36" data-name="Rectangle 36" class="cls-1" width="38.845" height="228.593" rx="9.1" transform="translate(645.028 367.775)"/>
    <rect id="Rectangle_37" data-name="Rectangle 37" class="cls-1" width="629.878" height="16.564" transform="translate(38.845 395.837)"/>
    <rect id="Rectangle_38" data-name="Rectangle 38" class="cls-1" width="628.687" height="16.659" transform="translate(38.845 449.817)"/>
    <path id="Path_384" data-name="Path 384" class="cls-16" d="M138.527,169.827c-.969,1.668-3.8,5.32-6.352,5.352-1.318,0-2.049-1-3.557-1.445s-3-3.065-4.542-3.939c-4.1-2.382-6.607-4.463-7.591-7.083a8.5,8.5,0,0,1-.556-4.066c.175-.794,2.414-2,3.176-2.493,3.176-1.953,7.353-1.588,12.117,1.239C137.257,160.838,140.5,166.412,138.527,169.827Z" transform="translate(68.15 91.116)"/>
    <path id="Path_385" data-name="Path 385" class="cls-7" d="M130.79,160.659c-7.782-6.575-14.293-2.223-14.769-1.588a13.436,13.436,0,0,1,1.271.445c-1.683,4.764,6.352,6.352,8.036,6.622a.318.318,0,0,1,.27.349,3.526,3.526,0,0,0,3.986,3.97.318.318,0,0,1,.318.381,3.78,3.78,0,0,0,2.366,4.764c.953.889,6.019-1.7,7.782-2.636a.318.318,0,0,1,.461.349.3.3,0,0,1-.111.191c-2,1.588-5.384,3.923-9.163,3.684-3.176-.206-11.847-9.052-14.658-12.61a4.129,4.129,0,0,1-.905-2.716c.1-3.954,1.286-4.764,1.286-4.764,6.146-6.257,18.184-.572,18.883-.222h0a60.807,60.807,0,0,0,5.066,3.716,2.319,2.319,0,0,0,1.588.3l2.7-.445a1.589,1.589,0,0,0,.6-.222l4.129-2.716a.318.318,0,0,1,.476.365l-.127.429a.3.3,0,0,1-.159.206c-2.1,1.032-5.273,12.165-8.735,11.72a9.115,9.115,0,0,1-3.907-2.35c-.238-.206.842-.937,1.969-.969a26.772,26.772,0,0,1-3.414-.365l-.794-.794c-.318-.349.6-1.588,2.525-1.413a24.884,24.884,0,0,1-4.05-.572c-.333-.381-1.016-1.318-1.318-1.668s-.1-.858,2.668-.826" transform="translate(68.026 90.675)"/>
    <path id="Path_386" data-name="Path 386" class="cls-7" d="M209.144,196.721c1.318,19.057-14.293,43.213-44.213,53.059a99.67,99.67,0,0,1-14.293,2.43c-1.731.191,5.622-4.478,6.21-9a15.564,15.564,0,0,0-2.319-11.371c-2.271-3.478-9.8-3.017-12.7-2.986-6.1,0-10.116,2.3-14.071-.429-2.319-1.588-4.764-4.383-8.147-1.7-.921.762,2.6-6.829,4.606-11.974a17.469,17.469,0,0,0,1.461-4.59c.6-2.922,1.588-5.543.715-8.687-.556-2.128-1.953-7.528-1.588-9.529.667-4.764.953-8.909,1.461-10.624,1.937-6.48,5.13-9.02,8.036-13.547a39.32,39.32,0,0,1,7.274-8.163,38.591,38.591,0,0,1,24.663-10.037,54.472,54.472,0,0,1,16.977,2.747c4.272,1.763,4.971,4.3,9.227,6.988C199.154,163.609,208.651,189.7,209.144,196.721Z" transform="translate(70.253 87.964)"/>
    <path id="Path_387" data-name="Path 387" class="cls-16" d="M142.453,157.68a65.271,65.271,0,0,0-12.371,13.34c-1.779,2.589-1.223,2.684,0,5.463a36.306,36.306,0,0,1,2.366,9.957,70.449,70.449,0,0,1-1.159,23.647c-1.175,5.177-3.462,13.562-9.529,15.1,2.3-.365,4.177,1.191,5.908,2.493l-1.271-.953a9.624,9.624,0,0,0,8.385,2.112l-1.223.286c8.369-1.016,17.66-2.287,24.076,2.589-3.653-2.763-1.207-14.865-.81-18.851.969-9.688,3.049-22.869,11.911-28.681a31,31,0,0,1,24.409-4.272c4.923,1.048,7.035,3.287,11.117,6.749a8.721,8.721,0,0,0,1.175.905,146.624,146.624,0,0,0-6.067-15.532c-1.588-3.271-2.3-6.352-5.892-10.529-2.4-2.763-1.35-1.429-6.051-5.161a30.934,30.934,0,0,0-4.59-3.446C170.658,146.4,152.966,149.358,142.453,157.68Z" transform="translate(71.609 87.843)"/>
    <path id="Path_388" data-name="Path 388" class="cls-7" d="M120.744,197.924a8.893,8.893,0,0,0-2.335,4.431,27,27,0,0,0,.635,15.262c2.986,7.544,13.023,10.243,21.106,10.069,10.148-.222,20.058-6.257,22.234-15.77.842-3.653-.159-9.4-3.986-11.546-2.144-1.207-5.59-1.191-7.941-1.255a71.585,71.585,0,0,0-11.371.715c-5.13.651-5.193.81-11.5-3.049a5.019,5.019,0,0,0-3.176-.731,6.083,6.083,0,0,0-3.669,1.874Z" transform="translate(69.163 115.284)"/>
    <path id="Path_389" data-name="Path 389" class="cls-19" d="M140.265,203.659a5.479,5.479,0,0,1-1.4,5.336c-1.953,2.43-5.622,1.048-6.607-.794s1.143-1.445,3.811-2.859S140.074,201.674,140.265,203.659Z" transform="translate(77.64 119.315)"/>
    <path id="Path_390" data-name="Path 390" class="cls-19" d="M122.72,203.342a5.3,5.3,0,0,0,1.588,5.1,4.177,4.177,0,0,0,6.5-.572c.905-1.731-1.175-1.4-3.843-2.811S122.863,201.452,122.72,203.342Z" transform="translate(72.094 119.156)"/>
    <path id="Path_391" data-name="Path 391" class="cls-20" d="M150.35,154.2s-2.049-.953-6.352,4.018a17.469,17.469,0,0,0-4.018,8.036C143.474,160.518,145.268,159.025,150.35,154.2Z" transform="translate(82.324 90.642)"/>
    <path id="Path_392" data-name="Path 392" class="cls-7" d="M145.27,164.194a9.878,9.878,0,0,0,2.207-3.4,31.756,31.756,0,0,0,1.731-4.145,22.854,22.854,0,0,0-3.939,7.544Z" transform="translate(85.435 92.128)"/>
    <path id="Path_393" data-name="Path 393" class="cls-7" d="M160.733,150.787a13.5,13.5,0,0,1-2.716-.858,15.643,15.643,0,0,0-6.67-1.7,10.863,10.863,0,0,0-7.8,4.05c2.382-.6,4.177-1.1,5.813-1.461-8.576,4.987-14.912,20.868-14.912,20.868,10.7-15.325,16.913-17.469,19.343-17.644a19.266,19.266,0,0,0,4.367-1.588,13.309,13.309,0,0,1,3.049-1.318C161.7,151.041,161.226,150.882,160.733,150.787Z" transform="translate(79.072 87.176)"/>
    <path id="Path_394" data-name="Path 394" class="cls-7" d="M155.749,161.137c.365,3,0,5.066.969,8.068,0,0,.159-6.8.619-9.624.206-1.239.334-2.207.381-2.97l1.35,2.382a11.99,11.99,0,0,0-1.588-5.59,8.226,8.226,0,0,0-3.367-3.176c-2.493-1.906-2.112.191-2.112.191l.254,1.795a3.685,3.685,0,0,0,.826,1.7c1.143,1.382,2.033,7.353-5.431,16.548A38.257,38.257,0,0,0,155.749,161.137Z" transform="translate(86.835 87.88)"/>
    <path id="Path_395" data-name="Path 395" class="cls-16" d="M187.538,156.137c.4.556,2.747,1.334,2.859,2.033a9.005,9.005,0,0,1,.254,2.8c-.635,3.176-6.051,6.877-10.037,9.8-1.175.858-2.287,4.145-3.494,4.764-2.207,1.08-5.241-.191-7.147-.334a6.051,6.051,0,0,1-4.669-2.4c-2.382-3.256.588-9.529,6.607-13.864S185.124,152.881,187.538,156.137Z" transform="translate(96.734 90.831)"/>
    <path id="Path_396" data-name="Path 396" class="cls-7" d="M178.845,160.569c7.766-6.575,14.293-2.223,14.769-1.588a12.036,12.036,0,0,0-1.27.445c1.668,4.764-6.352,6.352-8.052,6.622a.318.318,0,0,0-.27.334,3.526,3.526,0,0,1-3.986,3.986.318.318,0,0,0-.318.381,3.78,3.78,0,0,1-2.35,4.764c-.969.889-6.035-1.7-7.8-2.636a.318.318,0,0,0-.461.349.381.381,0,0,0,.111.191c2,1.588,5.384,3.923,9.163,3.684,3.272-.206,11.847-9.052,14.658-12.61a4.129,4.129,0,0,0,.905-2.716c-.1-3.954-1.286-4.764-1.286-4.764-6.146-6.257-18.184-.572-18.883-.222h0c-.318.254-3.4,2.716-5.066,3.716a2.319,2.319,0,0,1-1.588.3l-2.7-.445a1.588,1.588,0,0,1-.6-.238l-4.129-2.7a.318.318,0,0,0-.476.365l.127.429a.3.3,0,0,0,.159.206c2.1,1.032,5.273,12.165,8.735,11.72a9.147,9.147,0,0,0,3.923-2.35c.238-.206-.858-.937-1.985-.969a26.772,26.772,0,0,0,3.414-.365l.794-.794c.318-.349-.6-1.588-2.525-1.413a24.885,24.885,0,0,0,4.05-.572c.334-.381,1.016-1.318,1.318-1.588s.111-.858-2.668-.826" transform="translate(93.628 90.623)"/>
    <circle id="Ellipse_7" data-name="Ellipse 7" class="cls-16" cx="1.588" cy="1.588" r="1.588" transform="translate(245.141 283.875)"/>
    <path id="Path_397" data-name="Path 397" class="cls-16" d="M155.94,184.306c-.191-.1-2.573-1.953-2.7-2.128l-1-1.588a15.579,15.579,0,0,0,4.876,3.176,14.373,14.373,0,0,0,4.034-.476A5.416,5.416,0,0,1,155.94,184.306Z" transform="translate(89.534 106.207)"/>
    <path id="Path_398" data-name="Path 398" class="cls-16" d="M158.054,176.536a33.2,33.2,0,0,1,3.78.778l2.62,1.318a20.169,20.169,0,0,0-7.226-.445,14.532,14.532,0,0,0-3.669,1.763C154.862,177.965,156.9,176.345,158.054,176.536Z" transform="translate(90.311 103.814)"/>
  </g>
</svg>
