<svg id="cow-hungry" xmlns="http://www.w3.org/2000/svg" width="491.761" height="467.333" viewBox="0 0 491.761 467.333">
  <g id="Layer_1" data-name="Layer 1" transform="translate(0)">
    <path id="Path_25" data-name="Path 25" d="M273.05,84.765v23.761l3.752,7.5,8.754,7.5,33.765,1.251,7.5-6.253,10-10,10-13.756,12.506-17.508-3.752-8.754L343.081,51l-28.763,6.253L280.553,71.009Z" transform="translate(68.422 12.778)" fill="#40403f" opacity="0.1"/>
    <path id="Path_26" data-name="Path 26" d="M427.211,78.785c0-5-6.253-13.756-22.51-18.758s-26.512.588-26.749.625h0c-32.514,21.259-21.835,11.468-28.763,13.756-13.268,4.377-3.264-10.63-26.262-35.016C311.172,26.887,307.62,14.544,289.65,7.5c0,0-17.508-7.5-28.763-7.5L224.621,3.752c-20.009,7.5-46.271,18.758-61.9,35.641C150.1,53.024,147.087,60.027,132.08,73.783c-5.377,4.927-22.51,5-45.02-8.754h0c-.213,0-38.179-8.116-54.4-3.126S3.273,78.785,3.273,83.787s-2.5,11.255,0,23.761,75.659,54.4,81.911,50.648c0,0,17.508-2.5,36.266-25.011h0c.363,0,13.206,1.025,19.646,28.838h0a60.2,60.2,0,0,0,1.413,14.732h0c.075,1.726.15,3.514.188,5.377l.85-1.551a258.29,258.29,0,0,1,9.154,60.139c.213,6.578.138,11.905,0,15.107h0c1.838,6.628,8.079,16.607,11.83,25.524,3.4,8.091,4.8,16.957,11.405,27.037l.475.725,25.436,19.008c28.963,13.256,83.249,26.024,100.245,28.263,47.521,6.253,28.763-18.758,27.512-33.765-1.913-22.985,15.732-64.841,11.255-73.783-7.5-15.007-5.94-54.824-2.5-63.778,0,0,5-15.007,6.253-28.763,1.876-20.647-1.926-25.686-1.738-25.636h0c7.979,1.863,45.5,5.615,45.5,5.615,6.253,3.752,37.517-23.761,40.018-36.266S427.211,83.787,427.211,78.785Z" transform="translate(0.549)" fill="#fff"/>
    <path id="Path_27" data-name="Path 27" d="M67.594,74.514c-41.206-22.285-57.526-1.251-58.776,7.5-4.452,31.176,31.589,22.335,39.292,21.96a1.5,1.5,0,0,1,1.538,1.251c2.589,16.933,16.532,15.357,21.672,14.169a1.513,1.513,0,0,1,1.838,1.488c-.088,18.083,15.007,19.246,15.007,19.246,6.878.625,25.324-13.131,32.514-19.108,1.075-.9,2.339-.538,2.5.85a1.5,1.5,0,0,1-.338,1.163c-7.5,8.754-20.559,22.76-37.792,25.224-14.882,2.126-63.778-27.625-77.885-43.044C-4.938,92.022,1.94,71.388,1.94,71.388c21.822-33.99,79.41-20.634,84.875-18.8.113,0,18.146,9.179,26.574,12.118a10.592,10.592,0,0,0,7.316-.138l11.755-4.514a7.155,7.155,0,0,0,2.5-1.626l15.97-15.97a1.513,1.513,0,0,1,2.589,1.251l-.175,1.963a1.563,1.563,0,0,1-.55,1.075c-8.416,6.665-12.33,59.726-28.288,60.952-4.927.375-12.168-2.576-19.846-6.878-1.251-.713,2.964-5,7.966-6.253,1.476-.375-14.431,2.4-15.732,1.563-2.7-1.726-1.7-1-4.277-2.814-1.788-1.251,1.251-7.5,10-8.754,2.5-.35-17.308,2.351-18.758,1.251-1.863-1.413-5.79-5-7.5-6.253-1.438-1.038-1.251-3.752,11.255-6.253" transform="translate(0.006 10.523)" fill="#1e2833"/>
    <path id="Path_28" data-name="Path 28" d="M312.092,67.016c35.015-22.51,41.268,8.541,41.268,8.754,1.813,14.169-3.752,21.259-11.255,27.512-1.251,1.025-5.877,1.851-7.5,2.5-6.252,2.5-7.5,11.255-11.255,12.506s-11.255-5-17.508,0c-16.257,13.006-27.512-5-27.512-5-3.752,7.5,9.029,16.257,26.261,18.758,14.882,2.126,31.264-8.754,48.772-26.262,3.2-3.2,9.154-19.321,10-23.761,5-26.262-8.754-32.514-8.754-32.514-25.011-10-37.517-2.5-42.719.588-.113,0-18.759,12.343-26.575,12.118-6.99-.2-18.245-20.209-18.245-20.209-1-1,5,26.262,7.5,45.02.525,3.914,4.665,9.167,14.244,5,5.765-2.5-4.24-3.752-6.741-7.5l10.642,1.063a3.939,3.939,0,0,0,3.189-1.138l3.677-3.677-7.5-5h11.255l5-5-6.253-2.5Z" transform="translate(66.896 10.518)" fill="#1e2833"/>
    <path id="Path_29" data-name="Path 29" d="M220.052,255.245c-2.989,17.958-5,27.512-5,27.512l48.771,10,15.857-2.276.4-12.73s-7.153-21.9-2.951-25.949.45-10.317.45-10.317-36.266-6.253-41.268,1.251S221.3,247.742,220.052,255.245Z" transform="translate(53.889 59.895)" fill="#ddd"/>
    <path id="Path_30" data-name="Path 30" d="M239.806,264c-6.728,0-13.756,8.754-13.756,8.754l36.266,11.255,15.857-2.276-2.1-10.229-1.251-2.5c-3.751-5-14.019-3.69-16.257-2.5C254.013,268.915,248.56,264,239.806,264Z" transform="translate(56.646 66.147)" fill="#e87272"/>
    <rect id="Rectangle_1" data-name="Rectangle 1" width="5.703" height="10.842" rx="0.62" transform="translate(321.277 302.807) rotate(4.94)" fill="#fff" stroke="#1e2833" stroke-miterlimit="10" stroke-width="0.25"/>
    <rect id="Rectangle_2" data-name="Rectangle 2" width="5.703" height="10.842" rx="0.62" transform="translate(327.524 304.054) rotate(4.94)" fill="#fff" stroke="#1e2833" stroke-miterlimit="10" stroke-width="0.25"/>
    <rect id="Rectangle_3" data-name="Rectangle 3" width="5.703" height="10.842" rx="0.62" transform="translate(333.778 304.054) rotate(4.94)" fill="#fff" stroke="#1e2833" stroke-miterlimit="10" stroke-width="0.25"/>
    <rect id="Rectangle_4" data-name="Rectangle 4" width="5.703" height="10.842" rx="0.62" transform="translate(340.028 302.809) rotate(4.94)" fill="#fff" stroke="#1e2833" stroke-miterlimit="10" stroke-width="0.25"/>
    <rect id="Rectangle_5" data-name="Rectangle 5" width="5.703" height="10.842" rx="0.62" transform="translate(346.283 302.797) rotate(4.94)" fill="#fff" stroke="#1e2833" stroke-miterlimit="10" stroke-width="0.25"/>
    <rect id="Rectangle_6" data-name="Rectangle 6" width="5.703" height="10.842" rx="0.62" transform="translate(315.017 301.548) rotate(4.94)" fill="#fff" stroke="#1e2833" stroke-miterlimit="10" stroke-width="0.25"/>
    <rect id="Rectangle_7" data-name="Rectangle 7" width="5.703" height="10.842" rx="0.62" transform="translate(308.775 301.56) rotate(4.94)" fill="#fff" stroke="#1e2833" stroke-miterlimit="10" stroke-width="0.25"/>
    <rect id="Rectangle_8" data-name="Rectangle 8" width="5.726" height="10.886" rx="0.623" transform="translate(302.455 305.104) rotate(5.143)" fill="#fff" stroke="#1e2833" stroke-miterlimit="10" stroke-width="0.251"/>
    <rect id="Rectangle_9" data-name="Rectangle 9" width="5.703" height="10.842" rx="0.62" transform="translate(296.259 302.804) rotate(4.94)" fill="#fff" stroke="#1e2833" stroke-miterlimit="10" stroke-width="0.25"/>
    <rect id="Rectangle_10" data-name="Rectangle 10" width="5.703" height="10.842" rx="0.62" transform="translate(290.012 301.558) rotate(4.94)" fill="#fff" stroke="#1e2833" stroke-miterlimit="10" stroke-width="0.25"/>
    <path id="Path_31" data-name="Path 31" d="M297.3,247.484c7.866-6.315,10.192-16.882,10.2-22.9a.6.6,0,0,0,0-.15c-.225-1.463-4.127-24.936-16.257-24.936H233.726c-8.754,0-18.758,9.5-18.758,23.76,0,12.818,11.38,21.035,15.469,23.561.75.475.725,1.176,0,1.588-9.167,5-18.383,13.156-22.26,16.795a.925.925,0,0,0,.725,1.588l11.017-1h.2a259.122,259.122,0,0,1,27.425-7.5c12.506-2.5,35.015,0,35.015,0,16.257,2.5,18.758,3.752,18.758,3.752l6.528,1.863a.888.888,0,0,0,.988-1.338c-2.226-3.414-7.053-10.38-11.455-13.581a.888.888,0,0,1-.075-1.5Z" transform="translate(52.096 49.986)" fill="#1e2833" stroke="#1e2833" stroke-miterlimit="10" stroke-width="1"/>
    <rect id="Rectangle_11" data-name="Rectangle 11" width="5.002" height="10.004" rx="1.01" transform="matrix(0.999, 0.046, -0.046, 0.999, 302.04, 334.313)" fill="#fff" stroke="#1e2833" stroke-miterlimit="10" stroke-width="0.25"/>
    <rect id="Rectangle_12" data-name="Rectangle 12" width="5.002" height="10.004" rx="1.01" transform="matrix(0.999, 0.046, -0.046, 0.999, 291.927, 336.342)" fill="#fff" stroke="#1e2833" stroke-miterlimit="10" stroke-width="0.25"/>
    <rect id="Rectangle_13" data-name="Rectangle 13" width="5.002" height="10.004" rx="1.01" transform="matrix(0.999, 0.046, -0.046, 0.999, 286.87, 337.357)" fill="#fff" stroke="#1e2833" stroke-miterlimit="10" stroke-width="0.25"/>
    <rect id="Rectangle_14" data-name="Rectangle 14" width="5.002" height="7.503" rx="1.01" transform="matrix(0.999, 0.046, -0.046, 0.999, 281.826, 338.387)" fill="#fff" stroke="#1e2833" stroke-miterlimit="10" stroke-width="0.25"/>
    <rect id="Rectangle_15" data-name="Rectangle 15" width="5.002" height="10.004" rx="1.01" transform="matrix(0.999, 0.046, -0.046, 0.999, 296.995, 335.327)" fill="#fff" stroke="#1e2833" stroke-miterlimit="10" stroke-width="0.25"/>
    <rect id="Rectangle_16" data-name="Rectangle 16" width="5.002" height="10.004" rx="1.19" transform="matrix(0.999, 0.046, -0.046, 0.999, 307.038, 334.544)" fill="#fff" stroke="#1e2833" stroke-miterlimit="10" stroke-width="0.25"/>
    <rect id="Rectangle_17" data-name="Rectangle 17" width="5.002" height="11.255" rx="1.04" transform="matrix(0.999, 0.046, -0.046, 0.999, 312.037, 334.775)" fill="#fff" stroke="#1e2833" stroke-miterlimit="10" stroke-width="0.25"/>
    <rect id="Rectangle_18" data-name="Rectangle 18" width="5.002" height="10.004" rx="0.93" transform="matrix(0.999, 0.046, -0.046, 0.999, 316.977, 336.254)" fill="#fff" stroke="#1e2833" stroke-miterlimit="10" stroke-width="0.25"/>
    <rect id="Rectangle_19" data-name="Rectangle 19" width="5.002" height="10.004" rx="1.26" transform="matrix(0.999, 0.046, -0.046, 0.999, 321.963, 336.498)" fill="#fff" stroke="#1e2833" stroke-miterlimit="10" stroke-width="0.25"/>
    <rect id="Rectangle_20" data-name="Rectangle 20" width="5.002" height="10.004" rx="1.14" transform="matrix(0.999, 0.046, -0.046, 0.999, 327.032, 335.471)" fill="#fff" stroke="#1e2833" stroke-miterlimit="10" stroke-width="0.25"/>
    <rect id="Rectangle_21" data-name="Rectangle 21" width="5.002" height="10.004" rx="1.1" transform="matrix(0.999, 0.046, -0.046, 0.999, 332.018, 335.702)" fill="#fff" stroke="#1e2833" stroke-miterlimit="10" stroke-width="0.25"/>
    <rect id="Rectangle_22" data-name="Rectangle 22" width="5.008" height="8.765" rx="1.101" transform="translate(336.124 338.755) rotate(2.862)" fill="#fff" stroke="#1e2833" stroke-miterlimit="10" stroke-width="0.25"/>
    <path id="Path_32" data-name="Path 32" d="M217.655,274.08s-12.118,4.69-12.105,4.7c.6.625,29.375,7.754,39.455,8.228,5.215.25,14.844,2.651,18.821,2.839s15.682-.537,21.46-4.014c3.864-2.326,5.49-9.754,5.465-9.754a49.684,49.684,0,0,0-17.508-.813c-7.5.9-19.921-2.176-19.921-2.176S231.311,270.966,217.655,274.08Z" transform="translate(51.509 68.247)" fill="#1e2833" stroke="#1e2833" stroke-miterlimit="10" stroke-width="1"/>
    <path id="Path_33" data-name="Path 33" d="M204.3,21.57s-5.152.2-8.629,14.056a36.377,36.377,0,0,0,.213,19.546C196.93,40.628,198.994,35.964,204.3,21.57Z" transform="translate(48.724 5.404)" fill="#1e2833"/>
    <path id="Path_34" data-name="Path 34" d="M200.83,3l-6.253,1.838c-6.253,1.826-16.857,11.468-16.857,11.468C184.461,11.754,197.441,5.226,200.83,3Z" transform="translate(44.536 0.752)" fill="#1e2833"/>
    <path id="Path_35" data-name="Path 35" d="M241.656,49.15s0-2.8-3.014-8.354a72.523,72.523,0,0,0-5-8.516A48.237,48.237,0,0,0,241.656,49.15Z" transform="translate(58.547 8.088)" fill="#1e2833"/>
    <path id="Path_36" data-name="Path 36" d="M205.936,5.57c-2.776.225-6.991,1.351-12.993,4.89A23.623,23.623,0,0,0,181.3,26.042c4.239-3.539,7.341-6.253,10.292-8.616-12.218,18.221-8.616,55.162-8.616,55.162,5.79-40.305,16.107-50.685,20.9-53.361a11.13,11.13,0,0,0,4.4-4.164l3.014-5.452S213.039,2.419,205.936,5.57Z" transform="translate(45.433 1.195)" fill="#1e2833"/>
    <path id="Path_37" data-name="Path 37" d="M235.246,24.434c3.864,5.477,5.227,9.854,10.355,14.669,0,0-6.765-13.306-8.754-19.259-.863-2.589-1.638-4.59-2.326-6.128,1.538.975,3.2,2.038,5.227,3.289a26.638,26.638,0,0,0-9.192-9.192,19.608,19.608,0,0,0-10.079-2.726c-5.565-1.8-4.1,2.5-4.1,2.5l2.4,3.239a8.042,8.042,0,0,0,3.452,2.5c3.752,1.538,11.755,12.23,6.165,37.429C228.455,50.658,234.958,36.477,235.246,24.434Z" transform="translate(54.178 1.165)" fill="#1e2833"/>
    <path id="Path_38" data-name="Path 38" d="M203.08,171.589c-.85-25.086-14.131-40.093-22.51-52.523-9.4-13.956-21.847-16.732-32.514-21.259-2.076-.888-11.705-9.142-12.506-11.255-1.763-4.64-11.493-10.842-10.63-16.882,1.138-7.928-6.966,42.631-15.007,52.223a8.078,8.078,0,0,0-1.688,6.515c1.7,10.417,5.44,33.965,5.44,38.767,0,6.14,10.855,59.326,12.431,70.706a8.407,8.407,0,0,0,.275,1.251c3.151,10.5,5.6,19.133,8.366,25.311h0l15.157,27.725c2.326-6.253,1.063-17.508,6.253-28.7C166.814,240.369,204.118,201.977,203.08,171.589Z" transform="translate(27.093 17.245)" fill="#1e2833"/>
    <path id="Path_39" data-name="Path 39" d="M201.2,212.138c-1.576-5.365-16.883-21.885-15.632-30.638" transform="translate(46.483 45.476)" fill="none" stroke="#1e2833" stroke-miterlimit="10" stroke-width="1.5"/>
    <path id="Path_40" data-name="Path 40" d="M224.385,208.562s-3.874,3.406-2.061,13.385,8.594,11.867,13.252,9.826c5.039-2.207,7.1-3.56,3.091-15.165C233.391,201.086,224.653,208.918,224.385,208.562Z" transform="translate(59.637 53.218)" fill="#f0efef"/>
    <path id="Path_41" data-name="Path 41" d="M276.627,208s7.5,1.251,5.765,12.843c-1.463,9.78-3.576,12.168-7.016,12.168-2.5,0-8.1-2.651-6.252-13.756C270.374,211.752,271.625,209.251,276.627,208Z" transform="translate(67.346 52.115)" fill="#f0efef"/>
    <ellipse id="Ellipse_1" data-name="Ellipse 1" cx="3.439" cy="3.439" rx="3.439" ry="3.439" transform="translate(187.653 161.322)" fill="#fff"/>
    <path id="Path_42" data-name="Path 42" d="M143.05,133s4.014,5.14,6.253,6.253c2.5,1.251,7.5,1.251,12.506,1.251l-3.752,1.251c-.463.113-7.028.087-7.5,0C148.052,141.316,144.3,138,143.05,133Z" transform="translate(35.85 33.324)" fill="#fff"/>
    <path id="Path_43" data-name="Path 43" d="M161.9,135.883s-2.151-6.153-3.914-7.929c-1.963-1.988-8.191-7.341-12.931-8.954l6.253,1.251c.475,0,7.09,3.527,7.5,3.752C161.032,125.253,162.32,130.743,161.9,135.883Z" transform="translate(36.351 29.816)" fill="#fff"/>
    <path id="Path_44" data-name="Path 44" d="M275.173,221.624s-10.367-23.023-16.357-44.582c-6.253-22.51-5-42.519,5-60.027,7.853-13.756,10-27.512,13.756-35.016l3.752,25.011s3.751,15.007,1.251,28.763c-2.664,14.631-8.754,36.266-8.754,36.266S272.572,214.559,275.173,221.624Z" transform="translate(63.897 20.546)" fill="#1e2833"/>
    <circle id="Ellipse_2" data-name="Ellipse 2" cx="2.138" cy="2.138" r="2.138" transform="translate(332.918 158.745)" fill="#fff"/>
    <path id="Path_45" data-name="Path 45" d="M275.054,130s-2.138,3.639-3.339,4.427-4,.888-6.665.888l2,.888c.25.075,3.752,0,4,0C272.391,135.89,274.392,133.539,275.054,130Z" transform="translate(66.417 32.572)" fill="#fff"/>
    <path id="Path_46" data-name="Path 46" d="M263.21,130.654s2.226-3.752,3.627-4.727,6.428-3.839,9.817-4.327l-4.352.075c-.325,0-5.2,1.463-5.515,1.563C265.148,123.764,263.585,127.24,263.21,130.654Z" transform="translate(65.956 30.468)" fill="#fff"/>
  </g>
  <g id="Layer_2" data-name="Layer 2" transform="translate(399.647 271.996)">
    <path id="Path_47" data-name="Path 47" d="M331.83,410.017S349.975,251.2,379.939,236c0,0,15.007-8.754,25.011-7.591,0,0-15.282,7.016-22.785,15.77,0,0,9.079-3.214,16.583-1.989,0,0-15.332,5.74-21.585,10.742,0,0,9.117-1.951,14.131.538,0,0-16.632,5.715-21.259,10.08,0,0,11.255-3.752,13.756-2.5,0,0-15.407,8.191-18.759,12.581" transform="translate(-316.498 -214.793)" fill="none" stroke="#e09a34" stroke-miterlimit="10" stroke-width="2"/>
    <path id="Path_48" data-name="Path 48" d="M334.056,380.072s21.259-133.809,10-148.816c0,0-8.641-12.968-15.007-13.756,0,0,8.929,13.055,8.754,17.508,0,0-11.443-8.316-16.258-8.754,0,0,15.72,15.795,17.508,18.758,0,0-11.618-5.527-15.007-5,0,0,15.894,11.755,16.257,13.756,0,0-12.056-6.516-13.756-6.253,0,0,13.468,13.756,14.381,15.632" transform="translate(-319.074 -217.5)" fill="none" stroke="#e09a34" stroke-miterlimit="10" stroke-width="2"/>
    <path id="Path_49" data-name="Path 49" d="M363.264,292.46l-19.258,19.271L324.747,292.46l-5.177,5.177L338.841,316.9,319.57,336.154l5.177,5.178,19.259-19.271,19.258,19.271,5.177-5.178L349.17,316.9l19.271-19.259Z" transform="translate(-319.57 -198.718)" fill="#dd534a"/>
  </g>
</svg>
