<svg id="cow_enclosed" xmlns="http://www.w3.org/2000/svg" width="775.98" height="631.52" viewBox="0 0 775.98 631.52">
  <g id="Layer_9" data-name="Layer 9">
    <rect id="Rectangle_34" data-name="Rectangle 34" width="41.135" height="242.067" rx="9.1" transform="translate(398.585 242.067) rotate(180)" fill="#2a3147"/>
    <path id="Path_307" data-name="Path 307" d="M438.04,29.242,26.876,482.264,13.49,470.34l402.7-446.9Z" transform="translate(9.196 15.98)" fill="#2a3147"/>
    <path id="Path_308" data-name="Path 308" d="M378.074,17.49,24.779,414.864l-9.889-8.779L359.121,19.037Z" transform="translate(10.151 11.923)" fill="#2a3147"/>
    <path id="Path_309" data-name="Path 309" d="M153.877,171.3s1.4-5.667,10.645-13.084a63.536,63.536,0,0,1,18.5,7.82s2.254,2.977-2.842,6.071a15.876,15.876,0,0,1-8.274,2.22H156.551a2.674,2.674,0,0,1-2.691-2.674Z" transform="translate(104.89 107.862)" fill="#40403f"/>
    <path id="Path_310" data-name="Path 310" d="M180.226,176.469v.235a1.682,1.682,0,0,0,1.463,1.682,38.9,38.9,0,0,0,17.709-1.4l4.843-3.363s2.859-2.489-2.96-6.559a14.734,14.734,0,0,1-1.8-1.446c-1.009-.959-3.094-3.061-9.973-3.162l-6.811.269a3.717,3.717,0,0,0-2.388.992c-2.253,2.035-6.374,6.962-6.239,9.72v1.228a.841.841,0,0,0,1.127.774l2.4-.874C179.789,173.694,180.226,175.14,180.226,176.469Z" transform="translate(118.666 110.752)" fill="#40403f"/>
    <path id="Path_311" data-name="Path 311" d="M290,170.107s1.177-3.8,8.947-10.393a4.793,4.793,0,0,1,3.918-1.076,45.96,45.96,0,0,1,14.765,5.281,3.363,3.363,0,0,1,.925,5.2,15.3,15.3,0,0,1-6.727,3.818,4.275,4.275,0,0,1-1.295.219H292.792a2.775,2.775,0,0,1-2.775-2.792Z" transform="translate(197.699 108.1)" fill="#40403f"/>
    <path id="Path_312" data-name="Path 312" d="M332.236,179.4h0a2.018,2.018,0,0,0,1.682,2,39.049,39.049,0,0,0,17.456-1.429l4.843-3.363s1.53-3.6-4.238-7.383a15.288,15.288,0,0,0-4.305-1.8,38.293,38.293,0,0,0-11.3-1.682h-.151a5.129,5.129,0,0,0-3.515,1.379c-2.4,2.237-6.727,6.727-6.727,9.266h0a1.682,1.682,0,0,0,2.27,1.6l1.261-.454a1.951,1.951,0,0,1,2.724,1.867Z" transform="translate(222.227 112.988)" fill="#40403f"/>
    <path id="Path_313" data-name="Path 313" d="M537.791,321.1c3.044-6.088,6.323-12.125,9.1-18.348,3.582-8.039,4.894-17.17,6.727-25.73l2.321-10.578a15.146,15.146,0,0,0,.252-1.682l1.5-15.892a85.207,85.207,0,0,0-.235-17.927c-.858-7.215-2.169-14.782-5.466-21.324l-2.909-7.6a16.009,16.009,0,0,0-4.1-5.869l-8.409-9.636a44.482,44.482,0,0,0-12.26-10.275,49.914,49.914,0,0,0-7.955-3.363,8.542,8.542,0,0,0-3.262-.69c-4.171,0-8.409,0-12.512.135a58.057,58.057,0,0,0-8.493,1.228c-10.006,1.682-19.626,4.944-29.312,7.887a12.244,12.244,0,0,1-2.96.706,28.892,28.892,0,0,0-7.921,2.1c-3.616,1.244-7.2,2.472-10.847,3.616-6.239,1.968-12.462,4.019-18.684,6.054-4.961,1.682-13.117,4.154-18.129,5.634A95.372,95.372,0,0,1,386.6,203.77l-20.887,3.363a17.474,17.474,0,0,1-4.944.185l-12.865-.673c-2.792-.185-5.7-.151-8.493-.471a15,15,0,0,1-2.741-.589L319.1,200.272a35.1,35.1,0,0,0-3.717-1.127c-.874-.135-1.16.572-1.446,1.362a25.581,25.581,0,0,0-1.127,6.861c-.269,3.767-.286,7.568-.185,11.335.118,4.154.437,8.308.807,12.445a47.842,47.842,0,0,1,.219,7.282A89.136,89.136,0,0,1,310,256.19a45.407,45.407,0,0,0-1.917,11.89c0,3.363.471,6.727.69,10.09s0,6.391.3,9.586.975,6.559,1.345,9.855c.235,2.2.858,5.146-1.06,6.727-1.413,1.194-3.717,1.429-4.877,2.909a2.2,2.2,0,0,0-.1,2.371,17.355,17.355,0,0,1,1.4,5.045,28.085,28.085,0,0,1-.622,8.543,44.5,44.5,0,0,0-3.363-3.078,14.564,14.564,0,0,0-7.9-2.993l-6.155-.555c-1.53-.135-6.29.252-5.045-2.573a49.334,49.334,0,0,1,2.708-4.692,69.969,69.969,0,0,0,3.75-7.955c1.463-3.649,2.96-7.3,4.087-11.066,2.607-8.694,2.506-17.608,2.724-26.571a15.135,15.135,0,0,0-.959-6.037,26.1,26.1,0,0,0-3.515-5.432,5.8,5.8,0,0,1-.925-1.816,45.142,45.142,0,0,1-.942-5.314,66.864,66.864,0,0,1-.639-8.409q-.185-16.817-.168-33.634v-2.825c-.168-2.708-2.439-3.01-4.625-2.977-.336,0-.942-.135-1.177.135s-.134,1.194-.134,1.514c0,2.338,0,4.658.118,7,.151,6.727-.235,13.37,0,20.063.168,5.684.572,12.024-2.018,17.288a15.27,15.27,0,0,0-1.446,4.356c-.42,2.825-.656,5.667-.858,8.526-.488,6.727-.69,13.454-1.228,20.181-.286,3.565-.757,7.147-.875,10.729-.084,2.708.589,5.432.387,8.139s-2.439,4.742-4.1,6.727-3.851,3.9-4.322,6.407a11.972,11.972,0,0,0,.134,4.238c.084.42.723,2.119.488,2.523,0-.135-9.788-4.625-10.8-5.045a30.691,30.691,0,0,0-4.507-1.329,11.768,11.768,0,0,0-1.867-.236c-.168,0-1.345.135-1.43,0a16.821,16.821,0,0,1,1.581-2.556q2.186-3.363,4.171-7.013a71.137,71.137,0,0,0,7.6-18.953,134.169,134.169,0,0,0,2.153-25.226c0-.454-.1-1.682-.118-2.1a5.434,5.434,0,0,0-.151-1.564c-.185-.42-.555-.521-.908-.841a14.109,14.109,0,0,1-3.263-5.23,34.459,34.459,0,0,1-2.22-8.308,47.085,47.085,0,0,1-.084-9.855,39.744,39.744,0,0,0-.1-5.836,116.91,116.91,0,0,1,0-12.613c0-2.472-.471-4.911-.353-7.366,0-1.816.319-3.7-1.984-3.885a39.769,39.769,0,0,1-8.678-1.177,32.1,32.1,0,0,1-16.7-13.134,116.644,116.644,0,0,1-6.323-10.09,42.816,42.816,0,0,1-3.885-11.251,194.606,194.606,0,0,1-5.348-40.361c-.219-7.719-1.009-10.09-1.11-18.011,0-.992-1.16-7.063-1.16-8.055.1-1.934-3.717-7.736-3.683-9.67,0-2.4,6.121-3.145,9.283-4.658,3.464-1.682,5.045-5.836,7.753-8.577,5.718-5.751,11.856-11.116,17.339-17.1l.353-.37a24.032,24.032,0,0,0,3.632-5.415,103.033,103.033,0,0,1,9.048-14.8c6.357-8.762-4.776-9.771,3.868-16.313,3.363-2.573,17.49-3.784,21.728-3.162,7.786,1.11,23.679,1.127,28.236,0,16.817-3.952,25.512-5.466,37.94-1.564l.286.084c10.713,3.363,18.348.942,29.548,2.338,8.745,1.093,17.557,1.144,26.353,1.429,5.247.185,10.494.168,15.741,0l15.993-.572c11.957-.42,23.914-.74,35.871-1.244C483.64,15,494.319,14.224,504.913,13.6c4.356-.269,8.694-.589,13.05-.79q9.3-.454,18.583-1.362l10.729-1.043a25.226,25.226,0,0,1,7.467.084c10.864,2.052,19.323,11.167,24.116,20.652a47.818,47.818,0,0,1,3.078,7.736c.824,2.758,1.11,5.55,1.682,8.409.084.387.168.757.269,1.127a85.369,85.369,0,0,1,2.674,17.826v.925c.336,7.618,1.261,15.135.589,22.7-.168,1.984-.42,3.952-.639,5.92l-2.354,21.156a68.049,68.049,0,0,1-2.472,12.848L578.4,143.935c-.807,4.877-2.64,9.636-2.926,14.6-.236,4.238-.37,8.409-.37,12.731a69.366,69.366,0,0,0,1.278,15.135c2.657,11.4,11.369,20.315,13.454,31.852a18.163,18.163,0,0,1-1.547,11.486c-2.1,4.406-4.524,8.594-6.189,13.2-2.371,6.508-4.305,13.117-6.878,19.558-1.984,5.045-4.171,9.956-5.92,15.135-1.564,4.541-2.069,9.249-3.363,13.857a36.164,36.164,0,0,0-1.917,8.627c0,2.607.959,5.045,1.11,7.7a8.257,8.257,0,0,1-3.061,6.121c-1.295,1.211-2.691,2.169-3.044,4.019-.5,2.724-1.564,4.608-.874,7.282a11.385,11.385,0,0,1-.79,3.666c-.286.353-2.27-1.934-2.977-2.354-1.682-1.059-3.364-2.186-5.23-3.178A23.224,23.224,0,0,0,537.791,321.1Z" transform="translate(143.154 6.932)" fill="#545554"/>
    <path id="Path_314" data-name="Path 314" d="M272.245,155.435a59.72,59.72,0,0,1,10.948-17.372l.168-.235a17.507,17.507,0,0,0,.454-19.609,25.579,25.579,0,0,1-3.851-8.627.757.757,0,0,1,1.4-.471c2.522,4.49,8.24,13.319,15.59,16.245a59.33,59.33,0,0,1,5.9,2.825c7.13,3.767,21.862,10.864,30.12,10.09a52.588,52.588,0,0,1,5.852-.37c8.526,0,29.06-.336,36.477-4.625,0,0,27.748-6.609,32.323-16.111,0,0,13.454-13.454,15.859-28.421,0,0,5.5-16.464,15.859-17.692,0,0,12.209-4.272,32.642,22.266,0,0,15.27,16.111,22.972,34.643a201.573,201.573,0,0,1,10.9,28.724.74.74,0,0,1-1.329.622c-1.261-1.783-3.077-4.238-5.449-7.248-1.329-1.682-3.061-3.918-4.49-5.583-2.136-2.489-4.793-5.432-6.727-7.433-2.775-2.792-1.951-2.253-4.742-3.363-.656-.252-2.708-.841-3.363-1.059a48.094,48.094,0,0,0-5.045-1.194c-1.884-.32-6.508-.79-9.1-.908-2.926-.135-2.422.3-6.861.3a22.648,22.648,0,0,0-3.363.555,73.8,73.8,0,0,0-8.695,1.514,100.91,100.91,0,0,0-13.033,3.363c-2.556.824-5.483,1.8-8.409,2.573a81.773,81.773,0,0,1-8.56,2.22,53.68,53.68,0,0,0-9.081,2.758c-6.374,2.035-10.343,3.548-15.926,5.18,0,0-13.017,4.49-27.177,8.61-9.653,2.825-19.794,5.617-26.908,6.1a25.6,25.6,0,0,0-4.356.723,42.741,42.741,0,0,1-6.727,1.06c-1.682.135-3.868.79-5.8.774-2.237,0-4.709-.286-7.1-.437-5.583-.37-11.772-.841-17.675-1.093a18.631,18.631,0,0,1-4.406-1.48c-1.48-.521-2.59-.605-3.952-1.059,0,0-2.287-.605-4.238-1.278s-4.524-1.429-6.861-2.085c-1.144-.32-2.3-.656-3.078-.925a3.562,3.562,0,0,0-.555-.185c-.084,0-.4,0-.488-.135A2.539,2.539,0,0,1,272.245,155.435Z" transform="translate(185.469 48.272)" opacity="0.3"/>
    <path id="Path_315" data-name="Path 315" d="M259.06,217.3s8.055-6.458,10.629-13.857V164.158s0-6.121,7.4-10.628c0,0-.959,5.8-1.682,8.409l.135,27.547.891,6.34s.555,4.238.589,7.013c0,0,.639,2.523-.975,3.666a44.988,44.988,0,0,1-4.036,2.237h-.134a1.952,1.952,0,0,0-.454.353,1.682,1.682,0,0,0-.807,1.278c-.1.959,1.076,2.472,1.547,5.213l.235,2.119v2.64l-.252,2.573-.437,2.556-7.955-7.231Z" transform="translate(176.607 104.665)" fill="#40403f" opacity="0.1"/>
    <path id="Path_316" data-name="Path 316" d="M408.44,259.743a120.937,120.937,0,0,1,14.126-9.754,4.49,4.49,0,0,0,2.338-3.565c.605-6.845,2.4-25.545,4.406-32.289,0,0,2.893-18.364,7.685-28.707a11.956,11.956,0,0,0,1.16-5.045v-.959a17.541,17.541,0,0,0-4.07-11.419,7.517,7.517,0,0,1-1.816-5.281v-2.371a27.41,27.41,0,0,1,1.177-8.409,48.771,48.771,0,0,0,2.237-22,76.97,76.97,0,0,0-1.53-8.51s-4.726-11.772-1.345-21.408c0,0,3.969,6.727,7.046,5.55,0,0,0,4.911.084,10.09a52.755,52.755,0,0,0,.959,8.846,41.946,41.946,0,0,0,3.128,9.67,28.751,28.751,0,0,0,1.345,2.573c1.934,3.363,7.4,13.117,8.409,16.817a19.525,19.525,0,0,1-2.556,18.381s-.79,1.85-2.624,5.785a53.873,53.873,0,0,0-2.22,5.482c-1.144,3.246-1.245,4.188-2.169,6.727-.555,1.581-1.43,3.851-1.884,5.365s-1.581,3.548-1.968,5.045c0,0-1.833,4.911-3.935,10.444a79.967,79.967,0,0,0-5.045,16.38,83.406,83.406,0,0,1-2.253,9.081c-.774,2.354,0,6.727.605,9.115a6.391,6.391,0,0,1-.959,5.045s-.4.589-1.278,1.682c-.42.538-1.4,1.144-3.077,3.094a5.92,5.92,0,0,0-.807,3.515c0,1.026-1.682,1.682-1.5,3.2a22.2,22.2,0,0,0,.791,2.153l-.791,1.5s1.295-.2-1.177-2.153a11.066,11.066,0,0,0-2.825-2.068,32.911,32.911,0,0,0-3.851-1.127,15.854,15.854,0,0,0-3.178-.353,24.98,24.98,0,0,0-2.64-.118Z" transform="translate(278.442 68.193)" fill="#1e1e1e" opacity="0.3"/>
    <path id="Path_317" data-name="Path 317" d="M216.789,106.353s10.09-33.13,27.866-48.568A55.346,55.346,0,0,0,259.134,26s-7.181,21.291-24.1,33.029c0,0-21.56,16.817-24.755,15.505C210.2,74.534,216.032,92.428,216.789,106.353Z" transform="translate(143.352 17.725)" fill="#40403f" opacity="0.1"/>
    <path id="Path_318" data-name="Path 318" d="M434.225,127.307s-7,31.448-17.709,46.617c0,0-22.754,26.336-19.188,34.374,0,0-1.783,17.843,2.674,22.754,0,0-12.462,8.8-11.133,18.667,0,0-12.562-7.248-18.5-6.491,0,0,11.856-6.374,10.511-29.144,0,0,0-24.789,2.237-35.316,0,0,2.237-15.135,1.345-25.31,0,0-.605-30.271-1.867-45.961,0,0,29.5-4.692,38.31,4.675C420.838,112.121,422.907,115.468,434.225,127.307Z" transform="translate(252.489 72.481)" fill="#40403f"/>
    <path id="Path_319" data-name="Path 319" d="M437.389,51.818s9.031,22.619,10.225,68.951c0,0,1.682,31.33,3.75,49.527a29.514,29.514,0,0,1,10.9-1.682,76.451,76.451,0,0,1-7.534-27.6s-2.1-43.523-3.229-51.427a205.786,205.786,0,0,0-2.691-35.518,57.179,57.179,0,0,0-15.943-30.136L427.08,18.89S428.913,19.714,437.389,51.818Z" transform="translate(291.149 12.878)" fill="#545554"/>
    <path id="Path_320" data-name="Path 320" d="M441.52,109.909a215.271,215.271,0,0,0,8.257,21.375,71.932,71.932,0,0,0,9.451,15.287c5.937,7.349,15.758,20.181,15.758,24.2A231.507,231.507,0,0,0,471.27,142.7a44.751,44.751,0,0,0-6.088-14.564L452.418,108.16S451.93,105.637,441.52,109.909Z" transform="translate(300.993 73.231)" fill="#1e2833"/>
    <path id="Path_321" data-name="Path 321" d="M235.653,112.7c-12.462,3.969-12.277-.69-15.875-12.024-1.682-5.264-5.735-15.657-3.363-20.433,2.808-5.5-.521-6.441,6.155-8.56C228.2,69.9,231.9,82.393,236.83,84.226c6,2.237,12.848-5.415,14.833.807,2.253,7.13-8.409,11.268-13.269,16.817C235.552,105.113,240.278,111.15,235.653,112.7Z" transform="translate(147.039 48.748)" fill="#1e2833"/>
    <path id="Path_322" data-name="Path 322" d="M266.321,95.24s3.078,26.067,12.882,44.33l-.521-.185H275.7l-.42.1-.118.4a6.438,6.438,0,0,0,0,1.4v2.169l.151,13.017v18.919a35.756,35.756,0,0,1-.706,6.34,15.605,15.605,0,0,1-1.278,3.481c-.286.622-.538.757-.824,1.446a13.167,13.167,0,0,0-.706,3.229s-1.513,13.891-1.5,20.029c0,0-.185,7.231-1.11,14.648a34.576,34.576,0,0,0,0,9.872,10.241,10.241,0,0,1-.084,3.986,20.549,20.549,0,0,1-4.137,5.684s-1.093,1.228-2.169,2.539a7.837,7.837,0,0,0-1.564,2.506l-.454,1.917a4.456,4.456,0,0,0,0,2l.74,3.969s-12.445-7.1-18.5-6.491c0,0,9.149-14.984,11.015-20.82a67.1,67.1,0,0,0,2.2-6.727c.353-1.816.589-3.616.942-5.718a49.308,49.308,0,0,0,.774-5.247c.185-6.29.639-9.922.488-12.916l-.185-5.836a37,37,0,0,1-3.448-4.44,13.6,13.6,0,0,1-1.009-2.439,11.657,11.657,0,0,1-.807-2.321s-.2-.689-.471-1.682-.521-2.607-.757-4.07a13.153,13.153,0,0,1-.269-3.246,19.929,19.929,0,0,1,0-2.338c.084-1.295.353-2.825.336-4.288V166.7c0-1.766-.269-3.128-.269-5.045,0-.488-.084-1.682-.084-2.085,0-3.111.168-6.054.1-8.409V148.82a17.307,17.307,0,0,0-.32-3.01,15.976,15.976,0,0,1-.084-1.934,9.208,9.208,0,0,0,0-1.194c0-.2,0-.555,0-.774a5.245,5.245,0,0,0-.084-1.16c-.168-.5-.185-.74-.706-1.059s-.437-.269-1.429-.3h-2.354a32.441,32.441,0,0,1-7.03-1.379,23.141,23.141,0,0,1-5.432-2.809,35.972,35.972,0,0,1-5.4-4.473,13.925,13.925,0,0,1-2.64-2.708s-1.429-1.867-3.935-5.466c-1.026-1.48.387.959-.656-.959-1.682-3.027,26.235-14.042,27.765-13.857s5.045-.286,9.956-5.281Z" transform="translate(150.965 64.927)" opacity="0.3"/>
    <path id="Path_323" data-name="Path 323" d="M332.271,194.306s-20.181-.639-32.709-.42a30.961,30.961,0,0,1-7.03-1.379,22.249,22.249,0,0,1-6.643-3.363c-1.867-1.446-4.036-3.548-6.256-5.634s-3.111-4.541-5.045-7.114c0,0-12.663-2.354-42.262,42.817,0,0-13.454,24.318-24.4,33.971,0,0-32.188,19.508-33.752,24.7,0,0-9.35,11.234-19.727,3.8,0,0-2.287-2.472-5.045-5.045a17.187,17.187,0,0,1-3.481-21.492l.488-.807c2.792-4.625,22.081-54.471,22.081-53.916s0-24.536,9.334-28.589l.706-1.682s-16.414,1.984-20.382-1.816a7.383,7.383,0,0,1-3.5-3.8s14.614-1.833,20.382-1.076c0,0-16.716-.454-23.258-13.235,0,0,18.869,4.339,31.1,4.49a33.752,33.752,0,0,1,11.52,2.27l5.382,2.169s7.45-4.709,17.339-20.837c0,0,21.038-32.524,30.624-47.475,10.965-17.12,3.582,1.312,16.313-32.306,0,0,10.443-27.076,23.157-31.314,0,0,12.192-7.433,19.306-12.277Z" transform="translate(97.896 10.192)" fill="#545554"/>
    <path id="Path_324" data-name="Path 324" d="M532.364,344.575c3.044-6.088,6.323-12.108,9.1-18.331,3.582-8.055,4.877-17.187,6.727-25.73l2.3-10.595c.1-.454.219-1.211.269-1.682l1.5-15.875a85.17,85.17,0,0,0-.236-17.927c-.858-7.231-2.169-14.8-5.482-21.341l-2.893-7.585a16.279,16.279,0,0,0-4.1-5.886l-8.409-9.636a44.482,44.482,0,0,0-12.26-10.275,52.934,52.934,0,0,0-7.955-3.363,8.678,8.678,0,0,0-3.263-.69c-4.171,0-8.409,0-12.512.135a61.029,61.029,0,0,0-8.509,1.228c-9.989,1.682-19.609,4.944-29.3,7.887a12.431,12.431,0,0,1-2.96.706,30.271,30.271,0,0,0-7.938,2.1c-3.6,1.261-7.181,2.489-10.83,3.633-6.256,1.968-12.462,4-18.684,6.037-5.045,1.682-13.134,4.154-18.129,5.634a95.4,95.4,0,0,1-17.624,4.238l-20.887,3.363a18.112,18.112,0,0,1-4.944.168L342.481,230c-2.792-.168-5.7-.151-8.51-.454a15.638,15.638,0,0,1-2.741-.589l-17.557-5.314a29.482,29.482,0,0,0-3.717-1.127c-.875-.151-1.16.555-1.446,1.345a25.024,25.024,0,0,0-1.127,6.861,111.167,111.167,0,0,0-.185,11.352c.118,4.154.42,8.291.807,12.445a49.891,49.891,0,0,1,.219,7.265,89.134,89.134,0,0,1-3.649,17.759,46.115,46.115,0,0,0-1.934,11.89c0,3.363.471,6.727.69,10.09s0,6.391.32,9.569.959,6.559,1.329,9.855c.252,2.2.874,5.146-1.043,6.727-1.413,1.194-3.717,1.446-4.877,2.909a2.153,2.153,0,0,0-.1,2.388,17.775,17.775,0,0,1,1.4,5.045,27.53,27.53,0,0,1-.639,8.543c-1.093-1.026-2.153-2.136-3.363-3.078a14.564,14.564,0,0,0-7.9-2.993l-6.155-.538c-1.547-.135-6.29.235-5.045-2.573a53.68,53.68,0,0,1,2.724-4.709,72.868,72.868,0,0,0,3.733-7.955c1.463-3.649,2.977-7.282,4.1-11.066,2.607-8.694,2.489-17.608,2.724-26.571a14.716,14.716,0,0,0-.975-6.021,25.548,25.548,0,0,0-3.515-5.449,5.751,5.751,0,0,1-.908-1.816,43.944,43.944,0,0,1-.942-5.314,66.628,66.628,0,0,1-.639-8.409q-.168-16.817-.185-33.634v-2.808c-.151-2.724-2.439-3.027-4.608-2.993-.336,0-.942-.118-1.177.135s-.135,1.211-.151,1.53c0,2.321,0,4.658.135,6.979.135,6.727-.235,13.37,0,20.063.185,5.684.589,12.024-2,17.288a15.44,15.44,0,0,0-1.446,4.356c-.42,2.825-.656,5.684-.875,8.526-.488,6.727-.673,13.454-1.211,20.181-.286,3.548-.757,7.147-.875,10.713-.084,2.708.572,5.432.387,8.139s-2.439,4.742-4.12,6.727-3.851,3.9-4.322,6.407a12.4,12.4,0,0,0,.151,4.238c0,.437.723,2.119.488,2.523,0-.135-9.788-4.608-10.813-5.045a29.528,29.528,0,0,0-4.507-1.329,13.571,13.571,0,0,0-1.85-.235c-.168,0-1.362.135-1.429,0a15.9,15.9,0,0,1,1.581-2.539q2.2-3.464,4.171-7.03a70.9,70.9,0,0,0,7.6-18.953,134.053,134.053,0,0,0,2.153-25.226c0-.454-.1-1.682-.135-2.1a4.927,4.927,0,0,0-.135-1.564c-.185-.4-.555-.521-.925-.841a14.127,14.127,0,0,1-3.246-5.213,34.909,34.909,0,0,1-2.237-8.308,48.421,48.421,0,0,1,0-9.872,37.538,37.538,0,0,0-.118-5.836,121.085,121.085,0,0,1,0-12.6c0-2.489-.471-4.911-.37-7.383,0-1.816.32-3.683-1.968-3.868a40.85,40.85,0,0,1-8.678-1.194,31.953,31.953,0,0,1-16.7-13.134c-2.254-3.279-4.423-6.626-6.34-10.09a43.539,43.539,0,0,1-3.885-11.234,195.881,195.881,0,0,1-5.331-40.361c-.219-7.719-1.009-10.09-1.11-18.011,0-.992-1.16-7.063-1.16-8.055.084-1.934-3.717-7.736-3.683-9.67,0-2.4,6.121-3.128,9.266-4.642,3.481-1.682,5.045-5.852,7.77-8.577,5.718-5.768,11.856-11.133,17.339-17.1.118-.135.235-.252.336-.387a22.62,22.62,0,0,0,3.633-5.415,102.576,102.576,0,0,1,9.064-14.8c6.34-8.762-4.776-9.771,3.851-16.313,3.363-2.573,17.507-3.767,21.745-3.162,7.786,1.127,23.679,1.144,28.219,0,16.817-3.935,25.512-5.466,37.94-1.564.1,0,47.408,3.565,56.2,3.868q7.87.252,15.741,0L431.73,40.1c11.957-.42,23.914-.757,35.854-1.261,10.679-.471,21.358-1.244,32.037-1.867,4.339-.252,8.695-.589,13.05-.79,6.206-.286,12.394-.757,18.583-1.345l10.729-1.059a25.226,25.226,0,0,1,7.467.084c10.864,2.052,19.306,11.167,24.1,20.668a45.272,45.272,0,0,1,3.094,7.736c.807,2.741,1.11,5.533,1.682,8.325.084.387.168.757.269,1.144a86.162,86.162,0,0,1,2.573,18.079v.925c.319,7.6,1.261,15.135.589,22.686-.185,1.984-.421,3.952-.639,5.92l-2.354,21.173a68.13,68.13,0,0,1-2.472,12.831l-3.279,14.143c-.807,4.894-2.64,9.636-2.926,14.614-.236,4.238-.387,8.409-.37,12.731a68.2,68.2,0,0,0,1.278,15.135c2.64,11.419,11.368,20.315,13.454,31.953a18.012,18.012,0,0,1-1.564,11.469c-2.085,4.423-4.507,8.594-6.189,13.218-2.354,6.508-4.305,13.117-6.861,19.558-2,5.045-4.171,9.956-5.936,15.051-1.564,4.557-2.052,9.249-3.363,13.857A36.576,36.576,0,0,0,558.6,323.7c0,2.607.975,5.045,1.127,7.7a8.409,8.409,0,0,1-3.061,6.121c-1.312,1.211-2.691,2.169-3.044,4.019a19.558,19.558,0,0,0,.5,8.409c.1.437,1.345,3.145,1.043,3.548s-5.482-2.943-6.189-3.363c-1.682-1.043-3.448-2.186-5.23-3.162A23.056,23.056,0,0,0,532.364,344.575Z" transform="translate(139.5 22.864)" fill="#606161"/>
    <path id="Path_325" data-name="Path 325" d="M254.87,238.844s8.055-6.458,10.628-13.857V185.718s0-6.1,7.416-10.628c0,0-.975,5.8-1.682,8.409l.134,27.547.874,6.34s.572,4.255.605,7.013c0,0,.622,2.539-.992,3.683-2.775,1.951-3.868,1.85-4.036,2.237h-.135a1.968,1.968,0,0,0-.437.353,1.682,1.682,0,0,0-.807,1.278c-.118.959,1.059,2.489,1.53,5.23l.252,2.1v2.64l-.252,2.59-.454,2.539-7.938-7.215Z" transform="translate(173.75 119.363)" fill="#40403f" stroke="#0e0e0b" stroke-miterlimit="10" stroke-width="0.25" opacity="0.1"/>
    <path id="Path_326" data-name="Path 326" d="M212.672,127.916s10.09-33.13,27.849-48.568a55.5,55.5,0,0,0,14.5-31.768s-7.181,21.274-24.183,33c0,0-21.56,16.817-24.755,15.505C206.03,96.081,211.865,113.974,212.672,127.916Z" transform="translate(140.489 32.436)" fill="#40403f" stroke="#0e0e0b" stroke-miterlimit="10" stroke-width="0.25" opacity="0.1"/>
    <path id="Path_327" data-name="Path 327" d="M430.035,148.859s-7,31.465-17.692,46.634c0,0-22.771,26.319-19.188,34.358,0,0-1.783,17.843,2.674,22.754,0,0-12.462,8.8-11.15,18.684,0,0-12.562-7.248-18.5-6.491,0,0,11.856-6.391,10.511-29.144,0,0,0-24.805,2.237-35.316,0,0,2.22-15.035,1.329-25.31,0,0-.605-30.271-1.867-45.961,0,0,29.514-4.692,38.31,4.692C416.648,133.69,418.734,137.037,430.035,148.859Z" transform="translate(249.633 87.187)" fill="#40403f" stroke="#0e0e0b" stroke-miterlimit="10" stroke-width="0.25"/>
    <path id="Path_328" data-name="Path 328" d="M224,221.594s1.4-5.667,10.645-13.084a63.535,63.535,0,0,1,18.5,7.82s2.253,2.977-2.842,6.071a15.876,15.876,0,0,1-8.274,2.22H226.657A2.674,2.674,0,0,1,224,221.947Z" transform="translate(152.706 142.146)" fill="#40403f" stroke="#0e0e0b" stroke-miterlimit="10" stroke-width="0.25"/>
    <path id="Path_329" data-name="Path 329" d="M250.376,226.789v.235a1.682,1.682,0,0,0,1.463,1.682,39.151,39.151,0,0,0,17.709-1.4l4.843-3.363s2.859-2.489-2.96-6.559a14.731,14.731,0,0,1-1.8-1.446c-1.026-.959-3.094-3.061-9.973-3.162l-6.828.269a3.784,3.784,0,0,0-2.371.975c-2.253,2.052-6.374,6.979-6.239,9.737v1.228a.841.841,0,0,0,1.127.774l2.4-.874C249.939,224.014,250.376,225.443,250.376,226.789Z" transform="translate(166.489 145.057)" fill="#40403f" stroke="#0e0e0b" stroke-miterlimit="10" stroke-width="0.25"/>
    <path id="Path_330" data-name="Path 330" d="M360.16,220.427s1.177-3.8,8.947-10.393a4.793,4.793,0,0,1,3.918-1.076,45.961,45.961,0,0,1,14.766,5.281,3.363,3.363,0,0,1,.925,5.2,15.3,15.3,0,0,1-6.727,3.818,4.254,4.254,0,0,1-1.295.2H362.935a2.775,2.775,0,0,1-2.775-2.775Z" transform="translate(245.529 142.404)" fill="#40403f" stroke="#0e0e0b" stroke-miterlimit="10" stroke-width="0.25"/>
    <path id="Path_331" data-name="Path 331" d="M402.387,229.716h0a2.018,2.018,0,0,0,1.682,2,39.05,39.05,0,0,0,17.456-1.429l4.843-3.363s1.53-3.6-4.238-7.383a15.287,15.287,0,0,0-4.305-1.8,38.3,38.3,0,0,0-11.3-1.682h-.151a5.13,5.13,0,0,0-3.515,1.379c-2.4,2.237-6.727,6.727-6.727,9.266h0a1.682,1.682,0,0,0,2.27,1.682l1.261-.454a1.951,1.951,0,0,1,2.724,1.783Z" transform="translate(270.049 147.293)" fill="#40403f"/>
    <path id="Path_332" data-name="Path 332" d="M379.649,112.057c0,9.67-12.209,1.951-18.5,8.291s-11.1,10.847-20.786,10.847-14.16,11.991-20.5,5.634-2.1-7.7-2.1-17.389c0-9.249,9.518-10.443,15.371-16.716,6.391-6.828,1.413-25.714,11.52-25.714,8.812,0,7.635,20.349,13.79,25.714C365.674,109.148,379.649,101.513,379.649,112.057Z" transform="translate(215.68 52.499)" fill="#1e2833" stroke="#0e0e0b" stroke-miterlimit="10" stroke-width="0.25"/>
    <path id="Path_333" data-name="Path 333" d="M429.986,75.03S439,97.649,440.194,143.98c0,0,1.783,31.33,3.75,49.527,0,0,6.306-2.3,10.914-1.682a76.417,76.417,0,0,1-7.551-27.6s-2.1-43.523-3.229-51.444a205.631,205.631,0,0,0-2.741-35.316A57.179,57.179,0,0,0,425.4,47.315L419.61,42.27S421.493,42.926,429.986,75.03Z" transform="translate(286.057 28.816)" fill="#606161"/>
    <path id="Path_334" data-name="Path 334" d="M433.12,130.324a230.392,230.392,0,0,0,8.005,21.862,73.573,73.573,0,0,0,9.233,15.657c5.785,7.551,15.4,20.685,15.371,24.822a246.983,246.983,0,0,0-3.464-28.589,46.988,46.988,0,0,0-5.9-14.917L443.9,128.676S443.429,126.036,433.12,130.324Z" transform="translate(295.267 87.173)" fill="#1e2833"/>
    <path id="Path_335" data-name="Path 335" d="M231.463,134.219c-12.462,3.952-12.277-.706-15.875-12.041-1.682-5.247-5.735-15.657-3.363-20.416,2.792-5.5-.521-6.441,6.155-8.56,5.617-1.8,9.334,10.7,14.261,12.529,6,2.237,12.848-5.415,14.816.807,2.27,7.13-8.409,11.268-13.269,16.817C231.379,126.718,236.088,132.756,231.463,134.219Z" transform="translate(144.183 63.417)" fill="#1e2833" stroke="#0e0e0b" stroke-miterlimit="10" stroke-width="0.25"/>
    <path id="Path_336" data-name="Path 336" d="M262.124,116.81s3.078,26.067,12.9,44.313l-.521-.185h-2.993l-.42.1-.1.4a6.6,6.6,0,0,0,0,1.413v2.169l.151,13v18.953a37.84,37.84,0,0,1-.706,6.323,16.936,16.936,0,0,1-1.278,3.5c-.286.605-.555.74-.841,1.429a14.044,14.044,0,0,0-.689,3.229s-1.514,13.891-1.514,20.046c0,0-.185,7.231-1.093,14.648a34.691,34.691,0,0,0,0,9.872,10.091,10.091,0,0,1-.084,3.969,20,20,0,0,1-4.12,5.684s-1.11,1.228-2.186,2.556a7.719,7.719,0,0,0-1.547,2.489l-.471,1.917a5.045,5.045,0,0,0,0,2l.572,3.935s-12.428-7.08-18.5-6.491c0,0,9.165-14.984,11.032-20.82a63.48,63.48,0,0,0,2.186-6.727c.37-1.816.605-3.6.959-5.718a49.246,49.246,0,0,0,.757-5.247c.185-6.29.656-9.905.5-12.9l-.2-5.852a36.419,36.419,0,0,1-3.363-4.423,13.148,13.148,0,0,1-1.026-2.455,10.829,10.829,0,0,1-.79-2.321s-.219-.69-.488-1.682-.521-2.59-.74-4.053a12.463,12.463,0,0,1-.269-3.263c0-.4,0-1.026,0-2.321s.336-2.842.336-4.305v-1.766c0-1.682-.269-3.111-.286-5.045a16.61,16.61,0,0,0-.084-2.085c0-3.094.168-6.054.118-8.409v-2.338a18.173,18.173,0,0,0-.336-2.993,14.321,14.321,0,0,1,0-1.934c0-.387,0-.807,0-1.211v-.774a5.046,5.046,0,0,0-.1-1.144,1.413,1.413,0,0,0-.69-1.059c-.454-.269-.454-.286-1.429-.32h-1.043a7.113,7.113,0,0,0-1.345,0,31.735,31.735,0,0,1-7.03-1.4,23.224,23.224,0,0,1-5.4-2.539,35.667,35.667,0,0,1-5.381-4.473,13.452,13.452,0,0,1-2.64-2.708S220.5,147.939,218,144.34c-1.043-1.48.37.959-.656-.959-1.682-3.027,26.218-14.026,27.748-13.857s5.045-.286,9.956-5.264Z" transform="translate(148.115 79.632)" stroke="#0e0e0b" stroke-miterlimit="10" stroke-width="0.25" opacity="0.3"/>
    <path id="Path_337" data-name="Path 337" d="M329.488,215.266s-20.181-.622-32.709-.4a30.843,30.843,0,0,1-7.03-1.4,22.25,22.25,0,0,1-6.643-3.363c-1.867-1.446-4.036-3.532-6.273-5.634s-3.094-4.541-5.045-7.114c0,0-12.663-2.354-42.262,42.817,0,0-13.454,24.335-24.4,33.971,0,0-32.188,19.508-33.752,24.7,0,0-9.35,11.234-19.727,3.8,0,0-2.287-2.472-5.045-5.045a17.187,17.187,0,0,1-3.481-21.492l.219-.37a50.687,50.687,0,0,0,6.273-14.951,59.835,59.835,0,0,1,8.274-18.314s7.8-45.625,17.137-49.695l.706-1.581s-16.414,1.968-20.382-1.833a7.3,7.3,0,0,1-3.5-3.8s14.614-1.833,20.382-1.059c0,0-16.817-.471-23.258-13.235,0,0,24.94,6.391,36.039,4.255,0,0,19.474-.151,29.363-16.279,0,0,24.419-30.826,30.624-47.475s3.582,1.312,16.313-32.289c0,0,10.443-27.093,23.157-31.33,0,0,8.039-5.92,15.136-10.763Z" transform="translate(95.987 25.49)" fill="#606161"/>
    <path id="Path_338" data-name="Path 338" d="M281.15,137.111c-3.834,9.434-14.648-1.261-24.654,2.1-10.931,3.7-11,11.419-23.8,6.206-11.654-4.726-31.23-3.263-36.746-12.394-6.088-10.09,11.957-13.605,16.161-23.965,3.717-9.132,5.718-15.943,15.287-19.407C238.5,85.6,238.131,78,251.3,83.346c12.26,5.045,6.475,21.627,11.873,31.364S285.169,127.239,281.15,137.111Z" transform="translate(132.739 55.564)" fill="#1e2833"/>
    <path id="Path_339" data-name="Path 339" d="M512.84,370.235c3.044-6.088,6.323-12.108,9.1-18.348,3.582-8.039,4.877-17.17,6.727-25.714l2.3-10.595c.1-.454.219-1.211.269-1.682l1.5-15.875a85.174,85.174,0,0,0-.236-17.927c-.858-7.231-2.169-14.8-5.482-21.341l-2.893-7.585a16.279,16.279,0,0,0-4.1-5.886l-8.409-9.636a44.481,44.481,0,0,0-12.226-10.242,51.242,51.242,0,0,0-7.955-3.363,8.677,8.677,0,0,0-3.263-.689c-4.171,0-8.409,0-12.512.135a61.029,61.029,0,0,0-8.509,1.228c-9.99,1.682-19.609,4.944-29.3,7.887a12.428,12.428,0,0,1-2.96.706,29.613,29.613,0,0,0-7.938,2.1c-3.6,1.261-7.181,2.472-10.83,3.633-6.256,1.951-12.462,4-18.684,6.037-5.045,1.682-13.134,4.154-18.129,5.634a95.37,95.37,0,0,1-17.624,4.221L340.8,256.3a17.475,17.475,0,0,1-4.944.185l-12.865-.79c-2.792-.168-5.7-.151-8.509-.454a15.639,15.639,0,0,1-2.741-.589l-17.523-5.3a32.473,32.473,0,0,0-3.717-1.11c-.874-.151-1.16.555-1.463,1.345a25.664,25.664,0,0,0-1.11,6.861,110.839,110.839,0,0,0-.185,11.335c.118,4.171.42,8.308.807,12.462a49.886,49.886,0,0,1,.219,7.265,89.134,89.134,0,0,1-3.649,17.759,46.118,46.118,0,0,0-1.934,11.89c0,3.363.471,6.727.689,10.09s0,6.391.32,9.569.959,6.559,1.329,9.855c.252,2.2.874,5.146-1.043,6.727-1.413,1.194-3.717,1.429-4.894,2.909a2.169,2.169,0,0,0-.084,2.371,18.029,18.029,0,0,1,1.4,5.045,27.53,27.53,0,0,1-.639,8.543c-1.093-1.026-2.153-2.136-3.363-3.078a14.563,14.563,0,0,0-7.9-2.993l-6.155-.538c-1.547-.135-6.29.235-5.045-2.573a53.7,53.7,0,0,1,2.724-4.709,72.878,72.878,0,0,0,3.733-7.954c1.463-3.649,2.977-7.3,4.1-11.066,2.607-8.695,2.489-17.608,2.724-26.571a14.849,14.849,0,0,0-.975-6.037,25.864,25.864,0,0,0-3.515-5.432,5.753,5.753,0,0,1-.908-1.816,43.936,43.936,0,0,1-.942-5.314,66.624,66.624,0,0,1-.639-8.409q-.168-16.817-.185-33.634v-2.808c-.151-2.724-2.439-3.027-4.608-2.993-.336,0-.942-.135-1.177.135s-.135,1.211-.151,1.53c0,2.321,0,4.658.135,6.979.135,6.727-.235,13.37,0,20.063.185,5.684.589,12.024-2,17.288a15.438,15.438,0,0,0-1.446,4.356c-.42,2.825-.656,5.684-.875,8.526-.488,6.727-.673,13.454-1.211,20.181-.286,3.565-.757,7.147-.875,10.729-.084,2.708.572,5.432.387,8.14s-2.438,4.742-4.12,6.727-3.851,3.9-4.322,6.407a12.393,12.393,0,0,0,.118,4.221c0,.437.723,2.119.488,2.523,0-.135-9.788-4.608-10.813-5.045a29.536,29.536,0,0,0-4.507-1.329,11.356,11.356,0,0,0-1.85-.235c-.168,0-1.362.135-1.429,0A15.91,15.91,0,0,1,227.234,355q2.2-3.447,4.171-7.03a71.134,71.134,0,0,0,7.6-18.953,134.165,134.165,0,0,0,2.153-25.226c0-.454-.1-1.682-.135-2.1a4.927,4.927,0,0,0-.135-1.564c-.185-.42-.555-.521-.925-.841a14.127,14.127,0,0,1-3.246-5.213,34.828,34.828,0,0,1-2.237-8.409,48.25,48.25,0,0,1,0-9.855,37.537,37.537,0,0,0-.118-5.836,121.094,121.094,0,0,1,0-12.6c0-2.489-.471-4.911-.37-7.383,0-1.816.32-3.683-1.968-3.868a40.846,40.846,0,0,1-8.678-1.194,31.953,31.953,0,0,1-16.7-13.134c-2.253-3.279-4.423-6.626-6.34-10.09a43.541,43.541,0,0,1-3.885-11.234,194.742,194.742,0,0,1-5.331-40.361c-.219-7.719-1.009-10.09-1.11-18.011,0-.992-1.16-7.063-1.16-8.055.084-1.934-3.717-7.736-3.683-9.67,0-2.4,6.121-3.145,9.266-4.642,3.481-1.682,5.045-5.852,7.77-8.577,5.718-5.768,11.856-11.133,17.339-17.1.118-.135.235-.252.336-.387a22.975,22.975,0,0,0,3.633-5.415,102.582,102.582,0,0,1,9.064-14.8c6.34-8.762-4.776-9.771,3.851-16.313,3.363-2.573,17.507-3.784,21.745-3.162,7.786,1.127,23.679,1.144,28.219,0,16.817-3.935,25.512-5.466,37.94-1.564l.3.1c10.713,3.363,47.088,3.464,55.9,3.767q7.87.252,15.741,0l15.993-.555c11.957-.42,23.914-.757,35.854-1.261,10.679-.471,21.358-1.244,32.037-1.867,4.339-.252,8.695-.589,13.05-.79q9.3-.454,18.583-1.362L522.493,59.4a25.227,25.227,0,0,1,7.467,0c10.864,2.052,19.306,11.167,24.1,20.652a46.013,46.013,0,0,1,3.094,7.753c.807,2.741,1.11,5.533,1.682,8.325.084.387.168.757.269,1.144A86.157,86.157,0,0,1,561.61,115.4v.942c.32,7.6,1.261,15.135.589,22.686-.185,1.984-.42,3.952-.639,5.92l-2.354,21.173a68.125,68.125,0,0,1-2.472,12.832L553.454,193.1c-.807,4.894-2.64,9.636-2.926,14.614-.235,4.238-.387,8.409-.37,12.714a68.257,68.257,0,0,0,1.278,15.135c2.64,11.4,11.368,20.315,13.454,31.852a18.044,18.044,0,0,1-1.547,11.486c-2.085,4.423-4.507,8.594-6.189,13.218-2.354,6.491-4.305,13.117-6.861,19.558-2,5.045-4.171,9.956-5.937,15.051-1.564,4.557-2.052,9.25-3.363,13.857a36.582,36.582,0,0,0-1.934,8.627c0,2.607.975,5.045,1.127,7.7a8.409,8.409,0,0,1-3.061,6.121c-1.312,1.211-2.691,2.169-3.044,4.019a19.557,19.557,0,0,0,.5,8.409c.1.437,1.345,3.145,1.043,3.548s-5.482-2.943-6.189-3.363c-1.682-1.06-3.448-2.186-5.23-3.162A23.057,23.057,0,0,0,512.84,370.235Z" transform="translate(126.214 40.307)" fill="#7f7f7f"/>
    <path id="Path_340" data-name="Path 340" d="M247.319,204.528a59.72,59.72,0,0,1,10.948-17.372l.168-.219a17.557,17.557,0,0,0,.454-19.71,25.647,25.647,0,0,1-3.851-8.61.757.757,0,0,1,1.4-.488c2.523,4.49,8.24,13.319,15.59,16.245a59.059,59.059,0,0,1,5.886,2.825c7.147,3.767,21.862,10.881,30.136,10.09a52.58,52.58,0,0,1,5.852-.37c8.526,0,29.06-.32,36.477-4.625,0,0,27.748-6.609,32.323-16.111,0,0,13.454-13.454,15.859-28.421,0,0,5.482-16.464,15.859-17.692,0,0,12.192-4.255,32.625,22.266,0,0,15.287,16.111,22.989,34.643a201.563,201.563,0,0,1,10.9,28.724.757.757,0,0,1-1.345.622c-1.261-1.783-3.061-4.238-5.432-7.248-1.329-1.682-3.061-3.918-4.49-5.583-2.136-2.489-4.793-5.415-6.727-7.433-2.792-2.792-1.951-2.237-4.742-3.363-.673-.252-2.708-.841-3.363-1.043a41.874,41.874,0,0,0-5.045-1.211c-1.867-.32-6.492-.79-9.081-.908-2.943-.118-2.439.32-6.878.3a23.445,23.445,0,0,0-3.279.555,72.981,72.981,0,0,0-8.678,1.514,101.535,101.535,0,0,0-13.05,3.363c-2.556.824-5.466,1.8-8.409,2.573a77.529,77.529,0,0,1-8.543,2.22,53.813,53.813,0,0,0-9.1,2.758c-6.357,2.035-10.326,3.548-15.909,5.18,0,0-13.016,4.49-27.177,8.61-9.653,2.825-19.794,5.617-26.908,6.1a25.328,25.328,0,0,0-4.356.723,43.4,43.4,0,0,1-6.727,1.06,55.51,55.51,0,0,1-5.785.774c-2.254,0-4.709-.286-7.1-.437-5.583-.353-11.772-.841-17.675-1.093a18.13,18.13,0,0,1-4.406-1.48c-1.48-.521-2.59-.605-3.969-1.059,0,0-2.27-.605-4.221-1.278s-4.524-1.429-6.878-2.085c-1.144-.3-2.287-.656-3.061-.925a4.341,4.341,0,0,0-.555-.168c-.084,0-.42,0-.5-.151a2.607,2.607,0,0,1-.219-2.069Z" transform="translate(168.52 81.684)" stroke="#0e0e0b" stroke-miterlimit="10" stroke-width="0.25" opacity="0.3"/>
    <path id="Path_341" data-name="Path 341" d="M234.16,266.361S242.2,259.9,244.772,252.5V213.218s0-6.121,7.416-10.628c0,0-.975,5.8-1.682,8.409l.2,27.6.875,6.34s.572,4.255.605,7.013c0,0,.639,2.539-.992,3.666-2.758,1.951-3.868,1.867-4.019,2.253h-.135a3.037,3.037,0,0,0-1.261,1.631c-.118.959,1.06,2.472,1.53,5.213l.252,2.119v2.64l-.252,2.59-.454,2.539-7.921-7.231Z" transform="translate(159.632 138.11)" fill="#40403f" stroke="#0e0e0b" stroke-miterlimit="10" stroke-width="0.25" opacity="0.1"/>
    <path id="Path_342" data-name="Path 342" d="M383.53,308.75A121.773,121.773,0,0,1,397.673,299a4.524,4.524,0,0,0,2.338-3.565c.605-6.845,2.4-25.545,4.406-32.289,0,0,2.876-18.364,7.685-28.707a12.126,12.126,0,0,0,1.144-5.045v-.975A17.506,17.506,0,0,0,409.176,217a7.584,7.584,0,0,1-1.816-5.281q0-1.186,0-2.371a28.054,28.054,0,0,1,1.194-8.409,48.872,48.872,0,0,0,2.237-22,81.182,81.182,0,0,0-1.531-8.509s-4.726-11.772-1.345-21.408c0,0,3.969,6.727,7.046,5.55,0,0,0,4.927.084,10.006a52.571,52.571,0,0,0,.959,8.846,41.509,41.509,0,0,0,3.128,9.687c.387.875.858,1.682,1.328,2.556,1.951,3.363,7.4,13.117,8.409,16.817a19.558,19.558,0,0,1-2.506,18.482s-.79,1.833-2.64,5.768a53.941,53.941,0,0,0-2.2,5.482c-1.16,3.246-1.261,4.188-2.169,6.727-.555,1.581-1.429,3.851-1.884,5.365s-1.682,3.548-1.968,5.045c0,0-1.833,4.894-3.952,10.427a79.34,79.34,0,0,0-5.045,16.38,86.371,86.371,0,0,1-2.27,9.1c-.757,2.338,0,6.727.622,9.1a6.458,6.458,0,0,1-.959,5.045s-.4.589-1.295,1.682c-.42.538-1.4,1.144-3.077,3.094a6.172,6.172,0,0,0-.807,3.515,17.715,17.715,0,0,0,.118,3.363,18.509,18.509,0,0,0,.37,2.153l.79,2.876a33.371,33.371,0,0,0-3.935-3.633,11.5,11.5,0,0,0-2.842-2.069,35.318,35.318,0,0,0-3.851-1.127,15.688,15.688,0,0,0-3.162-.353,25.233,25.233,0,0,0-2.674-.151Z" transform="translate(261.46 101.59)" fill="#1e1e1e" stroke="#0e0e0b" stroke-miterlimit="10" stroke-width="0.25" opacity="0.3"/>
    <path id="Path_343" data-name="Path 343" d="M191.922,155.416s10.09-33.147,27.866-48.585a55.5,55.5,0,0,0,14.48-31.751s-7.181,21.257-24.183,33c0,0-21.56,16.817-24.755,15.505C185.33,123.581,191.166,141.474,191.922,155.416Z" transform="translate(126.343 51.184)" fill="#40403f" stroke="#0e0e0b" stroke-miterlimit="10" stroke-width="0.25" opacity="0.1"/>
    <path id="Path_344" data-name="Path 344" d="M203.3,249.1s1.4-5.667,10.645-13.1a64.107,64.107,0,0,1,18.5,7.82s2.27,2.993-2.842,6.088a15.876,15.876,0,0,1-8.274,2.22H205.991a2.674,2.674,0,0,1-2.691-2.691Z" transform="translate(138.594 160.886)" fill="#40403f" stroke="#0e0e0b" stroke-miterlimit="10" stroke-width="0.25"/>
    <path id="Path_345" data-name="Path 345" d="M229.656,254.282v.235a1.682,1.682,0,0,0,1.463,1.682,39.134,39.134,0,0,0,17.709-1.4l4.843-3.363s2.859-2.472-2.96-6.542a18.3,18.3,0,0,1-1.8-1.446c-1.009-.975-3.094-3.061-9.973-3.162l-6.811.252a3.9,3.9,0,0,0-2.388.992c-2.237,2.052-6.374,6.979-6.239,9.72V252.5a.841.841,0,0,0,1.127.774l2.4-.874C229.219,251.574,229.656,252.937,229.656,254.282Z" transform="translate(152.363 163.811)" fill="#40403f" stroke="#0e0e0b" stroke-miterlimit="10" stroke-width="0.25"/>
    <path id="Path_346" data-name="Path 346" d="M339.44,247.927s1.177-3.818,8.947-10.393a4.809,4.809,0,0,1,3.918-1.076,45.961,45.961,0,0,1,14.766,5.281,3.363,3.363,0,0,1,.942,5.2,15.556,15.556,0,0,1-6.727,3.818,4.257,4.257,0,0,1-1.295.2H342.232a2.775,2.775,0,0,1-2.792-2.775Z" transform="translate(231.403 161.152)" fill="#40403f"/>
    <path id="Path_347" data-name="Path 347" d="M381.667,257.222h0a2.018,2.018,0,0,0,1.682,2,38.865,38.865,0,0,0,17.456-1.446l4.843-3.363s1.547-3.6-4.238-7.383a14.934,14.934,0,0,0-4.305-1.8,38.261,38.261,0,0,0-11.284-1.682h-.168a5.2,5.2,0,0,0-3.515,1.362c-2.4,2.254-6.727,6.727-6.727,9.283h0a1.682,1.682,0,0,0,2.27,1.682l1.261-.454a1.951,1.951,0,0,1,2.724,1.8Z" transform="translate(255.924 166.033)" fill="#40403f" stroke="#0e0e0b" stroke-miterlimit="10" stroke-width="0.25"/>
    <path id="Path_348" data-name="Path 348" d="M412.509,100.844s9.031,22.636,10.208,68.951c0,0,1.783,31.33,3.767,49.543a29.38,29.38,0,0,1,10.9-1.766,76.45,76.45,0,0,1-7.534-27.6s-2.119-43.523-3.229-51.427a207.838,207.838,0,0,0-2.741-35.417,57.178,57.178,0,0,0-15.943-30.086L402.15,68S404.017,68.74,412.509,100.844Z" transform="translate(274.154 46.357)" fill="#7f7f7f"/>
    <path id="Path_349" data-name="Path 349" d="M416.62,159.023a217.058,217.058,0,0,0,8.257,21.375,71.81,71.81,0,0,0,9.451,15.27c5.92,7.349,15.758,20.181,15.758,24.2a234.767,234.767,0,0,0-3.717-28.051,45.2,45.2,0,0,0-6.088-14.581l-12.764-19.979S427.013,154.684,416.62,159.023Z" transform="translate(284.019 106.689)" fill="#1e2833" stroke="#0e0e0b" stroke-miterlimit="10" stroke-width="0.25"/>
    <path id="Path_350" data-name="Path 350" d="M210.76,161.7c-12.478,3.952-12.293-.706-15.892-12.041-1.682-5.264-5.735-15.657-3.363-20.416,2.792-5.5-.521-6.458,6.155-8.577,5.617-1.783,9.334,10.713,14.261,12.546,6,2.237,12.848-5.415,14.816.807,2.27,7.13-8.409,11.268-13.252,16.817C210.659,154.237,215.368,160.258,210.76,161.7Z" transform="translate(130.058 82.145)" fill="#1e2833" stroke="#0e0e0b" stroke-miterlimit="10" stroke-width="0.25"/>
    <path id="Path_351" data-name="Path 351" d="M241.25,144.31s3.078,26.05,12.882,44.313l-.521-.185h-2.977l-.437.1-.1.4a6.592,6.592,0,0,0,0,1.413v2.2l.151,13v18.953a37.836,37.836,0,0,1-.706,6.323,16.933,16.933,0,0,1-1.278,3.5c-.286.605-.538.74-.841,1.429a14.043,14.043,0,0,0-.69,3.229s-1.514,13.891-1.514,20.029c0,0-.185,7.248-1.093,14.648a34.793,34.793,0,0,0,0,9.888,10.091,10.091,0,0,1,0,3.969,20.08,20.08,0,0,1-4.137,5.684s-1.11,1.228-2.169,2.556a7.753,7.753,0,0,0-1.564,2.489l-.471,1.917a5.045,5.045,0,0,0,0,2l.74,3.969s-12.428-7.08-18.5-6.491c0,0,9.165-14.984,11.032-20.82a63.475,63.475,0,0,0,2.186-6.727c.37-1.816.605-3.6.959-5.718a49.266,49.266,0,0,0,.757-5.247c.2-6.29.656-9.905.5-12.9l-.2-5.852a35.838,35.838,0,0,1-3.363-4.44,12.561,12.561,0,0,1-1.026-2.439,11.777,11.777,0,0,1-.79-2.321s-.219-.69-.471-1.682a40.012,40.012,0,0,1-.757-4.053,12.517,12.517,0,0,1-.269-3.263v-2.338c0-1.312.336-2.825.336-4.288V215.8c0-1.682-.269-3.128-.286-5.045v-2.085c0-3.094.151-6.054.1-8.409v-2.338a16.564,16.564,0,0,0-.336-3.01,14.173,14.173,0,0,1,0-1.917v-1.984a5.046,5.046,0,0,0,0-1.144c-.168-.5-.2-.757-.706-1.059s-.437-.286-1.429-.32H221.91a32.927,32.927,0,0,1-7.03-1.4,23.138,23.138,0,0,1-5.382-2.539,34.979,34.979,0,0,1-5.4-4.473,13.455,13.455,0,0,1-2.64-2.708s-1.429-1.867-3.935-5.466c-1.043-1.48.37.959-.656-.959-1.682-3.027,26.235-14.026,27.765-13.857s5.045-.286,9.939-5.281Z" transform="translate(134.16 98.379)" stroke="#0e0e0b" stroke-miterlimit="10" stroke-width="0.25" opacity="0.3"/>
    <path id="Path_352" data-name="Path 352" d="M310.255,242.712s-20.181-.639-32.709-.42a30.96,30.96,0,0,1-7.03-1.379,22.25,22.25,0,0,1-6.727-3.363c-1.867-1.446-4.036-3.548-6.256-5.651s-3.111-4.541-5.045-7.1c0,0-12.663-2.354-42.262,42.817,0,0-13.454,24.318-24.4,33.971,0,0-32.188,19.508-33.752,24.7,0,0-9.334,11.234-19.727,3.8,0,0-2.287-2.472-5.045-5.045a17.187,17.187,0,0,1-3.481-21.492c0-.135.151-.252.235-.387,2.876-4.608,22.333-54.891,22.333-54.336s0-24.536,9.334-28.589l.706-1.6s-16.414,1.984-20.366-1.833c0,0,11.1-5.617,16.817-4.86,0,0,1.682-6.845,12.781-8.98,0,0,19.474-.151,29.363-16.262,0,0,24.419-30.843,30.624-47.475s3.582,1.312,16.313-32.306c0,0,10.443-27.076,23.157-31.314,0,0,12.192-7.433,19.306-12.277Z" transform="translate(82.83 43.18)" fill="#7f7f7f"/>
    <path id="Path_353" data-name="Path 353" d="M496.847,424.329c3.044-6.1,6.34-12.125,9.115-18.348,3.582-8.039,4.877-17.17,6.727-25.73l2.3-10.578c.1-.471.219-1.228.269-1.682l1.48-15.875a82.972,82.972,0,0,0-.236-17.927c-.858-7.231-2.153-14.782-5.466-21.324l-2.893-7.6c-.723-2.455-2.489-4-4.1-5.869l-8.409-9.636a44.784,44.784,0,0,0-12.277-10.275,52.129,52.129,0,0,0-7.938-3.363,9.382,9.382,0,0,0-3.263-.69c-4.171,0-8.409,0-12.512.151a58.614,58.614,0,0,0-8.51,1.228c-9.989,1.682-19.626,4.944-29.3,7.887a12.356,12.356,0,0,1-2.977.706,29.044,29.044,0,0,0-7.921,2.1c-3.6,1.244-7.2,2.472-10.83,3.616-6.256,1.968-12.478,4-18.7,6.054-4.961,1.682-13.117,4.154-18.112,5.634a95.368,95.368,0,0,1-17.624,4.221l-20.887,3.363a18.111,18.111,0,0,1-4.944.185l-12.865-.807c-2.808-.168-5.7-.151-8.509-.454a15.3,15.3,0,0,1-2.741-.589l-17.507-5.281a30.27,30.27,0,0,0-3.717-1.127c-.875-.135-1.16.572-1.463,1.362a25.565,25.565,0,0,0-1.11,6.861,110.766,110.766,0,0,0-.185,11.335c.1,4.154.42,8.308.807,12.445a47.682,47.682,0,0,1,.2,7.265,88.062,88.062,0,0,1-3.649,17.776,45.862,45.862,0,0,0-1.917,11.89c0,3.363.471,6.727.689,10.09s0,6.391.3,9.586.975,6.559,1.345,9.838c.252,2.22.858,5.146-1.043,6.727-1.413,1.211-3.717,1.446-4.894,2.909a2.22,2.22,0,0,0-.1,2.388,17.37,17.37,0,0,1,1.413,5.045,27.984,27.984,0,0,1-.639,8.526A44.863,44.863,0,0,0,260.9,423.3a14.581,14.581,0,0,0-7.9-2.842l-6.138-.538c-1.547-.135-6.29.235-5.045-2.573a49.488,49.488,0,0,1,2.724-4.692,72.865,72.865,0,0,0,3.733-7.955c1.463-3.666,2.977-7.3,4.1-11.083,2.607-8.678,2.489-17.591,2.708-26.554a14.748,14.748,0,0,0-.959-6.037,26.216,26.216,0,0,0-3.515-5.449,5.583,5.583,0,0,1-.908-1.816,40.9,40.9,0,0,1-.942-5.314,66.36,66.36,0,0,1-.639-8.409q-.168-16.817-.185-33.634v-2.825c-.151-2.724-2.438-3.027-4.625-2.977-.32,0-.942-.135-1.16.118s-.151,1.211-.151,1.53c0,2.321.084,4.658.135,7,.135,6.727-.235,13.37,0,20.046.185,5.7.572,12.024-2,17.288a15.016,15.016,0,0,0-1.446,4.372c-.437,2.825-.673,5.667-.874,8.51-.488,6.727-.689,13.454-1.228,20.181-.269,3.565-.74,7.147-.858,10.713,0,2.724.572,5.449.387,8.14s-2.455,4.759-4.12,6.727-3.851,3.9-4.322,6.424a12.394,12.394,0,0,0,.151,4.238c0,.42.723,2.119.471,2.506.084-.118-9.771-4.608-10.8-5.045a29.529,29.529,0,0,0-4.507-1.329,13.573,13.573,0,0,0-1.85-.252,8.69,8.69,0,0,1-1.43,0,15.032,15.032,0,0,1,1.581-2.539c1.463-2.287,2.859-4.642,4.171-7.03a70.211,70.211,0,0,0,7.585-18.936,132.854,132.854,0,0,0,2.153-25.226,12.4,12.4,0,0,0-.118-2.1,5.046,5.046,0,0,0-.151-1.581c-.185-.4-.555-.521-.908-.824a13.858,13.858,0,0,1-3.246-5.23,33.94,33.94,0,0,1-2.237-8.308,48.252,48.252,0,0,1,0-9.855,37.783,37.783,0,0,0-.118-5.852,116.564,116.564,0,0,1-.084-12.6c0-2.472-.454-4.911-.353-7.383,0-1.8.32-3.683-1.968-3.868a40.83,40.83,0,0,1-8.678-1.177,32.171,32.171,0,0,1-16.716-13.151c-2.237-3.263-4.406-6.609-6.323-10.09a43.105,43.105,0,0,1-3.885-11.234,195.755,195.755,0,0,1-5.348-40.361c-.219-7.7-.992-10.09-1.11-17.994,0-1.009-1.16-7.063-1.144-8.055.084-1.934-3.733-7.736-3.683-9.67,0-2.422,6.121-3.145,9.266-4.658,3.481-1.682,5.045-5.836,7.77-8.577,5.7-5.751,11.772-11.116,17.339-17.1l.336-.37a23.543,23.543,0,0,0,3.633-5.432,102.581,102.581,0,0,1,9.064-14.8c6.34-8.745-4.793-9.754,3.851-16.313,3.363-2.573,17.507-3.767,21.745-3.162,7.786,1.127,23.662,1.144,28.219,0,16.817-3.952,25.512-5.482,37.94-1.564.1,0,47.408,3.548,56.2,3.851,5.23.185,10.494.151,15.724,0l16.01-.555c11.957-.42,23.914-.74,35.854-1.261,10.679-.454,21.358-1.244,32.037-1.867,4.339-.252,8.695-.572,13.05-.774q9.317-.454,18.5-1.362l10.729-1.043a24.823,24.823,0,0,1,7.484,0c10.847,2.035,19.306,11.15,24.1,20.651a49.5,49.5,0,0,1,3.094,7.736c.807,2.758,1.11,5.533,1.682,8.409l.252,1.127a85.4,85.4,0,0,1,2.691,17.826v.925c.32,7.6,1.261,15.135.589,22.7-.185,1.968-.421,3.952-.639,5.92L543.3,220.168A67.611,67.611,0,0,1,540.824,233l-3.347,14.244c-.807,4.877-2.657,9.636-2.926,14.6-.235,4.238-.387,8.409-.37,12.731a68.117,68.117,0,0,0,1.278,15.135c2.64,11.419,11.352,20.315,13.454,31.869a18.077,18.077,0,0,1-1.547,11.486c-2.1,4.406-4.524,8.594-6.189,13.2-2.354,6.508-4.305,13.117-6.861,19.558-2,5.045-4.187,9.956-5.937,15.051-1.564,4.557-2.052,9.266-3.363,13.874a37,37,0,0,0-1.917,8.627c0,2.607.975,5.045,1.11,7.685a8.274,8.274,0,0,1-3.044,6.138c-1.312,1.194-2.708,2.153-3.044,4.019a19.723,19.723,0,0,0,.488,8.409c.118.437,1.362,3.162,1.059,3.548s-5.482-2.943-6.189-3.363c-1.682-1.059-3.447-2.2-5.23-3.178a23.292,23.292,0,0,0-11.4-2.3Z" transform="translate(115.299 77.329)" fill="#636464"/>
    <path id="Path_354" data-name="Path 354" d="M182.25,306.1s8.055-6.441,10.628-13.857V252.962s0-6.1,7.416-10.612c0,0-.975,5.785-1.682,8.409l.135,27.563.874,6.323s.572,4.255.605,7.013c0,0,.622,2.539-.992,3.683-2.775,1.951-3.868,1.85-4.036,2.237h-.135a2.624,2.624,0,0,0-.437.353,1.682,1.682,0,0,0-.807,1.295c-.118.942,1.059,2.472,1.53,5.213l.252,2.1v2.64l-.252,2.59-.454,2.539-7.938-7.215Z" transform="translate(124.244 165.215)" fill="#40403f" stroke="#0e0e0b" stroke-miterlimit="10" stroke-width="0.25" opacity="0.1"/>
    <path id="Path_355" data-name="Path 355" d="M386.175,221.739s-7,31.448-17.709,46.634c0,0-22.754,26.319-19.188,34.358,0,0-1.783,17.843,2.691,22.754,0,0-12.478,8.8-11.15,18.667,0,0-12.562-7.248-18.5-6.491,0,0,11.856-6.374,10.528-29.127,0,0,0-24.805,2.22-35.316,0,0,2.237-15.051,1.345-25.31,0,0-.605-30.271-1.867-45.961,0,0,29.514-4.692,38.31,4.692C372.788,206.57,374.874,209.9,386.175,221.739Z" transform="translate(219.732 136.871)" fill="#40403f"/>
    <path id="Path_356" data-name="Path 356" d="M151.4,288.844s1.4-5.667,10.645-13.084a63.537,63.537,0,0,1,18.5,7.82s2.253,2.977-2.842,6.071a15.875,15.875,0,0,1-8.274,2.22H154.091A2.674,2.674,0,0,1,151.4,289.2Z" transform="translate(103.213 187.991)" fill="#40403f" stroke="#0e0e0b" stroke-miterlimit="10" stroke-width="0.25"/>
    <path id="Path_357" data-name="Path 357" d="M177.756,294.045v.236a1.682,1.682,0,0,0,1.463,1.682,38.967,38.967,0,0,0,17.709-1.413l4.843-3.363s2.859-2.489-2.96-6.559a14.731,14.731,0,0,1-1.8-1.446c-1.026-.959-3.094-3.061-9.973-3.162l-6.828.269a3.716,3.716,0,0,0-2.371.992c-2.2,2.068-6.374,7.114-6.239,9.8v1.228a.841.841,0,0,0,1.127.79l2.4-.891C177.319,291.271,177.756,292.7,177.756,294.045Z" transform="translate(116.982 190.896)" fill="#40403f" stroke="#0e0e0b" stroke-miterlimit="10" stroke-width="0.25"/>
    <path id="Path_358" data-name="Path 358" d="M357.86,310.7s1.362-4.457,10.427-12.142a5.684,5.684,0,0,1,4.574-1.245,53.143,53.143,0,0,1,17.187,6.155,3.986,3.986,0,0,1,1.093,6.071,17.826,17.826,0,0,1-7.837,4.44,4.608,4.608,0,0,1-1.513.252H361.106a3.229,3.229,0,0,1-3.246-3.246Z" transform="translate(243.961 202.631)" fill="#40403f"/>
    <path id="Path_359" data-name="Path 359" d="M329.766,296.966h0a2.035,2.035,0,0,0,1.682,2.018,39.369,39.369,0,0,0,17.456-1.446l4.843-3.363s1.53-3.6-4.238-7.383a15.285,15.285,0,0,0-4.305-1.8,38.3,38.3,0,0,0-11.3-1.682h-.151a5.129,5.129,0,0,0-3.515,1.379c-2.4,2.237-6.727,6.727-6.727,9.266h0a1.682,1.682,0,0,0,2.27,1.6l1.261-.454a1.951,1.951,0,0,1,2.724,1.867Z" transform="translate(220.544 193.138)" fill="#40403f" stroke="#0e0e0b" stroke-miterlimit="10" stroke-width="0.25"/>
    <path id="Path_360" data-name="Path 360" d="M395.292,155.827s9.031,22.636,10.225,68.951c0,0,1.766,31.33,3.75,49.543a29.379,29.379,0,0,1,10.9-1.766,76.453,76.453,0,0,1-7.534-27.6s-2.1-43.523-3.229-51.427a205.875,205.875,0,0,0-2.741-35.417,57.177,57.177,0,0,0-15.943-30.136L385,123S386.816,123.723,395.292,155.827Z" transform="translate(262.463 83.852)" fill="#636464"/>
    <path id="Path_361" data-name="Path 361" d="M398.49,208.439a215.282,215.282,0,0,0,8.257,21.375,71.132,71.132,0,0,0,9.451,15.27c5.92,7.349,15.758,20.181,15.758,24.217a233.181,233.181,0,0,0-3.733-28.068,44.718,44.718,0,0,0-6.071-14.564L409.438,206.69S408.883,204.167,398.49,208.439Z" transform="translate(271.659 140.401)" fill="#1e2833" stroke="#0e0e0b" stroke-miterlimit="10" stroke-width="0.25"/>
    <path id="Path_362" data-name="Path 362" d="M189.422,184.06s3.078,26.067,12.9,44.313l-.521-.185h-3.414l-.1.4a6.6,6.6,0,0,0,0,1.413v2.169l.151,13v18.953a37.837,37.837,0,0,1-.706,6.323,16.933,16.933,0,0,1-1.278,3.5c-.286.605-.555.74-.841,1.429a14.008,14.008,0,0,0-.689,3.246s-1.514,13.874-1.514,20.029c0,0-.185,7.231-1.093,14.648a34.7,34.7,0,0,0-.084,9.872,10.242,10.242,0,0,1-.084,3.986,20.468,20.468,0,0,1-4.12,5.684s-1.11,1.211-2.186,2.539a7.719,7.719,0,0,0-1.547,2.489l-.471,1.917a5.045,5.045,0,0,0,0,2l.74,3.969s-12.428-7.08-18.5-6.491c0,0,9.165-14.967,11.032-20.82a61.04,61.04,0,0,0,2.186-6.727c.37-1.816.605-3.6.959-5.718a49.273,49.273,0,0,0,.757-5.247c.185-6.29.656-9.905.5-12.9L181.3,282a36.432,36.432,0,0,1-3.363-4.423,12.694,12.694,0,0,1-1.026-2.455,10.831,10.831,0,0,1-.79-2.321s-.219-.69-.488-1.682-.521-2.607-.74-4.07a12.46,12.46,0,0,1-.269-3.263V261.47c0-1.295.336-2.842.336-4.305V255.4c0-1.682-.269-3.111-.286-5.045v-2.1c0-3.094.168-6.054.118-8.409v-2.338a18.181,18.181,0,0,0-.336-2.993,14.331,14.331,0,0,1,0-1.934v-1.984a5.043,5.043,0,0,0-.1-1.144,1.413,1.413,0,0,0-.69-1.059c-.454-.269-.454-.286-1.429-.32H169.88a32.254,32.254,0,0,1-7.03-1.379,24.685,24.685,0,0,1-5.4-2.539,37.794,37.794,0,0,1-5.382-4.473,14.008,14.008,0,0,1-2.64-2.724s-1.43-1.85-3.935-5.466c-1.043-1.48.37.959-.656-.959-1.682-3.027,26.218-14.026,27.748-13.857s5.045-.286,9.956-5.264Z" transform="translate(98.69 125.478)" stroke="#0e0e0b" stroke-miterlimit="10" stroke-width="0.25" opacity="0.3"/>
    <path id="Path_363" data-name="Path 363" d="M289.523,295.9s-20.181-.622-32.693-.4a30.456,30.456,0,0,1-7.03-1.4,22.047,22.047,0,0,1-6.643-3.363c-1.867-1.446-4.053-3.532-6.273-5.634s-3.111-4.541-5.045-7.114c0,0-12.68-2.354-42.262,42.817,0,0-13.454,24.335-24.419,33.971,0,0-39.453-77.208-30.1-81.294l.706-1.581s-16.43,1.968-20.382-1.833a7.231,7.231,0,0,1-3.5-3.8s14.6-1.833,20.382-1.06c0,0-16.817-.454-23.275-13.235,0,0,24.94,6.391,36.056,4.255,0,0,19.458-.151,29.346-16.279,0,0,24.435-30.826,30.624-47.458s3.6,1.295,16.313-32.306c0,0,10.444-27.076,23.174-31.33,0,0,12.192-7.433,19.289-12.277Z" transform="translate(74.301 79.475)" fill="#636464"/>
    <path id="Path_364" data-name="Path 364" d="M206.15,307.2s1.379-4.44,10.443-12.125a5.6,5.6,0,0,1,4.557-1.261,53.023,53.023,0,0,1,17.221,6.172,3.986,3.986,0,0,1,1.11,6.071,18.264,18.264,0,0,1-7.854,4.44,4.51,4.51,0,0,1-1.5.252H209.4a3.263,3.263,0,0,1-3.246-3.246Z" transform="translate(140.537 200.245)" fill="#40403f"/>
    <path id="Path_365" data-name="Path 365" d="M186.32,302.983s1.362-4.457,10.427-12.142a5.7,5.7,0,0,1,4.574-1.261,53.7,53.7,0,0,1,17.221,6.172,3.986,3.986,0,0,1,1.093,6.071,18,18,0,0,1-7.837,4.44,4.69,4.69,0,0,1-1.513.252H189.549a3.229,3.229,0,0,1-3.229-3.246Z" transform="translate(127.018 197.363)" fill="#40403f"/>
    <path id="Path_366" data-name="Path 366" d="M462.159,467.371c2.96-5.92,6.155-11.772,8.846-17.826,3.481-7.82,4.742-16.7,6.576-25.024l2.253-10.292c0-.437.2-1.177.252-1.682l1.446-15.438a82.8,82.8,0,0,0-.235-17.439c-.824-7.03-2.1-14.379-5.314-20.736l-2.876-7.332a15.5,15.5,0,0,0-3.986-5.718l-8.14-9.418a43.723,43.723,0,0,0-11.923-9.989,49.918,49.918,0,0,0-7.719-3.229,8.913,8.913,0,0,0-3.2-.673c-4.053,0-8.106,0-12.159.151a57.465,57.465,0,0,0-8.257,1.194c-9.72,1.682-19.087,4.793-28.505,7.652a11.567,11.567,0,0,1-2.876.69,29.313,29.313,0,0,0-7.7,2.052c-3.5,1.211-7,2.4-10.544,3.515-6.071,1.917-12.108,3.9-18.163,5.886-4.827,1.581-12.764,4.036-17.624,5.482a92.8,92.8,0,0,1-17.137,4.087l-20.3,3.363a17.17,17.17,0,0,1-4.81.185l-12.512-.774c-2.724-.168-5.55-.151-8.274-.454a13.456,13.456,0,0,1-2.657-.572l-17.086-5.112a30.528,30.528,0,0,0-3.6-1.093c-.858-.135-1.144.538-1.413,1.312a24.972,24.972,0,0,0-1.093,6.727,109.422,109.422,0,0,0-.185,11.015c.118,4.053.42,8.089.79,12.108a47.2,47.2,0,0,1,.2,7.063,85.772,85.772,0,0,1-3.548,17.288,44.112,44.112,0,0,0-1.867,11.553c0,3.279.454,6.525.673,9.8s0,6.206.3,9.3.942,6.374,1.295,9.586c.235,2.136.841,5.045-1.026,6.592-1.362,1.16-3.6,1.4-4.742,2.825a2.153,2.153,0,0,0-.1,2.3,17.134,17.134,0,0,1,1.379,5.045,27.48,27.48,0,0,1-.622,8.291c-1.059-.992-2.1-2.069-3.246-2.977a14.245,14.245,0,0,0-7.685-2.926l-5.987-.521c-1.5-.134-6.1.236-4.927-2.506.673-1.564,1.816-3.061,2.64-4.557a70.351,70.351,0,0,0,3.633-7.736c1.429-3.565,2.893-7.1,3.986-10.763,2.539-8.409,2.422-17.12,2.64-25.831a14.262,14.262,0,0,0-.942-5.869,24.553,24.553,0,0,0-3.363-5.3,5.264,5.264,0,0,1-.874-1.766,38.671,38.671,0,0,1-.925-5.163,66.073,66.073,0,0,1-.622-8.156q-.168-16.313-.168-32.676v-2.741c-.151-2.64-2.371-2.943-4.49-2.909-.32,0-.925-.118-1.144.135s-.135,1.177-.151,1.48c0,2.27,0,4.524.135,6.727.135,6.508-.235,13,0,19.508.185,5.533.572,11.772-1.951,16.817a14.6,14.6,0,0,0-1.4,4.238c-.42,2.758-.639,5.516-.841,8.291-.488,6.525-.673,13.05-1.194,19.558-.269,3.464-.74,6.962-.841,10.427,0,2.64.555,5.3.37,7.921s-2.371,4.608-4,6.458-3.733,3.784-4.2,6.222a11.771,11.771,0,0,0,.151,4.12c0,.42.689,2.069.454,2.455,0-.118-9.5-4.49-10.494-4.843a26.615,26.615,0,0,0-4.372-1.295,11.179,11.179,0,0,0-1.816-.235c-.168,0-1.312.135-1.4,0a15.135,15.135,0,0,1,1.547-2.472q2.153-3.364,4.053-6.845a68.245,68.245,0,0,0,7.383-18.5,130.943,130.943,0,0,0,2.1-24.5c0-.437-.1-1.6-.118-2.035a5.211,5.211,0,0,0-.151-1.53c-.185-.387-.538-.5-.891-.807a13.639,13.639,0,0,1-3.162-5.045,34.306,34.306,0,0,1-2.169-8.072,46.987,46.987,0,0,1,0-9.6,37.525,37.525,0,0,0-.1-5.667,114.7,114.7,0,0,1-.084-12.26c0-2.4-.454-4.759-.353-7.164,0-1.766.32-3.582-1.917-3.767a39.543,39.543,0,0,1-8.409-1.144,31.263,31.263,0,0,1-16.245-12.781,114.227,114.227,0,0,1-6.155-9.821,42.042,42.042,0,0,1-3.784-10.931,190.74,190.74,0,0,1-5.2-39.268c-.2-7.5-.975-9.754-1.076-17.507,0-.975-1.127-6.878-1.11-7.837.084-1.883-3.633-7.517-3.582-9.4,0-2.354,5.953-3.061,9.014-4.524,3.363-1.682,4.911-5.684,7.551-8.409,5.55-5.6,11.52-10.813,16.817-16.632l.336-.353a23.19,23.19,0,0,0,3.532-5.281,97.75,97.75,0,0,1,8.812-14.379c6.155-8.526-4.658-9.5,3.733-15.875,3.363-2.489,17.019-3.666,21.139-3.061,7.568,1.076,13.538,3.01,16.128,3.061a33.484,33.484,0,0,0,11.318-2.993,54.774,54.774,0,0,1,36.762-1.53l.286.1c10.41,3.363,17.843.908,28.724,2.254,8.409,1.059,17.069,1.11,25.613,1.413,5.045.168,10.208.135,15.3,0l15.556-.555c11.621-.4,23.258-.723,34.862-1.211,10.393-.454,20.769-1.211,31.145-1.816,4.221-.252,8.409-.572,12.7-.774q9.031-.42,18.062-1.312l10.427-1.026a25.055,25.055,0,0,1,7.265,0c10.561,2,18.785,10.864,23.443,20.08a46.857,46.857,0,0,1,2.994,7.534c.79,2.674,1.076,5.382,1.682,8.106a4.284,4.284,0,0,0,.252,1.093,82.734,82.734,0,0,1,2.59,17.339c0,.3,0,.589,0,.891.32,7.4,1.245,14.665.572,22.081-.168,1.917-.4,3.834-.622,5.751l-2.27,20.567a67.95,67.95,0,0,1-2.4,12.478l-3.2,13.756c-.79,4.759-2.573,9.367-2.842,14.211-.235,4.12-.37,8.24-.353,12.378a66.41,66.41,0,0,0,1.228,14.715c2.573,11.1,11.049,19.76,13.117,30.977a17.642,17.642,0,0,1-1.513,11.167c-2.035,4.288-4.389,8.409-6.021,12.848-2.287,6.323-4.187,12.747-6.727,19-1.934,4.877-4.053,9.687-5.768,14.648-1.514,4.423-2,9-3.246,13.454a35.213,35.213,0,0,0-1.867,8.409c0,2.539.942,4.961,1.076,7.484a8.038,8.038,0,0,1-2.96,5.953c-1.278,1.177-2.624,2.1-2.96,3.918a19.188,19.188,0,0,0,.488,8.173c.1.42,1.312,3.078,1.009,3.448s-5.331-2.859-6-3.279c-1.682-1.026-3.363-2.119-5.045-3.077a22.553,22.553,0,0,0-11.116-2.1Z" transform="translate(97.854 112.554)" fill="#fff"/>
    <path id="Path_367" data-name="Path 367" d="M200.976,247.8s2.993,25.327,12.529,43.086l-.5-.185h-2.825l-.42.1-.1.387a6.293,6.293,0,0,0,0,1.379v2.1l.151,12.647v18.415a36.579,36.579,0,0,1-.69,6.155,15.677,15.677,0,0,1-1.244,3.363c-.269.605-.521.723-.807,1.4a12.7,12.7,0,0,0-.673,3.145s-1.48,13.454-1.463,19.474c0,0-.185,7.046-1.076,14.244a34.056,34.056,0,0,0-.084,9.6,9.89,9.89,0,0,1,0,3.868,19.526,19.526,0,0,1-4.019,5.533s-1.076,1.194-2.119,2.472a7.8,7.8,0,0,0-1.514,2.422l-.437,1.867a4.491,4.491,0,0,0,0,1.951l.723,3.851s-12.092-6.9-18.045-6.306c0,0,8.9-14.564,10.713-20.181a59.788,59.788,0,0,0,2.136-6.576c.353-1.766.589-3.5.925-5.55a47.076,47.076,0,0,0,.74-5.045c.185-6.122.639-9.653.488-12.562l-.185-5.684a34.754,34.754,0,0,1-3.363-4.305,13.452,13.452,0,0,1-.992-2.371,11.332,11.332,0,0,1-.774-2.27s-.2-.673-.471-1.682-.5-2.539-.723-3.952a13.453,13.453,0,0,1-.269-3.162v-2.27c0-1.261.336-2.758.32-4.187v-1.682c0-1.682-.252-3.027-.269-4.961,0-.471-.084-1.564-.084-2.035,0-3.01.168-5.886.118-8.19v-2.27a16.411,16.411,0,0,0-.32-2.926,17.348,17.348,0,0,1,0-1.867c0-.37,0-.79,0-1.177v-.757a4.86,4.86,0,0,0-.084-1.11c-.168-.488-.185-.723-.69-1.026s-.42-.286-1.379-.3h-2.3a31.6,31.6,0,0,1-6.828-1.345,22.234,22.234,0,0,1-5.23-2.472,34.915,34.915,0,0,1-5.247-4.339,13.229,13.229,0,0,1-2.573-2.64s-1.4-1.816-3.834-5.314a45.981,45.981,0,0,1-2.775-4.541c-1.6-2.943-4.961-8.409-4.86-10.763.538-11.974,4.221,1.245,19.407,1.245,0,0,17.322,1.564,24.267-5.482Z" transform="translate(102.625 168.93)" fill="#40403f" opacity="0.1"/>
    <path id="Path_368" data-name="Path 368" d="M204.012,306.375a57.986,57.986,0,0,1,10.645-16.817l.168-.219a17.086,17.086,0,0,0,.437-19.155,25.091,25.091,0,0,1-3.75-8.409.74.74,0,0,1,1.362-.488c2.455,4.373,8,12.966,15.135,15.808a55.973,55.973,0,0,1,5.735,2.741c6.929,3.666,21.274,10.578,29.3,9.788,1.9-.185,3.784-.353,5.684-.353,8.291,0,28.253-.32,35.467-4.49,0,0,26.908-6.424,31.431-15.674,0,0,13.05-13.1,15.421-27.631,0,0,5.331-16.01,15.421-17.187,0,0,11.856-4.154,31.717,21.644,0,0,14.85,15.657,22.35,33.634a197.655,197.655,0,0,1,10.595,27.917.723.723,0,0,1-1.295.605c-1.228-1.682-2.993-4.12-5.3-7.046-1.295-1.682-2.977-3.818-4.356-5.415-2.085-2.422-4.675-5.281-6.626-7.231-2.691-2.724-1.884-2.186-4.608-3.229-.639-.236-2.624-.824-3.279-1.026a42.794,42.794,0,0,0-5.045-1.16c-1.816-.319-6.323-.774-8.829-.874-2.859-.134-2.371.286-6.727.286a21.276,21.276,0,0,0-3.178.538,68.947,68.947,0,0,0-8.409,1.48,97.534,97.534,0,0,0-12.663,3.229c-2.489.807-5.331,1.682-8.257,2.506a77.042,77.042,0,0,1-8.308,2.153,52.25,52.25,0,0,0-8.829,2.674c-6.206,1.984-10.09,3.464-15.489,5.045,0,0-12.647,4.372-26.42,8.409-9.384,2.741-19.239,5.449-26.151,5.936a23.724,23.724,0,0,0-4.238.706,43.906,43.906,0,0,1-6.491,1.026c-1.682.134-3.75.774-5.634.757-2.186,0-4.574-.286-6.9-.437-5.432-.353-11.436-.807-17.187-1.06a17.98,17.98,0,0,1-4.272-1.429c-1.446-.521-2.523-.605-3.868-1.043,0,0-2.22-.589-4.1-1.244s-4.406-1.4-6.727-2.018c-1.11-.3-2.22-.639-2.977-.891a3.359,3.359,0,0,0-.538-.185c-.084,0-.4,0-.488-.135A2.489,2.489,0,0,1,204.012,306.375Z" transform="translate(138.907 152.735)" fill="#40403f" opacity="0.1"/>
    <path id="Path_369" data-name="Path 369" d="M191.16,366.458s7.82-6.273,10.326-13.454V314.8s0-5.953,7.215-10.326c0,0-.942,5.634-1.581,8.14l.135,26.773.858,6.172s.555,4.12.589,6.811c0,0,.605,2.472-.959,3.565-2.691,1.9-3.767,1.816-3.918,2.186h-.135a1.9,1.9,0,0,0-.437.336,1.682,1.682,0,0,0-.79,1.261c-.1.925,1.043,2.4,1.5,5.045l.235,2.052v2.573l-.235,2.506-.437,2.472-7.719-7.013Z" transform="translate(130.318 207.564)" fill="#40403f" opacity="0.1"/>
    <path id="Path_370" data-name="Path 370" d="M336.4,407.731a117.209,117.209,0,0,1,13.74-9.468,4.423,4.423,0,0,0,2.27-3.481c.589-6.643,2.338-24.822,4.288-31.381,0,0,2.808-17.86,7.467-27.917a11.77,11.77,0,0,0,1.127-4.961c0-.3,0-.622,0-.942a17.019,17.019,0,0,0-3.969-11.1,7.383,7.383,0,0,1-1.766-5.129v-2.321a27.427,27.427,0,0,1,1.16-8.173,47.342,47.342,0,0,0,2.169-21.375,74.513,74.513,0,0,0-1.48-8.274s-4.608-11.486-1.312-20.82c0,0,3.851,6.592,6.845,5.4,0,0,0,4.776.084,9.72a51.772,51.772,0,0,0,.942,8.61,40.363,40.363,0,0,0,3.027,9.4c.387.858.841,1.682,1.295,2.489,1.9,3.363,7.2,12.764,8.156,16.43a19,19,0,0,1-2.4,17.927s-.757,1.783-2.556,5.617c-.622,1.345-1.564,3.7-2.136,5.331-1.127,3.162-1.228,4.07-2.119,6.559-.538,1.547-1.379,3.75-1.833,5.23s-1.547,3.448-1.917,4.86c0,0-1.766,4.776-3.817,10.09a77.477,77.477,0,0,0-4.877,15.926,82.258,82.258,0,0,1-2.2,8.846c-.74,2.27,0,6.559.605,8.846a6.206,6.206,0,0,1-.942,4.927s-.387.572-1.244,1.682c-.4.521-1.345,1.11-2.993,3.01a6.02,6.02,0,0,0-.79,3.363,18.119,18.119,0,0,0,.118,3.2,18.515,18.515,0,0,0,.353,2.119l.858,2.892a32.46,32.46,0,0,0-3.834-3.549,10.934,10.934,0,0,0-2.758-2,34.339,34.339,0,0,0-3.733-1.093,15,15,0,0,0-3.078-.336,23.942,23.942,0,0,0-2.741-.151Z" transform="translate(229.331 172.06)" fill="#40403f" opacity="0.1"/>
    <path id="Path_371" data-name="Path 371" d="M150.1,258.589s9.889-32.222,27.093-47.223A53.916,53.916,0,0,0,191.3,180.49s-6.979,20.668-23.544,32.07c0,0-20.954,16.363-24.065,15.135C143.69,227.645,149.357,245.051,150.1,258.589Z" transform="translate(97.956 123.044)" fill="#40403f" opacity="0.1"/>
    <path id="Path_372" data-name="Path 372" d="M361.49,278.947s-6.727,30.591-17.2,45.406c0,0-22.131,25.6-18.667,33.416,0,0-1.682,17.355,2.607,22.115,0,0-12.125,8.56-10.83,18.163,0,0-12.226-7.046-18.045-6.306,0,0,11.52-6.206,10.225-28.337,0,0,0-24.116,2.169-34.391,0,0,2.169-14.631,1.295-24.6,0,0-.589-29.514-1.816-44.683,0,0,28.69-4.574,37.25,4.541C348.473,264.2,350.491,267.461,361.49,278.947Z" transform="translate(204.073 176.278)" fill="#cccccb"/>
    <path id="Path_373" data-name="Path 373" d="M161.16,349.681s1.362-5.516,10.359-12.731a61.8,61.8,0,0,1,17.994,7.6s2.2,2.909-2.758,5.92a15.556,15.556,0,0,1-8.055,2.153H163.767a2.607,2.607,0,0,1-2.607-2.607Z" transform="translate(109.866 229.706)" fill="#40403f"/>
    <path id="Path_374" data-name="Path 374" d="M186.748,354.718v.219a1.682,1.682,0,0,0,1.413,1.682,38.09,38.09,0,0,0,17.221-1.362l4.709-3.263s2.792-2.422-2.859-6.374a14.125,14.125,0,0,1-1.682-1.413c-.992-.942-2.993-2.977-9.687-3.077l-6.643.269a3.548,3.548,0,0,0-2.3.959c-2.186,1.984-6.206,6.727-6.054,9.451V353a.807.807,0,0,0,1.093.757l2.338-.841C186.31,352.011,186.748,353.39,186.748,354.718Z" transform="translate(123.294 232.556)" fill="#40403f"/>
    <path id="Path_375" data-name="Path 375" d="M293.53,348.539s1.144-3.717,8.695-10.09a4.709,4.709,0,0,1,3.8-1.043,44.33,44.33,0,0,1,14.362,5.146,3.364,3.364,0,0,1,.908,5.045,15.136,15.136,0,0,1-6.542,3.716,3.869,3.869,0,0,1-1.244.2H296.238a2.707,2.707,0,0,1-2.708-2.708Z" transform="translate(200.106 229.973)" fill="#40403f"/>
    <path id="Path_376" data-name="Path 376" d="M334.511,357.562h0a1.968,1.968,0,0,0,1.682,1.951,38.022,38.022,0,0,0,16.969-1.4l4.709-3.263s1.5-3.5-4.12-7.181a14.545,14.545,0,0,0-4.188-1.682,37.338,37.338,0,0,0-10.982-1.682h-.151a4.944,4.944,0,0,0-3.363,1.345c-2.338,2.186-6.609,6.525-6.475,9.014h0a1.682,1.682,0,0,0,2.2,1.547l1.228-.437a1.884,1.884,0,0,1,2.489,1.783Z" transform="translate(224.006 234.723)" fill="#40403f"/>
    <path id="Path_377" data-name="Path 377" d="M312.432,243.172c0,9.418-11.873,1.9-18.028,8.072s-10.813,10.544-20.181,10.544-13.773,11.654-19.928,5.482-2.052-7.5-2.052-16.9c0-9,9.25-10.09,14.951-16.262,6.222-6.643,1.362-25.007,11.183-25.007,8.577,0,7.433,19.777,13.454,25.007C298.928,240.346,312.432,232.93,312.432,243.172Z" transform="translate(171.046 142.548)" fill="#1e2833"/>
    <path id="Path_378" data-name="Path 378" d="M364.573,205.543s8.762,22.014,9.922,67.017c0,0,1.682,30.473,3.649,48.165a28.676,28.676,0,0,1,10.612-1.682,74.415,74.415,0,0,1-7.332-26.823s-2.052-42.329-3.145-50.014a201.259,201.259,0,0,0-2.657-34.425,55.648,55.648,0,0,0-15.505-29.312L354.5,173.59S356.316,174.279,364.573,205.543Z" transform="translate(241.67 118.34)" fill="#f0efef"/>
    <path id="Path_379" data-name="Path 379" d="M368.56,262.078a210.562,210.562,0,0,0,8.039,20.769,69.2,69.2,0,0,0,9.182,14.849c5.768,7.147,15.32,19.592,15.32,23.544a223.482,223.482,0,0,0-3.616-27.345,43.591,43.591,0,0,0-5.9-14.177L379.172,260.3S378.684,257.908,368.56,262.078Z" transform="translate(251.255 176.985)" fill="#1e2833"/>
    <path id="Path_380" data-name="Path 380" d="M380.769,215.774c-2.321,9.266-5.331,14.295-11.637,20.315-10.511,10.09-20.584,2.422-35.047-1.211-11.57-2.893-25.444,1.682-30.994-8.274s-24.839-22.888-21.745-35.316,13.605-15.22,33-16.077c8.812-.387,21.778-4,33.365-1.11,13.958,3.5,43.977,7.484,49.964,15.842C401.622,195.476,383.224,205.97,380.769,215.774Z" transform="translate(191.571 117.93)" fill="#1e2833"/>
    <path id="Path_381" data-name="Path 381" d="M248.076,174.218c20.181,2.455,14.984,8.594,24.94,24.4,7.433,11.772,4.81,27.967,3.01,42.85-2.4,19.861,14.345,39.874-1.682,49.628-11.974,7.315-10.259-15.22-25.36-17.053-11.772-1.429-19.844,3.178-28.589-3.481-7.7-5.8-32.81,3.683-37.2-4.81-5.6-10.847,14.059-16.817,15.64-29.7.959-7.921-18.818-21.963-15.27-28.589,4.255-7.938,40.462,15.135,47.509,9.737C243.99,207.18,230.452,172.082,248.076,174.218Z" transform="translate(124.206 118.704)" fill="#1e2833"/>
    <path id="Path_382" data-name="Path 382" d="M168.389,264.753c-12.108,3.834-11.94-.69-15.438-11.772-1.682-5.045-5.566-15.22-3.212-19.861,2.724-5.348-.5-6.256,5.987-8.325,5.466-1.682,9.081,10.41,13.874,12.192,5.836,2.169,12.5-5.264,14.412.774,2.2,6.946-8.123,10.965-12.9,16.414C168.305,257.454,172.88,263.323,168.389,264.753Z" transform="translate(101.577 153.138)" fill="#1e2833"/>
    <path id="Path_383" data-name="Path 383" d="M363.2,263.78s-21.324-13.117-15.556-32.979c0,0,2.119-5.314,6.609-2.27a3.8,3.8,0,0,0,5.667-4.389.945.945,0,0,1,0-.2s4.12-14.244,11.772-12.714C371.69,211.227,368.276,252.731,363.2,263.78Z" transform="translate(236.32 143.919)" fill="#1e2833"/>
    <rect id="Rectangle_35" data-name="Rectangle 35" width="41.135" height="242.067" rx="9.1" transform="translate(0 376.42)" fill="#2a3147"/>
    <rect id="Rectangle_36" data-name="Rectangle 36" width="41.135" height="242.067" rx="9.1" transform="translate(683.048 389.453)" fill="#2a3147"/>
    <rect id="Rectangle_37" data-name="Rectangle 37" width="667.004" height="17.54" transform="translate(41.135 419.169)" fill="#2a3147"/>
    <rect id="Rectangle_38" data-name="Rectangle 38" width="665.743" height="17.641" transform="translate(41.135 476.331)" fill="#2a3147"/>
    <path id="Path_384" data-name="Path 384" d="M139.862,170.7c-1.026,1.766-4.019,5.634-6.727,5.667-1.4,0-2.169-1.06-3.767-1.53s-3.178-3.246-4.81-4.171c-4.339-2.523-7-4.726-8.039-7.5a9,9,0,0,1-.589-4.305c.185-.841,2.556-2.119,3.363-2.64,3.363-2.069,7.786-1.682,12.832,1.312C138.517,161.186,141.947,167.089,139.862,170.7Z" transform="translate(78.997 105.619)" fill="#fff"/>
    <path id="Path_385" data-name="Path 385" d="M131.681,161.041c-8.24-6.962-15.135-2.354-15.64-1.682a14.228,14.228,0,0,1,1.345.471c-1.783,5.045,6.727,6.727,8.51,7.013a.336.336,0,0,1,.286.37,3.733,3.733,0,0,0,4.221,4.2.336.336,0,0,1,.336.4,4,4,0,0,0,2.506,5.045c1.009.942,6.374-1.8,8.24-2.792a.336.336,0,0,1,.488.37.319.319,0,0,1-.118.2c-2.119,1.682-5.7,4.154-9.7,3.9-3.363-.219-12.546-9.586-15.522-13.353a4.372,4.372,0,0,1-.959-2.876c.1-4.187,1.362-5.045,1.362-5.045,6.508-6.626,19.256-.605,20-.235h0a64.392,64.392,0,0,0,5.365,3.935,2.455,2.455,0,0,0,1.682.32l2.859-.471a1.682,1.682,0,0,0,.639-.235l4.372-2.876a.336.336,0,0,1,.5.387l-.135.454a.32.32,0,0,1-.168.219c-2.22,1.093-5.583,12.882-9.249,12.411a9.653,9.653,0,0,1-4.137-2.489c-.252-.219.891-.992,2.085-1.026a28.352,28.352,0,0,1-3.616-.387l-.841-.841c-.336-.37.639-1.682,2.674-1.5a26.352,26.352,0,0,1-4.288-.605c-.353-.4-1.076-1.4-1.4-1.766s-.1-.908,2.825-.875" transform="translate(78.854 105.108)" fill="#1e2833"/>
    <path id="Path_386" data-name="Path 386" d="M214.43,199.5c1.4,20.181-15.136,45.76-46.819,56.186a105.542,105.542,0,0,1-15.135,2.573c-1.833.2,5.953-4.742,6.576-9.535a16.481,16.481,0,0,0-2.455-12.041c-2.4-3.683-10.376-3.2-13.454-3.162-6.458,0-10.713,2.439-14.9-.454-2.455-1.682-5.045-4.642-8.627-1.8-.975.807,2.758-7.231,4.877-12.68a18.5,18.5,0,0,0,1.547-4.86c.639-3.094,1.682-5.869.757-9.2-.589-2.253-2.069-7.971-1.682-10.09.706-5.045,1.009-9.434,1.547-11.251,2.052-6.861,5.432-9.552,8.51-14.345a41.638,41.638,0,0,1,7.7-8.644A40.866,40.866,0,0,1,168.99,149.57a57.683,57.683,0,0,1,17.978,2.909c4.524,1.867,5.264,4.557,9.771,7.4C203.852,164.436,213.909,192.067,214.43,199.5Z" transform="translate(81.435 101.965)" fill="#1e2833"/>
    <path id="Path_387" data-name="Path 387" d="M143.673,158.17a69.118,69.118,0,0,0-13.1,14.126c-1.884,2.741-1.295,2.842,0,5.785a38.445,38.445,0,0,1,2.506,10.544,74.6,74.6,0,0,1-1.228,25.041c-1.244,5.482-3.666,14.362-10.09,15.993,2.438-.387,4.423,1.261,6.256,2.64l-1.345-1.009a10.191,10.191,0,0,0,8.879,2.237l-1.295.3c8.863-1.076,18.7-2.422,25.495,2.741-3.868-2.926-1.278-15.741-.858-19.962,1.026-10.259,3.229-24.217,12.613-30.372a32.827,32.827,0,0,1,25.848-4.524c5.213,1.11,7.45,3.481,11.772,7.147a9.234,9.234,0,0,0,1.244.959,155.264,155.264,0,0,0-6.424-16.447c-1.682-3.464-2.438-6.727-6.239-11.15-2.539-2.926-1.429-1.514-6.407-5.466a32.757,32.757,0,0,0-4.86-3.649C173.54,146.23,154.806,149.358,143.673,158.17Z" transform="translate(83.006 101.824)" fill="#fff"/>
    <path id="Path_388" data-name="Path 388" d="M120.929,198.036a9.418,9.418,0,0,0-2.472,4.692,28.59,28.59,0,0,0,.673,16.161c3.162,7.988,13.79,10.847,22.35,10.662,10.746-.235,21.24-6.626,23.544-16.7.891-3.868-.168-9.956-4.221-12.226-2.27-1.278-5.92-1.261-8.409-1.329a75.808,75.808,0,0,0-12.041.757c-5.432.689-5.5.858-12.176-3.229a5.315,5.315,0,0,0-3.363-.774,6.441,6.441,0,0,0-3.885,1.984Z" transform="translate(80.171 133.633)" fill="#1e2833"/>
    <path id="Path_389" data-name="Path 389" d="M140.751,203.706a5.8,5.8,0,0,1-1.48,5.651c-2.069,2.573-5.953,1.11-7-.841s1.211-1.53,4.036-3.027S140.549,201.6,140.751,203.706Z" transform="translate(89.998 138.306)" fill="#efefef"/>
    <path id="Path_390" data-name="Path 390" d="M122.728,203.385a5.617,5.617,0,0,0,1.682,5.4,4.423,4.423,0,0,0,6.878-.605c.959-1.833-1.244-1.48-4.07-2.977S122.879,201.384,122.728,203.385Z" transform="translate(83.569 138.122)" fill="#efefef"/>
    <path id="Path_391" data-name="Path 391" d="M150.962,154.2s-2.169-1.009-6.727,4.255a18.5,18.5,0,0,0-4.255,8.51C143.68,160.895,145.58,159.314,150.962,154.2Z" transform="translate(95.427 105.07)" fill="#1f2833"/>
    <path id="Path_392" data-name="Path 392" d="M145.27,164.638a10.46,10.46,0,0,0,2.338-3.6,33.625,33.625,0,0,0,1.833-4.389,24.2,24.2,0,0,0-4.171,7.988Z" transform="translate(99.034 106.792)" fill="#1e2833"/>
    <path id="Path_393" data-name="Path 393" d="M162.282,150.938a14.3,14.3,0,0,1-2.876-.908,16.565,16.565,0,0,0-7.063-1.8,11.5,11.5,0,0,0-8.257,4.288c2.523-.639,4.423-1.16,6.155-1.547-9.081,5.281-15.791,22.1-15.791,22.1,11.335-16.229,17.91-18.5,20.483-18.684a20.4,20.4,0,0,0,4.625-1.682,14.094,14.094,0,0,1,3.229-1.4C163.308,151.207,162.8,151.038,162.282,150.938Z" transform="translate(91.657 101.052)" fill="#1e2833"/>
    <path id="Path_394" data-name="Path 394" d="M156.227,161.827c.387,3.178,0,5.365,1.026,8.543,0,0,.168-7.2.656-10.191.219-1.312.353-2.338.4-3.145l1.429,2.523a12.7,12.7,0,0,0-1.682-5.92,8.711,8.711,0,0,0-3.565-3.363c-2.64-2.018-2.237.2-2.237.2l.269,1.9a3.9,3.9,0,0,0,.875,1.8c1.211,1.463,2.153,7.786-5.751,17.523A40.512,40.512,0,0,0,156.227,161.827Z" transform="translate(100.656 101.867)" fill="#1e2833"/>
    <path id="Path_395" data-name="Path 395" d="M188.9,156.237c.42.589,2.909,1.413,3.027,2.153a9.536,9.536,0,0,1,.269,2.96c-.673,3.363-6.407,7.282-10.628,10.376-1.244.908-2.422,4.389-3.7,5.045-2.338,1.144-5.55-.2-7.568-.353a6.407,6.407,0,0,1-4.944-2.539c-2.523-3.448.622-10.09,7-14.681S186.341,152.789,188.9,156.237Z" transform="translate(112.131 105.288)" fill="#fff"/>
    <path id="Path_396" data-name="Path 396" d="M180,160.951c8.224-6.962,15.135-2.354,15.64-1.682a12.747,12.747,0,0,0-1.345.471c1.766,5.045-6.727,6.727-8.526,7.013a.336.336,0,0,0-.286.353,3.733,3.733,0,0,1-4.221,4.221.336.336,0,0,0-.336.4,4,4,0,0,1-2.489,5.045c-1.026.942-6.391-1.8-8.257-2.792a.336.336,0,0,0-.488.37.4.4,0,0,0,.118.2c2.119,1.682,5.7,4.154,9.7,3.9,3.464-.219,12.546-9.586,15.522-13.353a4.372,4.372,0,0,0,.959-2.876c-.1-4.187-1.362-5.045-1.362-5.045-6.508-6.626-19.256-.605-20-.235h0c-.336.269-3.6,2.876-5.365,3.935a2.455,2.455,0,0,1-1.682.32l-2.859-.471a1.682,1.682,0,0,1-.639-.252l-4.372-2.859a.336.336,0,0,0-.5.387l.135.454a.32.32,0,0,0,.168.219c2.22,1.093,5.583,12.882,9.249,12.411a9.687,9.687,0,0,0,4.154-2.489c.252-.219-.908-.992-2.1-1.026a28.349,28.349,0,0,0,3.616-.387l.841-.841c.336-.37-.639-1.682-2.674-1.5a26.353,26.353,0,0,0,4.288-.605c.353-.4,1.076-1.4,1.4-1.682s.118-.908-2.825-.875" transform="translate(108.53 105.046)" fill="#1e2833"/>
    <circle id="Ellipse_7" data-name="Ellipse 7" cx="1.682" cy="1.682" r="1.682" transform="translate(259.59 300.608)" fill="#fff"/>
    <path id="Path_397" data-name="Path 397" d="M156.158,184.525c-.2-.1-2.724-2.069-2.859-2.253l-1.06-1.682a16.5,16.5,0,0,0,5.163,3.363,15.221,15.221,0,0,0,4.272-.5A5.735,5.735,0,0,1,156.158,184.525Z" transform="translate(103.785 123.112)" fill="#fff"/>
    <path id="Path_398" data-name="Path 398" d="M158.319,176.537a35.156,35.156,0,0,1,4,.824l2.775,1.4a21.358,21.358,0,0,0-7.652-.471,15.388,15.388,0,0,0-3.885,1.867C154.939,178.05,157.092,176.335,158.319,176.537Z" transform="translate(104.685 120.338)" fill="#fff"/>
  </g>
</svg>
