<svg xmlns="http://www.w3.org/2000/svg" width="364.627" height="621.725" viewBox="0 0 364.627 621.725">
  <defs>
    <style>
      .cls-1, .cls-3 {
        fill: #40403f;
      }

      .cls-1 {
        opacity: 0.1;
      }

      .cls-2 {
        fill: #fff;
      }

      .cls-4 {
        fill: #dd534a;
      }
    </style>
  </defs>
  <g id="bleeding_leg" transform="translate(0.013)">
    <g id="blood" transform="translate(-0.013)">
      <path id="Path_184" data-name="Path 184" class="cls-1" d="M149.638,1.535a17.38,17.38,0,0,0-2.624-.853C146.648.59,145.074.813,144.68,0" transform="translate(45.124)"/>
      <path id="Path_185" data-name="Path 185" class="cls-2" d="M151.44,4.67a20.988,20.988,0,0,1,20.765,24.346c-1.312,8.264-2.269,16.371-2.624,21.29a517.44,517.44,0,0,0-.866,52.8q.748,27.35,3.476,54.583a237.824,237.824,0,0,1,1.312,36.8c-1.574,28.033-9.746,55.527-16.961,82.5-4.88,18.234-8.894,36.192-8.92,55.173,0,15.663,2.178,31.207,3.214,46.817.971,14.849-.236,29.672,1.417,44.469,1.705,15.3,4.512,30.433,6.231,45.728,1.141,10.245,4.014,23.9-4.88,31.482-6.559,5.575-17.263,6.677-22.667,13.5-2.755,3.476-2.046,7.228-.459,11.058a81.8,81.8,0,0,1,6.559,23.717c1.312,13.249-.21,26.668-2.965,39.642-5.077-4.788-10-9.93-15.466-14.259-10.7-8.461-23.271-12.737-36.73-13.931-9.51-.853-19.021-1.666-28.531-2.505-7.162-.63-29.213,1.115-23.612-11.963,3.24-7.5,8.7-14.639,12.645-21.828a334.253,334.253,0,0,0,17.342-36.913c6.808-16.974,13.787-33.87,19.047-51.4,12.095-40.35,11.57-81.736,12.593-123.306.236-9.642-.813-18.981-4.473-27.993-3.935-9.628-10.652-17.512-16.7-25.816a24.228,24.228,0,0,1-3.817-7.792c-2.23-8.094-3.279-16.8-4.447-25.029a309.666,309.666,0,0,1-2.938-39.117C58.423,148.086,44.2,66.979,36.319,27.4A18.994,18.994,0,0,1,54.933,4.67Z" transform="translate(9.006 1.456)"/>
      <path id="Path_186" data-name="Path 186" class="cls-1" d="M63,489.057s37.372-29.974,49.336-64.355V242.366s5.864-28.4,40.245-49.336c0,0-7.149,26.629-10.14,38.592l-3.935,20.988-1.64,17.578,1.063,22.3,2.624,34.762L141,356.5l3.1,32.729s4.932,20.713,5.077,33.542c0,0,2.033,15.033-6.165,19.191-13.839,6.992-18.889,10.048-19.086,10.166a12.4,12.4,0,0,0-5.063,6.06,9.8,9.8,0,0,0,.2,5.982c1.22,4.014,3.857,9.458,5.247,17.25l2.151,8.815.472,12.475-1.167,14.246L122.03,527.23,85.143,493.714Z" transform="translate(19.658 60.181)"/>
      <path id="Path_187" data-name="Path 187" class="cls-3" d="M29.152,480.966v1.115a8.33,8.33,0,0,0,6.979,8.225,185.065,185.065,0,0,0,72.856-3.476,58.87,58.87,0,0,0,19.073-8.684l14.994-10.389s13.6-11.806-14-31.05C126.039,434.595,105.838,415.3,73.2,414.8l-32.335,1.312a17.879,17.879,0,0,0-11.307,4.7C18.92,430.463-.665,453.812,0,466.877v.84a7.451,7.451,0,0,0,9.983,7l6.742-2.453C27.079,467.756,29.152,474.538,29.152,480.966Z" transform="translate(0.013 129.322)"/>
      <path id="Path_188" data-name="Path 188" class="cls-4" d="M103.381,324.408c4.224.866,8.264-.262,12.318-1.312a8.828,8.828,0,0,1,7.871,1.312c2.624,1.863,4.106,5.247,4.84,10.31a106.056,106.056,0,0,1,.289,23.848,61.535,61.535,0,0,0,.512,15.335,13.183,13.183,0,0,1,.092,3.214c-.118,1.312-.564,2.3-1.312,2.2s-1.233-1.312-1.312-2.624c-.157-2.1-.223-4.224-.249-6.323,0-5.365,0-10.7-.1-16.069a39.352,39.352,0,0,0-1.587-11.294,4.776,4.776,0,0,0-.958-1.391,7.871,7.871,0,0,0-.63,2.243,34.238,34.238,0,0,0,.394,3.555c.2,1.771.42,3.568.512,5.352s-.367,2.86-1.023,2.925-1.469-.905-1.653-2.322-.144-3.2-.2-4.8a34.131,34.131,0,0,0-.171-4.185c-.21-1.666-1.049-2.807-1.718-2.728s-1.312,1.5-1.312,3.148a14.43,14.43,0,0,0,.459,3.345,54.255,54.255,0,0,1,1.705,17.289,28.641,28.641,0,0,1-.131,3.03c-.079.551-.354,1.312-.617,1.312a1.386,1.386,0,0,1-1.036-.853,11.111,11.111,0,0,1-.459-2.938c-.131-3.62,0-7.254-.315-10.875a14.219,14.219,0,0,0-3.293-8.986,3.7,3.7,0,0,0-.984-.721c-1.548-.735-1.8-.315-1.6,2.624.131,2.059.262,4.132.354,6.192,0,1.181,0,2.387-.813,2.479s-1.312-.787-1.535-2.112a20.058,20.058,0,0,1-.184-3.214c0-1.141.131-2.243.092-3.384a5,5,0,0,0-1.181-3.673c-.866-.7-1.64-.394-2.269.708a10.192,10.192,0,0,0-.918,5.247c.118,2.7.341,5.431.7,8.107a51.448,51.448,0,0,1,.446,13.367,28.78,28.78,0,0,0,.984,10.35,63.779,63.779,0,0,1,1.469,8,11.9,11.9,0,0,1-.525,4.46c-.669,2.138-2.178,1.771-2.847-.669a15.925,15.925,0,0,1-.564-4.709,30.5,30.5,0,0,0-.984-10.8,17.053,17.053,0,0,1-.066-7.28,65.692,65.692,0,0,0,.8-11.806c-.21-4.867-1.181-9.064-3.411-12.278a14.8,14.8,0,0,1-1.154-2.912c-.157-.407-.223-.958-.407-1.312s-.472-.669-.669-.617-.407.6-.394.958c.079,2.2.184,4.408.38,6.559s.564,4.2.735,6.3-.38,3.607-1.128,3.542-1.548-1.482-1.548-3.568c-.131-6.559-.315-13.013-.3-19.48a32.256,32.256,0,0,1,.826-7.018c.931-3.935,2.951-4.854,5.116-5.077Z" transform="translate(30.187 100.606)"/>
      <path id="Path_189" data-name="Path 189" class="cls-4" d="M135.1,439.681a34.75,34.75,0,0,0,9.812-.761c.275-.079.551-.157.826-.262,2.217-.879,2.453-1.312,2.256-3.686-.157-1.745-.171-3.516-.289-5.247a2.243,2.243,0,0,1,.774-1.863,20.24,20.24,0,0,1,8.382-4.67c4-1.22,9.182,2.4,13.367,2.1s7.582-4.827,11.924-5.155c12.868-.984,25.737-1.417,38.645-1.181,7.018.131,14.036.118,20.988.131,1.863,0,3.725-.131,5.575-.1a85.711,85.711,0,0,1,9,.38,19.676,19.676,0,0,1,7.661,1.81,10.257,10.257,0,0,1,1.968,1.312c2.191,1.994.879,6.9,3.712,7.149,4.237.38,12.475-3.5,16.725-3.227a64.453,64.453,0,0,1,12.186,1.312,15.742,15.742,0,0,1,3.056,1.1,2.965,2.965,0,0,1,1.312,4.631,25.541,25.541,0,0,1-3.424,3.306c-.787.708-1.666,1.312-2.427,2.033a3.463,3.463,0,0,0,.184,5.628,10.5,10.5,0,0,0,4.6,2.007c3.24.735,6.493,1.417,9.72,2.191a9.72,9.72,0,0,1,4.434,2.361,3.515,3.515,0,0,1,1.023,4.014,2.624,2.624,0,0,1-.958,1.128,15.742,15.742,0,0,1-6.415,2.1,59.659,59.659,0,0,1-10.822.459c-4.6-.079-9.182,0-13.826.17a11.085,11.085,0,0,0-4.185,1.194c-1.5.708-1.456,1.627.066,2.269s3.279,1.023,4.919,1.548c2.125.669,4.289,1.312,6.362,2.1a3.935,3.935,0,0,1,2.624,3.935A2.44,2.44,0,0,1,293.72,472c-1.22.682-2.479,1.312-3.752,1.9-2.1,1.01-4.263,1.9-6.323,2.991a28.228,28.228,0,0,1-9.327,2.414c-3.411.512-6.834.866-10.258,1.312-5.706.761-10.573-3.581-16.279-2.951-3.5.394-8.408,2.624-11.911,2.86-6.165.393-11.806,3.935-17.945,4.25-5.693.328-11.386.669-17.053.813-5.47.131-10.94.144-16.4,0q-10.166-.275-20.332-.905a36.061,36.061,0,0,1-11.609-2.374,1.115,1.115,0,0,1-.8-1.377,8.92,8.92,0,0,1,5.247-7.4c2.44-1.194,5-2.125,7.464-3.266a12.817,12.817,0,0,0,5.155-3.725,1.194,1.194,0,0,0,0-1.613,6.559,6.559,0,0,0-4.893-2.689,47.516,47.516,0,0,0-5.627-.393,32.519,32.519,0,0,1-8.2-.8c-.3-.079-.6-.184-.905-.289a.761.761,0,0,1-.551-1.089,6.742,6.742,0,0,0,.289-1.968,4.3,4.3,0,0,0-3.673-4.289,74.108,74.108,0,0,0-7.779-.971,36.727,36.727,0,0,1-11.347-2.138,9.3,9.3,0,0,1-5.05-4.211c-1.154-2.138-.538-4.342,1.745-5.09a37.359,37.359,0,0,1,6.559-1.377A38.046,38.046,0,0,1,135.1,439.681Z" transform="translate(37.833 130.598)"/>
      <path id="Path_190" data-name="Path 190" class="cls-4" d="M137.831,462.158a35.118,35.118,0,0,1-11.6-1.771,13.024,13.024,0,0,1-3.2-1.85,2.4,2.4,0,0,1-.682-1.587,1.064,1.064,0,0,1,1.312-1.207c5.365.315,10.73.617,16.1,1a5.706,5.706,0,0,1,3.529,1.312,1.745,1.745,0,0,1,.118,2.82,4.6,4.6,0,0,1-3.214,1.312C139.365,462.2,138.6,462.158,137.831,462.158Z" transform="translate(38.16 142.083)"/>
      <path id="Path_191" data-name="Path 191" class="cls-4" d="M270.25,435.614c3.319-.617,6.415-.918,9.458.446.813.367.853.735.157,1.312a5.575,5.575,0,0,1-4.3.853,7.411,7.411,0,0,1-4.867-1.955C270.578,436.112,270.486,435.942,270.25,435.614Z" transform="translate(84.273 135.649)"/>
    </g>
  </g>
</svg>
