<svg xmlns="http://www.w3.org/2000/svg" width="51.141" height="51.141" viewBox="0 0 51.141 51.141">
  <g id="facebook" transform="translate(0 0)">
    <path id="Path_488" data-name="Path 488" d="M7.491,51.141H24.172V32.962H18.179V26.969h5.993V19.478a7.5,7.5,0,0,1,7.491-7.491h7.491v5.993H33.162a3,3,0,0,0-3,3v5.993h8.719l-1,5.993h-7.72V51.141H43.65a7.5,7.5,0,0,0,7.491-7.491V7.491A7.5,7.5,0,0,0,43.65,0H7.491A7.5,7.5,0,0,0,0,7.491V43.65A7.5,7.5,0,0,0,7.491,51.141ZM3,7.491A4.5,4.5,0,0,1,7.491,3H43.65a4.5,4.5,0,0,1,4.495,4.495V43.65a4.5,4.5,0,0,1-4.495,4.495H33.162V35.959h7.262l2-11.986h-9.26v-3h8.99V8.99H31.664A10.5,10.5,0,0,0,21.176,19.478v4.495H15.183V35.959h5.993V48.145H7.491A4.5,4.5,0,0,1,3,43.65Zm0,0" fill="#f3f3f3"/>
  </g>
</svg>
