<svg xmlns="http://www.w3.org/2000/svg" width="69.609" height="51.141" viewBox="0 0 69.609 51.141">
  <g id="youtube_1_" data-name="youtube (1)" transform="translate(0 0)">
    <g id="Group_40" data-name="Group 40">
      <path id="Path_495" data-name="Path 495" d="M55.767,6.5H13.842A13.88,13.88,0,0,0,0,20.385v23.37A13.879,13.879,0,0,0,13.842,57.64H55.767A13.88,13.88,0,0,0,69.609,43.755V20.385A13.88,13.88,0,0,0,55.767,6.5Zm11,37.257a11.035,11.035,0,0,1-11,11.044H13.842a11.036,11.036,0,0,1-11-11.044V20.385a11.036,11.036,0,0,1,11-11.044H55.767a11.036,11.036,0,0,1,11,11.044Z" transform="translate(0 -6.5)" fill="#fff"/>
      <path id="Path_496" data-name="Path 496" d="M39.82,27.609,20.138,16.081A1.42,1.42,0,0,0,18,17.306V40.361a1.42,1.42,0,0,0,2.138,1.226L39.82,30.062a1.422,1.422,0,0,0,0-2.453ZM20.841,37.882v-18.1l15.45,9.051Z" transform="translate(7.571 -2.552)" fill="#fff"/>
    </g>
  </g>
</svg>
