<svg xmlns="http://www.w3.org/2000/svg" width="51.141" height="51.141" viewBox="0 0 51.141 51.141">
  <g id="instagram" transform="translate(0 0)">
    <path id="Path_489" data-name="Path 489" d="M7.491,51.141H43.65a7.5,7.5,0,0,0,7.491-7.491V7.491A7.5,7.5,0,0,0,43.65,0H7.491A7.5,7.5,0,0,0,0,7.491V43.65A7.5,7.5,0,0,0,7.491,51.141ZM3,7.491A4.5,4.5,0,0,1,7.491,3H43.65a4.5,4.5,0,0,1,4.495,4.495V43.65a4.5,4.5,0,0,1-4.495,4.495H7.491A4.5,4.5,0,0,1,3,43.65Zm0,0" fill="#f3f3f3"/>
    <path id="Path_490" data-name="Path 490" d="M134.484,147.969A13.484,13.484,0,1,0,121,134.484,13.5,13.5,0,0,0,134.484,147.969Zm0-23.972A10.488,10.488,0,1,1,124,134.484,10.5,10.5,0,0,1,134.484,124Zm0,0" transform="translate(-108.914 -108.914)" fill="#f3f3f3"/>
    <path id="Path_491" data-name="Path 491" d="M365.495,69.99A4.495,4.495,0,1,0,361,65.495,4.5,4.5,0,0,0,365.495,69.99Zm0-5.993a1.5,1.5,0,1,1-1.5,1.5A1.5,1.5,0,0,1,365.495,64Zm0,0" transform="translate(-324.942 -54.907)" fill="#f3f3f3"/>
  </g>
</svg>
