<svg xmlns="http://www.w3.org/2000/svg" width="217.791" height="55.481" viewBox="0 0 217.791 55.481">
  <g id="anima_logo" data-name="anima logo" transform="translate(0.027)">
    <g id="anima">
      <path id="Path_439" data-name="Path 439" d="M371.88,48.19q2.777-5.563,5.576-11.123c.775-1.554,1.48-3.143,2.325-4.658a1.855,1.855,0,0,1,1.306-.871c3.091-.074,6.186-.039,9.577-.039-1.928,9.068-3.827,17.992-5.746,26.99h-6.935c1.506-6.347,3-12.624,4.488-18.915l-.34-.148c-.253.483-.514.958-.749,1.445-2.621,5.494-5.285,10.957-7.845,16.451a1.86,1.86,0,0,1-2.085,1.306c-1.506-.1-3.047-.026-4.754-.026-.37-6.53-.74-12.955-1.106-19.389l-.326-.057c-1.206,6.421-2.412,12.846-3.635,19.354H354.68c1.563-7.4,3.1-14.714,4.654-22.032A32.689,32.689,0,0,0,360.065,33c.113-1.184.579-1.532,1.741-1.5,2.864.087,5.733.026,8.706.026.348,5.637.688,11.127,1.027,16.616Z" transform="translate(-200.295 -17.782)" fill="#dd534a"/>
      <path id="Path_440" data-name="Path 440" d="M257.337,58.288h-7.8c.871-4.2,1.741-8.315,2.612-12.424.949-4.458,1.968-8.9,2.843-13.373.209-1.067.64-1.306,1.606-1.267,2.116.078,4.715-.675,6.221.3s1.872,3.618,2.7,5.546c1.363,3.178,2.686,6.373,4.375,9.577,1.071-5.054,2.146-10.113,3.239-15.28h7.836c-1.9,8.972-3.8,17.9-5.725,26.99-2.412,0-4.789.052-7.178-.048-.4,0-.953-.605-1.149-1.053-1.876-4.331-3.687-8.706-5.524-13.038-.161-.392-.37-.757-.71-1.441Z" transform="translate(-140.925 -17.516)" fill="#dd534a"/>
      <path id="Path_441" data-name="Path 441" d="M452.317,31.469l10.069,27.095c-2.817,0-5.411.048-8-.052-.37,0-.871-.662-1.04-1.119-1.093-3.117-1.067-3.126-4.353-3.126-1.576,0-3.156.07-4.728-.022a1.442,1.442,0,0,0-1.772,1.367,28.957,28.957,0,0,1-.849,2.873H433.18c1.027-2.795,2.024-5.529,3.047-8.271,2.177-5.794,4.353-11.575,6.465-17.382.37-1.01.805-1.454,1.959-1.406C447.136,31.543,449.644,31.469,452.317,31.469Zm-4.479,7.683h-.34l-2.764,9.2h5.859C449.644,45.23,448.743,42.191,447.837,39.152Z" transform="translate(-244.622 -17.743)" fill="#dd534a"/>
      <path id="Path_442" data-name="Path 442" d="M201.7,31.475,205.951,58.5h-8.084c-.152-1.332-.3-2.655-.483-4.218-2.738,0-5.489-.039-8.241.052-.353,0-.871.653-.993,1.084-.679,2.782-2.455,3.539-5.132,3.191a43.3,43.3,0,0,0-5.3-.039c1.223-2.229,2.3-4.214,3.4-6.182,3.639-6.53,7.3-13.09,10.922-19.651a2.036,2.036,0,0,1,2.116-1.306C196.591,31.554,199.042,31.475,201.7,31.475Zm-5.572,7.644-.353-.065c-1.389,3.073-2.825,6.121-4.3,9.307h5.442C196.648,45.214,196.391,42.167,196.125,39.12Z" transform="translate(-100.37 -17.75)" fill="#dd534a"/>
      <path id="Path_443" data-name="Path 443" d="M330.919,58.549H322.5c.871-4.2,1.706-8.315,2.577-12.428.936-4.449,1.915-8.894,2.843-13.347.157-.753.279-1.306,1.271-1.284,2.386.061,4.789,0,7.444,0C334.715,40.6,332.822,49.559,330.919,58.549Z" transform="translate(-182.123 -17.781)" fill="#dd534a"/>
    </g>
    <path id="Path_444" data-name="Path 444" d="M35.93,78.341c-.461,2.612.771,4.405,2.516,6.238a5.307,5.307,0,0,1,1.219,4.088c-.871,4.166-3.975,6.29-8.271,5.894a43.345,43.345,0,0,1-18.035-5.838,7.344,7.344,0,0,1-2.83-9.825,4.71,4.71,0,0,1,2.96-2.12c2.69-.435,4.728-1.376,5.968-4A5.527,5.527,0,0,1,25.674,69.4a27.987,27.987,0,0,1,7.148,2.3C35.378,72.956,36.1,74.993,35.93,78.341Z" transform="translate(-5.473 -39.127)" fill="#dd534a"/>
    <path id="Path_445" data-name="Path 445" d="M46.6.675c-.5,1.367-1,2.729-1.489,4.066,3.883,2.1,3.918,2.333,2.22,6.382a8.558,8.558,0,0,0-.483,3.3c.044,4.327-1.084,5.89-4.41,5.873-3.517,0-6.552-2.925-6.007-6.382a15.106,15.106,0,0,1,2.782-6.007,76.824,76.824,0,0,1,5.267-5.933A13.021,13.021,0,0,0,45.691,0Z" transform="translate(-20.549)" fill="#dd534a"/>
    <path id="Path_446" data-name="Path 446" d="M74.482,14.648c.383-1.6.723-3.047,1.062-4.458h.788c.435,4.832,1.393,9.682,1.2,14.483-.17,4.253-5.267,6.438-8.928,4.423-2.69-1.48-3.256-3.957-1.741-6.63a32.527,32.527,0,0,0,2.612-5.79C70.3,14.069,71.879,13.507,74.482,14.648Z" transform="translate(-37.303 -5.754)" fill="#dd534a"/>
    <path id="Path_447" data-name="Path 447" d="M93.223,60.172c.71-1.415,1.206-2.394,2.024-4.022a10.683,10.683,0,0,1,.2,2.177,80.788,80.788,0,0,1-1.868,9.142c-1.432,4.614-5.167,6.739-8.907,5.537a5.68,5.68,0,0,1-4.031-4.693c-.435-2.294,1.006-3.522,2.725-4.606a40.131,40.131,0,0,0,4.327-2.93C89.366,59.38,91.021,58.536,93.223,60.172Z" transform="translate(-45.505 -31.707)" fill="#dd534a"/>
    <path id="Path_448" data-name="Path 448" d="M4.83,26.54c-.235,1.48-.392,2.464-.592,3.709,3.391-.7,4.353,1.467,5.037,4.092a33.869,33.869,0,0,0,1.741,4.353c.779,1.854,1.267,3.774-.309,5.368a5.807,5.807,0,0,1-6.029,1.532,6.425,6.425,0,0,1-4.553-7.57C.855,34.415,2.449,30.985,3.7,27.489,3.794,27.232,4.168,27.08,4.83,26.54Z" transform="translate(0 -14.987)" fill="#dd534a"/>
  </g>
</svg>
